<svg width="284" height="234" viewBox="0 0 284 234" fill="none" xmlns="http://www.w3.org/2000/svg">
<path d="M70.1423 106.207C69.9265 107.394 68.7012 108.111 68.1281 109.114C67.3556 110.466 66.5664 111.476 65.4677 112.592C62.1186 115.993 58.4705 119.324 55.3204 122.891C49.8614 129.072 45.8262 136.213 42.7787 143.832" stroke="black" stroke-width="1.81681" stroke-linecap="round"/>
<path d="M74.5892 82.6057C74.4718 80.4923 71.6007 78.5623 70.1426 77.285C65.8162 73.4949 62.2859 69.2999 59.0451 64.5533C57.48 62.2609 56.367 59.7666 55.5867 57.1043C54.7206 54.1494 56.7155 54.5579 58.9881 54.5579C67.5098 54.5579 75.9027 55.9056 84.3945 56.3822C90.9085 56.7478 97.4571 56.2655 103.891 55.166C105.792 54.8412 109.839 53.7691 111.15 52.2396C111.469 51.868 109.057 51.3659 108.946 51.3275C107.251 50.7403 105.693 49.7511 104.043 49.0472C100.323 47.4599 97.4146 46.1691 94.7509 43.0614C92.2588 40.154 89.5725 37.3442 87.2069 34.3392C86.4101 33.3271 86.0062 32.81 85.8577 31.6219C85.6739 30.1516 85.5211 30.1844 87.3209 30.0067C91.4744 29.5964 95.813 29.9306 99.9766 29.9306C106.971 29.9306 113.913 29.9968 120.879 29.2466C124.485 28.8583 128.178 28.2676 131.692 27.3653C135.822 26.3048 140.089 25.9007 144.253 24.952C151.17 23.3759 158.148 21.8315 165.041 20.2014C168.639 19.3505 171.919 18.3289 175.645 18.3011C180.464 18.2651 185.246 18.3192 190.011 19.1562C196.572 20.3088 201.761 24.2592 207.569 27.1183C210.22 28.4236 212.672 30.1653 215.436 31.2228C219.492 32.7747 223.925 33.849 228.13 34.9093C233.48 36.2585 238.52 38.5104 243.845 39.812C247.633 40.738 251.408 41.7092 255.208 42.5863C257.632 43.1457 260.086 43.4921 262.524 43.9355C263.779 44.1636 262.049 45.6714 261.612 46.0828C257.65 49.8155 251.767 51.8392 246.79 53.7978C240.033 56.457 232.82 57.5423 225.906 59.6696C224.611 60.0681 223.878 60.6423 222.752 61.2278C222.246 61.4911 218.582 62.1997 219.959 61.7409" stroke="black" stroke-width="1.81681" stroke-linecap="round"/>
<path d="M232.272 58.6625C232.891 59.6194 234.15 60.1107 235.085 60.7147C237.036 61.9758 239.084 63.1922 241.184 64.1922C244.334 65.6918 247.633 66.503 251.028 67.2136C254.943 68.0331 258.58 69.5951 262.372 70.8241C265.813 71.9392 269.372 72.6001 272.9 73.3704C273.337 73.4659 274.909 73.4739 275.009 74.0735C275.192 75.1726 273.911 76.4901 273.356 77.323C272.184 79.0799 271.016 80.7642 269.631 82.3586C263.55 89.3607 257.024 96.3396 249.394 101.608C246.047 103.919 242.682 106.536 239.607 109.209C236.47 111.937 232.651 113.821 229.194 116.126" stroke="black" stroke-width="1.81681" stroke-linecap="round"/>
<path d="M245.27 105.865C249.312 110.513 250.794 117.758 251.94 123.613C253.4 131.075 254.354 138.902 253.821 146.492C253.328 153.523 251.128 160.714 247.17 166.597C246.325 167.853 245.383 168.687 244.776 170.132C243.708 172.672 242.738 175.181 242.001 177.847C241.36 180.168 240.293 183.487 241.849 185.562" stroke="black" stroke-width="1.81681" stroke-linecap="round"/>
<path d="M254.163 146.226C255.896 149.693 257.263 153.266 258.742 156.849C260.477 161.05 262.4 164.972 263.702 169.352C264.459 171.898 265.416 174.383 265.868 177.01C266.782 182.315 266.796 187.834 266.818 193.2C266.86 203.333 266.749 213.579 261.631 222.597C260.055 225.373 258.527 227.924 255.759 229.609C254.134 230.598 251.876 230.675 250.058 231.053" stroke="black" stroke-width="1.81681" stroke-linecap="round"/>
<path d="M62.6177 131.86C60.9638 135.168 59.4895 138.525 57.734 141.799C56.4775 144.142 55.9529 146.485 55.2637 149.039C54.6471 151.324 53.4544 153.435 53.0784 155.784C52.2901 160.711 52.3636 165.55 53.2684 170.473C54.5394 177.389 59.4644 183.434 64.3279 188.298" stroke="black" stroke-width="1.81681" stroke-linecap="round"/>
<path d="M53.0402 172.906C51.3914 176.661 51.33 181.786 51.33 185.885C51.33 189.195 51.3688 192.561 52.014 195.823C53.2642 202.143 56.3224 207.387 60.4322 212.222C61.097 213.004 62.1769 213.721 63.0355 214.293C65.2521 215.771 66.4378 217.642 68.1282 219.614C70.4139 222.281 74.2913 224.064 77.3254 225.581" stroke="black" stroke-width="1.81681" stroke-linecap="round"/>
<path d="M52.0141 199.927C51.0559 199.821 50.1494 198.842 49.1828 198.578C44.4597 197.29 38.6661 198.365 34.7978 201.182C32.7316 202.686 31.1459 204.535 29.2491 206.198C28.0955 207.21 26.7639 207.954 25.6576 209.03C22.6048 211.998 19.4974 213.883 15.5103 215.434C13.03 216.398 10.1308 216.052 7.5102 216.004C6.29997 215.981 8.11649 215.966 8.44133 216.042C9.60732 216.313 10.6433 216.704 11.5007 217.562C14.7357 220.797 3.53453 220.853 2.49353 221.894C-0.685628 225.074 6.52092 225.239 8.06128 225.239C17.4261 225.239 26.809 224.897 36.185 224.897C40.638 224.897 45.0909 224.897 49.5438 224.897C52.233 224.897 55.1 225.173 57.7529 224.631C59.3344 224.307 61.1741 219.92 60.5653 218.398" stroke="black" stroke-width="1.81681" stroke-linecap="round"/>
<path d="M48.5937 197.191C48.1768 193.856 36.7891 194.845 35.1019 195.101C32.2134 195.539 31.289 196.249 30.2752 198.749C30.0902 199.205 28.7238 201.653 29.4391 201.296" stroke="black" stroke-width="1.81681" stroke-linecap="round"/>
<path d="M48.2519 195.481C45.839 193.573 43.2638 191.103 40.0618 190.711C37.5957 190.409 34.0657 190.638 32.1758 190.008" stroke="black" stroke-width="1.81681" stroke-linecap="round"/>
<path d="M54.4087 197.191C53.6235 196.955 52.9949 195.701 52.5464 195.12C50.7085 192.739 48.9313 190.051 46.5036 188.222C44.9055 187.017 40.7891 184.152 38.6746 185.561" stroke="black" stroke-width="1.81681" stroke-linecap="round"/>
<path d="M66.3801 221.476C67.2683 226.361 76.4868 222.921 79.5299 222.084C80.7667 221.744 81.7147 221.302 82.7983 220.64C84.347 219.694 86.2415 219.462 87.891 218.74C90.287 217.692 93.1155 218.003 95.682 218.056C98.3981 218.112 100.293 218.815 102.181 220.678C103.159 221.644 104.322 222.491 105.202 223.548C105.718 224.166 105.545 225.362 105.886 226.113C108.004 230.772 79.8456 231.186 76.5275 230.978C74.2306 230.833 72.9987 230.327 71.8719 228.355C71.3574 227.455 70.7565 226.234 71.4158 225.22C72.1766 224.049 74.8551 222.844 76.2995 222.844" stroke="black" stroke-width="1.81681" stroke-linecap="round"/>
<path d="M140.604 227.633C143.21 224.049 148.179 223.15 152.214 222.35C157.549 221.294 162.098 221.785 167.511 222.16C171.176 222.415 175.645 222.078 179.217 223.206C181.152 223.817 181.338 224.955 181.307 226.835C181.261 229.673 180.405 229.737 177.849 230.351C172.915 231.535 167.255 231.396 162.191 231.396C156.168 231.396 149.89 231.953 143.91 231.206C142.414 231.019 137.727 230.852 139.92 228.659" stroke="black" stroke-width="1.81681" stroke-linecap="round"/>
<path d="M143.34 225.581C143.34 221.875 139.181 218.704 136.765 216.27C135.065 214.557 133.31 212.794 131.482 211.215C130.035 209.964 128.304 209.13 126.922 207.794C120.768 201.849 115.371 195.116 109.819 188.64" stroke="black" stroke-width="1.81681" stroke-linecap="round"/>
<path d="M85.1927 120.231C84.588 121.516 84.4032 123.017 84.0146 124.373C83.3135 126.82 82.2601 129.208 81.7723 131.708C80.8373 136.5 79.9005 141.168 79.739 146.093C79.5492 151.882 80.7142 157.287 81.7723 162.948C83.3716 171.507 89.0158 181.858 97.1643 185.561" stroke="black" stroke-width="1.81681" stroke-linecap="round"/>
<path d="M98.8744 151.015C98.8744 156.403 99.291 160.801 101.991 165.571C103.397 168.055 105.089 170.366 106.855 172.602C108.257 174.375 109.483 176.459 111.226 177.922C115.787 181.754 120.187 185.789 124.946 189.381C130.824 193.818 136.873 199.585 144.709 199.585" stroke="black" stroke-width="1.81681" stroke-linecap="round"/>
<path d="M125.212 139.727C125.212 142.081 125.251 144.43 125.649 146.758C126.544 151.997 129.892 156.368 133.573 160.06C137.991 164.492 143.474 167.497 149.307 169.637C150.76 170.171 152.072 170.512 153.602 170.512" stroke="black" stroke-width="1.81681" stroke-linecap="round"/>
<path d="M147.445 156.488C149.876 160.667 152.306 165.279 155.54 168.896C157.381 170.956 159.64 171.101 162.153 171.538" stroke="black" stroke-width="1.81681" stroke-linecap="round"/>
<path d="M160.101 158.198C160.697 158.496 161.267 159.298 161.678 159.699C165.279 163.212 169.132 166.634 173.213 169.58C180.874 175.113 189.49 179.337 197.384 184.535" stroke="black" stroke-width="1.81681" stroke-linecap="round"/>
<path d="M201.488 156.488C201.38 161.165 199.68 166.051 197.099 169.942C195.291 172.667 192.685 176.683 189.859 178.379" stroke="black" stroke-width="1.81681" stroke-linecap="round"/>
<path d="M213.46 143.832C213.941 147.685 214.21 151.418 214.03 155.309C213.774 160.828 212.41 164.445 208.937 168.744C206.536 171.716 203.94 174.739 201.032 177.238C199.482 178.571 199.065 178.457 197.383 178.036" stroke="black" stroke-width="1.81681" stroke-linecap="round"/>
<path d="M210.381 132.544C213.86 137.764 220.048 140.396 226.115 139.385" stroke="black" stroke-width="1.81681" stroke-linecap="round"/>
<path d="M214.144 144.174C215.831 145.861 222.26 144.475 224.253 144.174C228.032 143.604 230.921 141.473 233.983 139.385" stroke="black" stroke-width="1.81681" stroke-linecap="round"/>
<path d="M241.849 127.072C244.797 135.007 245.254 142.728 243.712 151.167C242.038 160.323 235.378 167.863 230.22 175.3" stroke="black" stroke-width="1.81681" stroke-linecap="round"/>
<path d="M221.669 165.039C216.224 176.146 210.607 188.291 202.21 197.476C196.976 203.203 190.074 207.395 183.474 211.329C178.851 214.084 174.297 216.139 169.336 218.056" stroke="black" stroke-width="1.81681" stroke-linecap="round"/>
<path d="M230.904 173.932C230.178 179.74 226.366 185.605 223.778 190.73C221.07 196.095 217.046 201.444 212.7 205.59C208.48 209.616 203.849 213.236 200.025 217.676C196.755 221.474 193.373 224.492 189.175 227.291" stroke="black" stroke-width="1.81681" stroke-linecap="round"/>
<path d="M172.414 224.555C172.541 223.538 177.446 222.693 178.229 222.578C181.271 222.132 184.337 222.114 187.388 221.742C191.483 221.243 198.162 219.098 199.018 224.555C199.384 226.889 197.193 228.256 195.445 229.343C192.428 231.22 188.297 231.396 184.842 231.396C182.37 231.396 177.07 232.101 175.417 229.875C173.919 227.859 172.663 226.746 174.125 224.555" stroke="black" stroke-width="1.81681" stroke-linecap="round"/>
<path d="M211.065 228.317C211.065 225.853 211.464 223.586 213.08 221.59C215.658 218.405 220.585 216.023 224.652 215.662C229.595 215.222 234.778 214.404 238.695 218.322C239.923 219.55 240.79 221.164 241.089 222.921C241.406 224.779 238.687 226.483 237.555 227.481C235.896 228.943 233.762 231.397 231.417 231.7C226.392 232.348 221.138 232.422 216.082 232.422C212.353 232.422 209.498 231.466 205.935 230.37" stroke="black" stroke-width="1.81681" stroke-linecap="round"/>
<path d="M197.383 229.001C200.48 227.84 203.676 227.291 206.961 227.291" stroke="black" stroke-width="1.81681" stroke-linecap="round"/>
<path d="M113.583 226.607C113.973 225.047 127.821 226.265 129.545 226.265C132.197 226.265 134.784 226.704 137.412 227.025C138.396 227.145 139.266 227.633 140.262 227.633" stroke="black" stroke-width="1.81681" stroke-linecap="round"/>
<path d="M83.1399 95.9456C85.3617 96.1475 87.7659 97.9267 89.5818 99.1C92.2758 100.841 94.9291 102.615 97.9239 103.813C101.778 105.354 105.828 106.112 109.61 107.86C116.403 110.999 123.352 113.7 130.114 116.886C140.76 121.902 153.009 122.458 164.547 122.967" stroke="black" stroke-width="1.81681" stroke-linecap="round"/>
<path d="M51.33 81.5797C62.1173 81.5797 73.0316 82.4342 83.7863 81.4657C88.6371 81.0288 94.1997 80.7436 98.8743 79.1854" stroke="black" stroke-width="1.81681" stroke-linecap="round"/>
<path d="M66.3801 90.8149C69.7043 90.4983 73.0308 89.7105 76.2614 88.9336C90.3207 85.5528 104.172 81.5444 118.029 77.4751" stroke="black" stroke-width="1.81681" stroke-linecap="round"/>
<path d="M121.107 96.9717C120.403 98.682 118.558 100.287 117.345 101.532C112.718 106.282 107.832 110.628 102.276 114.264C97.4604 117.415 92.3561 119.844 87.1876 122.34C85.082 123.357 82.9683 124.621 80.7457 125.361" stroke="black" stroke-width="1.81681" stroke-linecap="round"/>
<path d="M137.526 111.68C131.62 117.311 124.433 121.917 117.269 125.742C112.547 128.263 107.534 130.396 102.295 131.518" stroke="black" stroke-width="1.81681" stroke-linecap="round"/>
<path d="M206.277 102.102C208.943 104.684 211.407 107.847 211.407 111.68" stroke="black" stroke-width="1.81681" stroke-linecap="round"/>
<path d="M218.59 93.2091C222.601 95.6707 225.68 98.7578 230.163 100.544C233.427 101.845 236.814 102.704 240.139 103.813" stroke="black" stroke-width="1.81681" stroke-linecap="round"/>
<path d="M232.956 88.7625C236.984 92.8888 243.664 94.1399 249.013 95.4134C255.071 96.8557 260.964 97.6557 267.161 97.6557" stroke="black" stroke-width="1.81681" stroke-linecap="round"/>
<path d="M172.072 48.7433C175.066 54.8958 174.809 62.224 174.809 68.924" stroke="black" stroke-width="1.81681" stroke-linecap="round"/>
<path d="M178.913 55.5841C180.409 60.598 181.461 65.608 181.935 70.8241C182.007 71.6205 182.038 71.7622 181.65 72.3443" stroke="black" stroke-width="1.81681" stroke-linecap="round"/>
<path d="M157.022 23.4319C157.232 22.5924 157.946 21.9241 158.466 21.2656C160.138 19.1485 161.707 16.9489 163.597 15.0138C169.114 9.36487 176.54 4.04233 184.044 1.54095" stroke="black" stroke-width="1.81681" stroke-linecap="round"/>
<path d="M170.02 17.959C173.733 15.1742 180.096 14.4114 184.386 13.3224C189.09 12.1284 193.359 10.8887 198.068 12.1443" stroke="black" stroke-width="1.81681" stroke-linecap="round"/>
<path d="M176.861 23.7738C178.502 22.68 182.065 23.9211 183.74 24.2869C186.035 24.7882 187.22 25.5817 188.833 27.1943" stroke="black" stroke-width="1.81681" stroke-linecap="round"/>
<path d="M135.859 95.8893C144.327 92.6289 153.141 89.5118 162.223 88.585" stroke="black" stroke-width="1.81681" stroke-linecap="round"/>
<path d="M146.359 100.797C147.627 100.681 149.058 99.1519 149.935 98.4C152.551 96.1563 154.921 93.6573 157.658 91.5523" stroke="black" stroke-width="1.81681" stroke-linecap="round"/>
<path d="M154.006 108.329C158.272 104.33 162.137 99.9436 166.674 96.2316" stroke="black" stroke-width="1.81681" stroke-linecap="round"/>
<path d="M188.701 94.063C191.838 96.0236 193.241 99.8044 194.864 102.965" stroke="black" stroke-width="1.81681" stroke-linecap="round"/>
<path d="M186.875 89.8404C190.496 90.6263 194.062 92.3592 197.349 94.0251C199.79 95.2619 202.297 96.5643 204.337 98.4" stroke="black" stroke-width="1.81681" stroke-linecap="round"/>
<path d="M188.701 88.0143C191.308 87.4795 193.837 88.0501 196.246 89.0921C199.468 90.4859 202.65 92.1397 205.592 94.0631" stroke="black" stroke-width="1.81681" stroke-linecap="round"/>
<path d="M167.244 97.1446C168.945 95.5179 171.268 94.4604 173.42 93.5686C175.119 92.8645 176.942 92.4408 178.733 92.0659C179.59 91.8865 181.254 91.4823 181.852 92.2941M184.205 105.343C183.335 106.077 182.485 106.608 181.447 107.074C180.608 107.45 179.699 108.048 178.828 108.317" stroke="black" stroke-width="1.81681" stroke-linecap="round"/>
<path d="M180.255 105.362C180.65 106.943 181.396 108.26 181.396 109.927" stroke="black" stroke-width="1.81681" stroke-linecap="round"/>
<path d="M182.994 103.764C183.503 104.394 183.955 105.065 184.452 105.704C184.669 105.982 185.215 106.46 185.27 106.846C185.32 107.195 185.391 107.519 185.391 107.873" stroke="black" stroke-width="1.81681" stroke-linecap="round"/>
<path d="M177.402 119.628C177.325 120.511 176.686 121.368 176.229 122.082C175.179 123.72 173.881 124.98 172.393 126.222C169.724 128.449 166.956 130.279 163.706 131.497" stroke="black" stroke-width="1.81681" stroke-linecap="round"/>
<path d="M180.94 118.943C181.814 119.173 182.477 119.735 183.134 120.319C184.007 121.095 185.019 121.512 186.063 121.999C188.745 123.251 191.434 124.381 194.255 125.296C196.499 126.024 198.575 126.678 200.951 126.869C203.07 127.039 205.065 127.324 207.19 127.16" stroke="black" stroke-width="1.81681" stroke-linecap="round"/>
<path d="M204.337 117.003C204.393 117.68 205.036 118.549 205.592 118.905C207.912 120.393 211.282 120.089 213.898 120.446C215.629 120.682 217.596 120.938 219.237 121.574C220.248 121.967 221.174 122.176 222.255 122.253" stroke="black" stroke-width="1.81681" stroke-linecap="round"/>
<path d="M232.754 115.633C231.767 117.66 229.755 119.411 228.056 120.826C227.61 121.198 226.688 122.139 226.021 122.139" stroke="black" stroke-width="1.81681" stroke-linecap="round"/>
<path d="M193.494 143.481C194.161 144.148 194.464 144.9 194.775 145.789C195.247 147.136 195.899 148.508 196.183 149.91C196.263 150.307 196.431 151.828 196.005 152.041" stroke="black" stroke-width="1.81681" stroke-linecap="round"/>
<path d="M191.668 147.133C191.754 149.365 192.099 151.573 191.554 153.752" stroke="black" stroke-width="1.81681" stroke-linecap="round"/>
<path d="M131.75 62.3354C132.506 62.3564 132.816 62.6225 133.481 62.8997C134.321 63.2497 135.178 63.5431 136.024 63.8761C137.428 64.4295 138.716 65.2003 140.113 65.7592C140.941 66.0904 141.709 66.6097 142.542 66.9639C143.64 67.4308 144.715 67.9462 145.813 68.4096C148.106 69.3767 150.664 69.8442 153.105 70.2737C154.514 70.5216 155.899 70.8658 157.296 71.174C158.236 71.3814 159.2 71.4576 160.13 71.7003C162.203 72.2411 164.365 72.3991 166.471 72.7782C168.254 73.0992 170.067 73.4069 171.86 73.6595C173.177 73.845 174.337 74.3189 175.677 74.3189C180.125 74.3189 184.395 73.2061 188.656 72.0363C190.201 71.6123 191.66 71.0127 193.164 70.4639C194.715 69.8979 196.385 69.5257 197.881 68.8154C198.923 68.3209 200.042 67.9733 201.128 67.5916C202.392 67.1476 203.54 66.4677 204.799 66.0319C206.746 65.3579 208.694 64.6874 210.677 64.098C211.946 63.7207 213.105 62.9601 214.354 62.5383C215.547 62.1355 216.75 61.7751 217.917 61.3082" stroke="black" stroke-width="1.81681" stroke-linecap="round"/>
<path d="M151.267 65.3029C152.421 65.4128 153.625 66.2176 154.678 66.647C158.227 68.0948 162.081 68.6159 165.742 69.7031C167.631 70.2642 169.198 71.251 170.992 71.9794C172.846 72.732 174.629 72.9763 176.604 73.1777" stroke="black" stroke-width="1.81681" stroke-linecap="round"/>
<path d="M198.516 64.7321C198.06 65.0974 197.476 65.3628 196.969 65.6325C194.285 67.0606 191.576 68.0089 188.688 68.9549C183.929 70.5141 179.308 72.3347 174.435 73.52" stroke="black" stroke-width="1.81681" stroke-linecap="round"/>
<path d="M144.875 69.2971C144.875 70.3361 145.647 71.0454 145.877 72.0108C145.993 72.4977 146.598 73.3449 146.999 73.6847C147.635 74.2226 148.265 74.3948 148.99 74.7816C150.6 75.6402 152.423 75.8717 154.196 75.5171C155.886 75.1791 158.606 74.8993 159.256 72.9492" stroke="black" stroke-width="1.81681" stroke-linecap="round"/>
<path d="M185.734 73.2917C186.641 74.1485 187.789 75.2781 189.018 75.5743C191.014 76.0554 193.191 76.2302 195.206 75.6884C195.834 75.5197 196.678 75.459 197.165 74.9719C197.751 74.3864 198.269 73.7375 198.833 73.1522C199.668 72.2854 200.335 70.9295 200.57 69.7537" stroke="black" stroke-width="1.81681" stroke-linecap="round"/>
<path d="M150.354 71.2374C149.972 71.2374 150.498 71.5554 150.652 71.5735C150.786 71.5893 151.836 71.4853 151.368 71.3516C151.159 71.2917 149.391 70.949 150.252 71.6876C150.843 72.1936 151.308 71.2941 150.874 70.8951C150.711 70.746 149.801 70.3325 149.58 70.578C149.327 70.8597 149.68 71.2645 149.897 71.3516" stroke="black" stroke-width="1.81681" stroke-linecap="round"/>
<path d="M189.385 72.3786C189.435 72.8729 190.298 73.4398 190.298 72.6957C190.298 72.1967 188.99 71.9 189.385 72.4928" stroke="black" stroke-width="1.81681" stroke-linecap="round"/>
<path d="M168.158 80.8243C168.196 81.1279 168.317 82.6385 168.868 82.2129C169.271 81.901 169.58 81.1405 169.698 82.0353C169.728 82.2601 169.873 83.789 169.965 83.6648C170.219 83.3204 170.517 82.5205 170.96 82.3841C171.153 82.3249 171.275 83.1114 171.328 83.2464C171.442 83.5371 171.762 82.9451 171.873 82.8659C172.052 82.7379 172.2 84.0491 172.38 84.1847C172.777 84.4823 173.408 81.7321 173.408 83.1893C173.408 83.7321 173.402 84.2766 173.433 84.8188C173.446 85.044 173.426 85.6377 173.585 85.4782C173.783 85.2807 173.929 84.577 174.016 84.3623C174.253 83.7812 174.49 83.1348 174.847 82.6123C175.089 82.2582 175.441 84.1918 175.506 84.4574C175.649 85.0383 175.696 84.8532 175.918 84.4193C175.978 84.3025 176.213 83.6334 176.261 84.115C176.289 84.3926 176.366 86.2992 176.584 85.7889C176.669 85.5905 177.258 83.8795 177.491 83.9311C177.695 83.9764 177.908 85.6188 177.973 85.8586C178.173 86.5984 178.754 84.8857 178.822 84.7427C178.945 84.488 179.457 82.744 179.71 83.4619C180.234 84.9503 180.003 83.094 180.56 83.0435C180.994 83.004 181.272 82.4045 181.612 82.1812C182.166 81.8175 182.401 83.1004 182.532 83.4112C182.937 84.3786 183.042 83.2826 183.172 82.7898C183.25 82.4939 183.426 82.1825 183.451 81.8768C183.471 81.631 183.702 81.4401 183.679 81.1413C183.644 80.6779 182.855 80.0113 182.589 79.721C181.932 79.0062 181.166 78.4257 180.484 77.7428C179.984 77.2436 179.608 76.7148 179.228 76.145" stroke="black" stroke-width="1.81681" stroke-linecap="round"/>
<path d="M167.701 76.145C167.483 76.5077 167.174 76.7947 166.826 77.0327C165.505 77.9355 163.995 78.6189 162.527 79.2392C160.135 80.2498 157.729 81.2999 155.248 82.0734C152.327 82.9843 149.387 83.1712 146.359 83.4492" stroke="black" stroke-width="1.81681" stroke-linecap="round"/>
<path d="M185.391 78.9982C188.119 80.6213 190.819 82.2704 193.608 83.7916" stroke="black" stroke-width="1.81681" stroke-linecap="round"/>
<path d="M187.902 84.1339C191.3 85.0078 194.67 85.8367 198.129 86.4799C201.306 87.0707 204.082 87.5725 207.297 87.7416C211.202 87.9471 214.965 87.2458 218.83 86.873" stroke="black" stroke-width="1.81681" stroke-linecap="round"/>
<path d="M171.467 75.9166C172.278 75.868 173.113 76.0271 173.908 76.1385C175.84 76.4092 177.765 76.7236 179.697 76.9945C180.302 77.0793 180.9 77.172 181.51 77.172" stroke="black" stroke-width="1.81681" stroke-linecap="round"/>
<path d="M174.549 76.7155C174.401 76.7155 174.26 76.7281 174.117 76.7725C173.951 76.8246 174.076 76.8202 174.257 76.8359C175.205 76.9184 176.16 76.9533 177.11 77.0071C177.137 77.0086 179.088 76.9636 178.099 77.3558C176.606 77.9482 174.868 77.8567 173.293 77.8567C173.258 77.8567 171.816 77.7898 172.646 77.8821C173.839 78.0146 175.045 78.1897 176.21 78.4781C177.095 78.6971 177.656 79.1122 176.489 79.1122" stroke="black" stroke-width="1.81681" stroke-linecap="round"/>
<path d="M57.8275 187.091C60.3474 195.719 62.6769 204.407 65.1215 213.057" stroke="black" stroke-width="1.81681" stroke-linecap="round"/>
<path d="M56.8064 187.966C57.3021 192.935 57.5549 196.396 58.3949 201.29C59.0324 205.004 59.7924 209.207 61.4989 212.636C62.308 214.262 63.3907 214.656 64.9757 215.1" stroke="black" stroke-width="1.81681" stroke-linecap="round"/>
<path d="M52.2839 193.51C56.2625 201.263 61.0374 209.155 67.3906 215.197C69.7492 217.44 71.2818 218.486 74.174 219.5C75.6957 220.034 76.7506 219.914 78.2505 219.914" stroke="black" stroke-width="1.81681" stroke-linecap="round"/>
<path d="M56.6604 196.427C57.413 199.236 58.1729 201.763 59.7806 204.272C63.4327 209.971 68.5911 214.448 74.3443 217.952C78.4869 220.476 82.9829 222.177 87.7409 223.017C89.6058 223.347 91.2759 223.333 93.1303 223.415" stroke="black" stroke-width="1.81681" stroke-linecap="round"/>
<path d="M74.02 192.634C74.1411 194.995 74.0812 197.865 74.952 200.09C75.0963 200.459 75.4111 200.568 75.7706 200.658" stroke="black" stroke-width="1.81681" stroke-linecap="round"/>
<path d="M80.2926 197.01C80.2926 198.782 80.7698 200.562 81.0058 202.311C81.2078 203.807 81.0504 206.064 82.0432 207.222" stroke="black" stroke-width="1.81681" stroke-linecap="round"/>
<path d="M91.0878 196.719C91.8693 198.566 92.2503 200.945 93.7136 202.408" stroke="black" stroke-width="1.81681" stroke-linecap="round"/>
<path d="M110.344 209.994C110.06 210.663 110.044 211.542 109.518 212.077C107.838 213.783 105.17 214.46 103.05 215.391" stroke="black" stroke-width="1.81681" stroke-linecap="round"/>
<path d="M67.0181 154.997C65.8435 157.607 65.9969 160.797 65.9969 163.604" stroke="black" stroke-width="1.81681" stroke-linecap="round"/>
<path d="M92.6921 165.646C93.7051 170.149 95.2383 174.353 97.7979 178.192" stroke="black" stroke-width="1.81681" stroke-linecap="round"/>
<path d="M145.205 169.137C152.656 181.401 163.967 191.037 175.592 199.172C179.063 201.601 183.015 203.654 186.155 206.552" stroke="black" stroke-width="1.81681" stroke-linecap="round"/>
<path d="M243.957 137.092C244.056 140.62 243.799 143.973 242.649 147.333C241.822 149.752 240.223 151.761 238.582 153.689C236.605 156.012 234.255 157.886 231.885 159.784C230.37 160.999 228.957 162.354 227.36 163.46" stroke="black" stroke-width="1.81681" stroke-linecap="round"/>
<path d="M237.365 162.636C237.548 167.729 237.288 172.642 239.556 177.33C239.698 177.624 242.664 182.881 243.015 182.53" stroke="black" stroke-width="1.81681" stroke-linecap="round"/>
<path d="M249.843 179.822C250.833 182.08 251.836 184.618 251.949 187.107C252.013 188.532 252.022 190.06 251.373 191.358" stroke="black" stroke-width="1.81681" stroke-linecap="round"/>
<path d="M256.317 168.992C257.657 172.717 258.77 176.412 259.567 180.3C260.857 186.587 261.217 192.841 261.078 199.245C260.986 203.468 260.846 207.763 260.005 211.919C259.738 213.243 259.268 214.772 258.645 216C257.971 217.331 257.905 216.991 257.141 218.197" stroke="black" stroke-width="1.81681" stroke-linecap="round"/>
<path d="M260.319 174.643C261.074 175.736 261.546 177.057 261.954 178.305C262.396 179.652 263.072 182.081 263.315 183.484C263.909 186.925 263.713 190.507 263.642 193.974C263.528 199.471 263.622 205.259 262.039 210.585C261.041 213.945 259.326 216.603 257.141 219.256" stroke="black" stroke-width="1.81681" stroke-linecap="round"/>
<path d="M261.614 183.589C261.734 188.261 261.095 192.869 260.312 197.466C259.783 200.575 259.117 203.518 258.161 206.517C257.361 209.026 256.816 211.603 256.029 214.116C254.777 218.114 253.214 221.959 250.862 225.443C249.977 226.755 248.967 228.293 247.599 229.151C245.297 230.596 242.778 230.81 240.19 231.263" stroke="black" stroke-width="1.81681" stroke-linecap="round"/>
<path d="M258.671 216.078C258.898 217.841 258.376 219.213 257.455 220.754C255.622 223.821 252.57 225.065 249.359 226.319C247.313 227.118 245.408 227.456 243.231 227.49C242.922 227.495 242.089 227.63 241.838 227.379" stroke="black" stroke-width="1.81681" stroke-linecap="round"/>
<path d="M257.965 217.961C257.806 220.163 256.389 221.822 254.885 223.35C252.094 226.186 248.878 227.27 245.056 228.085C242.436 228.644 239.791 228.906 237.123 229.079C236.768 229.102 236.172 229.316 236.07 228.909" stroke="black" stroke-width="1.81681" stroke-linecap="round"/>
<path d="M255.139 218.55C253.711 219.978 251.876 220.983 250.091 221.885C246.866 223.515 243.489 224.87 239.98 225.744C238.362 226.147 236.695 226.56 235.036 226.764C234.603 226.817 234.822 226.748 235.01 226.672" stroke="black" stroke-width="1.81681" stroke-linecap="round"/>
<path d="M260.908 219.61C261.183 220.964 260.508 221.936 259.665 223.01C259.025 223.826 257.021 226.033 256.186 226.659C253.379 228.763 249.527 229.08 246.213 229.655C242.626 230.276 238.956 231.011 235.311 231.244C235.098 231.257 234.522 231.398 234.775 231.146" stroke="black" stroke-width="1.81681" stroke-linecap="round"/>
<path d="M239.719 194.419C240.195 194.759 240.338 195.619 240.438 196.119C240.666 197.253 240.804 198.477 240.778 199.637C240.769 200.055 240.507 201.952 240.072 201.952" stroke="black" stroke-width="1.81681" stroke-linecap="round"/>
<path d="M244.546 193.477C245.727 195.544 246.428 198.051 246.782 200.389C246.932 201.378 247.059 202.276 246.547 203.129" stroke="black" stroke-width="1.81681" stroke-linecap="round"/>
<path d="M218.53 219.61C220.898 220.737 222.849 223.57 223.533 226.045C224.009 227.766 224.298 229.476 224.298 231.263" stroke="black" stroke-width="1.81681" stroke-linecap="round"/>
<path d="M222.768 215.843C224.176 216.059 225.574 217.641 226.522 218.589C227.969 220.036 229.405 221.595 230.276 223.468C231.142 225.333 231.7 227.074 231.714 229.157C231.72 229.938 231.714 231.499 231.714 231.499" stroke="black" stroke-width="1.81681" stroke-linecap="round"/>
<path d="M230.067 215.843C230.5 216.872 231.486 217.809 232.198 218.655C233.191 219.832 234.353 221.048 235.011 222.461C235.643 223.82 235.79 225.427 235.952 226.895C236.078 228.036 236.139 229.177 236.214 230.321C236.227 230.52 236.366 230.853 236.188 230.675" stroke="black" stroke-width="1.81681" stroke-linecap="round"/>
<path d="M182.863 222.317C183.796 224.218 183.964 226.26 183.923 228.36C183.911 228.932 183.821 230.894 183.57 231.146" stroke="black" stroke-width="1.81681" stroke-linecap="round"/>
<path d="M189.456 222.082C190.101 222.628 190.366 224.015 190.58 224.763C191.13 226.679 191.738 228.686 191.666 230.701C191.646 231.269 191.723 232.208 191.457 232.741C191.439 232.777 191.463 232.654 191.437 232.624C191.361 232.535 191.2 232.574 191.104 232.558" stroke="black" stroke-width="1.81681" stroke-linecap="round"/>
<path d="M164.146 222.199C165.347 223.589 165.601 225.613 165.84 227.353C165.96 228.223 166.196 229.234 165.912 230.086" stroke="black" stroke-width="1.81681" stroke-linecap="round"/>
<path d="M168.973 223.847C169.707 223.847 170.142 226.797 170.215 227.287C170.307 227.894 170.905 230.554 169.679 230.204" stroke="black" stroke-width="1.81681" stroke-linecap="round"/>
<path d="M151.904 222.199C152.831 222.405 153.758 222.833 154.65 223.154C155.58 223.488 156.828 224.07 157.293 224.998C158.262 226.938 158.752 228.76 158.967 230.91" stroke="black" stroke-width="1.81681" stroke-linecap="round"/>
<path d="M146.136 225.024C147.168 224.988 148.13 225.083 149.138 225.345C150.858 225.792 151.987 226.962 153.068 228.327C154.075 229.598 154.65 230.992 155.318 232.44" stroke="black" stroke-width="1.81681" stroke-linecap="round"/>
<path d="M167.796 204.895C168.399 208.515 168.599 212.02 168.267 215.673C168.098 217.527 168.149 223.12 168.149 221.258" stroke="black" stroke-width="1.81681" stroke-linecap="round"/>
<path d="M172.857 206.426C172.775 207.902 172.305 209.297 171.968 210.729C171.443 212.96 171.143 215.205 170.464 217.399C169.915 219.172 169.326 221.259 169.326 223.023" stroke="black" stroke-width="1.81681" stroke-linecap="round"/>
<path d="M188.749 214.312C188.361 216.64 186.744 218.397 185.414 220.237C184.833 221.04 184.511 221.691 184.511 222.67" stroke="black" stroke-width="1.81681" stroke-linecap="round"/>
<path d="M81.6287 221.022C82.4669 220.703 83.9586 221.055 84.6892 221.493C85.6053 222.043 86.285 223.279 86.9847 224.056C87.6384 224.783 88.3829 225.441 89.012 226.188C89.6479 226.944 90.0611 227.931 90.6142 228.752C90.8128 229.047 91.1635 229.551 91.1635 229.851" stroke="black" stroke-width="1.81681" stroke-linecap="round"/>
<path d="M90.4572 219.492C92.4489 221.943 94.5257 224.168 95.9897 227.006C96.4114 227.824 96.8439 228.721 97.0949 229.609C97.1826 229.919 97.2885 230.793 97.4023 230.793" stroke="black" stroke-width="1.81681" stroke-linecap="round"/>
<path d="M95.5188 217.961C96.4224 218.922 97.3527 219.855 98.2524 220.819C99.3472 221.992 100.583 223.147 101.261 224.632C101.975 226.197 102.295 228.013 102.627 229.687C102.636 229.73 103.217 232.086 102.935 231.381" stroke="black" stroke-width="1.81681" stroke-linecap="round"/>
<path d="M94.2244 217.138C95.7286 217.164 97.2326 217.221 98.7367 217.255C99.9825 217.284 101.55 217.16 102.713 217.726C103.131 217.929 103.502 218.348 103.838 218.655C104.853 219.582 105.916 220.455 106.924 221.388C109.18 223.475 111.066 225.93 111.816 228.968C111.937 229.457 112.383 230.708 112.091 231.263C111.989 231.457 111.622 231.57 111.443 231.623C110.153 232.005 108.729 231.99 107.395 232.022C105.53 232.067 103.948 231.599 102.177 231.119C101.079 230.823 99.9887 230.582 98.9199 230.191C98.6792 230.103 98.475 230.086 98.2267 230.086" stroke="black" stroke-width="1.81681" stroke-linecap="round"/>
<path d="M74.3303 213.135C74.9952 214.548 76.2765 215.48 77.5152 216.379C79.1383 217.557 80.415 218.088 82.3349 218.432" stroke="black" stroke-width="1.81681" stroke-linecap="round"/>
<path d="M42.4298 212.782C41.0524 212.782 39.7235 212.807 38.3621 213.07C37.406 213.255 36.5196 213.51 35.6808 214.005C35.4566 214.137 35.2618 214.25 35.0138 214.312" stroke="black" stroke-width="1.81681" stroke-linecap="round"/>
<path d="M35.2489 217.373C38.0799 215.675 41.5929 215.904 44.7838 215.372" stroke="black" stroke-width="1.81681" stroke-linecap="round"/>
<path d="M36.6617 206.308C37.1643 206.148 37.6881 206.362 38.192 206.425C39.7392 206.619 41.3899 206.471 42.8352 207.138C43.3756 207.388 44.0353 207.609 44.4832 208.015C44.6679 208.182 44.787 208.349 45.0195 208.427" stroke="black" stroke-width="1.81681" stroke-linecap="round"/>
<path d="M47.0212 220.669C48.0025 221.51 49.6372 221.53 50.8535 221.441C51.6296 221.384 52.5624 221.367 53.1424 220.787" stroke="black" stroke-width="1.81681" stroke-linecap="round"/>
<path d="M8.41077 212.782C10.2017 212.717 11.7497 212.411 13.4332 211.814C16.2856 210.803 19.1752 210.039 21.961 208.845C26.3993 206.943 30.7841 204.48 34.0725 200.893" stroke="black" stroke-width="1.81681" stroke-linecap="round"/>
<path d="M169.763 83.2911C171.409 84.5077 172.729 85.5064 174.777 85.734" stroke="black" stroke-width="1.81681" stroke-linecap="round"/>
<path d="M169.763 82.777C170.152 83.2298 170.543 83.6687 171.02 84.0341C171.643 84.511 172.168 84.5523 172.849 84.8341" stroke="black" stroke-width="1.81681" stroke-linecap="round"/>
<path d="M168.22 83.034C170.044 84.4014 172.199 86.0453 174.521 86.3769" stroke="black" stroke-width="1.81681" stroke-linecap="round"/>
<path d="M175.934 85.6055C178.494 85.5898 180.978 85.3736 183.52 85.0912" stroke="black" stroke-width="1.81681" stroke-linecap="round"/>
<path d="M180.306 85.6055C179.437 86.1644 177.865 85.8526 176.878 85.8626C175.983 85.8716 175.156 86.1198 176.578 86.1198" stroke="black" stroke-width="1.81681" stroke-linecap="round"/>
<path d="M177.092 86.1198C177.993 85.9846 178.756 85.7075 179.392 85.0555C179.893 84.542 180.922 83.3198 181.749 83.3198C181.95 83.3198 180.337 85.2778 180.192 85.4341C179.945 85.7012 179.124 86.3968 179.449 86.2341C179.842 86.0375 180.216 85.6407 180.535 85.3483C180.782 85.1215 181.815 84.1349 181.771 84.1912C181.158 84.9737 180.142 85.54 179.328 86.0698C178.755 86.4427 177.933 87.1734 177.178 86.9341C176.856 86.8319 176.627 86.6093 176.349 86.4341C175.84 86.1133 175.08 86.1282 174.506 86.1198C173.955 86.1117 174.572 86.086 174.713 86.2055C174.968 86.4206 175.106 86.733 175.235 87.0269C175.538 87.7208 175.549 88.7047 175.549 89.4627C175.549 89.5251 175.501 90.0277 175.635 89.8698C176.239 89.1562 176.295 88.1307 176.685 87.3127C176.692 87.2983 176.963 88.7921 176.963 89.0841C176.963 89.3988 176.963 88.3301 176.963 88.1412C176.963 87.796 176.963 88.8317 176.963 89.177C176.963 89.953 177.003 89.4036 176.906 88.9912C176.834 88.6807 175.792 86.9352 175.735 87.0841C175.584 87.4797 175.893 88.2229 175.921 88.6412C175.963 89.2841 175.942 89.9269 175.999 90.5698C176.043 91.0615 176.063 91.541 176.063 92.0341C176.063 92.3211 176.063 90.9793 176.063 90.7627C176.063 90.1079 176.063 89.4531 176.063 88.7984C176.063 87.8761 176.613 90.573 176.699 91.4913C176.716 91.674 176.686 92.1677 176.806 92.3484C177.001 92.6406 176.69 91.6527 176.578 91.3198C176.052 89.7569 175.32 88.2193 174.578 86.7484C174.136 85.8732 173.5 85.2692 172.878 84.5483C171.968 83.4953 170.52 82.9768 169.378 82.234C169.231 82.1386 168.665 81.5273 169.135 81.6769C169.911 81.9238 170.996 82.3385 171.563 82.9055" stroke="black" stroke-width="1.81681" stroke-linecap="round"/>
<path d="M174.263 84.5769C175.232 84.7923 176.182 85.1202 177.142 85.3769C178.229 85.668 176.609 85.5732 176.342 85.5269C175.92 85.454 174.106 85.1074 174.134 84.5769C174.16 84.0951 175.042 84.0234 175.413 84.0698C175.714 84.1075 176.165 84.7303 176.32 84.9627" stroke="black" stroke-width="1.81681" stroke-linecap="round"/>
<path d="M176.835 84.9626C177.386 84.7932 177.909 84.2592 178.421 83.9912C179.666 83.3383 181.212 82.914 182.221 81.9055C182.451 81.6756 181.395 82.8382 181.306 82.9126C180.442 83.6405 179.497 84.3385 178.506 84.8341" stroke="black" stroke-width="1.81681" stroke-linecap="round"/>
<path d="M167.963 98.3342C168.082 97.7425 168.885 97.0026 169.313 96.6056C170.154 95.8277 171.074 95.2017 172.106 94.7056C173.796 93.8935 175.553 93.3019 177.299 92.627C177.367 92.6007 178.267 92.2009 178.292 92.3485C178.352 92.7097 176.45 93.2048 176.263 93.2628C174.153 93.9197 171.243 94.2462 169.492 95.7056C169.043 96.0798 168.694 97.194 169.535 96.0914C170.547 94.7645 171.422 93.5382 173.042 92.9199C174.996 92.1742 177.474 91.2504 179.621 91.3985C179.744 91.407 181.006 91.6573 180.706 91.777C179.997 92.0606 179.104 92.0712 178.363 92.1913C176.338 92.5198 174.23 92.8691 172.292 93.5628C171.098 93.9902 169.618 95.2963 168.992 96.4056C168.661 96.9915 169.876 95.7624 169.978 95.6485C171.191 94.2899 172.678 93.0049 174.406 92.3485C176.196 91.6686 178.622 91.5996 180.506 91.8485C180.525 91.8509 182.056 92.055 181.663 92.2628C181.489 92.3552 181.146 92.2913 180.949 92.2913" stroke="black" stroke-width="1.81681" stroke-linecap="round"/>
<path d="M133.377 62.2053C133.693 62.2686 134.032 62.7074 134.32 62.8625C135.033 63.2465 135.713 63.6713 136.42 64.0625C137.885 64.8727 139.47 65.2504 140.977 65.9625C143.6 67.2016 146.44 67.776 149.263 68.4197C150.924 68.7983 152.483 69.5107 154.149 69.9197C157.368 70.7103 160.543 71.0591 163.856 71.2625C166.52 71.4261 169.119 71.2459 171.592 72.3626C171.826 72.4684 171.873 72.5578 171.563 72.5911C170.607 72.6939 169.638 72.5697 168.706 72.3626C164.596 71.4492 160.514 70.4999 156.384 69.6625C153.639 69.1059 150.929 68.4441 148.249 67.6339C145.773 66.8856 143.201 66.5612 140.734 65.8054C139.627 65.4662 138.36 65.2038 137.441 64.4625C136.9 64.0257 136.484 63.4739 135.948 63.0339C135.876 62.9741 134.89 62.1215 135.184 62.2625C135.739 62.5287 136.249 62.94 136.777 63.2482C138.383 64.1853 140.032 64.8235 141.82 65.3196C144.648 66.1045 147.426 67.158 150.306 67.7339C153.258 68.3243 156.209 68.7324 159.006 69.8911C161.733 71.0207 164.563 71.8241 167.413 72.584C168.512 72.877 171.893 73.2626 170.756 73.2626C170.44 73.2626 170.167 73.1839 169.863 73.0911C167.374 72.3331 164.875 71.6881 162.334 71.1197C156.647 69.8472 151.006 68.1451 145.256 67.1982C141.986 66.6597 138.642 66.4841 135.391 65.8339C135.195 65.7947 134.657 65.589 134.856 65.5625C135.661 65.4551 136.582 65.6192 137.377 65.6911C141.216 66.0378 145.064 66.5381 148.891 66.9911C152.579 67.4275 156.052 68.6374 159.656 69.4554C163.724 70.3789 167.892 71.1819 171.82 72.4911" stroke="black" stroke-width="1.81681" stroke-linecap="round"/>
<path d="M173.749 74.5482C178.124 73.8482 182.48 72.2048 186.642 70.7839C189.821 69.6988 193.264 68.6146 196.164 66.8624C196.257 66.8063 196.518 66.6139 196.421 66.6624C195.681 67.0324 195.152 67.5146 194.35 67.891C189.225 70.2939 183.62 71.6223 178.192 73.1482C177.286 73.4029 175.972 73.7669 175.021 74.0625C174.876 74.1074 174.731 74.1522 174.592 74.2125C174.405 74.2938 174.99 74.1226 175.185 74.0625C184.759 71.1076 194.217 67.9743 203.535 64.2696C206.513 63.0856 209.49 61.7127 212.571 60.8052C214.286 60.3002 211.251 62.4357 211.007 62.591C209.937 63.2696 208.856 63.731 207.678 64.2196C204.664 65.4693 201.593 66.6369 198.492 67.6553C194.544 68.9523 190.429 69.7262 186.507 71.0911C185.599 71.4068 186.101 71.3957 186.614 71.2125C189.11 70.3208 191.558 69.3231 194.078 68.491C199.668 66.6456 205.22 64.9086 210.521 62.3338" stroke="black" stroke-width="1.81681" stroke-linecap="round"/>
<path d="M144.64 69.1832C144.61 70.3141 144.37 71.7314 144.82 72.8191C145.211 73.7622 146.084 74.4618 147.014 74.825C148.567 75.4318 150.307 75.6302 151.941 75.9444C153.176 76.182 154.438 76.2062 155.687 76.0792C156.522 75.9943 157.442 75.9661 158.236 75.6707C158.895 75.4257 159.248 74.6587 159.499 74.0488C159.524 73.9868 159.645 73.6108 159.552 73.5381C159.508 73.5044 159.459 73.6021 159.429 73.6484C159.023 74.2836 158.533 74.8188 157.983 75.3357C157.302 75.9759 156.528 76.7777 155.561 76.9289C154.388 77.1121 153.176 77.0453 152.043 76.7002C150.248 76.1533 148.059 75.9206 146.879 74.3184C146.024 73.157 145.751 71.9344 145.596 70.5231C145.533 69.9413 145.4 69.2809 145.67 68.7419" stroke="black" stroke-width="1.81681" stroke-linecap="round"/>
<path d="M185.968 73.2277C187.059 74.3188 188.214 75.3713 189.669 75.9566C190.935 76.4657 192.708 76.6922 194.045 76.2712C195.306 75.8742 196.693 75.2751 197.783 74.535C198.622 73.9648 199.27 73.1574 199.621 72.2022C199.836 71.6169 199.908 70.968 199.936 70.3475C199.938 70.3028 199.855 69.7922 199.809 70.0738C199.774 70.2907 199.819 70.5417 199.83 70.756C199.871 71.554 199.874 72.3652 199.678 73.1459C199.444 74.0827 198.962 75.2742 197.987 75.6462C196.718 76.1306 195.356 76.2798 194.008 76.1773C193.047 76.1041 192.09 75.9635 191.144 75.781C190.67 75.6895 190.254 75.6083 189.849 75.3479C188.788 74.6658 187.856 73.9504 186.932 73.0847C186.884 73.0393 186.574 72.645 186.667 72.815C187.062 73.5404 187.508 74.2915 188.15 74.8291C189.13 75.6501 190.358 75.6543 191.573 75.6543C192.524 75.6543 193.367 75.5523 194.278 75.2867" stroke="black" stroke-width="1.81681" stroke-linecap="round"/>
<path d="M167.777 97.4963C169.754 95.4091 171.802 93.7427 174.652 93.1612C175.994 92.8873 177.346 92.6736 178.7 92.48C179.477 92.3691 180.208 92.879 180.884 93.1994C181.357 93.4237 181.842 93.6346 182.329 93.8296" stroke="black" stroke-width="1.81681" stroke-linecap="round"/>
<path d="M56.5837 54.3567C61.9727 55.5764 67.6177 55.8668 73.1042 56.2382C81.0205 56.7741 88.9405 57.122 96.8754 56.9725C97.8351 56.9544 100.651 56.5935 99.755 56.9381C99.3189 57.1058 98.6715 57.063 98.2291 57.0872C92.6034 57.3946 86.9674 57.3492 81.3415 57.6379C75.6468 57.9301 69.8812 58.9597 64.167 58.659C62.9831 58.5966 61.5115 58.4241 60.5302 57.6608C59.4967 56.857 59.517 57.23 60.0254 58.4869C60.5318 59.7387 61.0231 60.9912 61.4825 62.2613C61.6775 62.8006 62.5447 64.197 62.0676 63.879C61.6263 63.5848 60.8249 62.0925 60.5991 61.768C59.9265 60.8018 59.3164 59.7351 58.557 58.831C56.7331 56.6598 61.5807 63.651 63.4099 65.8178C66.651 69.6574 70.1956 73.205 73.8384 76.6594C74.9826 77.7444 76.5408 78.8557 77.5555 80.1241C77.8716 80.5192 76.3734 78.621 76.3624 78.6098C72.0074 74.1472 66.2655 71.313 61.1727 67.8255C56.9771 64.9525 52.7379 61.6484 50.4114 56.9954C50.0525 56.2777 49.5025 54.5353 50.4344 53.9667C52.09 52.9565 54.5183 52.7651 56.3427 52.5555C60.466 52.0819 64.6271 51.9884 68.7675 52.2917C72.5671 52.5699 76.3033 53.3003 80.0795 53.7602C83.8692 54.2216 87.7137 54.3769 91.5291 54.4256C95.2962 54.4737 98.961 54.3857 102.531 53.1177C102.957 52.9664 105.93 52.3948 105.686 51.6033C105.462 50.8743 104.785 50.2809 104.172 49.8824C101.594 48.2067 98.5236 47.2194 95.7281 46.0047C92.4331 44.573 89.0493 43.1265 86.137 40.9797C85.1713 40.2678 84.1012 39.329 84.049 38.0427C83.9738 36.1874 86.9671 36.1638 88.1562 36.0236C96.6069 35.0273 105.164 36.5149 113.579 35.4843C113.872 35.4485 119.772 34.3966 117.675 33.1554C116.803 32.6395 115.825 32.2902 114.864 31.9852C114.822 31.9716 111.973 31.4113 113.235 31.1362C115.899 30.5557 118.946 30.6745 121.61 30.62C130.372 30.4408 139.131 30.3623 147.882 29.8284C156.944 29.2755 165.925 28.2856 174.877 26.7881C178.547 26.1743 179.642 25.9309 182.793 25.2967C183.132 25.2286 184.132 25.0797 183.792 25.0214C181.891 24.6956 179.66 24.7397 177.78 24.7116C171.34 24.6152 164.921 24.8169 158.506 25.4229C139.596 27.2091 120.81 30.5165 102.038 33.3849C102.012 33.3888 97.7871 33.5387 97.7243 34.4174C97.6433 35.5522 99.8803 36.8882 97.7358 36.6201C96.4498 36.4594 98.2576 37.6074 98.4586 37.7674C100.74 39.5839 103.081 41.3306 105.422 43.0677C105.854 43.3876 108.034 44.6506 108.44 45.3852C108.765 45.9746 107.173 44.9244 106.558 44.6509" stroke="black" stroke-width="1.81681" stroke-linecap="round"/>
<path d="M186.682 20.696C187.868 21.1768 189.004 22.0575 190.055 22.7152C195.667 26.2254 201.486 29.356 207.654 31.8015C220.667 36.9608 234.509 39.8063 248.359 41.5532C249.16 41.6543 246.811 41.0812 246.064 40.7731C240.086 38.3059 233.774 36.5315 227.341 35.7595C226.327 35.6379 224.632 35.3244 223.578 35.5186C223.451 35.5421 223.821 35.6091 223.945 35.6448C227.674 36.7158 223.625 35.4565 229.177 37.1821C236.185 39.3606 243.382 42.3186 250.745 43.0217C252.591 43.1979 254.446 43.1941 256.298 43.2052C256.462 43.2062 256.627 43.2052 256.791 43.2052C257.227 43.2052 255.919 43.2033 255.483 43.1938C250.333 43.0806 245.001 44.9374 240.259 46.8076C239.557 47.0847 238.997 47.3394 240.122 47.2895C242.128 47.2003 244.128 46.9721 246.133 46.8535C246.194 46.8499 249.585 46.4483 249.873 46.865C249.927 46.9428 249.753 47.0218 249.667 47.06C248.951 47.3758 245.535 48.4685 245.491 48.4826C241.179 49.8695 236.845 51.1865 232.538 52.5898C231.522 52.921 228.524 53.7613 229.59 53.8518C230.107 53.8957 235.165 53.4092 235.165 54.0468C235.165 54.4437 234.51 54.4995 234.156 54.6778C232.422 55.5497 230.679 56.4096 228.913 57.2133C226.752 58.1966 224.442 59.2933 222.133 59.9093C220.451 60.3578 218.47 60.2279 216.74 60.437C216.291 60.4914 215.074 60.4077 215.41 60.7124C215.832 61.0962 218.422 61.1754 218.874 61.286C220.881 61.7765 222.854 62.4133 224.817 63.0528C225.093 63.1428 226.541 63.4624 226.859 63.8559C227.948 65.2003 231.191 66.5274 232.687 67.2976C245.227 73.7533 258.96 77.7429 272.864 79.9404C275.18 80.3063 280.099 81.4355 282.685 80.6861C283.93 80.3252 280.767 78.8336 279.553 78.3802C277.96 77.7855 276.35 77.4302 274.654 77.3247C273.607 77.2595 272.346 77.4827 271.315 77.2329C271.273 77.2227 273.612 74.9752 273.885 74.6057C274.956 73.1605 270.78 76.5397 269.629 77.9213C268.964 78.7195 269.447 78.2529 269.698 78.4031C270.022 78.5975 269.306 79.0602 269.032 79.3209C267.713 80.5782 265.829 82.1007 264.466 83.1757C262.045 85.086 259.482 86.8217 257.078 88.7514C256.972 88.8361 256.668 89.0593 256.803 89.0497C257.54 88.997 258.15 88.4415 258.822 88.1318C260.67 87.2795 262.521 86.4325 264.386 85.6194C265.216 85.2575 266.655 84.4212 267.656 84.3918C268.081 84.3793 267.709 85.3083 267.461 85.6538C265.946 87.7581 263.898 89.5026 261.988 91.2294C261.421 91.742 260.841 92.2389 260.267 92.7438C259.886 93.0798 258.712 93.694 259.2 93.8337C260.245 94.1321 262.592 92.848 263.606 92.5258C264.031 92.3908 264.978 91.7535 264.902 92.1931C264.784 92.8796 262.539 94.8891 262.378 95.0498C260.293 97.1348 258.059 99.0264 255.816 100.935C255.401 101.288 253.563 102.538 253.349 103.287C253.283 103.518 254.029 103.385 253.866 103.712C252.963 105.516 249.462 107.581 248.106 108.542C243.489 111.815 238.547 115.239 233.353 117.548" stroke="black" stroke-width="1.81681" stroke-linecap="round"/>
<path d="M73.245 82.2115C75.3981 82.9784 74.9974 82.7561 77.6401 84.2892C81.0357 86.259 85.4643 88.4324 88.1084 91.4412C89.378 92.8859 84.6308 92.9995 83.8731 92.9995C83.0388 92.9995 85.7798 93.0439 86.2705 93.7187C86.5887 94.1562 76.7824 95.0357 75.922 95.0772C74.5459 95.1434 74.0644 94.7182 74.4836 95.5566C75.19 96.9694 71.1737 96.5891 70.568 96.6154C68.3586 96.7115 72.5621 99.0481 73.0053 99.3923C73.1457 99.5015 76.8713 102.558 76.0419 102.709C75.4247 102.821 75.508 102.866 75.3626 103.448C74.904 105.282 70.1427 105.713 68.6901 106.285C64.8951 107.778 73.8664 110.896 70.4481 110.979C68.3697 111.03 71.3771 114.114 70.1085 114.895C68.8965 115.641 66.7747 115.559 65.4137 115.854C63.4616 116.277 66.1196 118.019 66.7722 118.691C70.316 122.34 64.4221 120.337 65.2139 122.147C65.572 122.966 66.1403 123.6 66.4126 124.484C66.9498 126.23 64.4069 126.552 63.1762 126.922C61.8352 127.324 62.1494 127.481 62.8566 128.66C63.0877 129.045 64.9561 131.437 63.6557 131.437C60.5939 131.437 64.4405 131.934 62.9365 132.475C62.4444 132.653 61.8213 132.337 61.7578 133.035C61.6728 133.969 62.0813 135.428 61.6978 136.291C61.5032 136.729 59.938 136.735 59.5403 136.791C59.2427 136.832 58.4702 136.359 58.6612 136.591C60.4523 138.766 63.7517 140.323 66.013 141.945C67.5866 143.073 71.3474 145.221 67.2117 143.843C64.37 142.896 61.6411 141.833 58.7012 141.206C58.2561 141.111 55.7511 140.328 55.265 140.786C55.1141 140.929 55.2366 141.218 55.3249 141.406C55.7186 142.242 57.5047 144.568 57.8421 145.022C59.1069 146.723 60.7321 149.86 62.6568 151.015C63.4612 151.497 60.4099 148.32 60.4592 149.257C60.5267 150.539 62.9033 152.5 63.5558 153.612C64.93 155.953 61.1978 151.784 60.699 151.574C60.4505 151.47 61.4492 154.051 61.578 154.331C61.9932 155.235 59.7356 153.101 59.5403 152.933C58.3446 151.905 58.8368 152.582 59.4004 153.412C60.3517 154.814 59.8528 154.891 58.3815 154.511C55.9342 153.879 59.9076 157.653 57.982 157.448C54.6887 157.097 59.6859 161.965 56.7434 160.984C55.2573 160.488 56.1793 163.677 56.3039 164.28C56.6158 165.791 58.6332 169.05 56.1041 167.676C53.9798 166.523 51.9045 165.464 49.6712 164.72C49.5017 164.663 47.7023 163.882 47.7534 164.52C47.8703 165.981 50.2582 168.466 50.9698 169.294C53.8443 172.64 57.1469 175.458 60.4992 178.304C63.2142 180.61 63.7947 181.045 66.2927 183.299C66.5141 183.499 68.6823 185.177 68.7899 185.876C68.8081 185.994 61.1176 184.737 60.4193 184.757C58.3087 184.819 55.3804 186.086 54.9054 188.413C54.8027 188.917 55.1805 189.559 54.426 189.652C53.4902 189.766 51.6992 188.545 53.467 188.953C56.8018 189.722 60.1021 191.049 63.2961 192.249C63.8308 192.45 66.7534 193.317 67.3715 194.167C67.5732 194.444 64.0841 194.339 63.8554 194.327C61.3356 194.19 61.6885 194.14 61.2983 196.364C61.159 197.158 60.4054 196.9 59.8 197.123C58.4189 197.632 64.0039 199.701 64.275 199.82C64.6216 199.973 70.1703 202.084 69.0896 202.837C68.6121 203.17 64.0212 204.695 65.4936 205.194C68.0361 206.056 69.7769 207.087 72.1662 208.431" stroke="black" stroke-width="1.81681" stroke-linecap="round"/>
<path d="M240.818 110.26C241.892 111.872 243.841 113.086 245.293 114.296C245.934 114.83 250.859 117.921 247.85 118.531C247.611 118.58 243.005 118.834 244.134 119.49C246.028 120.59 248.278 120.732 250.307 121.408C250.565 121.494 247.11 124.534 247.65 125.923C248.534 128.196 240.752 131.19 239.32 132.835C238.802 133.429 244.052 131.937 243.974 132.795C243.818 134.513 242.748 136.362 244.594 137.43C246.062 138.28 245.633 140.254 244.254 140.986C237.334 144.659 213.226 144.782 221.06 144.782C222.917 144.782 224.502 145.742 226.034 146.7C231.965 150.406 237.767 154.349 243.655 158.127C245.313 159.191 247.587 160.565 245.013 157.767C243.694 156.334 242.175 155.025 240.378 154.211C238.861 153.524 234.717 153.173 235.404 154.691C236.137 156.312 240.202 159.598 240.958 160.245C243.387 162.323 245.356 163.902 247.85 165.779C248.558 166.311 249.982 167.943 250.168 167.077C250.286 166.526 251.366 167.428 251.446 167.477C253.676 168.828 256.025 170.404 258.578 171.073C260.354 171.538 258.21 169.875 257.999 169.754C257.602 169.527 251.97 167.308 252.285 168.675C252.63 170.169 255.313 171.639 256.441 172.311C257.624 173.017 258.722 173.521 259.997 174.029C260.705 174.312 262.816 174.809 262.074 174.988C260.485 175.374 257.507 174.936 256.341 176.327C255.341 177.519 258.039 178.511 258.039 179.303C258.039 179.859 254.966 180.891 254.523 181.221C252.986 182.369 256.303 183.228 256.94 183.459C258.563 184.047 260.286 184.469 261.854 185.197C263.054 185.754 260.539 186.112 260.376 186.156C256.322 187.255 259.152 189.026 261.475 190.371C262.292 190.844 267.566 191.943 267.408 192.808C267.241 193.727 265.661 194.474 265.031 194.846C262.226 196.501 259.227 197.905 256.241 199.201C254.146 200.11 255.959 199.794 257.559 199.801C259.584 199.809 261.608 199.793 263.633 199.801C264.536 199.804 266.968 199.422 266.329 200.06C265.757 200.633 262.557 201.344 263.273 202.398C263.459 202.671 264.112 202.716 264.032 203.037C263.933 203.432 262.79 203.327 263.073 204.136C263.149 204.351 264.32 205.398 264.132 205.514C263.378 205.978 261.157 205.357 261.195 206.753C261.227 207.932 263.533 213.152 261.535 212.087C260.683 211.633 262.281 214.616 261.355 214.225C259.109 213.274 256.987 212.037 254.643 211.308C251.805 210.425 253.41 214.311 253.763 215.743C253.771 215.775 254.707 219.361 254.263 219.139C253.416 218.716 250.386 215.855 250.847 218.62C250.974 219.385 252.931 226.429 252.285 226.591C250.719 226.982 249.465 222.598 248.29 224.094C247.717 224.823 245.493 220.991 245.493 223.894C245.493 225.616 245.546 227.278 245.133 228.928" stroke="black" stroke-width="1.81681" stroke-linecap="round"/>
<path d="M122.51 143.344C122.334 143.873 120.787 144.08 121.112 144.243C122.113 144.743 117.894 145.929 117.316 146.14C115.757 146.712 119.653 146.437 120.093 146.78C120.413 147.029 119.803 147.467 119.694 147.659C119.307 148.335 120.526 148.608 120.832 149.017C121.666 150.129 116.712 150.558 117.776 152.154C118.329 152.984 117.057 153.219 118.355 154.211C121.251 156.426 114.161 156.247 119.034 158.287C120.599 158.942 119.593 159.794 118.595 160.404C116.831 161.482 120.602 163.941 121.512 164.76C123 166.099 124.779 166.842 122.231 167.097C121.802 167.14 128.235 170.243 129.023 170.953C129.476 171.36 126.314 171.318 126.226 171.312C123.809 171.156 126.011 171.279 127.165 171.792C127.52 171.95 131.106 173.468 129.543 173.989C126.532 174.993 133.181 176.891 134.018 177.086C135.601 177.454 135.485 178.894 135.816 180.382" stroke="black" stroke-width="1.81681" stroke-linecap="round"/>
<path d="M107.766 110.62C107.766 114.791 113.042 110.067 113.52 112.138C113.748 113.129 112.933 114.21 114.279 113.856C116.634 113.237 116.64 114.142 115.478 116.054C115.026 116.797 115.095 116.727 116.037 116.573C118.708 116.137 121.372 115.714 124.068 115.455C124.668 115.397 127.886 114.638 127.105 116.374C126.305 118.15 124.494 118.858 127.864 119.17C129.434 119.316 130.142 119.091 130.701 120.489C130.892 120.968 130.438 122.348 131.3 121.967C133.058 121.192 137.346 120.885 137.893 123.126C138.452 125.419 145.65 123.061 147.562 123.486C150.836 124.213 155.285 122.361 158.31 124.005C159.006 124.383 158.792 125.327 158.11 124.644" stroke="black" stroke-width="1.81681" stroke-linecap="round"/>
<path d="M135.815 27.9121C138.504 24.552 144.909 23.5935 148.681 23.1174C160.938 21.5706 173.472 21.7646 185.8 21.0797" stroke="black" stroke-width="1.81681" stroke-linecap="round"/>
<path d="M125.387 28.9908C128.019 28.3833 130.574 27.5083 133.178 26.7933C140.979 24.6514 148.838 23.2953 156.872 22.3582C168.066 21.0525 179.226 20.4175 190.474 20.0009" stroke="black" stroke-width="1.81681" stroke-linecap="round"/>
<path d="M140.49 23.597C139.202 24.8848 139.851 24.652 141.648 24.3561C154.421 22.2543 167.245 20.195 180.166 19.2418C188.006 18.6634 195.667 20.6782 203.26 22.3983C205.509 22.9077 208.147 23.3586 204.858 23.9566" stroke="black" stroke-width="1.81681" stroke-linecap="round"/>
<path d="M174.292 22.518C183.79 23.1243 193.695 25.5011 202.9 27.7921C207.282 28.8827 212.522 29.6648 216.365 32.2272" stroke="black" stroke-width="1.81681" stroke-linecap="round"/>
<path d="M85.4717 33.3061C85.6171 34.1789 86.2222 34.9063 86.7503 35.5836C88.746 38.1433 90.934 40.6962 93.263 42.9553C96.2449 45.8478 100.071 49.8477 104.53 49.8477" stroke="black" stroke-width="1.81681" stroke-linecap="round"/>
<path d="M88.3483 40.8577C94.7036 44.5102 101.118 48.6258 108.046 51.1263C113.266 53.0101 118.836 53.5549 124.308 54.1629" stroke="black" stroke-width="1.81681" stroke-linecap="round"/>
<path d="M91.2247 42.6557C94.7318 43.8935 98.1134 45.9365 101.593 47.3105C111.837 51.3551 122.112 52.4905 132.938 54.1629" stroke="black" stroke-width="1.81681" stroke-linecap="round"/>
<path d="M253.045 47.3304C253.045 49.2996 251.656 51.0691 250.048 52.1251C246.33 54.5671 241.273 55.4516 237.063 56.3404C227.943 58.2657 218.735 59.2379 209.533 60.6356" stroke="black" stroke-width="1.81681" stroke-linecap="round"/>
<path d="M245.134 48.7689C241.518 51.9322 235.592 53.2702 231.269 54.8421C223.941 57.5069 217.175 59.3852 209.533 60.6356" stroke="black" stroke-width="1.81681" stroke-linecap="round"/>
<path d="M247.291 47.6901C240.974 54.2711 231.117 56.334 222.439 57.639C219.8 58.0358 211.608 59.0366 208.774 59.3571C207.101 59.5462 205.397 60.0525 203.74 59.7566C203.705 59.7504 205.452 58.8878 205.578 58.8376" stroke="black" stroke-width="1.81681" stroke-linecap="round"/>
<path d="M244.054 52.0052C241.477 54.3371 237.611 55.4486 234.385 56.4403C223.974 59.6416 213.395 61.4119 202.701 63.1528" stroke="black" stroke-width="1.81681" stroke-linecap="round"/>
<path d="M85.1115 40.4982C90.9846 41.1164 96.8729 44.9549 102.093 47.4105C106.561 49.5127 110.872 50.9608 115.677 52.0053" stroke="black" stroke-width="1.81681" stroke-linecap="round"/>
<path d="M89.7866 44.8132C96.762 47.0481 103.58 50.0305 110.743 51.6256C119.776 53.6371 129.152 54.003 138.333 54.882" stroke="black" stroke-width="1.81681" stroke-linecap="round"/>
<path d="M94.8209 47.3304C99.8928 48.9442 104.381 51.8047 109.624 53.0641C117.707 55.0052 126.123 55.1362 134.377 55.6012" stroke="black" stroke-width="1.81681" stroke-linecap="round"/>
<path d="M149.781 69.4552C149.781 70.0536 149.621 70.9542 149.879 71.507C150.046 71.8655 151.249 70.2031 151.32 70.1147" stroke="black" stroke-width="1.81681" stroke-linecap="round"/>
<path d="M151.43 70.0048C151.636 70.9316 151.523 71.9408 151.491 72.8811C151.454 73.9635 152.155 71.7676 152.285 71.501C152.657 70.7362 152.593 70.9855 152.663 71.5681C152.669 71.6169 152.74 71.9814 152.859 71.8002C152.929 71.6938 153.429 70.6785 153.488 70.7315C153.754 70.9709 153.484 72.2728 153.525 72.6551C153.553 72.9285 154.217 71.0839 154.294 71.8185C154.316 72.0263 154.465 72.1389 154.202 72.2521C153.166 72.6979 151.671 72.7311 150.624 72.3254C150.407 72.2415 147.974 70.7149 148.517 70.3529C148.722 70.2163 149.139 70.4932 149.207 70.6888C149.458 71.4128 150.17 71.7831 150.77 72.2032" stroke="black" stroke-width="1.81681" stroke-linecap="round"/>
<path d="M188.253 71.6537C189.283 71.9634 190.238 72.1215 191.319 72.1727C192.472 72.2274 193.977 72.4177 195.117 72.1178C195.623 71.9847 195.508 71.1767 195.508 70.7743" stroke="black" stroke-width="1.81681" stroke-linecap="round"/>
<path d="M194.848 70.3347C194.012 73.0299 190.566 72.7519 188.418 72.2705C187.548 72.0755 187.862 71.8285 188.571 71.898C189.431 71.9824 192.761 72.9739 192.68 71.3667C192.671 71.1835 191.357 72.5098 191.27 72.5942C190.526 73.3133 189.759 73.8699 188.675 73.73C188.432 73.6988 188.244 73.4404 188.271 73.1926C188.335 72.6175 189.744 72.9326 190.061 72.9484C190.77 72.9836 191.968 73.1924 192.626 72.8384C192.862 72.7114 193.098 71.8805 192.943 72.0995C192.199 73.154 190.575 73.6782 189.365 73.9132C189.121 73.9604 186.809 74.0717 187.997 73.8522C188.58 73.7444 189.165 73.8407 189.664 73.4858C190.319 73.02 190.951 72.517 191.551 71.9835" stroke="black" stroke-width="1.81681" stroke-linecap="round"/>
<path d="M194.241 70.4092C193.718 71.6057 193.259 73.0882 192.396 74.1094C191.953 74.6344 191.254 74.6275 190.626 74.6869C189.558 74.7879 190.191 74.571 190.803 74.35C191.515 74.0928 192.072 74.1314 192.316 73.3982C192.328 73.3634 192.506 72.9749 192.369 73.2057C192.059 73.7296 191.494 74.0305 190.952 74.2645C190.718 74.3657 189.983 74.576 190.236 74.5372C190.596 74.4817 190.923 74.3245 191.247 74.1629C192.299 73.6369 192.806 72.3485 193.385 71.3824C193.437 71.2972 193.694 70.7328 193.717 70.7888C194.086 71.6849 193.79 72.9747 193.3 73.7511C192.59 74.8756 191.283 75.3469 190.059 75.6921C189.65 75.8078 188.537 75.9071 189.429 75.4248C189.982 75.1255 190.579 74.935 191.15 74.6762C192.061 74.2633 192.858 73.6715 193.61 73.0186C193.952 72.7217 194.322 72.3371 194.337 71.8529C194.339 71.8066 194.341 71.9457 194.337 71.9919C194.287 72.6796 194.061 73.3708 193.824 74.0131C193.641 74.5099 193.523 74.6477 193.161 74.9115C192.977 75.0448 192.419 74.937 192.198 74.9329C190.701 74.9046 189.187 74.6786 187.696 74.5479" stroke="black" stroke-width="1.81681" stroke-linecap="round"/>
<path d="M149.967 70.9865C149.373 72.0597 148.399 72.7381 147.256 73.1574C147.103 73.2134 145.347 73.61 146.315 73.0077C146.935 72.6219 147.745 72.6142 148.448 72.6655C149.969 72.7764 151.377 72.7588 152.897 72.5264C153.147 72.4882 154.561 72.4193 154.678 72.0131C154.697 71.9438 154.567 72.1061 154.512 72.1521C153.761 72.775 152.973 73.3605 152.196 73.9488C151.377 74.5696 149.37 76.1315 149.336 75.1037C149.327 74.8429 149.605 74.5311 149.737 74.3391C150.094 73.8194 150.318 73.3153 150.239 72.6708C150.055 71.1611 148.374 70.9911 147.208 70.4517C146.98 70.3467 146.898 70.3209 146.774 70.5801C146.221 71.7434 146.42 73.1145 147.25 74.0878C149.364 76.5656 151.004 71.4385 149.459 69.794C149.303 69.6284 148.393 68.9383 148.234 69.4465C147.972 70.2826 147.895 71.4794 148.245 72.2912C148.375 72.5934 148.911 73.4938 149.379 73.3499C150.171 73.1061 149.547 71.2581 149.32 70.8902C148.867 70.1573 147.513 68.855 146.534 68.9118C145.899 68.9486 147.177 71.4409 147.347 71.6174C148.012 72.3109 148.95 72.7938 149.919 72.7938C150.959 72.7938 149.86 71.2076 149.544 70.8581C149.122 70.3905 148.082 69.884 147.421 70.1095C146.753 70.3376 147.112 72.9544 147.229 73.4141C147.568 74.7444 148.691 75.281 149.993 75.1465C151.478 74.9932 152.271 74.0397 151.844 72.5585C151.82 72.4769 151.117 70.9314 150.854 71.2645C150.448 71.779 150.971 73.2976 151.271 73.7563C151.615 74.2808 152.298 73.7057 152.041 73.2109C151.803 72.751 151.147 72.4522 150.929 72.8152" stroke="black" stroke-width="1.81681" stroke-linecap="round"/>
<path d="M194.984 70.4153C194.984 71.6837 195.097 74.2615 193.438 74.5381" stroke="black" stroke-width="1.81681" stroke-linecap="round"/>
<path d="M151.179 70.9307C151.352 71.9705 150.431 72.5373 149.805 73.1638" stroke="black" stroke-width="1.81681" stroke-linecap="round"/>
<path d="M167.67 80.5505C169.585 81.0612 171.386 81.9691 173.358 82.2301C173.839 82.2938 173.762 82.2973 173.32 82.3447C172.629 82.4187 172.006 82.0598 171.392 81.7911C170.467 81.3864 168.898 81.0462 170.838 81.0658C171.805 81.0756 172.616 81.2458 173.511 81.5812" stroke="black" stroke-width="1.81681" stroke-linecap="round"/>
<path d="M180.554 82.0966C179.101 83.0215 174.526 85.4128 175.945 84.4347C177.258 83.529 178.962 83.3075 180.249 82.4497C180.491 82.2883 179.668 82.4944 179.38 82.5356C178.648 82.6401 177.915 82.7384 177.185 82.86C175.79 83.0926 177.91 82.5991 178.216 82.5356C178.868 82.4003 180.798 81.9072 180.172 82.1347C178.726 82.6606 177.028 82.6984 175.515 82.8791C174.721 82.974 174.894 82.8835 175.496 82.7455C176.336 82.5529 177.187 82.4217 178.035 82.2683C179.404 82.0206 180.777 81.8165 182.1 81.4094" stroke="black" stroke-width="1.81681" stroke-linecap="round"/>
<path d="M174.198 82.2682C175.5 82.0472 176.662 81.9247 177.978 81.9247" stroke="black" stroke-width="1.81681" stroke-linecap="round"/>
<path d="M181.069 81.066C181.012 81.3017 180.684 81.979 181.05 81.7149C181.264 81.5601 182.211 81.0473 182.157 81.1042C181.927 81.3447 181.215 82.0458 181.451 81.8104C181.641 81.6197 181.667 81.4966 181.928 81.4095" stroke="black" stroke-width="1.81681" stroke-linecap="round"/>
<path d="M176.259 75.2254C176.787 75.3573 175.18 75.3713 174.637 75.4067C173.779 75.4626 173.591 75.4742 172.738 75.5689C172.284 75.6193 171.158 76.0667 171.373 75.6644C171.714 75.0254 174.732 75.1795 175.276 75.149C176.252 75.0944 179.183 75.0536 178.206 75.0536C177.537 75.0536 176.826 75.0867 176.183 74.8723C175.391 74.6084 176.9 74.1497 177.099 74.0611C177.302 73.9705 178.227 73.6793 178.044 73.6793C177.048 73.6793 176.052 73.6793 175.057 73.6793" stroke="black" stroke-width="1.81681" stroke-linecap="round"/>
<path d="M175.057 73.3356C174.373 73.3356 175.617 73.3356 175.801 73.3356C176.381 73.3356 174.646 73.2237 174.074 73.1257C172.742 72.8973 171.397 72.7008 170.075 72.4194C169.346 72.2642 169.162 72.1365 169.97 72.0568C172.051 71.8516 174.181 71.9613 176.269 71.9613C176.711 71.9613 178.037 71.9709 177.595 71.9613C176.603 71.94 175.616 71.8748 174.627 71.7896C174.067 71.7412 172.505 71.8764 172.957 71.5414C173.374 71.233 174.52 71.1667 174.952 71.1024C176.644 70.8506 181.749 70.8282 180.058 70.568C177.276 70.14 174.386 70.2687 171.583 70.2435C170.836 70.2368 168.643 70.2941 169.35 70.0526C170.052 69.8128 170.821 69.7452 171.545 69.5946C172.953 69.3017 171.527 69.5228 171.468 69.3464C171.458 69.3164 179.092 67.767 179.676 67.6477C180.306 67.5191 182.188 67.2167 181.546 67.1801C180.152 67.1004 178.657 67.2776 177.271 67.3232C175.332 67.387 173.352 67.5421 171.411 67.4568C170.675 67.4244 170.957 67.237 171.354 66.9796C173.155 65.8112 170.59 67.0267 170.59 65.7772" stroke="black" stroke-width="1.81681" stroke-linecap="round"/>
<path d="M71.7528 226.409C71.7277 226.575 71.4983 227.92 71.9178 227.199C72.1998 226.715 72.3456 226.04 72.7291 225.625C72.9723 225.361 72.9762 226.311 72.9835 226.67C72.9944 227.2 72.764 228.344 72.9904 228.842C73.1233 229.135 73.2029 228.236 73.3136 227.935C73.4864 227.464 73.674 226.999 73.8567 226.532" stroke="black" stroke-width="1.81681" stroke-linecap="round"/>
<path d="M30.5113 221.393C30.2198 221.758 28.1433 224.105 29.7193 223.52C30.0666 223.391 32.9387 221.53 33.1456 221.944C33.4907 222.634 33.2036 223.647 33.3178 224.389C33.3436 224.557 34.9583 223.059 35.2376 222.883C36.0878 222.346 34.4469 225.963 36.4687 224.346C37.2623 223.711 37.3299 223.959 37.2951 224.906C37.2845 225.193 37.0847 226.054 37.3209 226.318C37.5531 226.577 38.7229 225.836 38.7931 225.801C40.3383 225.028 42.1119 223.856 43.8465 223.58C44.3238 223.504 44.1256 224.392 44.3028 224.665C44.6346 225.176 46.2061 224.475 46.5583 224.355C47.6924 223.967 47.5532 224.22 47.7205 225.224C47.8443 225.967 48.442 225.132 48.7277 224.906C49.3731 224.395 49.4696 225.193 49.6403 225.715C50.2316 227.523 50.8799 224.466 51.276 225.061C51.7 225.697 51.514 226.713 52.3951 225.749C53.4531 224.593 54.3049 223.195 55.4599 222.134C56.0432 221.598 56.065 222.861 56.1572 223.21C56.3078 223.778 56.5019 223.637 56.9751 223.425C58.283 222.838 60.1619 221.845 61.6239 221.918C62.7327 221.974 60.9315 224.752 60.7458 225.061C60.6249 225.261 60.4936 225.456 60.3842 225.663C60.2428 225.931 60.153 226.101 60.4961 225.887C61.3546 225.353 62.1241 224.658 62.9669 224.096C63.0528 224.039 65.4623 222.428 65.5237 222.797C65.5662 223.051 65.472 223.196 65.8078 223.287C67.9791 223.877 70.52 223.5 72.7294 223.425C73.216 223.408 76.0489 223.574 73.9174 223.804C68.947 224.34 63.86 224.357 58.869 224.424C53.0842 224.501 47.3778 224.199 41.6168 223.752C38.9244 223.543 36.1032 223.786 33.4555 223.408" stroke="black" stroke-width="1.81681" stroke-linecap="round"/>
<path d="M110.338 224.581C111.818 224.821 113.302 225.04 114.778 225.301C115.229 225.381 118.167 225.824 119.141 226.338C119.556 226.557 118.442 226.63 118.344 226.621C115.277 226.332 124.503 226.436 127.583 226.432C129.823 226.429 136.528 226.176 134.303 226.432C125.121 227.492 115.771 227.704 106.542 227.898C102.97 227.973 99.2749 228.11 95.6992 227.769C95.5854 227.759 95.4688 227.74 95.3649 227.692C95.1755 227.605 95.7837 227.683 95.9906 227.709C97.4831 227.901 98.949 228.287 100.43 228.541C105.87 229.472 111.372 229.826 116.887 229.878C120.519 229.912 124.167 229.824 127.772 229.346C129.018 229.182 130.501 228.994 131.697 228.507C133.03 227.963 129.833 227.078 129.769 227.067C125.87 226.368 121.713 226.737 117.77 226.664C115.235 226.617 107.645 226.762 110.167 226.509C114.747 226.051 119.613 226.818 124.181 227.109C125.922 227.22 127.663 227.322 129.4 227.478C130.633 227.589 126.982 226.955 125.766 226.724C119.003 225.435 112.197 224.52 105.333 223.998C104.79 223.957 103.176 223.729 103.705 223.861C106.078 224.454 108.406 225.106 110.81 225.601C117.423 226.963 124.273 228.121 131.046 228.164C131.928 228.169 132.168 228.246 132.555 227.667" stroke="black" stroke-width="1.81681" stroke-linecap="round"/>
<path d="M197.197 227.049C201.894 226.814 206.481 226.303 211.142 225.755C213.77 225.446 205.964 226.949 203.325 227.152C202.553 227.212 202.396 227.204 201.756 227.204C201.699 227.204 201.642 227.204 201.585 227.204C201.488 227.204 201.779 227.208 201.876 227.204C203.151 227.149 204.352 226.57 205.528 226.124" stroke="black" stroke-width="1.81681" stroke-linecap="round"/>
<path d="M61.1841 197.157C62.1254 199.42 61.7557 198.864 63.55 201.248C64.2014 202.114 64.941 202.911 65.5955 203.774C65.9196 204.202 66.9818 204.92 66.4827 205.117C65.8547 205.365 65.2869 204.487 64.7206 204.119C63.437 203.286 62.203 202.379 60.9376 201.519C57.7074 199.323 54.4246 197.236 51.1414 195.124C50.128 194.472 49.2005 193.639 50.057 195.333C51.7597 198.702 53.8988 202.004 56.9698 204.279C60.7569 207.085 65.2233 208.907 69.5879 210.588C72.5611 211.734 75.5963 212.975 78.6695 213.841C79.5416 214.087 78.8095 212.711 78.6818 212.424C77.0839 208.84 73.2829 206.359 70.1794 204.205C67.2115 202.146 64.0521 200.355 60.7651 198.857C58.8049 197.964 59.2151 198.575 59.9395 200.188C60.8171 202.143 61.7845 204.081 63.1187 205.77C64.093 207.004 64.9459 207.86 66.0637 208.986C67.0745 210.005 70.4239 212.543 69.0704 212.067C67.8623 211.642 66.9498 210.629 65.9159 209.874C63.4349 208.06 60.1182 205.576 57.7831 203.712C52.8079 199.742 47.0553 195.613 44.3271 189.665C43.9234 188.785 43.6815 188.157 43.3167 187.311C42.9459 186.452 43.4133 187.284 43.5631 187.496C45.0695 189.632 46.666 191.644 48.4058 193.596C51.3773 196.93 54.4151 200.202 57.7585 203.17C61.8555 206.808 66.4727 209.766 71.2145 212.486C73.9107 214.033 76.6884 215.462 79.4704 216.848C81.2049 217.712 83.1513 218.93 85.1141 219.202C86.089 219.337 87.1402 219.209 88.0961 219.448C89.3114 219.752 85.6264 219.023 84.3994 218.77C77.1799 217.283 69.415 213.809 64.0675 208.654C59.3631 204.119 56.7185 197.153 54.9983 190.971C54.3467 188.63 54.0288 186.247 53.9139 183.824C53.846 182.393 54.0161 180.879 53.766 179.462C52.3456 171.413 55.9025 195.757 58.3992 203.54C59.965 208.421 62.1584 212.842 65.0656 217.045C65.8386 218.163 66.4486 219.335 67.6163 220.003" stroke="black" stroke-width="1.81681" stroke-linecap="round"/>
<path d="M110.203 191.834C110.956 192.103 111.656 192.846 112.174 193.423C115.295 196.897 118.177 200.542 121.416 203.922C123.87 206.482 126.319 209.051 128.933 211.451C130.905 213.262 133.078 214.856 134.995 216.725C137.13 218.807 139.305 220.754 141.255 223.009C141.818 223.661 142.162 224.289 142.413 225.104C142.496 225.373 142.931 226.023 142.709 225.301C142.105 223.34 140.873 221.621 139.653 220.003C137.593 217.27 135.291 214.65 132.765 212.338C127.929 207.913 122.825 203.919 118.532 198.907C116.475 196.505 114.781 193.845 112.963 191.267C110.683 188.034 107.62 184.967 106.062 181.286C105.736 180.515 105.675 179.644 105.557 178.821C105.534 178.663 105.68 179.117 105.742 179.265C106.448 180.96 107.231 182.631 107.985 184.305C110.204 189.237 112.372 194.278 115.058 198.981C117.606 203.443 121.441 207.242 124.989 210.909C127.332 213.329 129.77 216.063 132.617 217.908C134.735 219.28 137.231 220.073 139.517 221.124C141.901 222.219 144.737 222.775 145.691 225.4C146.069 226.441 145.171 226.181 144.533 225.831C143.404 225.213 142.653 224.369 141.92 223.33C140.733 221.645 139.321 220.328 137.731 219.017C130.784 213.288 124.974 206.163 120.393 198.389C117.62 193.683 115.321 188.693 112.199 184.194C110.065 181.118 107.01 178.402 105.421 174.977C104.398 172.769 103.788 168.959 105.101 166.77" stroke="black" stroke-width="1.81681" stroke-linecap="round"/>
<path d="M167.339 221.467C167.339 220.533 167.3 219.668 167.215 218.714C166.731 213.256 165.909 207.841 165.263 202.402C165.239 202.2 165.061 201.668 165.22 201.794C165.418 201.951 165.352 202.282 165.419 202.526C165.528 202.92 165.641 203.314 165.747 203.709C166.322 205.852 166.825 207.988 167.006 210.206C167.229 212.962 167.277 215.766 167.237 218.531C167.231 218.946 167.11 220.04 167.167 219.004C167.36 215.471 167.371 211.92 167.328 208.382C167.31 206.833 167.317 205.24 167.038 203.709C166.711 201.92 165.881 200.28 164.908 198.761C163.712 196.894 162.42 195.133 160.256 194.426C159.69 194.241 159.171 193.999 158.626 193.781" stroke="black" stroke-width="1.81681" stroke-linecap="round"/>
<path d="M169.276 221.661C170.303 220.363 170.673 218.179 171.142 216.665C172.068 213.669 172.9 210.519 174.632 207.861C175.221 206.957 177.534 204.671 176.757 205.419C175.486 206.64 174.209 207.93 173.169 209.356C170.375 213.188 168.539 218.536 169.867 223.285C170.083 224.056 170.469 221.799 170.695 221.032C172.548 214.766 172.835 208.315 173.852 201.896C174.204 199.681 175.048 197.567 176.633 195.932C177.235 195.311 179.045 193.626 180.113 194.023C180.415 194.135 180.56 194.699 180.656 194.975C180.758 195.269 180.48 195.609 180.333 195.825C178.851 197.99 177.391 200.06 176.31 202.472C174.665 206.145 173.313 210.017 172.094 213.852C171.376 216.108 170.797 218.436 170.921 220.822C170.934 221.06 170.981 221.721 171.115 221.855" stroke="black" stroke-width="1.81681" stroke-linecap="round"/>
<path d="M197.306 223.502C202.024 218.612 206.301 213.391 210.802 208.304C212.122 206.812 215.995 202.508 215.309 204.378C214.714 206.001 211.603 210.642 210.767 211.879C209.498 213.758 208.081 216.076 206.046 217.267C204.649 218.085 203.093 218.711 201.573 219.26C200.05 219.811 201.243 218.536 201.667 217.738C202.679 215.836 203.242 213.785 204.011 211.768C206.045 206.43 207.958 200.914 210.75 195.911C210.96 195.535 210.847 196.773 210.819 197.203C210.614 200.274 209.543 203.215 208.356 206.029C206.962 209.332 205.275 212.463 203.429 215.531C202.07 217.79 202.79 216.511 201.77 218.182C201.51 218.608 201.797 218.244 201.975 218.028C204.257 215.267 206.18 212.306 207.945 209.185C210.855 204.04 213.762 198.691 215.523 193.021C215.986 191.529 216.314 189.972 216.643 188.445C216.711 188.129 216.703 188.064 216.703 188.282C216.703 188.821 216.714 188.818 216.609 189.548C215.996 193.784 214.465 197.897 212.752 201.796C210.566 206.769 207.913 211.548 204.892 216.061C204.062 217.301 203.194 218.556 202.215 219.688C201.748 220.228 201.157 220.786 201.65 219.585C203.242 215.707 205.107 211.945 206.679 208.056C209.003 202.309 210.689 196.446 212.05 190.403C213.403 184.397 214.584 178.326 214.693 172.152C214.7 171.745 214.682 171.336 214.71 170.929C214.719 170.806 214.79 171.165 214.804 171.288C215.406 176.488 214.634 182.058 213.966 187.188C212.213 200.646 208.006 213.382 203.686 226.188C203.214 227.585 202.895 229.264 201.924 230.43" stroke="black" stroke-width="1.81681" stroke-linecap="round"/>
<path d="M104.022 142.029C103.745 149.942 103.763 157.849 103.787 165.766C103.791 167.115 103.857 168.465 103.787 169.812C103.772 170.092 103.641 169.268 103.619 168.989C103.134 162.732 102.897 156.429 102.897 150.154C102.897 148.469 102.936 146.794 103.082 145.118C103.215 143.59 103.076 148.184 103.048 149.717C102.918 156.857 102.664 164.005 103.132 171.138C103.277 173.346 103.363 175.713 104.005 177.853C104.61 179.871 104.324 175.961 104.324 175.872C104.302 171.077 104.154 166.298 103.552 161.536C103.357 159.998 103.098 158.34 102.847 156.802C102.761 156.275 102.676 155.748 102.578 155.224C102.506 154.837 102.587 153.84 102.276 154.082C101.615 154.596 102.606 160.65 102.645 161.099C103.158 166.969 103.831 172.855 105.214 178.592C105.266 178.809 107.362 185.694 106.406 181.748C105.055 176.172 102.776 170.859 101.101 165.38C99.8422 161.264 98.8687 157.146 98.4819 152.857C98.4469 152.469 97.8731 147.675 98.5491 150.725C100.643 160.171 102.672 169.843 108.554 177.685" stroke="black" stroke-width="1.81681" stroke-linecap="round"/>
<path d="M210.388 146.259C214.636 154.662 219.741 163.799 220.51 173.337C220.863 177.714 220.184 172.799 219.923 171.273C218.546 163.226 216.003 155.374 211.999 148.257C211.677 147.685 209.488 143.323 210.623 146.696C212.444 152.106 214.723 157.259 215.692 162.929C216.742 169.067 217.548 176.78 215.827 182.957C215.698 183.42 215.528 182.027 215.525 181.547C215.498 177.204 215.568 172.861 215.491 168.519C215.4 163.362 215.206 158.188 214.047 153.142C213.644 151.387 213.633 151.622 213.225 150.355C212.989 149.626 213.724 151.805 213.947 152.538C216.389 160.567 219.453 169.494 219.453 177.988" stroke="black" stroke-width="1.81681" stroke-linecap="round"/>
<path d="M140.036 230.467C141.442 228.967 140.911 229.417 143.405 227.758C145.756 226.193 149.383 224.002 151.802 222.534C152.849 221.899 154.094 221.503 154.933 220.611C155.146 220.385 154.334 220.767 154.035 220.849C150.95 221.695 147.901 222.646 145.118 224.268C143.976 224.934 142.893 225.69 142.184 226.817C141.867 227.319 141.415 228.326 141.636 226.999C141.858 225.671 143.081 224.537 144.122 223.826C147.315 221.643 151.188 220.762 155.018 220.849C156.174 220.876 157.749 221.12 158.921 221.397C159.251 221.475 159.665 221.482 159.876 221.748C159.953 221.846 159.684 221.917 159.567 221.959C158.455 222.35 157.185 222.438 156.028 222.548C153.922 222.748 151.814 222.796 149.703 222.892C148.773 222.935 147.835 223.032 146.986 223.447C144.873 224.48 143.885 226.5 142.872 228.474C142.769 228.674 142.683 228.688 142.689 228.474C142.709 227.766 143.092 227.072 143.504 226.522C147.193 221.586 154.061 221.244 159.665 222.12C160.297 222.219 161.511 222.287 162.094 222.689C162.183 222.75 161.935 222.871 161.827 222.871C159.708 222.871 157.58 222.558 155.481 222.31C152.469 221.954 149.196 221.308 146.186 222.043C143.173 222.778 140.271 224.822 139.319 227.884C139.102 228.582 139.146 229.326 139.151 230.046C139.152 230.132 139.102 231.264 139.39 230.713C140.761 228.09 141.478 225.382 144.178 223.728C146.495 222.308 149.237 222.254 151.872 222.401C153.966 222.517 155.959 222.775 157.854 223.643" stroke="black" stroke-width="1.81681" stroke-linecap="round"/>
<path d="M167.711 227.182C167.88 227.814 168.046 228.446 168.217 229.078C168.329 229.494 168.445 230.482 168.779 230.833C169.068 231.137 169.254 230.135 169.424 229.752C170.058 228.322 170.682 226.901 171.531 225.581C173.64 222.302 177.561 221.432 181.268 221.341C182.312 221.315 183.395 221.417 184.406 221.692C184.456 221.705 184.93 221.833 184.638 221.938C184.391 222.026 183.939 222.063 183.746 222.085C181.744 222.316 179.745 222.531 177.751 222.829C174.956 223.247 172.127 223.679 169.396 224.423C168.557 224.652 167.526 224.891 167.108 225.764C166.401 227.237 166.134 229.312 165.97 230.931C165.917 231.46 165.999 231.694 166.574 231.647C167.279 231.59 168.192 231.469 168.645 230.861C169.025 230.35 169.248 229.701 169.551 229.148C170.175 228.007 170.881 226.927 171.748 225.953C172.353 225.274 173.013 224.746 173.721 224.191C174.099 223.895 173.551 224.119 173.468 224.177C171.704 225.409 170.566 227.679 170.155 229.738C170.079 230.113 170.049 231.253 169.986 230.875C169.925 230.508 170.011 230.004 170.119 229.674C171.6 225.155 177.318 223.499 181.493 223.068C183.384 222.873 185.429 222.856 187.285 223.363C187.597 223.448 188.872 223.85 187.629 223.917C184.793 224.07 181.937 223.827 179.099 223.882C176.96 223.924 174.671 223.884 172.829 225.139C170.829 226.503 169.008 230.613 170.941 232.686C171.476 233.261 171.754 233.255 171.783 232.405C171.831 231.026 171.621 229.671 170.941 228.46C170.766 228.148 170.47 227.294 170.134 227.126C169.911 227.015 170.171 227.633 170.281 227.856C170.718 228.741 171.359 229.539 172.113 230.173C173.173 231.064 174.388 231.585 175.743 231.844C176.398 231.969 177.906 232.334 177.737 231.689C177.506 230.812 174.798 230.096 174.093 229.759C173.286 229.373 172.096 228.945 171.727 228.039C171.369 227.158 171.327 226.022 171.952 225.244C173.427 223.41 177.096 223.571 179.141 223.475C183.562 223.268 188.06 223.277 192.48 223.517C192.672 223.528 192.864 223.549 193.056 223.559C193.326 223.574 193.361 223.562 193.028 223.489C191.709 223.201 190.311 223.145 188.97 223.096C184.46 222.932 179.75 222.91 175.392 224.247C173.458 224.841 172.194 225.726 171.938 227.8C171.9 228.11 171.761 228.948 172.261 228.698" stroke="black" stroke-width="1.81681" stroke-linecap="round"/>
<path d="M164.497 223.606C166.733 224.771 168.49 227.817 167.375 230.295C166.929 231.286 166.174 231.811 165.191 232.076C164.918 232.15 164.209 231.939 164.412 231.742C165.621 230.568 167.528 231.217 167.803 229.216C168.231 226.096 164.686 225.355 162.853 223.589C162.276 223.034 163.597 223.64 163.632 223.658C164.896 224.31 165.827 225.185 166.664 226.321C167.273 227.148 167.952 228.104 168.008 229.173C168.086 230.647 166.104 231.459 165.045 231.948C164.163 232.356 162.832 233.077 161.791 232.89C161.176 232.78 162.697 232.079 162.75 232.051C163.753 231.521 164.823 231.13 165.79 230.535C167.06 229.753 167.418 228.953 167.794 227.512C168.109 226.307 168.671 225.014 167.34 224.326C166.326 223.801 164.674 223.629 163.881 222.836" stroke="black" stroke-width="1.81681" stroke-linecap="round"/>
<path d="M194.712 222.219C196.074 223.086 197.389 224.047 198.617 225.097C199.826 226.129 200.2 227.003 200.253 228.565C200.261 228.825 199.953 231.152 199.953 230.081" stroke="black" stroke-width="1.81681" stroke-linecap="round"/>
<path d="M210.281 228.231C211.002 222.326 217.857 218.575 222.837 216.961C223.533 216.735 235.939 213.802 236.025 215.436C236.052 215.942 235.11 215.886 234.621 216.018C231.314 216.915 227.958 217.593 224.618 218.348C222.912 218.733 221.158 219.068 219.753 220.181C218.665 221.043 217.898 222.253 217.15 223.401C216.435 224.499 215.8 225.635 215.129 226.758C214.853 227.22 214.889 226.645 214.872 226.398C214.808 225.49 214.6 224.362 214.855 223.469C215.242 222.112 217.104 221.011 218.178 220.369C222.609 217.719 228.11 216.713 233.045 218.588C234.149 219.007 235.279 219.625 236.162 220.42C236.378 220.615 236.444 220.764 236.711 220.84C236.859 220.883 236.738 221.025 236.651 221.054C235.972 221.281 234.974 221.091 234.313 220.986C228.903 220.128 223.814 217.779 218.323 217.397C215.932 217.231 213.007 217.181 210.761 218.194C209.301 218.852 208.641 220.363 208.175 221.799C207.891 222.673 206.485 226.855 207.815 227.52C208.949 228.087 210.983 227.107 211.917 226.621C214.683 225.182 216.642 222.813 219.128 221.037C220.753 219.876 222.772 219.227 224.704 218.81C226.861 218.345 229.533 217.873 231.718 218.451C233.054 218.804 233.857 220.253 234.638 221.294" stroke="black" stroke-width="1.81681" stroke-linecap="round"/>
<path d="M70.5029 225.479C72.0567 224.661 72.8862 223.397 74.6496 222.715C79.7392 220.744 85.3187 219.604 90.6756 218.668C93.1417 218.237 95.9026 217.653 98.3179 218.628C98.8425 218.84 99.2946 219.045 99.7402 219.379C100.178 219.708 99.8074 219.64 99.57 219.549C96.8184 218.495 94.1332 217.045 91.1764 216.645C89.5415 216.423 87.8851 216.723 86.3486 217.286C83.6759 218.265 80.5061 219.837 78.9566 222.344C78.2228 223.531 77.6864 225.009 77.2839 226.35C77.2453 226.479 77.072 227.369 76.9934 226.721C76.8821 225.802 76.815 224.885 77.1136 223.997C78.0606 221.178 79.823 220.172 82.7628 219.509C88.8632 218.135 95.3044 218.267 101.433 219.349C102.937 219.615 104.447 219.905 105.94 220.231C106.41 220.333 107.113 220.429 107.523 220.751C107.759 220.937 106.905 220.832 106.621 220.731C102.909 219.414 99.1966 218.75 95.253 218.508C92.5969 218.345 89.8467 218.25 87.1899 218.488C85.6395 218.627 84.5453 219.03 83.3537 220.01C81.3182 221.685 80.1997 224.038 79.207 226.431C78.5764 227.951 77.9704 229.566 77.8949 231.228C77.8814 231.524 77.8428 232.775 77.935 231.669C78.1865 228.65 77.8569 224.836 80.5893 222.915C83.1942 221.084 86.721 221.233 89.7541 221.192C92.7518 221.151 95.7546 221.233 98.7386 221.533C99.9591 221.655 101.473 221.75 102.635 222.274C104.04 222.907 105.379 224.156 106.521 225.159C106.93 225.517 108.541 226.621 108.645 227.242C108.774 228.016 107.854 225.883 107.393 225.249C104.918 221.849 101.389 219.395 97.4265 218.037C94.6336 217.079 92.0187 217.197 89.1631 217.797C86.194 218.42 83.2152 219.114 80.2788 219.88C78.2967 220.397 77.9797 222.617 77.5744 224.417C77.2191 225.995 77.354 230.883 77.354 229.265" stroke="black" stroke-width="1.81681" stroke-linecap="round"/>
<path d="M72.5388 62.7238C71.8268 63.1713 69.9159 63.9059 71.5414 64.7186C72.3087 65.1023 77.2632 65.832 75.6484 67.4469C75.4578 67.6374 74.0226 68.1889 75.003 68.3269C76.4513 68.5309 77.9549 68.3922 79.3887 68.679C80.7688 68.955 76.3505 70.9184 76.0591 71.5245C75.5534 72.5762 83.384 74.3131 82.2196 76.3356C81.882 76.9218 79.8747 77.5028 79.9314 78.1544C79.9982 78.9232 84.2927 80.6634 84.6838 80.868C87.1959 82.1823 89.7709 83.3999 92.2377 84.7989C93.2868 85.394 93.5155 85.503 92.5457 86.0164C91.19 86.7341 95.5916 89.0486 96.0367 90.05C96.2592 90.5507 96.6739 90.924 97.0928 91.2381" stroke="black" stroke-width="1.81681" stroke-linecap="round"/>
<path d="M230.423 99.9509C230.857 100.096 231.21 100.395 231.655 100.523C232.85 100.868 232.721 100.093 233.591 99.6869" stroke="black" stroke-width="1.81681" stroke-linecap="round"/>
<path d="M233.856 99.423C235.859 100.117 237.537 97.5581 238.726 96.2254C239.207 95.6858 239.496 94.508 240.207 94.6413C240.689 94.7316 240.779 95.3747 241.336 95.3747C243.491 95.3747 245.14 92.3108 245.751 90.6223C245.883 90.2598 245.678 89.4489 246.059 89.5075C246.418 89.5627 247.261 91.4103 247.438 91.649C248.001 92.4083 248.669 93.1442 249.492 93.6292C250.426 94.1802 250.675 92.9881 250.959 92.2651C251.754 90.2365 252.452 88.1329 253.027 86.0312C253.417 84.6057 253.526 82.9963 254.156 81.6456C254.509 80.889 255.047 83.0758 255.418 83.3177C257.326 84.5625 261.255 78.573 262.106 77.5092" stroke="black" stroke-width="1.81681" stroke-linecap="round"/>
<path d="M124.287 90.7101C121.456 90.7101 118.072 92.126 115.472 92.8957C111.281 94.1363 109.779 94.5668 105.586 96.3279C92.8944 101.658 80.5204 107.869 68.0505 113.68" stroke="black" stroke-width="1.81681" stroke-linecap="round"/>
<path d="M128.775 102.327C122.051 109.49 114.147 115.681 106.773 122.158C106.454 122.439 100.977 127.225 100.349 127.791C97.9759 129.929 96.0885 132.238 93.9242 134.538" stroke="black" stroke-width="1.81681" stroke-linecap="round"/>
<path d="M195.573 106.551C203.147 115.049 209.832 124.08 215.639 133.892C217.879 137.677 220.202 142.08 221.887 146.213C223.864 151.061 222.379 148.212 223.823 152.491" stroke="black" stroke-width="1.81681" stroke-linecap="round"/>
<path d="M214.054 100.215C214.595 100.598 215.191 100.998 215.609 101.506C221.372 108.509 225.575 117.282 229.573 125.297C232.86 131.887 235.983 138.494 238.476 145.421C239.46 148.156 239.59 149.426 239.664 151.963" stroke="black" stroke-width="1.81681" stroke-linecap="round"/>
<path d="M127.445 68.2681C127.144 68.2681 125.066 68.1835 126.039 68.2681C127.21 68.3699 125.268 69.6382 125.077 69.7855C124.286 70.3939 126.02 70.1801 125.669 70.5535C125.49 70.7435 123.388 71.8808 123.504 71.9137C124.486 72.1944 125.243 71.7417 123.698 72.8112C123.132 73.2028 120.507 74.3187 121.912 74.9209C122.147 75.0214 121.461 76.4848 121.894 76.9288C122.541 77.5926 122.258 77.7219 122.282 78.5943C122.3 79.2375 123.56 78.8254 123.966 78.9644C124.49 79.1435 124.11 80.2361 124.873 80.4634C126.138 80.8402 127.513 80.8874 128.815 81.0555C130.003 81.2091 130.279 81.1872 129.851 82.3602C129.587 83.0849 129.335 83.471 129.685 83.9702C130.147 84.6314 128.914 85.4883 129.953 85.904C131.006 86.3252 133.551 85.6953 134.209 86.6073C134.612 87.165 135.058 87.6817 135.44 88.2543" stroke="black" stroke-width="1.81681" stroke-linecap="round"/>
<path d="M208.723 81.9252C209.437 82.5283 210.334 83.5571 211.249 83.8498C211.655 83.98 211.793 83.1455 211.85 82.906C212.077 81.9582 213.095 83.8998 213.238 82.9523C213.312 82.4621 213.529 79.108 214.515 79.8341C214.813 80.0539 215.399 81.2226 215.357 80.1672C215.32 79.2524 214.607 77.7046 214.94 76.8546C214.972 76.7746 216.696 78.4851 216.939 78.6867C217.77 79.3763 216.651 75.2005 216.81 75.2446C217.156 75.3412 218.289 76.0744 218.059 75.1799C217.74 73.9407 217.031 72.7488 216.458 71.6175C216.251 71.2089 215.505 70.0723 215.829 70.3961C216.798 71.3655 215.013 68.5728 214.903 68.231C214.821 67.975 215.383 68.1984 215.477 67.9904C215.705 67.4851 214.975 66.655 214.718 66.2693" stroke="black" stroke-width="1.81681" stroke-linecap="round"/>
<path d="M154.681 143.253L156.099 148.926" stroke="black" stroke-width="1.81681" stroke-linecap="round"/>
<path d="M156.809 144.671C156.809 146.731 156.86 148.572 157.873 150.344" stroke="black" stroke-width="1.81681" stroke-linecap="round"/>
<path d="M81.3656 198.483C82.0207 201.085 82.3877 203.813 83.2358 206.357" stroke="black" stroke-width="1.81681" stroke-linecap="round"/>
<path d="M128.688 199.206C129.488 199.909 130.169 200.771 130.903 201.535C132.097 202.777 133.364 203.622 134.654 204.701" stroke="black" stroke-width="1.81681" stroke-linecap="round"/>
<path d="M131.828 199.206C133.213 200.262 134.29 201.893 135.543 203.105C137.038 204.551 138.58 205.771 140.305 206.899" stroke="black" stroke-width="1.81681" stroke-linecap="round"/>
<path d="M137.198 34.6298C137.079 36.069 135.918 37.3779 135.269 38.6009C134.842 39.405 134.964 40.3603 135.175 41.2046" stroke="black" stroke-width="1.81681" stroke-linecap="round"/>
<path d="M139.053 35.8098C138.636 36.0374 138.45 36.7148 138.276 37.121C137.849 38.1176 137.336 39.0715 136.899 40.0619C136.251 41.5308 136.574 43.2005 136.693 44.7449" stroke="black" stroke-width="1.81681" stroke-linecap="round"/>
<path d="M218.198 49.303C215.95 51.3467 213.375 52.9464 210.752 54.4734C209.29 55.325 207.8 56.1296 206.298 56.9091C205.541 57.3017 204.774 57.6791 203.979 57.988C203.441 58.1975 205.012 57.4673 205.528 57.2082C211.065 54.4312 217.034 51.874 221.339 47.2412C222.564 45.9225 224.152 43.0791 223.903 41.0346C223.74 39.7015 220.808 39.5089 220.11 39.3681C217.283 38.7978 214.438 38.3234 211.66 37.5306C209.801 37.0001 206.439 36.3697 206.703 33.8131C206.997 30.9753 216.191 36.7389 216.232 36.7615C223.207 40.5563 229.943 44.7979 236.786 48.8223C238.391 49.7663 240.017 50.6744 241.615 51.6318C242.382 52.0919 243.168 52.5301 243.879 53.074C244.119 53.2575 244.427 53.4878 244.435 53.7897C244.446 54.2354 242.273 55.9828 242.031 56.2147C241.096 57.1121 240.149 58.0358 238.987 58.6397C237.777 59.2681 236.464 59.4943 235.119 59.4943" stroke="black" stroke-width="1.81681" stroke-linecap="round"/>
<path d="M205.574 46.9389C205.533 47.9699 205.479 49.274 204.774 50.091C204.345 50.5868 203.627 51.5433 202.901 51.5433" stroke="black" stroke-width="1.81681" stroke-linecap="round"/>
<path d="M207.059 46.9389C206.924 48.5269 206.612 50.1706 206.061 51.6671C205.456 53.3071 204.448 54.1498 203.197 55.2566" stroke="black" stroke-width="1.81681" stroke-linecap="round"/>
<path d="M154.236 70.8849C154.349 71.0684 154.322 71.1733 154.264 71.4082C154.042 72.306 153.68 73.2042 153.257 74.0245C152.995 74.5324 152.627 75.1367 152.008 75.2399C151.739 75.2848 151.491 75.4542 151.209 75.4424C150.868 75.4282 151.775 75.0486 151.997 74.7897C152.548 74.1467 153.527 73.2376 153.527 72.3028C153.527 71.567 153.528 72.5099 153.46 72.7867C153.299 73.4404 152.693 74.2401 152.205 74.7278C151.531 75.4019 152.464 74.1016 152.537 73.8557C152.829 72.8754 152.926 72.1754 152.419 71.2562C151.923 70.3584 150.507 70.4798 149.645 70.4798C148.639 70.4798 147.724 70.4384 146.82 69.9509C146.549 69.8045 146.254 69.641 145.999 69.467C145.541 69.155 146.848 70.1784 147.27 70.536C147.784 70.9708 148.362 71.4736 149.015 71.6951C149.156 71.743 149.647 71.9858 149.279 71.8076C148.481 71.4215 147.574 70.6448 147.197 69.8158C146.979 69.3359 146.943 69.3114 146.64 69.7483C146.391 70.1086 146.178 70.3423 145.988 70.778C145.897 70.9857 146.033 71.7669 146.033 71.3913" stroke="black" stroke-width="1.81681" stroke-linecap="round"/>
<path d="M187.76 72.8092C187.696 73.2239 187.437 73.4527 187.152 73.7207C187.061 73.8065 187.02 73.7538 187.079 73.6419C187.348 73.1306 187.875 72.6905 188.289 72.3028C188.732 71.8866 189.209 71.3941 189.796 71.1888C190.702 70.8725 191.692 70.7708 192.632 70.6036C193.828 70.3911 191.319 71.6206 191.248 71.6501C189.699 72.2955 188.109 72.874 186.477 73.2706C186.16 73.3476 185.325 73.7162 185.515 73.4506C185.704 73.1853 186.222 72.9915 186.499 72.8542C187.263 72.4756 188.064 72.1552 188.851 71.8302C189.363 71.6189 189.848 71.616 190.393 71.5489C190.967 71.478 191.512 71.2876 192.081 71.2C192.601 71.1201 193.117 70.9883 193.634 70.8849" stroke="black" stroke-width="1.81681" stroke-linecap="round"/>
<path d="M194.444 70.4799C194.468 70.6915 194.693 70.8719 194.804 71.0425C194.997 71.3372 195.05 71.6796 195.153 72.0103C195.323 72.555 195.254 73.1546 195.254 73.7208" stroke="black" stroke-width="1.81681" stroke-linecap="round"/>
<path d="M175.19 88.8467C175.169 89.3069 175.157 89.7786 175.081 90.2334C175.064 90.3325 175.084 90.5633 174.993 90.5217C174.877 90.469 174.919 90.2769 174.899 90.151C174.861 89.91 174.843 89.6661 174.817 89.4234C174.782 89.0969 174.77 88.7393 174.702 88.4129C174.695 88.3806 174.703 88.479 174.707 88.5117C174.793 89.2538 174.746 91.4994 174.746 90.7524C174.746 89.6373 174.696 88.5223 174.696 87.4134" stroke="black" stroke-width="1.81681" stroke-linecap="round"/>
<path d="M174.498 86.8698C174.793 87.9238 175.022 88.9869 175.234 90.0605C175.353 90.6642 175.514 91.2816 175.533 91.9003C175.534 91.923 175.544 92.4625 175.487 92.3726C175.357 92.1697 175.289 91.7575 175.289 91.5158" stroke="black" stroke-width="1.81681" stroke-linecap="round"/>
<path d="M177.415 88.4019C177.517 88.389 177.686 88.0509 177.739 87.99C178.553 87.0539 179.603 86.3342 180.49 85.4693C180.842 85.1263 181.128 84.7367 181.462 84.3792C181.928 83.8814 182.445 83.4415 182.983 83.0254C183.152 82.8952 183.543 82.5049 183.543 82.7179" stroke="black" stroke-width="1.81681" stroke-linecap="round"/>
</svg>
