<svg width="108" height="200" viewBox="0 0 108 200" fill="none" xmlns="http://www.w3.org/2000/svg">
<g clip-path="url(#clip0_247_24)">
<path d="M-30.6416 22.5757C-28.9036 21.3677 -28.7654 17.911 -28.4421 15.9996C-27.483 10.3284 -25.7616 5.12282 -23.4188 -0.12541C-22.2874 -2.66001 -20.7469 -4.91552 -18.8889 -6.97585C-16.8268 -9.26253 -16.1288 -7.34959 -14.9373 -5.41438C-10.4695 1.84217 -7.21676 9.69567 -3.17045 17.1766C-0.0665628 22.9152 3.77742 28.2388 8.08699 33.1412C9.35995 34.5893 12.395 37.4738 14.3847 37.7882C14.8682 37.8647 14.0311 35.5475 14.0057 35.433C13.6174 33.6823 13.6427 31.8366 13.3771 30.0626C12.7783 26.0624 12.3527 22.9092 13.6025 19.0116C14.7717 15.3652 15.7559 11.6045 17.0745 8.01467C17.5187 6.80553 17.7472 6.19052 18.6811 5.44111C19.8368 4.51375 19.7287 4.40085 20.8237 5.84024C23.3506 9.16207 25.3407 13.0317 27.5236 16.5772C31.1909 22.5336 34.774 28.4794 39.0652 34.0182C41.2862 36.8848 43.7253 39.7198 46.336 42.2391C49.4045 45.2002 51.9855 48.6215 54.9764 51.6698C59.9453 56.7339 64.919 61.8665 69.9211 66.8816C72.5321 69.4994 75.1216 71.7568 77.0985 74.9145C79.6559 78.9997 82.1169 83.0998 83.9022 87.596C86.3605 93.7873 85.7176 100.278 86.3278 106.722C86.6064 109.664 86.4086 112.665 86.9572 115.573C87.7622 119.841 89.1715 124.179 90.4731 128.315C92.1293 133.578 92.8542 139.051 94.5375 144.268C95.7351 147.979 96.887 151.702 98.1328 155.399C98.9274 157.756 99.9185 160.027 100.82 162.336C101.283 163.523 99.0922 162.841 98.5129 162.685C93.2568 161.268 88.4495 157.32 84.1722 154.108C78.365 149.748 73.6595 144.176 68.2231 139.403C67.2046 138.509 66.3312 138.186 65.2423 137.534C64.7527 137.241 62.2285 134.493 63.3409 135.425" stroke="black" stroke-width="1.81681" stroke-linecap="round"/>
<path d="M72.4182 144.296C71.9279 145.325 72.1695 146.654 72.1451 147.767C72.0941 150.09 72.1325 152.472 72.3819 154.784C72.756 158.252 73.7949 161.487 74.9698 164.751C76.3247 168.514 76.9014 172.43 77.8431 176.304C78.6976 179.819 80.0007 183.196 81.1942 186.603C81.342 187.026 82.1596 188.369 81.7013 188.768C80.8615 189.5 79.0678 189.1 78.0675 189.064C75.9574 188.988 73.9105 188.876 71.8267 188.533C62.6761 187.026 53.3116 185.127 44.8246 181.392C41.1025 179.753 37.1096 178.26 33.2212 177.043C29.2536 175.802 25.6465 173.538 21.8715 171.802" stroke="black" stroke-width="1.81681" stroke-linecap="round"/>
<path d="M39.0379 180.112C37.1987 185.991 31.8065 191.052 27.4213 195.097C21.8327 200.252 15.6684 205.168 8.92519 208.694C2.67984 211.96 -4.59696 213.857 -11.6818 213.571C-13.1946 213.51 -14.3985 213.145 -15.9468 213.385C-18.6705 213.808 -21.3152 214.297 -23.9711 215.068C-26.2842 215.739 -29.6694 216.57 -30.6204 218.983" stroke="black" stroke-width="1.81681" stroke-linecap="round"/>
<path d="M-1.97266 164.39C-4.59284 170.09 -3.59037 176.739 0.45121 181.375" stroke="black" stroke-width="1.81681" stroke-linecap="round"/>
<path d="M-9.90268 173.692C-10.4548 176.013 -5.90386 180.761 -4.60247 182.3C-2.13578 185.219 1.19381 186.562 4.5762 188.075" stroke="black" stroke-width="1.81681" stroke-linecap="round"/>
<path d="M19.1861 188.317C13.9739 194.988 7.63923 199.425 -0.355634 202.536C-9.03006 205.911 -18.9426 204.193 -27.9797 203.7" stroke="black" stroke-width="1.81681" stroke-linecap="round"/>
<path d="M-37.5178 36.8509C-36.525 38.8487 -36.7795 41.8288 -36.8266 43.9902C-36.8964 47.197 -37.0159 50.3864 -36.4659 53.5647C-35.7581 57.6544 -34.28 61.5013 -33.7854 65.6383C-32.8972 73.0681 -31.5541 80.4015 -30.7218 87.8304C-29.4115 99.5254 -23.463 110.247 -17.8473 120.339" stroke="black" stroke-width="1.81681" stroke-linecap="round"/>
<path d="M21.7983 144.935C20.9978 148.559 19.5964 152.316 16.3328 154.325" stroke="black" stroke-width="1.81681" stroke-linecap="round"/>
<path d="M35.8269 150.758C35.8339 155.464 34.8191 159.704 35.6482 164.458C36.252 167.92 37.296 171.254 38.0955 174.667" stroke="black" stroke-width="1.81681" stroke-linecap="round"/>
<path d="M47.1455 160.66C45.7437 166.253 48.1807 172.597 49.9006 177.82C51.8483 183.734 54.2567 189.172 57.5056 194.449" stroke="black" stroke-width="1.81681" stroke-linecap="round"/>
<path d="M49.3027 87.833C45.6328 93.6075 39.258 97.2309 33.5527 100.744" stroke="black" stroke-width="1.81681" stroke-linecap="round"/>
<path d="M47.0642 97.2449C43.5787 101.147 39.8639 104.669 35.6708 107.808C35.0306 108.287 34.926 108.387 34.2268 108.362" stroke="black" stroke-width="1.81681" stroke-linecap="round"/>
<path d="M62.9659 61.7466C63.7907 61.4852 64.7344 61.7432 65.5678 61.8406C68.2468 62.1539 70.9425 62.3369 73.5814 62.9319C81.2844 64.6686 89.7097 68.2009 95.774 73.2795" stroke="black" stroke-width="1.81681" stroke-linecap="round"/>
<path d="M74.4408 69.9455C78.759 71.6473 82.7444 76.6655 85.921 79.7477C89.4037 83.127 92.6981 86.1131 94.0974 90.7807" stroke="black" stroke-width="1.81681" stroke-linecap="round"/>
<path d="M73.076 78.8195C74.8677 79.6432 75.6789 83.3281 76.2456 84.9462C77.0222 87.1638 76.9676 88.5885 76.4399 90.8071" stroke="black" stroke-width="1.81681" stroke-linecap="round"/>
<path d="M-9.83021 81.7139C-2.61431 87.2151 4.66109 93.0863 10.2118 100.334" stroke="black" stroke-width="1.81681" stroke-linecap="round"/>
<path d="M-8.50409 93.2278C-7.74123 94.247 -5.68827 94.664 -4.58833 95.0164C-1.30594 96.068 2.06452 96.7758 5.2917 98.0024" stroke="black" stroke-width="1.81681" stroke-linecap="round"/>
<path d="M-10.9091 103.689C-5.26744 105.225 0.494883 106.217 6.03439 108.134" stroke="black" stroke-width="1.81681" stroke-linecap="round"/>
<path d="M19.4292 125.753C19.4043 129.453 16.9204 132.629 15.0799 135.669" stroke="black" stroke-width="1.81681" stroke-linecap="round"/>
<path d="M22.0676 121.985C23.2968 125.48 23.6908 129.425 23.9958 133.098C24.2222 135.825 24.4275 138.642 23.9337 141.342" stroke="black" stroke-width="1.81681" stroke-linecap="round"/>
<path d="M24.5801 122.582C26.4022 124.522 27.2424 126.975 27.6181 129.572C28.1207 133.047 28.3806 136.624 28.2851 140.137" stroke="black" stroke-width="1.81681" stroke-linecap="round"/>
<path d="M5.5558 109.098C7.83259 109.693 9.95108 111.117 11.8387 112.482C13.3289 113.559 14.6458 114.89 15.9041 116.218C16.5063 116.854 17.7229 118.059 17.3452 118.994M7.46699 127.839C6.3855 127.483 5.48779 127.038 4.54697 126.398C3.78712 125.88 2.80095 125.421 2.11582 124.819" stroke="black" stroke-width="1.81681" stroke-linecap="round"/>
<path d="M5.37988 124.485C4.24091 125.651 3.51055 126.976 2.09083 127.851" stroke="black" stroke-width="1.81681" stroke-linecap="round"/>
<path d="M8.17651 125.98C7.90688 126.743 7.57263 127.48 7.28894 128.239C7.16548 128.569 7.04534 129.285 6.74591 129.534C6.47477 129.759 6.23604 129.989 5.9344 130.175" stroke="black" stroke-width="1.81681" stroke-linecap="round"/>
<path d="M-5.82617 132.189C-5.56368 133.054 -5.69472 133.913 -5.84761 134.779C-6.05076 135.929 -5.87507 137.01 -5.7426 138.154C-5.40226 141.094 -4.95529 143.976 -4.25526 146.858C-3.69853 149.151 -3.16686 151.261 -2.08387 153.384C-1.11781 155.278 -0.31457 157.126 0.938809 158.85" stroke="black" stroke-width="1.81681" stroke-linecap="round"/>
<path d="M8.09253 151.095C7.54588 151.498 7.14306 152.501 7.13097 153.161C7.08053 155.917 9.10584 158.627 10.1737 161.042C10.8803 162.64 11.6936 164.449 12.0117 166.18C12.2077 167.247 12.5155 168.145 13.0163 169.105" stroke="black" stroke-width="1.81681" stroke-linecap="round"/>
<path d="M24.158 174.576C21.9149 174.798 19.3691 174.002 17.2728 173.298C16.7226 173.113 15.4379 172.821 15.0881 172.253" stroke="black" stroke-width="1.81681" stroke-linecap="round"/>
<path d="M16.5882 60.6232C16.9667 61.2781 16.9025 61.6813 17.0152 62.3931C17.1576 63.2918 17.3571 64.1756 17.5168 65.0701C17.782 66.5564 17.8007 68.0568 18.0573 69.5398C18.2094 70.4184 18.1695 71.3441 18.3047 72.2393C18.4828 73.4191 18.6077 74.6051 18.789 75.7832C19.1673 78.2424 20.1103 80.6657 21.0245 82.9696C21.5522 84.2995 21.9851 85.6593 22.4551 87.0105C22.7714 87.9197 23.2119 88.7806 23.4929 89.6999C24.1193 91.7488 25.1179 93.672 25.8993 95.6642C26.561 97.3512 27.2492 99.0559 27.9744 100.716C28.5069 101.934 28.7113 103.17 29.4141 104.312C31.7459 108.099 34.9323 111.152 38.1625 114.167C39.3334 115.26 40.6091 116.188 41.865 117.181C43.1602 118.206 44.3524 119.432 45.742 120.334C46.7093 120.962 47.5916 121.732 48.486 122.457C49.5267 123.3 50.7077 123.922 51.739 124.765C53.3337 126.07 54.9261 127.377 56.4673 128.756C57.454 129.639 58.7095 130.228 59.7235 131.07C60.692 131.875 61.6297 132.71 62.6392 133.46" stroke="black" stroke-width="1.81681" stroke-linecap="round"/>
<path d="M24.2937 78.7983C24.8052 79.8386 24.7512 81.286 24.9375 82.4078C25.5655 86.1892 27.1424 89.7443 28.1359 93.4316C28.6485 95.3343 28.6296 97.1857 28.95 99.0955C29.2812 101.069 30.0079 102.715 30.8715 104.502" stroke="black" stroke-width="1.81681" stroke-linecap="round"/>
<path d="M49.5519 118.734C49.0015 118.536 48.4695 118.179 47.9741 117.888C45.3508 116.352 43.123 114.542 40.8035 112.579C36.9802 109.343 33.0073 106.363 29.4433 102.835" stroke="black" stroke-width="1.81681" stroke-linecap="round"/>
<path d="M17.5415 75.4498C16.6568 75.9945 16.4575 77.0237 15.7559 77.7256C15.402 78.0796 14.9977 79.0387 14.9189 79.5589C14.7941 80.3822 14.9778 81.0088 15.0286 81.8293C15.1415 83.6503 15.9 85.3238 17.1315 86.6476C18.3056 87.9098 19.9695 90.0787 21.9709 89.6099" stroke="black" stroke-width="1.81681" stroke-linecap="round"/>
<path d="M35.5612 112.336C35.3073 113.558 34.9473 115.128 35.3395 116.33C35.9765 118.282 36.969 120.228 38.4867 121.659C38.9593 122.105 39.454 122.793 40.124 122.952C40.9296 123.144 41.754 123.245 42.5479 123.418C43.7236 123.674 45.2281 123.532 46.3527 123.116" stroke="black" stroke-width="1.81681" stroke-linecap="round"/>
<path d="M18.7613 81.1322C18.5611 80.807 18.5664 81.4221 18.6314 81.5621C18.6885 81.685 19.3276 82.5247 19.196 82.0559C19.1371 81.846 18.502 80.1608 18.3248 81.2818C18.2034 82.0497 19.2133 81.9744 19.3255 81.3954C19.3674 81.1791 19.2423 80.1872 18.9173 80.1277C18.5446 80.0595 18.3848 80.5722 18.4248 80.8032" stroke="black" stroke-width="1.81681" stroke-linecap="round"/>
<path d="M38.2532 114.967C37.8582 115.269 37.8283 116.301 38.4619 115.911C38.8868 115.649 38.4536 114.38 38.156 115.027" stroke="black" stroke-width="1.81681" stroke-linecap="round"/>
<path d="M19.9322 101.319C19.6935 101.511 18.4708 102.406 19.122 102.652C19.5992 102.832 20.4086 102.696 19.7087 103.266C19.5329 103.409 18.3069 104.334 18.4607 104.347C18.8875 104.383 19.7247 104.217 20.0733 104.523C20.2245 104.656 19.6189 105.173 19.5318 105.289C19.3441 105.538 20.016 105.501 20.1416 105.554C20.3446 105.639 19.3052 106.452 19.2845 106.677C19.2392 107.171 21.9116 106.266 20.6707 107.03C20.2085 107.314 19.7418 107.595 19.2964 107.906C19.1114 108.035 18.5952 108.329 18.8147 108.381C19.0864 108.446 19.7624 108.201 19.991 108.163C20.6098 108.06 21.2846 107.923 21.9166 107.953C22.345 107.973 20.8832 109.287 20.6912 109.482C20.2712 109.908 20.4536 109.851 20.9397 109.813C21.0706 109.802 21.7632 109.651 21.3783 109.945C21.1565 110.114 19.5733 111.179 20.1225 111.098C20.336 111.066 22.102 110.671 22.1798 110.896C22.2481 111.093 20.9614 112.136 20.7911 112.317C20.266 112.875 22.029 112.471 22.1868 112.455C22.4678 112.426 24.2217 111.948 23.7428 112.539C22.7502 113.766 24.2099 112.596 24.5446 113.043C24.806 113.393 25.4622 113.315 25.8307 113.488C26.431 113.769 25.4616 114.641 25.2653 114.915C24.6543 115.768 25.6425 115.283 26.1302 115.135C26.4231 115.046 26.7809 115.033 27.0539 114.894C27.2736 114.782 27.5576 114.879 27.7999 114.703C28.1758 114.429 28.3301 113.408 28.4376 113.029C28.7022 112.096 28.795 111.139 29.0185 110.2C29.1818 109.513 29.4348 108.915 29.7209 108.293" stroke="black" stroke-width="1.81681" stroke-linecap="round"/>
<path d="M23.6772 98.4769C23.2542 98.4818 22.8477 98.369 22.4625 98.1972C21.0011 97.5455 19.6277 96.6183 18.3298 95.6934C16.2152 94.1865 14.0591 92.6877 12.1001 90.9811C9.79273 88.971 8.09208 86.5652 6.26794 84.1328" stroke="black" stroke-width="1.81681" stroke-linecap="round"/>
<path d="M30.5225 115.037C30.5707 118.211 30.5821 121.375 30.7489 124.547" stroke="black" stroke-width="1.81681" stroke-linecap="round"/>
<path d="M27.4653 119.867C28.503 123.219 29.5637 126.523 30.8296 129.806C31.9925 132.822 33.0207 135.449 34.562 138.275C36.4341 141.707 39.0045 144.544 41.3485 147.64" stroke="black" stroke-width="1.81681" stroke-linecap="round"/>
<path d="M25.8463 101.564C26.3127 102.229 26.6153 103.024 26.9372 103.759C27.7195 105.546 28.4612 107.35 29.2433 109.137C29.4884 109.697 29.7229 110.255 30.0429 110.775" stroke="black" stroke-width="1.81681" stroke-linecap="round"/>
<path d="M26.7817 104.607C26.7044 104.482 26.6195 104.368 26.5071 104.27C26.3754 104.155 26.4449 104.26 26.5262 104.422C26.9532 105.273 27.424 106.104 27.8763 106.941C27.8889 106.965 28.9506 108.603 28.098 107.966C26.8105 107.005 25.9774 105.478 25.1517 104.136C25.1331 104.106 24.434 102.843 24.791 103.599C25.3034 104.684 25.7864 105.802 26.1517 106.946C26.4291 107.814 26.3702 108.51 25.758 107.516" stroke="black" stroke-width="1.81681" stroke-linecap="round"/>
<path d="M11.7589 195.366C8.80583 197.3 5.81605 198.839 2.35236 199.621C-0.141692 200.185 -2.69077 199.877 -5.19316 199.49C-8.20704 199.025 -11.0351 198.006 -13.8943 196.983C-15.7226 196.33 -17.6171 195.837 -19.3966 195.057" stroke="black" stroke-width="1.81681" stroke-linecap="round"/>
<path d="M18.6731 103.98C18.5001 106.019 18.3416 107.666 19.2218 109.53" stroke="black" stroke-width="1.81681" stroke-linecap="round"/>
<path d="M19.1111 103.71C18.9297 104.279 18.7606 104.841 18.6997 105.44C18.6202 106.22 18.86 106.688 18.9771 107.416" stroke="black" stroke-width="1.81681" stroke-linecap="round"/>
<path d="M18.0833 102.531C17.8747 104.801 17.605 107.498 18.5397 109.649" stroke="black" stroke-width="1.81681" stroke-linecap="round"/>
<path d="M19.938 110.448C21.2936 112.62 22.7799 114.622 24.3531 116.638" stroke="black" stroke-width="1.81681" stroke-linecap="round"/>
<path d="M22.2301 114.171C21.2983 113.724 20.7399 112.222 20.2136 111.386C19.7368 110.629 19.0919 110.055 19.8373 111.265" stroke="black" stroke-width="1.81681" stroke-linecap="round"/>
<path d="M20.1069 111.703C20.6944 112.4 21.3302 112.904 22.2191 113.104C22.9191 113.262 24.4991 113.497 24.933 114.201C25.038 114.372 22.525 114.025 22.3162 113.984C21.9591 113.913 20.9362 113.579 21.2454 113.771C21.6189 114.002 22.1528 114.112 22.5689 114.231C22.8918 114.323 24.2732 114.684 24.2021 114.676C23.2148 114.565 22.1995 113.996 21.3217 113.581C20.7038 113.289 19.6504 112.972 19.4585 112.203C19.3766 111.876 19.4465 111.564 19.4498 111.236C19.4559 110.634 19.0448 109.994 18.7513 109.502C18.4693 109.028 18.8146 109.54 18.7869 109.723C18.737 110.052 18.5437 110.334 18.3608 110.598C17.929 111.22 17.0969 111.745 16.4514 112.142C16.3983 112.175 15.9451 112.398 16.1497 112.429C17.0739 112.569 17.9769 112.079 18.8777 111.982C18.8935 111.98 17.7639 112.995 17.5153 113.148C17.2473 113.313 18.1574 112.753 18.3182 112.654C18.6122 112.473 17.7302 113.016 17.4362 113.197C16.7754 113.604 17.2638 113.349 17.5644 113.051C17.7907 112.826 18.7308 111.024 18.5743 111.053C18.1584 111.132 17.6875 111.785 17.3456 112.028C16.8203 112.401 16.2619 112.72 15.7446 113.106C15.3489 113.401 14.9513 113.67 14.5314 113.928C14.287 114.079 15.4295 113.375 15.614 113.262C16.1716 112.919 16.7292 112.575 17.2867 112.232C18.0721 111.748 16.0637 113.63 15.3269 114.185C15.1803 114.296 14.7439 114.528 14.6532 114.726C14.5065 115.045 15.1845 114.262 15.4092 113.992C16.4646 112.725 17.39 111.295 18.2535 109.892C18.7672 109.057 18.9481 108.199 19.2356 107.291C19.6555 105.964 19.3379 104.46 19.3713 103.097C19.3756 102.922 19.5993 102.12 19.7184 102.598C19.915 103.389 20.131 104.53 19.9455 105.31" stroke="black" stroke-width="1.81681" stroke-linecap="round"/>
<path d="M19.9375 108.485C20.2622 109.424 20.4811 110.404 20.7655 111.356C21.0879 112.435 20.319 111.005 20.2183 110.754C20.0595 110.356 19.4038 108.63 19.8701 108.376C20.2937 108.145 20.8174 108.859 20.9723 109.199C21.0982 109.475 20.8043 110.186 20.6876 110.439" stroke="black" stroke-width="1.81681" stroke-linecap="round"/>
<path d="M20.9575 110.878C21.3904 111.258 22.1199 111.424 22.6161 111.719C23.825 112.437 24.9969 113.531 26.3845 113.861C26.7007 113.936 25.1573 113.647 25.0476 113.611C23.9746 113.256 22.8849 112.818 21.9434 112.234" stroke="black" stroke-width="1.81681" stroke-linecap="round"/>
<path d="M4.91983 110.334C5.48575 110.124 6.53674 110.42 7.09958 110.577C8.2025 110.885 9.21828 111.341 10.1818 111.959C11.7593 112.972 13.184 114.158 14.6744 115.292C14.7326 115.336 15.5449 115.893 15.4321 115.991C15.1561 116.232 13.7371 114.871 13.59 114.743C11.9242 113.29 10.1205 110.984 7.9596 110.257C7.40558 110.071 6.27366 110.358 7.65362 110.496C9.31421 110.662 10.8172 110.765 12.193 111.82C13.8523 113.093 15.9385 114.719 16.9377 116.624C16.9951 116.734 17.4434 117.939 17.1845 117.747C16.5713 117.292 16.0941 116.537 15.6034 115.969C14.2619 114.417 12.8592 112.805 11.2524 111.518C10.2623 110.725 8.37417 110.15 7.10137 110.199C6.4292 110.224 8.11254 110.614 8.26292 110.641C10.0561 110.962 11.9297 111.554 13.3949 112.682C14.9124 113.85 16.2428 115.879 17.0188 117.614C17.0263 117.631 17.6553 119.042 17.2727 118.817C17.1024 118.717 16.9769 118.391 16.8739 118.224" stroke="black" stroke-width="1.81681" stroke-linecap="round"/>
<path d="M17.5518 61.9402C17.6637 62.2426 17.4676 62.761 17.4865 63.0876C17.5334 63.8962 17.528 64.6978 17.5657 65.505C17.6436 67.1771 18.1531 68.7249 18.337 70.3818C18.6569 73.2648 19.6566 75.9841 20.5887 78.7257C21.1371 80.3387 21.3482 82.0403 21.873 83.6726C22.8874 86.8282 24.2553 89.7154 25.8188 92.6428C27.0764 94.9973 28.5924 97.1158 28.9379 99.8068C28.9706 100.062 28.9194 100.149 28.7283 99.9023C28.1397 99.1424 27.7373 98.2519 27.4249 97.3495C26.0478 93.3708 24.7161 89.3971 23.2641 85.4416C22.2988 82.8122 21.4414 80.1572 20.726 77.4501C20.0652 74.9494 18.9934 72.5899 18.3435 70.0926C18.0518 68.972 17.6112 67.7559 17.7606 66.5845C17.8486 65.8943 18.1005 65.2511 18.1944 64.5643C18.2071 64.4709 18.4166 63.185 18.4506 63.509C18.5146 64.1208 18.4319 64.771 18.4463 65.3822C18.4901 67.2407 18.8114 68.9798 19.3263 70.7625C20.1409 73.5825 20.7001 76.5002 21.7194 79.2543C22.7644 82.0776 23.964 84.8043 24.4438 87.7937C24.9117 90.7081 25.7116 93.5396 26.5585 96.3647C26.8851 97.4538 28.3295 100.535 27.7333 99.567C27.5676 99.2979 27.4919 99.0248 27.4112 98.7169C26.7519 96.2002 25.9906 93.7334 25.1428 91.2723C23.2448 85.7626 21.7363 80.066 19.5279 74.6731C18.272 71.6062 16.6686 68.6669 15.5179 65.5579C15.4484 65.3701 15.3416 64.8043 15.4682 64.9594C15.9819 65.5889 16.3249 66.4591 16.6807 67.1739C18.3981 70.6246 19.9896 74.1638 21.6105 77.6605C23.1723 81.0296 23.9629 84.6213 25.1557 88.1188C26.5023 92.0675 28.0039 96.0378 28.9482 100.069" stroke="black" stroke-width="1.81681" stroke-linecap="round"/>
<path d="M28.2082 102.79C31.0979 106.149 34.7809 108.996 38.1733 111.796C40.764 113.934 43.4921 116.297 46.5046 117.848C46.6011 117.897 46.902 118.019 46.8097 117.962C46.1067 117.526 45.419 117.328 44.6775 116.842C39.9445 113.738 35.875 109.662 31.7297 105.84C31.0378 105.202 30.0391 104.274 29.2884 103.618C29.1744 103.519 29.0601 103.419 28.936 103.332C28.7687 103.215 29.2212 103.624 29.3745 103.758C36.9103 110.362 44.537 116.773 52.5773 122.765C55.1468 124.68 57.8767 126.496 60.2647 128.643C61.5936 129.838 58.1844 128.374 57.9239 128.247C56.7853 127.693 55.8257 127.014 54.7919 126.267C52.1476 124.356 49.5428 122.352 47.0503 120.246C43.8759 117.564 41.059 114.465 37.8406 111.841C37.096 111.234 37.3684 111.655 37.7934 111.996C39.8616 113.654 41.9943 115.215 44.0243 116.925C48.5265 120.718 52.9164 124.535 57.8882 127.699" stroke="black" stroke-width="1.81681" stroke-linecap="round"/>
<path d="M17.5153 75.1899C16.5363 75.7569 15.2035 76.2955 14.5134 77.2492C13.9151 78.0762 13.7774 79.1869 13.9555 80.169C14.2531 81.8097 14.9965 83.3956 15.5854 84.9514C16.0309 86.1281 16.6715 87.2147 17.4347 88.2121C17.9448 88.8788 18.4512 89.6472 19.1191 90.1687C19.6731 90.6012 20.5111 90.4993 21.1621 90.3934C21.2282 90.3826 21.6119 90.2886 21.6248 90.1709C21.6308 90.1162 21.5215 90.1252 21.4666 90.1243C20.7129 90.1118 20.0002 89.9749 19.2716 89.7774C18.3691 89.5328 17.2809 89.2946 16.6447 88.5498C15.8742 87.6476 15.2956 86.5805 14.9954 85.4346C14.5197 83.6191 13.5702 81.6329 14.3162 79.7886C14.857 78.4517 15.7548 77.578 16.8755 76.7065C17.3375 76.3471 17.8306 75.8883 18.4308 75.8352" stroke="black" stroke-width="1.81681" stroke-linecap="round"/>
<path d="M35.7387 112.503C35.3816 114.004 35.0907 115.539 35.3554 117.085C35.5856 118.43 36.3219 120.058 37.3815 120.976C38.3806 121.842 39.6181 122.709 40.8198 123.249C41.7454 123.665 42.7728 123.793 43.77 123.591C44.3813 123.467 44.9715 123.189 45.5144 122.887C45.5534 122.865 45.9449 122.527 45.681 122.635C45.4778 122.719 45.2875 122.889 45.1108 123.01C44.4528 123.464 43.7636 123.892 42.9964 124.135C42.076 124.426 40.8084 124.64 39.9806 124.005C38.9027 123.179 38.0617 122.097 37.4422 120.895C37.0005 120.039 36.6187 119.15 36.2782 118.249C36.1076 117.798 35.9586 117.401 35.968 116.919C35.9925 115.658 36.1129 114.489 36.3659 113.249C36.3792 113.184 36.5525 112.713 36.4563 112.881C36.0461 113.598 35.64 114.372 35.5187 115.2C35.3335 116.465 35.974 117.513 36.6109 118.548C37.1096 119.358 37.6381 120.022 38.3419 120.658" stroke="black" stroke-width="1.81681" stroke-linecap="round"/>
<path d="M5.53556 109.736C8.34962 110.325 10.8424 111.196 12.8316 113.317C13.7683 114.316 14.6593 115.356 15.5343 116.408C16.0359 117.011 15.9847 117.9 16.0665 118.644C16.1238 119.165 16.1979 119.688 16.2875 120.205" stroke="black" stroke-width="1.81681" stroke-linecap="round"/>
<path d="M-16.0264 -7.56736C-14.2395 -2.33891 -11.5273 2.62026 -8.96704 7.48699C-5.27297 14.509 -1.41679 21.4356 2.87064 28.1141C3.38924 28.9219 5.17288 31.1304 4.4097 30.5482C4.03828 30.2648 3.7352 29.691 3.48271 29.327C0.271453 24.6977 -2.64471 19.8746 -5.84019 15.2352C-9.07468 10.5392 -12.9742 6.16935 -15.714 1.14579C-16.2817 0.104964 -16.9062 -1.23863 -16.7708 -2.4744C-16.6282 -3.7759 -16.9351 -3.56307 -17.7389 -2.47118C-18.5394 -1.38364 -19.3484 -0.30865 -20.1891 0.748446C-20.546 1.19723 -21.2805 2.66781 -21.2598 2.09479C-21.2406 1.56476 -20.39 0.0999835 -20.2321 -0.262437C-19.762 -1.34175 -19.1736 -2.42051 -18.8018 -3.54121C-17.9092 -6.23264 -21.3209 1.56074 -22.2071 4.25433C-23.7773 9.0273 -24.9399 13.9056 -25.9716 18.8188C-26.2956 20.362 -26.425 22.2715 -26.9731 23.8006C-27.1438 24.2768 -26.3129 22.0059 -26.3091 21.9906C-24.7923 15.9424 -25.3893 9.56712 -25.0896 3.40191C-24.8428 -1.67715 -24.2518 -7.0193 -21.5093 -11.4399C-21.0863 -12.1218 -19.891 -13.5037 -18.9182 -13.0083C-17.19 -12.1281 -15.7539 -10.1606 -14.6189 -8.71686C-12.0538 -5.45404 -9.79257 -1.95969 -7.88002 1.72503C-6.12493 5.10636 -4.78802 8.67087 -3.19978 12.1275C-1.60587 15.5965 0.277577 18.9517 2.23649 22.2262C4.17056 25.4593 6.16688 28.5338 9.11851 30.9094C9.47063 31.1928 11.5159 33.4243 12.0622 32.802C12.5653 32.2288 12.7157 31.3412 12.7336 30.6102C12.8089 27.5363 12.0399 24.4042 11.6087 21.3869C11.1004 17.8304 10.5579 14.1906 10.8592 10.5851C10.9591 9.38956 11.1974 7.98608 12.2654 7.2673C13.8058 6.23055 15.3954 8.76703 16.1382 9.70611C21.4171 16.3799 24.6365 24.4461 29.9264 31.0723C30.1106 31.303 34.0995 35.7756 34.0569 33.339C34.0392 32.3262 33.8238 31.3101 33.5797 30.332C33.5689 30.2884 32.5525 27.569 33.4486 28.4996C35.3394 30.4634 36.8357 33.1202 38.2791 35.3606C43.0253 42.7275 47.6846 50.1453 52.7273 57.3174C57.9489 64.7438 63.5008 71.8728 69.4693 78.7108C71.9162 81.514 72.6973 82.3185 74.8897 84.6697C75.125 84.9222 75.7761 85.6955 75.6474 85.3753C74.9285 83.5863 73.7212 81.7096 72.7594 80.0937C69.4651 74.5594 65.928 69.1992 62.0486 64.0541C50.6132 48.8878 37.9474 34.6245 25.6632 20.1436C25.6464 20.1238 23.3035 16.6045 22.5223 17.0117C21.5135 17.5376 21.5487 20.143 20.6526 18.1763C20.1153 16.9969 20.0855 19.1382 20.0546 19.3933C19.7038 22.2882 19.4436 25.1973 19.1922 28.1022C19.1459 28.6372 19.2138 31.1563 18.8008 31.8865C18.4693 32.4725 18.5293 30.5666 18.4396 29.8994" stroke="black" stroke-width="1.81681" stroke-linecap="round"/>
<path d="M80.8459 85.5692C81.0583 86.8311 80.9037 88.2597 80.8949 89.5C80.8481 96.1191 81.233 102.715 82.3845 109.25C84.8139 123.036 89.6476 136.315 95.4215 149.024C95.7556 149.76 95.0119 147.459 94.8828 146.662C93.8495 140.278 92.051 133.972 89.3357 128.089C88.9077 127.162 88.2862 125.555 87.5679 124.759C87.4812 124.663 87.6181 125.013 87.6529 125.138C88.6958 128.874 87.6456 124.767 89.0866 130.398C90.9058 137.508 92.1602 145.187 95.4221 151.826C96.2396 153.49 97.2157 155.068 98.177 156.651C98.2624 156.792 98.3494 156.931 98.4356 157.071C98.6642 157.442 97.9801 156.328 97.7597 155.951C95.1559 151.506 90.7794 147.94 86.7005 144.882C86.0963 144.429 85.586 144.086 86.2181 145.017C87.346 146.679 88.5889 148.263 89.7411 149.908C89.776 149.958 91.8958 152.635 91.6922 153.099C91.6542 153.186 91.4958 153.079 91.4179 153.025C90.7736 152.581 88.052 150.245 88.017 150.215C84.5754 147.271 81.1816 144.27 77.7287 141.339C76.9138 140.647 74.6268 138.535 75.1083 139.49C75.3422 139.954 78.4084 144.006 77.8654 144.34C77.5275 144.548 77.1365 144.019 76.7988 143.811C75.1475 142.792 73.5013 141.758 71.891 140.676C69.9205 139.351 67.7759 137.96 66.0403 136.316C64.7766 135.118 63.8491 133.364 62.7639 132.001C62.4819 131.646 61.9155 130.567 61.8317 131.012C61.7263 131.572 63.0167 133.819 63.1598 134.263C63.7942 136.229 64.2864 138.243 64.771 140.25C64.8392 140.532 65.3259 141.932 65.1578 142.41C64.5836 144.041 65.1541 147.499 65.2826 149.177C66.3597 163.24 70.1624 177.025 75.581 190.018C76.4833 192.181 78.1011 196.963 80.0948 198.771C81.055 199.642 80.667 196.167 80.4163 194.895C80.0876 193.227 79.5459 191.67 78.7468 190.17C78.2532 189.244 77.402 188.288 77.0746 187.279C77.0612 187.238 80.201 188.051 80.6591 188.09C82.4509 188.244 77.3843 186.46 75.6042 186.204C74.5757 186.056 75.2266 186.224 75.23 186.515C75.2343 186.893 74.465 186.526 74.0996 186.43C72.3373 185.966 70.053 185.16 68.4231 184.563C65.5268 183.502 62.7052 182.23 59.8016 181.195C59.6741 181.149 59.3243 181.007 59.4032 181.116C59.8347 181.717 60.6277 181.945 61.2434 182.355C62.938 183.481 64.6297 184.613 66.3001 185.776C67.0436 186.293 68.5098 187.079 69.0597 187.916C69.2934 188.272 68.3074 188.442 67.8828 188.412C65.2966 188.225 62.7374 187.396 60.2658 186.675C59.5322 186.461 58.8046 186.227 58.074 186.004C57.5879 185.855 56.4492 185.177 56.5865 185.667C56.88 186.712 59.204 188.038 60.01 188.732C60.3479 189.024 61.3871 189.496 60.973 189.662C60.3263 189.921 57.4383 189.063 57.2171 189.01C54.3485 188.328 51.5663 187.417 48.7649 186.508C48.2468 186.34 46.2192 185.43 45.4689 185.64C45.2373 185.705 45.7417 186.27 45.3782 186.303C43.3681 186.48 39.7748 184.581 38.2458 183.931C33.0373 181.715 27.5312 179.302 22.8416 176.089" stroke="black" stroke-width="1.81681" stroke-linecap="round"/>
<path d="M32.961 178.625C32.1521 180.385 32.1399 182.681 31.8708 184.552C31.752 185.378 31.7024 191.192 29.605 188.95C29.4383 188.772 26.807 184.983 26.8402 186.288C26.896 188.478 27.9557 190.468 28.4436 192.551C28.5055 192.815 24.1053 191.467 23.2058 192.655C21.7334 194.6 15.1038 189.543 12.952 189.185C12.1751 189.056 16.1984 192.744 15.4265 193.128C13.8818 193.896 11.7467 193.954 11.8045 196.085C11.8504 197.781 9.94408 198.451 8.59829 197.661C1.84266 193.694 -10.9018 173.229 -6.79436 179.9C-5.82056 181.481 -5.80732 183.335 -5.81946 185.141C-5.86647 192.134 -6.18157 199.143 -6.31212 206.137C-6.3489 208.107 -6.32601 210.764 -5.29367 207.105C-4.76469 205.231 -4.44643 203.25 -4.69554 201.294C-4.90599 199.642 -6.77942 195.929 -7.71187 197.31C-8.70767 198.784 -9.37499 203.968 -9.52938 204.951C-10.0258 208.109 -10.338 210.613 -10.6281 213.721C-10.7104 214.603 -11.3535 216.671 -10.5189 216.375C-9.98778 216.187 -10.1894 217.58 -10.1888 217.673C-10.1705 220.281 -10.2808 223.107 -9.51169 225.632C-8.97679 227.388 -8.68512 224.69 -8.69265 224.447C-8.7068 223.991 -9.7709 218.031 -10.7696 219.016C-11.8609 220.093 -11.7056 223.148 -11.6871 224.461C-11.6678 225.839 -11.5213 227.038 -11.2858 228.39C-11.1549 229.141 -10.4714 231.199 -11.013 230.662C-12.1746 229.51 -13.3628 226.746 -15.1589 226.481C-16.6979 226.255 -16.1286 229.073 -16.8034 229.488C-17.276 229.779 -19.7661 227.703 -20.28 227.499C-22.063 226.793 -21.0553 230.068 -20.9179 230.731C-20.5678 232.421 -20.0235 234.11 -19.8213 235.827C-19.6666 237.141 -21.29 235.187 -21.413 235.071C-24.4745 232.195 -24.4991 235.534 -24.4264 238.217C-24.4008 239.161 -22.5713 244.227 -23.3911 244.547C-24.261 244.887 -25.7255 243.933 -26.3727 243.591C-29.2522 242.07 -32.0206 240.253 -34.6899 238.389C-36.5619 237.082 -35.3423 238.46 -34.5089 239.826C-33.4546 241.554 -32.3793 243.27 -31.3248 244.998C-30.8544 245.769 -29.2533 247.64 -30.132 247.431C-30.92 247.243 -33.2035 244.891 -33.7249 246.053C-33.8603 246.355 -33.5559 246.935 -33.8713 247.035C-34.2589 247.158 -34.7695 246.129 -35.3097 246.794C-35.4537 246.972 -35.7309 248.518 -35.9284 248.419C-36.7186 248.02 -37.3536 245.803 -38.5228 246.567C-39.51 247.213 -42.7468 251.913 -42.8869 249.653C-42.9467 248.689 -44.6496 251.615 -44.8014 250.621C-45.1698 248.21 -45.2286 245.754 -45.837 243.375C-46.5732 240.497 -49.0402 243.9 -50.0745 244.952C-50.0977 244.976 -52.6609 247.653 -52.7047 247.158C-52.7881 246.215 -51.941 242.135 -54.0534 243.977C-54.6384 244.487 -59.6107 249.846 -60.087 249.381C-61.2419 248.252 -58.1654 244.886 -60.0554 244.669C-60.9769 244.564 -58.8801 240.661 -61.3516 242.183C-62.8182 243.086 -64.2054 244.002 -65.8271 244.516" stroke="black" stroke-width="1.81681" stroke-linecap="round"/>
<path d="M48.0325 46.0372C52.3031 46.5645 56.4774 51.5162 58.8607 54.479C66.604 64.1053 73.01 74.8799 80.0567 85.0187" stroke="black" stroke-width="1.81681" stroke-linecap="round"/>
<path d="M41.6462 37.7222C43.5437 39.6453 45.6282 41.362 47.6024 43.2047C53.5164 48.7248 58.7914 54.7059 63.8013 61.0555C70.7823 69.9035 77.1741 79.0737 83.4261 88.4335" stroke="black" stroke-width="1.81681" stroke-linecap="round"/>
<path d="M54.1576 47.7552C52.3857 47.3337 52.9242 47.7641 54.1187 49.1399C62.6048 58.9141 71.0818 68.7545 78.6677 79.2574C83.2707 85.6304 85.5717 93.2106 88.0879 100.578C88.8331 102.76 89.8325 105.243 87.5989 102.756" stroke="black" stroke-width="1.81681" stroke-linecap="round"/>
<path d="M72.7986 75.9738C77.2621 84.3797 80.4311 94.0603 83.3063 103.1C84.675 107.403 86.7561 112.275 86.5892 116.891" stroke="black" stroke-width="1.81681" stroke-linecap="round"/>
<path d="M17.0447 5.99536C16.3777 6.57681 16.0756 7.47339 15.7757 8.27817C14.6423 11.3197 13.6155 14.5212 12.9128 17.689C12.0132 21.7447 10.613 27.0998 12.9511 30.8972" stroke="black" stroke-width="1.81681" stroke-linecap="round"/>
<path d="M12.1223 12.4041C12.3441 19.7309 12.2024 27.3507 13.7056 34.5615C14.8381 39.9939 17.2946 45.0229 19.6457 50.0012" stroke="black" stroke-width="1.81681" stroke-linecap="round"/>
<path d="M12.0994 15.7963C12.884 19.4316 12.9172 23.3823 13.5716 27.0659C15.498 37.9092 19.9184 47.2544 24.1704 57.3501" stroke="black" stroke-width="1.81681" stroke-linecap="round"/>
<path d="M92.9588 156.044C91.282 157.076 89.0468 156.821 87.3048 156.006C83.2763 154.12 79.8713 150.277 76.9072 147.158C70.4862 140.401 64.8308 133.07 58.8163 125.967" stroke="black" stroke-width="1.81681" stroke-linecap="round"/>
<path d="M87.5862 150.061C82.9971 148.641 78.7505 144.296 75.1456 141.439C69.0343 136.596 63.8874 131.819 58.8163 125.968" stroke="black" stroke-width="1.81681" stroke-linecap="round"/>
<path d="M89.636 151.333C80.7197 149.403 73.7956 142.092 68.1343 135.386C66.4129 133.347 61.2659 126.896 59.507 124.651C58.469 123.325 57.1442 122.139 56.5273 120.573C56.5144 120.54 58.165 121.576 58.2735 121.656" stroke="black" stroke-width="1.81681" stroke-linecap="round"/>
<path d="M84.2643 150.839C80.9275 149.867 77.9538 147.157 75.4183 144.93C67.2338 137.743 60.1798 129.663 53.0904 121.469" stroke="black" stroke-width="1.81681" stroke-linecap="round"/>
<path d="M10.7314 9.45935C13.2842 14.7848 13.1028 21.8113 13.7483 27.5435C14.301 32.4509 15.3283 36.8813 16.9579 41.5206" stroke="black" stroke-width="1.81681" stroke-linecap="round"/>
<path d="M9.50806 15.7028C11.2621 22.8143 12.2972 30.184 14.6943 37.1199C17.7172 45.8662 22.3213 54.042 26.3861 62.3206" stroke="black" stroke-width="1.81681" stroke-linecap="round"/>
<path d="M10.0039 21.3094C11.2888 26.4744 11.2059 31.7957 12.8828 36.9212C15.4676 44.8219 19.7681 52.0566 23.6997 59.3292" stroke="black" stroke-width="1.81681" stroke-linecap="round"/>
<path d="M19.9789 79.7101C19.4694 80.0238 18.6184 80.3595 18.2829 80.8691C18.0654 81.1994 20.1117 81.3524 20.2241 81.3663" stroke="black" stroke-width="1.81681" stroke-linecap="round"/>
<path d="M20.3751 81.4022C19.6939 82.0635 18.7756 82.4968 17.9579 82.9622C17.0166 83.4979 19.2542 82.9438 19.5494 82.9146C20.396 82.8309 20.1498 82.9066 19.6907 83.2723C19.6522 83.3029 19.3789 83.5541 19.5955 83.5603C19.7227 83.564 20.8496 83.4576 20.8353 83.5356C20.7709 83.8877 19.5209 84.3407 19.2165 84.5754C18.9988 84.7432 20.9173 84.3409 20.3323 84.7919C20.1668 84.9195 20.1494 85.1059 19.9151 84.9413C18.9923 84.2929 18.1803 83.0373 17.9765 81.9324C17.9344 81.7041 17.9586 78.8317 18.5516 79.1043C18.7752 79.2071 18.7584 79.7078 18.6273 79.868C18.1422 80.461 18.2004 81.2618 18.1573 81.9932" stroke="black" stroke-width="1.81681" stroke-linecap="round"/>
<path d="M38.2771 113.623C38.5533 114.663 38.9195 115.559 39.4423 116.506C40.0003 117.516 40.6274 118.898 41.4805 119.711C41.8589 120.072 42.4867 119.551 42.8294 119.34" stroke="black" stroke-width="1.81681" stroke-linecap="round"/>
<path d="M42.858 118.548C40.1244 119.249 38.5544 116.168 37.8382 114.087C37.548 113.244 37.923 113.382 38.2355 114.022C38.6147 114.799 39.5161 118.154 40.8426 117.243C40.9939 117.139 39.1753 116.715 39.0578 116.685C38.0556 116.429 37.1793 116.067 36.7299 115.071C36.6295 114.848 36.7507 114.552 36.9762 114.446C37.4994 114.199 37.9696 115.563 38.1223 115.841C38.4643 116.464 38.9146 117.594 39.5606 117.968C39.7925 118.102 40.6238 117.868 40.3563 117.851C39.0682 117.77 37.7705 116.662 36.9357 115.754C36.768 115.572 35.4606 113.661 36.2705 114.558C36.6682 114.998 36.8927 115.546 37.4566 115.785C38.1966 116.099 38.9561 116.373 39.7251 116.604" stroke="black" stroke-width="1.81681" stroke-linecap="round"/>
<path d="M42.4761 118.07C41.1832 118.252 39.6798 118.638 38.358 118.439C37.6785 118.336 37.318 117.738 36.9383 117.234C36.2923 116.378 36.8088 116.803 37.3177 117.208C37.9102 117.68 38.1691 118.174 38.9215 117.998C38.9573 117.989 39.3818 117.938 39.1135 117.942C38.5046 117.952 37.9524 117.629 37.469 117.291C37.2598 117.144 36.6956 116.629 36.8612 116.823C37.0972 117.101 37.4026 117.297 37.7097 117.488C38.7092 118.108 40.0722 117.864 41.1988 117.851C41.2982 117.85 41.9136 117.773 41.8781 117.822C41.3085 118.606 40.0549 119.03 39.1369 119.02C37.8073 119.006 36.7204 118.139 35.7851 117.279C35.4717 116.99 34.8037 116.095 35.682 116.601C36.227 116.916 36.7025 117.324 37.2222 117.675C38.0513 118.234 38.9729 118.602 39.9233 118.9C40.3553 119.036 40.8767 119.149 41.2971 118.908C41.3374 118.885 41.2199 118.96 41.1788 118.981C40.5668 119.299 39.8596 119.469 39.1885 119.604C38.6694 119.708 38.4906 119.681 38.0759 119.51C37.8662 119.424 37.665 118.892 37.5531 118.702C36.7921 117.412 36.1905 116.004 35.5204 114.666" stroke="black" stroke-width="1.81681" stroke-linecap="round"/>
<path d="M18.7722 80.6709C17.5469 80.7277 16.4589 80.2546 15.5023 79.5006C15.3745 79.3999 14.1159 78.1122 15.1363 78.6207C15.79 78.9465 16.2214 79.6326 16.5463 80.2581C17.2495 81.6117 18.0027 82.8015 18.9972 83.9735C19.161 84.1666 19.9611 85.3348 20.3678 85.2207C20.4373 85.2012 20.2308 85.1755 20.1625 85.1524C19.2388 84.84 18.327 84.4759 17.4187 84.1228C16.4603 83.7502 14.0781 82.8603 14.9354 82.2923C15.153 82.1481 15.5641 82.2212 15.7968 82.2329C16.4266 82.2647 16.9735 82.1914 17.4809 81.7862C18.6696 80.8373 17.9331 79.3169 17.781 78.0411C17.7514 77.7926 17.73 77.7088 17.4446 77.7396C16.1636 77.8778 15.1007 78.7666 14.7072 79.9839C13.7053 83.0826 18.9309 81.7909 19.5213 79.6132C19.5808 79.3939 19.6914 78.2574 19.1753 78.3883C18.3259 78.6036 17.2663 79.1652 16.7585 79.8888C16.5695 80.1582 16.0836 81.0864 16.4513 81.4092C17.0742 81.956 18.3207 80.4558 18.515 80.0695C18.9019 79.3001 19.3008 77.464 18.7391 76.66C18.3751 76.1389 16.9229 78.5339 16.8613 78.7706C16.6193 79.7004 16.7001 80.7526 17.208 81.5775C17.7537 82.4639 18.5278 80.6958 18.66 80.244C18.837 79.6395 18.7231 78.4884 18.1845 78.0438C17.6399 77.5942 15.5997 79.2717 15.2697 79.6124C14.3145 80.5985 14.4461 81.8358 15.2438 82.8748C16.1528 84.0589 17.3803 84.2337 18.4176 83.0934C18.4747 83.0305 19.4224 81.6219 19.0008 81.5726C18.3498 81.4964 17.3309 82.7382 17.0977 83.2341C16.8309 83.8013 17.6788 84.0815 17.9658 83.6039C18.2325 83.16 18.1429 82.4445 17.7196 82.4493" stroke="black" stroke-width="1.81681" stroke-linecap="round"/>
<path d="M42.8604 118.705C41.7802 119.37 39.6446 120.818 38.5391 119.55" stroke="black" stroke-width="1.81681" stroke-linecap="round"/>
<path d="M19.4554 81.674C18.6608 82.3668 17.6952 81.8796 16.8332 81.6746" stroke="black" stroke-width="1.81681" stroke-linecap="round"/>
<path d="M19.9097 100.76C20.4789 102.659 20.6497 104.668 21.4615 106.485C21.6596 106.928 21.6163 106.864 21.3439 106.512C20.9185 105.962 20.8977 105.244 20.8046 104.58C20.6642 103.58 20.1311 102.066 21.132 103.729C21.6303 104.557 21.9109 105.337 22.0941 106.274" stroke="black" stroke-width="1.81681" stroke-linecap="round"/>
<path d="M25.3481 112.542C23.7984 111.79 19.3638 109.148 20.9404 109.843C22.4001 110.486 23.4822 111.821 24.8873 112.467C25.1516 112.589 24.5449 111.997 24.3588 111.773C23.8859 111.204 23.4178 110.631 22.9317 110.074C22.0023 109.008 23.5338 110.554 23.7484 110.781C24.2053 111.266 25.6372 112.651 25.1155 112.237C23.9094 111.281 22.987 109.855 22.0398 108.662C21.5425 108.035 21.7106 108.135 22.1436 108.575C22.7479 109.19 23.3061 109.846 23.8809 110.487C24.8095 111.523 25.7036 112.585 26.7438 113.499" stroke="black" stroke-width="1.81681" stroke-linecap="round"/>
<path d="M21.8695 107.22C22.7403 108.213 23.4536 109.138 24.1435 110.258" stroke="black" stroke-width="1.81681" stroke-linecap="round"/>
<path d="M26.4956 112.44C26.265 112.515 25.5165 112.591 25.933 112.764C26.1773 112.866 27.1104 113.403 27.0335 113.387C26.708 113.317 25.738 113.079 26.0619 113.156C26.3242 113.218 26.4423 113.175 26.6534 113.352" stroke="black" stroke-width="1.81681" stroke-linecap="round"/>
<path d="M28.9474 105.283C29.1118 105.801 28.2572 104.44 27.9424 103.996C27.4449 103.295 27.3364 103.141 26.8085 102.464C26.528 102.104 25.5566 101.38 26.0117 101.352C26.7345 101.307 28.1857 103.958 28.497 104.405C29.055 105.208 30.6267 107.682 30.1144 106.85C29.7637 106.281 29.3627 105.693 29.208 105.032C29.0177 104.22 30.1994 105.264 30.3791 105.387C30.5628 105.513 31.2957 106.148 31.1996 105.992C30.6775 105.144 30.1555 104.296 29.6335 103.448" stroke="black" stroke-width="1.81681" stroke-linecap="round"/>
<path d="M29.9262 103.268C29.5677 102.685 30.2198 103.745 30.3165 103.902C30.6206 104.396 29.8059 102.859 29.5897 102.321C29.0858 101.067 28.548 99.8185 28.0945 98.5453C27.8445 97.8431 27.8568 97.6194 28.3483 98.2658C29.614 99.9302 30.6372 101.801 31.7319 103.579C31.9638 103.956 32.6511 105.09 32.4274 104.709C31.9253 103.853 31.4635 102.978 31.0176 102.092C30.7648 101.589 29.8309 100.33 30.3533 100.539C30.8343 100.732 31.4917 101.673 31.7728 102.008C32.8747 103.317 35.57 107.652 34.9048 106.075C33.8108 103.482 32.1862 101.089 30.738 98.6885C30.352 98.0489 29.1534 96.2113 29.7297 96.6868C30.3022 97.1592 30.7627 97.7782 31.2706 98.3158C32.2581 99.3612 31.3225 98.2633 31.4419 98.1207C31.4622 98.0964 36.7837 103.784 37.1914 104.219C37.6311 104.688 38.8755 106.132 38.5703 105.567C37.907 104.337 36.9725 103.157 36.2069 102.001C35.1362 100.384 33.9659 98.7788 33.0209 97.0812C32.6623 96.437 32.97 96.5793 33.3972 96.7823C35.3366 97.7036 32.9569 96.1568 34.0209 95.5017" stroke="black" stroke-width="1.81681" stroke-linecap="round"/>
<path d="M36.2898 164.368C36.3942 164.814 36.325 165.272 36.4487 165.718C36.7812 166.916 37.3735 166.4 38.1757 166.928" stroke="black" stroke-width="1.81681" stroke-linecap="round"/>
<path d="M38.5392 167.015C38.9991 169.085 42.0574 169.172 43.8152 169.485C44.527 169.612 45.6818 169.241 45.9409 169.916C46.1166 170.374 45.6161 170.787 45.9085 171.262C47.0383 173.097 50.5118 172.895 52.2701 172.53C52.6476 172.452 53.231 171.853 53.3809 172.208C53.5218 172.542 52.3907 174.229 52.2802 174.505C51.9288 175.382 51.6524 176.337 51.6706 177.292C51.6912 178.376 52.837 177.964 53.6012 177.826C55.7455 177.439 57.9028 176.931 59.9939 176.319C61.4123 175.903 62.8399 175.152 64.3206 174.981C65.15 174.885 63.5696 176.489 63.5581 176.932C63.4988 179.21 70.659 179.415 72.011 179.582" stroke="black" stroke-width="1.81681" stroke-linecap="round"/>
<path d="M12.3979 138.153C9.13291 149.057 4.94679 159.485 -0.363797 169.574C-2.41227 173.466 -4.94381 177.753 -7.57963 181.355C-10.6713 185.579 -9.02338 182.821 -11.9104 186.295" stroke="black" stroke-width="1.81681" stroke-linecap="round"/>
<path d="M27.4832 150.568C27.4399 151.229 27.4124 151.947 27.1992 152.569C24.2574 161.148 18.9904 169.326 14.261 176.933C10.3729 183.187 6.38426 189.31 1.79221 195.066C-0.0205894 197.338 -1.03422 198.113 -3.15555 199.507" stroke="black" stroke-width="1.81681" stroke-linecap="round"/>
<path d="M9.27942 60.0678C9.1214 59.8112 8.10404 57.9974 8.54205 58.8702C9.06946 59.9211 6.97122 58.9322 6.74533 58.8463C5.81263 58.4918 6.90408 59.8568 6.40184 59.7533C6.14627 59.7006 4.07603 58.5072 4.10842 58.6226C4.38445 59.6063 5.16674 60.0135 3.44601 59.2587C2.8161 58.9824 0.489397 57.3319 0.713278 58.844C0.750636 59.0964 -0.855116 59.2797 -1.00621 59.881C-1.23216 60.7802 -1.49057 60.6071 -2.22072 61.0851C-2.7591 61.4376 -1.74761 62.2944 -1.65298 62.7132C-1.531 63.2529 -2.66051 63.5023 -2.45399 64.2712C-2.11162 65.5461 -1.43091 66.7417 -0.891667 67.9383C-0.399283 69.0308 -0.235927 69.2544 -1.4593 69.5047C-2.21513 69.6594 -2.67571 69.6477 -2.91761 70.207C-3.23801 70.9479 -4.61457 70.3464 -4.42368 71.4494C-4.23029 72.5668 -2.35972 74.4036 -2.79096 75.4425C-3.05473 76.078 -3.26081 76.7287 -3.54825 77.354" stroke="black" stroke-width="1.81681" stroke-linecap="round"/>
<path d="M40.2621 136.439C40.1233 137.364 39.7173 138.667 39.9476 139.599C40.0501 140.014 40.8326 139.693 41.0666 139.616C41.993 139.313 40.873 141.197 41.7549 140.822C42.2111 140.628 45.1813 139.055 45.0797 140.275C45.0489 140.644 44.3608 141.756 45.2375 141.167C45.9973 140.656 46.9414 139.237 47.8399 139.075C47.9245 139.06 47.372 141.425 47.3277 141.738C47.1762 142.807 50.1455 139.665 50.1908 139.823C50.2901 140.168 50.2598 141.517 50.9009 140.853C51.789 139.932 52.4321 138.703 53.0951 137.622C53.3346 137.231 53.9113 136 53.8053 136.446C53.4881 137.779 54.9304 134.795 55.1639 134.523C55.3387 134.318 55.4432 134.914 55.6696 134.885C56.2195 134.814 56.5437 133.758 56.7373 133.336" stroke="black" stroke-width="1.81681" stroke-linecap="round"/>
<path d="M43.0371 50.7369C41.7486 51.3893 40.0258 51.0877 38.644 51.176C37.7354 51.234 36.986 51.8389 36.3777 52.4613" stroke="black" stroke-width="1.81681" stroke-linecap="round"/>
<path d="M43.0047 52.9348C42.5922 52.6988 41.9178 52.8956 41.4806 52.9603C40.4081 53.1191 39.327 53.1826 38.2544 53.3298C36.6639 53.5481 35.4115 54.6987 34.1587 55.6095" stroke="black" stroke-width="1.81681" stroke-linecap="round"/>
<path d="M73.0095 127.404C70.0905 126.561 67.3782 125.207 64.7029 123.775C63.211 122.976 61.7446 122.129 60.2933 121.258C59.5624 120.82 58.8387 120.364 58.1591 119.85C57.6983 119.501 59.1437 120.456 59.6353 120.76C64.9029 124.019 70.2097 127.761 76.4118 128.998C78.1772 129.35 81.4312 129.212 83.0412 127.927C84.0909 127.089 82.7181 124.492 82.472 123.824C81.4755 121.118 80.3877 118.446 79.6064 115.665C79.0836 113.804 77.8575 110.61 80.1733 109.495C82.7437 108.257 82.656 119.108 82.6585 119.155C83.084 127.084 83.0036 135.044 83.1642 142.981C83.2019 144.842 83.2812 146.703 83.3034 148.565C83.314 149.46 83.3531 150.36 83.2627 151.25C83.2321 151.55 83.1975 151.934 82.9444 152.098C82.5708 152.342 79.9434 151.407 79.6193 151.323C78.3651 150.997 77.082 150.675 75.9581 150.002C74.7885 149.301 73.9077 148.302 73.2028 147.157" stroke="black" stroke-width="1.81681" stroke-linecap="round"/>
<path d="M68.4039 115.415C67.5043 115.92 66.3658 116.559 65.3001 116.386C64.6534 116.281 63.4623 116.171 63.0813 115.552" stroke="black" stroke-width="1.81681" stroke-linecap="round"/>
<path d="M69.1824 116.68C67.7593 117.397 66.1961 117.993 64.6327 118.308C62.9194 118.654 61.6734 118.237 60.0749 117.752" stroke="black" stroke-width="1.81681" stroke-linecap="round"/>
<path d="M21.097 84.2533C21 84.4456 20.8965 84.4779 20.6661 84.5516C19.7853 84.8333 18.8305 84.9958 17.9102 85.0656C17.3403 85.1089 16.6328 85.1123 16.2204 84.6392C16.0408 84.4333 15.767 84.3116 15.629 84.065C15.4624 83.7674 16.261 84.3404 16.5978 84.3936C17.4344 84.5258 18.7218 84.8831 19.5179 84.3929C20.1444 84.0072 19.3417 84.5019 19.0704 84.5891C18.4296 84.7953 17.4307 84.698 16.7596 84.5384C15.8323 84.3179 17.4285 84.4304 17.6763 84.3639C18.6642 84.0985 19.3111 83.8141 19.8279 82.9004C20.3328 82.0078 19.4868 80.8653 19.0348 80.1312C18.5076 79.275 18.063 78.4738 18.0043 77.4487C17.9867 77.1409 17.9713 76.804 17.9857 76.4955C18.0114 75.9423 17.8248 77.5912 17.742 78.1388C17.6413 78.8044 17.5162 79.5603 17.6695 80.2318C17.7026 80.3769 17.7536 80.9229 17.7123 80.5159C17.6227 79.6338 17.8086 78.4543 18.3169 77.6989C18.6113 77.2615 18.6131 77.2177 18.0824 77.1892C17.6449 77.1656 17.3343 77.1071 16.8634 77.1732C16.6388 77.2047 16.0449 77.73 16.3647 77.5331" stroke="black" stroke-width="1.81681" stroke-linecap="round"/>
<path d="M37.0343 113.809C36.6478 113.972 36.3171 113.871 35.9395 113.769C35.8187 113.737 35.8422 113.674 35.9683 113.666C36.5448 113.627 37.196 113.845 37.7428 113.994C38.3298 114.153 38.999 114.301 39.4821 114.694C40.2261 115.299 40.8316 116.088 41.4671 116.802C42.2749 117.708 39.9126 116.217 39.8503 116.172C38.4886 115.191 37.1626 114.141 35.9688 112.958C35.737 112.729 34.9856 112.211 35.3111 112.233C35.6364 112.256 36.0731 112.595 36.3352 112.759C37.058 113.211 37.7505 113.725 38.4403 114.225C38.8887 114.55 39.1454 114.962 39.4881 115.39C39.8497 115.842 40.2973 116.206 40.6702 116.645C41.0107 117.045 41.3936 117.416 41.7527 117.802" stroke="black" stroke-width="1.81681" stroke-linecap="round"/>
<path d="M42.5225 118.28C42.3545 118.411 42.3189 118.697 42.2321 118.881C42.0822 119.2 41.8184 119.424 41.5909 119.686C41.2163 120.116 40.6696 120.372 40.1875 120.669" stroke="black" stroke-width="1.81681" stroke-linecap="round"/>
<path d="M16.7878 111.514C16.3849 111.737 15.9767 111.974 15.5495 112.147C15.4564 112.185 15.2704 112.323 15.2579 112.224C15.242 112.097 15.428 112.033 15.5246 111.95C15.7096 111.791 15.9078 111.647 16.101 111.498C16.3608 111.298 16.6591 111.1 16.901 110.87C16.925 110.848 16.8457 110.906 16.8197 110.927C16.233 111.389 14.2958 112.526 14.9319 112.134C15.8815 111.55 16.805 110.923 17.7493 110.342" stroke="black" stroke-width="1.81681" stroke-linecap="round"/>
<path d="M18.1084 109.888C17.3657 110.692 16.5803 111.444 15.7772 112.187C15.3256 112.605 14.8842 113.066 14.3675 113.407C14.3485 113.419 13.8945 113.711 13.9409 113.615C14.0455 113.398 14.3609 113.124 14.5667 112.997" stroke="black" stroke-width="1.81681" stroke-linecap="round"/>
<path d="M18.3328 113.175C18.3975 113.255 18.7738 113.221 18.8534 113.235C20.0777 113.438 21.2409 113.954 22.4424 114.256C22.9189 114.376 23.4005 114.415 23.8803 114.512C24.5483 114.648 25.1939 114.857 25.8306 115.098C26.0299 115.173 26.5676 115.302 26.3862 115.414" stroke="black" stroke-width="1.81681" stroke-linecap="round"/>
</g>
<defs>
<clipPath id="clip0_247_24">
<rect width="108" height="200" fill="white"/>
</clipPath>
</defs>
</svg>
