<svg width="65" height="44" viewBox="0 0 65 44" fill="none" xmlns="http://www.w3.org/2000/svg">
<path d="M17.3784 5.34903C25.8744 17.6681 57.4736 49.4956 49.1727 37.0442C45.5248 31.5723 40.5079 26.9075 38.0794 20.7014C37.6341 19.5634 39.2003 17.1084 37.9803 17.0366C32.0238 16.6862 17.3804 7.54028 12.8223 4.75474C11.7822 4.11915 23.1757 11.3444 25.7975 13.9662C33.1903 21.359 40.0956 32.7533 49.4698 37.4404" stroke="black" stroke-width="1.17019" stroke-linecap="round"/>
<path d="M44.1212 17.829C37.386 18.0984 31.8169 26.3931 25.6983 30.309C25.1149 30.6824 39.9196 17.6528 43.5269 13.768C47.7265 9.24536 32.5591 19.7286 28.0755 23.9699C26.0486 25.8872 22.0428 33.4785 18.765 33.4785C12.4143 33.4785 30.4818 28.3198 35.6031 24.5642C38.45 22.4765 44.2765 16.6978 45.6069 13.3719C47.9979 7.39424 34.3052 19.5787 28.9669 23.1776C27.6507 24.0649 11.9386 32.3259 11.5345 35.5585C11.2946 37.4779 28.8818 28.4505 30.8488 27.5356C36.8527 24.7431 43.5223 25.3266 49.2716 21.4937C51.561 19.9675 56.8025 17.6863 56.6011 14.2633C56.3918 10.7046 36.9281 24.6105 35.405 25.7528C33.6467 27.0715 20.055 40.2504 25.3021 34.8652C36.5855 23.2849 45.9957 11.9486 60.0678 3.36806C68.2868 -1.64353 59.1667 4.78735 56.6011 6.14139C52.3947 8.36148 48.3003 10.3908 44.1212 12.4804" stroke="black" stroke-width="1.17019" stroke-linecap="round"/>
<path d="M1.33289 7.13184C21.3182 7.13184 34.655 31.6777 49.47 42.7889" stroke="black" stroke-width="1.17019" stroke-linecap="round"/>
</svg>
