<svg width="291" height="262" viewBox="0 0 291 262" fill="none" xmlns="http://www.w3.org/2000/svg">
<path d="M208.068 93.2369C209.274 95.6871 210.13 98.174 209.949 100.989C209.868 102.241 210.27 103.528 210.512 104.788C210.562 105.021 210.919 105.264 211.188 105.369C211.952 105.674 212.75 105.891 213.521 106.176C214.292 106.462 215.046 106.83 215.829 107.099C216.781 107.42 217.592 108.06 218.127 108.91C218.577 109.554 219.07 110.166 219.602 110.744C220.394 111.653 221.221 112.527 222.013 113.436C222.9 114.49 223.519 115.742 223.818 117.087C224.28 118.938 224.747 120.8 225.391 122.595C225.776 123.668 226.504 124.613 227.07 125.62C227.623 126.59 228.203 127.542 228.73 128.523C229.164 129.333 229.562 130.151 229.936 130.974C231.073 133.515 230.506 136.589 228.182 138.126C226.474 139.253 226.258 140.591 226.466 142.308C226.747 144.661 226.993 147.018 227.287 149.357C227.594 151.832 227.934 154.301 228.278 156.77C228.913 161.317 229.969 165.748 231.965 169.918C232.395 170.816 232.749 171.756 233.227 172.631C233.59 173.228 233.992 173.8 234.431 174.343C234.649 174.642 234.959 174.907 235.096 175.227C236.342 178.17 238.435 180.474 240.688 182.649C242.541 184.438 244.561 186.069 246.305 187.958C247.918 189.702 249.839 190.734 252.011 191.571C254.785 192.646 257.588 193.463 260.566 193.693C262.66 193.854 264.718 193.605 266.785 193.397C270.171 193.055 273.461 193.631 276.744 194.299C276.762 194.384 276.761 194.472 276.768 194.558C276.267 194.621 275.767 194.713 275.265 194.74C273.31 194.826 271.375 195.167 269.508 195.755C265.082 197.16 260.599 197.222 256.078 196.257C254.281 195.893 252.593 195.117 251.148 193.99C245.869 189.875 240.637 185.706 235.882 180.961C235.324 180.404 234.718 179.909 234.046 179.304C233.85 179.676 233.717 179.967 233.55 180.233C232.871 181.323 232.259 182.467 231.476 183.475C230.693 184.484 229.697 185.439 228.751 186.445C228.688 186.132 228.706 185.808 228.804 185.504C228.901 185.199 229.074 184.925 229.307 184.706C230.886 182.991 231.6 180.77 232.665 178.755C232.733 178.649 232.76 178.523 232.742 178.399C232.243 177.132 232.394 175.735 231.738 174.451C230.806 172.654 230.125 170.716 229.456 168.796C228.307 165.496 227.308 162.148 226.912 158.656C226.787 157.543 226.593 156.421 226.624 155.308C226.699 152.878 226.306 150.506 225.798 148.151C225.563 147.057 225.382 145.947 225.222 144.838C225.1 144 224.92 143.203 224.322 142.548C223.883 142.072 223.398 141.885 222.772 142.237C220.6 143.459 218.421 144.664 216.247 145.882C216.104 145.963 215.908 146.057 215.862 146.191C215.492 147.242 214.477 147.393 213.659 147.82C212.628 148.36 211.558 148.844 210.592 149.486C205.072 153.159 199.143 156.089 193.216 158.976C192.879 159.139 192.541 159.305 192.214 159.481C192.064 159.589 191.923 159.708 191.791 159.837C192.079 161.175 192.363 162.595 192.689 164.004C193.406 167.067 193.405 170.188 193.412 173.303C193.438 175.428 193.832 177.532 194.578 179.522C195.029 180.774 195.571 181.991 196.2 183.163C196.598 183.842 197.104 184.452 197.696 184.97C198.792 185.987 199.962 186.923 201.089 187.909C201.54 188.304 201.946 188.74 202.387 189.155L202.203 189.421L199.923 188.417C200.157 189.085 200.366 189.584 200.51 190.097C200.976 191.774 201.528 193.437 201.824 195.148C202.223 197.352 202.461 199.591 202.678 201.823C202.778 202.775 202.742 203.736 202.568 204.678C202.258 206.267 202.707 207.651 203.474 208.965C203.921 209.734 204.313 210.494 204.317 211.401C204.318 212.078 204.765 212.434 205.283 212.74C206.829 213.648 208.506 214.313 210.255 214.71C211.756 215.051 213.277 215.29 214.781 215.612C217.147 216.112 219.487 216.669 221.846 217.159C222.447 217.285 223.064 217.323 223.676 217.27C226.243 217.022 228.803 216.714 231.367 216.447C231.925 216.387 232.408 216.301 232.728 215.744C232.898 215.458 233.172 215.249 233.492 215.16C234.793 214.909 236.109 214.729 237.423 214.539C237.482 214.526 237.558 214.618 237.762 214.748L234.437 215.826C234.452 215.893 234.452 215.965 234.46 216.047C234.67 216.087 234.882 216.117 235.096 216.135C236.755 216.229 238.412 216.308 240.07 216.376C240.526 216.389 240.982 216.375 241.436 216.332C246.451 215.917 251.464 215.501 256.478 215.083C256.88 215.049 257.285 215.089 257.673 215.2C256.028 216.008 254.265 216.55 252.45 216.807C249.57 217.201 246.677 217.513 243.788 217.858C241.849 218.09 239.911 218.329 237.97 218.554C236.414 218.731 234.907 218.601 233.484 217.847C233.149 217.693 232.779 217.634 232.413 217.675C231.501 217.752 230.594 217.88 229.692 218.036C229.339 218.094 228.811 217.957 228.792 218.625C228.79 218.7 228.368 218.825 228.141 218.822C222.657 218.773 217.161 219.038 211.708 218.203C209.438 217.882 207.237 217.186 205.196 216.141C205.028 216.063 204.857 215.993 204.681 215.934C200.889 218.919 196.557 220.152 191.886 220.366C191.47 220.385 191.057 220.435 190.649 220.517C186.863 221.295 183.083 222.084 179.29 222.863C178.996 222.906 178.7 222.931 178.403 222.937C178.332 222.148 178.916 222.104 179.346 221.98C180.903 221.527 182.475 221.116 184.034 220.68C185.633 220.232 187.225 219.767 188.884 219.306C188.931 219.07 188.999 218.843 189.023 218.598C189.101 217.829 189.569 217.412 190.267 217.215C190.549 217.143 190.836 217.094 191.126 217.07C194.215 216.732 197.14 215.802 199.999 214.63C200.69 214.348 201.392 214.104 202.189 213.788C201.928 213.237 201.659 212.651 201.368 212.073C201.076 211.494 201.302 210.72 200.604 210.302C200.474 210.221 200.48 209.924 200.418 209.73C199.986 208.344 199.548 206.959 199.127 205.571C199.04 205.307 198.999 205.03 199.005 204.752C199.147 202.428 199.023 200.094 198.635 197.798C198.239 195.507 198.08 193.175 197.335 190.946C197.054 190.103 196.75 189.349 196.137 188.666C194.237 186.546 192.834 184.1 191.686 181.495C191.567 181.276 191.487 181.037 191.448 180.79C191.327 179.181 191.107 177.562 191.167 175.955C191.296 172.63 190.95 169.304 190.141 166.077C189.754 164.521 189.037 163.047 188.425 161.445C188.16 161.475 187.898 161.531 187.644 161.613C183.471 163.429 179.122 164.678 174.707 165.744C173.101 166.133 171.577 166.843 169.998 167.357C167.906 168.034 165.834 168.74 163.62 169.018C162.195 169.198 160.817 169.76 159.366 170.016L161.382 169.396L159.96 169.316C162.601 168.547 165.145 167.479 167.544 166.133L166.743 166.306C163.686 166.924 160.645 167.62 157.571 168.142C154.569 168.631 151.622 169.413 148.772 170.476C148.937 170.373 149.096 170.259 149.269 170.172C149.492 170.063 149.724 169.968 149.956 169.88C152.994 168.733 156.062 167.679 159.258 167.052C165.231 165.878 171 163.98 176.787 162.13C179.956 161.115 183.139 160.17 186.312 159.174C186.867 159.003 187.421 158.816 187.964 158.611C188.619 158.363 188.46 157.982 188.156 157.564C182.682 159.304 177.283 161.108 171.83 162.726C166.365 164.368 160.791 165.62 155.149 166.471C155.868 166.255 156.582 166.018 157.307 165.826C166.111 163.477 174.803 160.751 183.438 157.847C183.967 157.668 184.571 157.725 185.134 157.635C185.789 157.53 186.49 157.517 187.06 157.238C195.12 153.289 203.553 150.092 211.266 145.443C214.689 143.389 217.953 141.086 221.333 138.954C222.606 138.172 223.926 137.469 225.285 136.849C227.539 135.783 228.534 133.922 228.646 131.572C228.661 130.703 228.447 129.845 228.027 129.084C227.421 128.045 226.708 127.072 225.9 126.182C225.202 125.372 224.642 124.536 224.485 123.463C224.431 123.262 224.387 123.059 224.354 122.854C224.286 120.859 223.089 119.383 222.011 117.869C221.716 117.456 221.191 117.206 220.772 116.876C220.957 114.946 219.536 113.875 218.519 112.393C217.636 113.744 216.365 114.136 215.16 114.684C213.548 115.42 212.011 116.316 210.442 117.144C210.257 117.24 210.088 117.423 209.899 117.444C208.526 117.593 207.661 118.588 206.59 119.286C199.015 124.262 191.369 129.114 182.97 132.633C179.256 134.192 175.598 135.879 171.872 137.411C167.043 139.367 162.062 140.928 156.98 142.078C157.415 141.811 157.838 141.521 158.287 141.278C162.651 138.926 167.231 137.061 171.854 135.294C172.511 135.042 173.151 134.74 173.795 134.449C173.896 134.411 173.987 134.353 174.064 134.277C174.141 134.201 174.201 134.11 174.24 134.01L167.613 135.741L167.521 135.431L179.041 131.422C178.437 130.198 177.888 129.089 177.337 127.975L177.583 127.789C177.867 128.055 178.16 128.308 178.412 128.597C178.956 129.225 179.495 129.859 180.002 130.513C180.1 130.673 180.255 130.791 180.436 130.843C180.617 130.894 180.81 130.876 180.979 130.793C182.645 130.14 184.384 129.641 185.944 128.799C191.724 125.682 197.448 122.45 203.185 119.258C203.575 119.06 203.901 118.755 204.125 118.378L201.872 119.031C202.037 118.737 202.22 118.453 202.42 118.181C204.114 116.285 205.884 114.479 208.065 113.126C208.766 112.69 209.364 112.092 210.028 111.59C210.487 111.242 210.655 110.84 210.427 110.293C209.536 108.191 208.728 106.048 207.741 103.993C206.687 101.802 205.46 99.6929 204.333 97.5351C206.289 100.244 207.928 103.168 209.219 106.249C210.464 105.446 210.553 105.273 209.961 104.141C209.503 103.207 208.955 102.321 208.325 101.494C207.446 100.399 206.915 99.1422 206.465 97.8594C205.131 94.1379 203.32 90.6051 201.078 87.3496C198.434 83.4637 195.931 79.4887 193.386 75.5386C192.938 74.8425 192.618 74.0691 192.197 73.3514C192.004 72.9875 191.76 72.6523 191.474 72.3554C189.896 70.8166 188.325 69.2694 186.689 67.7972C186.067 67.2488 185.361 66.8032 184.598 66.4773C179.02 64.0756 173.305 62.0035 167.483 60.2715C167.179 60.1811 166.861 60.1413 166.448 60.0586C166.476 60.2921 166.515 60.524 166.566 60.7535C167.047 62.4091 166.414 63.6928 165.179 64.7312C163.841 65.8616 162.209 66.1884 160.512 66.1296C159.641 66.0914 158.777 65.9591 157.912 65.8429C152.516 65.116 147.121 64.3845 141.726 63.6484C139.419 63.3371 137.108 63.0513 134.799 62.7538C134.467 62.6852 134.122 62.7064 133.801 62.8154C133.979 62.9627 134.165 63.0998 134.359 63.2258C136.747 64.615 138.598 66.5581 140.139 68.8184C142.179 71.8584 143.905 75.0968 145.293 78.4843C146.016 80.2073 146.68 81.9567 147.341 83.7044C147.569 84.2861 147.669 84.9101 147.634 85.5338C147.467 85.2736 147.313 85.0052 147.174 84.7296C146.239 82.6435 145.365 80.5261 144.37 78.4686C143.263 76.1893 142.119 73.92 140.848 71.7302C139.119 68.7061 136.572 66.2312 133.499 64.5899C130.864 63.175 128.161 61.8875 125.497 60.5284C125.123 60.3068 124.763 60.0614 124.42 59.794C124.787 59.1616 125.206 59.096 125.668 59.2992C129.501 60.98 133.563 61.5749 137.692 61.7896C144.965 62.1709 152.233 62.5168 159.498 62.8275C160.368 62.8307 161.237 62.7539 162.093 62.5981C162.389 62.5705 162.673 62.463 162.913 62.2872C163.154 62.1113 163.342 61.8736 163.458 61.5993C163.211 60.9751 162.64 60.7887 162.126 60.5517C160.413 59.7773 158.582 59.294 156.71 59.1217C152.823 58.7328 148.929 58.4134 145.034 58.11C141.511 57.837 137.986 57.5575 134.457 57.4124C133.076 57.3553 131.678 57.6588 130.409 57.7854C130.457 57.6803 130.635 57.4794 130.613 57.3035C130.475 56.2152 130.506 56.055 131.524 55.865C132.952 55.6027 134.397 55.3319 135.844 55.2845C137.6 55.229 139.203 54.7052 140.766 54.023C145.644 51.8971 150.517 49.7565 155.362 47.5497C158.082 46.3109 160.756 44.9602 163.421 43.5979C164.212 43.2017 165.046 42.7533 165.521 41.6686C165.024 41.5816 164.599 41.4155 164.191 41.4493C162.741 41.5651 161.275 41.6258 159.857 41.92C155.373 42.8252 150.874 43.6907 146.441 44.8107C140.827 46.2122 135.403 48.2838 130.285 50.9811C129.221 51.5446 128.15 52.0982 127.062 52.617C126.767 52.7573 126.415 52.7565 126.032 52.8232C125.904 51.9769 126.404 51.6478 126.833 51.3929C128.577 50.3508 130.306 49.2579 132.134 48.383C137.458 45.8383 143.043 44.0816 148.765 42.7676C152.573 41.8998 156.42 41.1838 160.268 40.5037C161.691 40.2536 163.165 40.259 164.62 40.2435C165.462 40.2293 166.338 40.3882 166.696 41.316C167.078 42.2998 166.523 43.0718 165.804 43.5791C164.416 44.5557 163.008 45.559 161.484 46.2847C155.443 49.167 149.352 51.9313 143.048 54.1996C142.51 54.389 141.997 54.6429 141.52 54.9557C145.928 55.3113 150.294 54.908 154.657 54.5009C158.985 54.0948 163.305 53.593 167.632 53.1643C161.895 54.3868 156.055 54.7712 150.213 55.3929C150.648 55.4618 151.08 55.5563 151.517 55.5931C154.968 55.8884 158.397 56.1883 161.713 57.2511C161.872 57.2998 162.037 57.3258 162.204 57.3283C167.016 57.4635 171.518 58.9595 176.027 60.4337C176.412 60.5886 176.83 60.6467 177.242 60.6032C176.072 59.855 174.916 59.072 173.725 58.3665C172.535 57.6611 171.378 57.0521 170.208 56.4009C170.461 55.8022 170.852 55.8445 171.208 55.9462C172.054 56.157 172.887 56.4211 173.7 56.7371C178.442 58.7708 182.658 61.6314 186.615 64.925C187.411 65.5891 188.245 66.2042 189.062 66.8481C191.511 68.7819 193.977 70.6825 196.383 72.6642C200.654 76.1813 203.464 80.7766 205.744 85.7187C206.723 87.8293 207.532 90.0147 208.405 92.1707C208.515 92.4932 208.604 92.8225 208.672 93.1565C208.439 93.1842 208.245 93.2057 208.052 93.2246C207.998 92.7113 207.912 92.2019 207.796 91.6991C207.63 91.198 207.437 90.7066 207.217 90.2273C207.106 90.0072 206.985 89.7895 206.884 89.5649C205.229 85.8432 203.436 82.1963 201.177 78.7988C200.926 78.4193 200.619 78.0744 200.337 77.7153L200.114 77.8875C200.508 78.3901 200.875 78.9143 201.211 79.4577C202.585 81.9665 203.935 84.4894 205.279 87.0181C205.724 87.8593 206.101 88.74 206.555 89.5772C206.693 89.8319 206.999 89.9941 207.226 90.2072C207.337 90.7208 207.412 91.2397 207.556 91.7394C207.7 92.2391 207.895 92.7368 208.068 93.2369ZM166.795 167.896C169.071 167.13 171.359 166.4 173.616 165.588C175.817 164.798 177.987 163.924 180.169 163.088C179.538 163.038 178.903 163.118 178.305 163.325C174.649 164.679 171.006 166.063 167.365 167.452C167.159 167.574 166.97 167.723 166.803 167.894L165.167 168.161L165.216 168.39L166.795 167.896ZM213.106 146.627C213.059 146.526 213.014 146.421 212.968 146.32C211.348 147.051 209.689 147.704 208.111 148.525C202.757 151.282 197.387 153.997 191.722 156.078C191.52 156.126 191.332 156.223 191.176 156.361C191.044 156.525 190.914 156.814 190.975 156.982C191.036 157.075 191.118 157.152 191.215 157.207C191.311 157.261 191.42 157.292 191.531 157.296C191.82 157.269 192.101 157.185 192.358 157.05C195.24 155.751 198.129 154.488 200.962 153.121C204.177 151.572 207.352 149.937 210.521 148.308C211.43 147.839 212.247 147.189 213.105 146.623L213.106 146.627ZM196.355 75.9107C196.418 74.4112 195.336 73.2759 194.244 73.4523L196.355 75.9107ZM198.16 75.9035L198.32 75.6816L197.427 74.9457L197.302 75.1082L198.16 75.9035Z" fill="black" stroke="black" stroke-width="0.220758" stroke-miterlimit="10"/>
<path d="M135.022 149.061C134.953 148.888 134.87 148.722 134.774 148.563C134.189 148.635 133.549 148.701 132.911 148.791C121.366 150.402 109.793 151.547 98.1117 151.381C95.8714 151.349 93.6304 151.125 91.4003 150.878C90.2969 150.757 89.2186 150.395 88.1338 150.119C86.0423 149.582 83.954 149.03 81.8629 148.484C81.696 148.465 81.5334 148.418 81.3815 148.346C80.2426 147.578 78.9248 147.478 77.6285 147.215C76.8984 147.065 76.1974 146.568 75.5808 146.096C74.8974 145.566 74.8386 144.747 75.1475 143.854C75.549 142.755 76.2073 141.768 77.0676 140.975C77.709 140.346 78.4294 139.959 79.4137 140.083C79.9217 140.145 80.4839 139.809 81.028 139.652C80.995 138.712 80.9649 137.933 80.9416 137.155L81.1218 137.068C81.5424 137.784 82.0639 138.464 82.3597 139.229C82.8378 140.463 83.1846 141.748 83.5516 143.021C83.7914 143.817 83.9803 144.627 84.117 145.447C84.2512 146.321 84.6891 146.74 85.5546 146.878C87.4284 147.19 89.307 147.651 91.1895 147.877C97.9662 148.694 104.783 148.973 111.601 149.026C117.003 149.068 122.415 148.907 127.809 148.695C129.877 148.618 131.931 148.173 133.989 147.883C134.239 147.818 134.482 147.731 134.716 147.623M149.925 217.447C150.098 217.317 150.411 217.196 150.418 217.054L149.925 217.447ZM154.384 224.162C156.834 224.005 159.271 223.787 161.725 223.773C163.548 223.755 165.375 223.994 167.197 224.139C167.574 224.168 167.934 224.304 168.237 224.531C168.018 224.565 167.786 224.628 167.555 224.637C163.099 224.92 158.764 225.822 154.476 227.092C151.172 228.068 147.774 228.719 144.425 229.537C140.666 230.453 136.926 231.415 133.16 232.323C128.541 233.438 123.881 234.322 119.107 234.177C116.951 234.097 114.808 233.798 112.712 233.285C110.846 232.845 108.902 232.615 107.027 233.692C105.412 234.578 103.709 235.295 101.947 235.832L103.104 234.738C103.002 234.641 102.951 234.559 102.881 234.531C102.212 234.256 101.736 233.825 101.771 233.045C101.805 232.22 102.366 231.806 103.062 231.532C103.833 231.226 104.613 230.934 105.393 230.646C107.102 230.016 108.007 228.838 107.989 226.972C107.965 225.383 107.766 223.841 106.959 222.391L106.096 222.577C106.112 222.483 106.101 222.379 106.14 222.342C107.208 221.66 106.707 220.779 106.433 219.749C105.863 219.872 105.357 219.997 104.834 220.094C103.075 220.412 101.317 220.732 99.5541 221.017C99.0893 221.092 98.5675 221.175 98.1466 220.616C99.4807 219.775 100.923 220.422 102.245 220.143C103.567 219.865 104.91 219.569 106.345 219.26C106.278 218.811 106.182 218.367 106.059 217.931C105.475 216.352 105.262 214.715 105.142 213.045C105.053 211.802 104.835 210.571 104.719 209.331C104.654 208.634 104.699 207.926 104.665 207.224C104.642 206.742 104.674 206.218 104.498 205.788C103.894 204.337 103.199 202.906 102.505 201.383C102.131 201.899 101.669 201.863 101.244 201.46C100.16 200.436 98.9917 199.477 98.0417 198.338C96.6845 196.713 95.3479 195.079 93.9059 193.523C91.2126 190.604 89.307 187.048 88.3691 183.189C88.1177 182.18 87.8944 181.164 87.6435 180.157C87.3926 179.15 87.3898 179.168 86.0649 179.025C86.0133 180.012 85.9179 180.994 85.919 181.974C85.9231 184.593 85.9706 187.213 85.9929 189.832C86.0168 190.206 85.9921 190.581 85.9194 190.948C85.2537 193.508 85.4465 196.09 85.9162 198.627C86.428 201.4 87.1643 204.137 87.8902 206.866C88.1798 208.138 88.9192 209.262 89.9721 210.031C90.5258 210.431 90.7069 211.345 91.197 212.31L89.377 211.975C89.2589 212.307 89.1315 212.649 89.021 212.995C87.8604 216.633 86.6308 220.265 84.9417 223.713C84.7391 224.125 84.6394 224.878 84.0226 224.688C83.3449 224.478 83.8237 223.828 83.883 223.391C84.345 219.739 85.3521 216.227 86.63 212.788C87.1608 211.352 86.7518 209.905 86.7263 208.477C86.707 207.464 86.3636 206.552 85.9191 205.631C84.7863 203.287 84.0981 200.816 84.1659 198.175C84.2051 196.554 84.1988 194.932 84.2476 193.314C84.2368 192.606 84.3161 191.9 84.4836 191.212C85.19 188.883 85.012 186.516 84.8602 184.155C84.7578 182.538 84.5153 180.93 84.384 179.315C84.3837 179.007 84.2882 178.707 84.1107 178.455C83.9332 178.203 83.6824 178.013 83.3925 177.909C81.6493 177.156 80.0123 176.172 79.0214 174.517C78.1695 173.1 77.2332 171.741 76.3445 170.352C75.7671 169.446 75.2546 168.5 74.8109 167.521C74.4348 166.735 74.1582 165.906 73.9876 165.052C73.5109 162.368 73.679 159.741 75.0493 157.307C75.2216 157.024 75.3282 156.705 75.3614 156.375C75.3946 156.044 75.3534 155.711 75.241 155.399C74.4787 153.108 74.5953 150.714 74.4286 148.347C74.3932 147.826 74.5187 147.33 75.0908 147.134C75.6629 146.939 76.0624 147.304 76.308 147.753C77.1415 149.273 77.9119 150.794 78.1189 152.583C78.2455 153.674 78.5132 154.854 79.0924 155.75C79.5329 156.432 80.5103 156.912 81.3454 157.161C83.5747 157.824 85.8502 158.334 88.1166 158.864C91.0217 159.55 93.9371 160.2 96.85 160.975C96.2311 161.221 95.551 161.269 94.9036 161.112C90.4674 160.171 86.0432 159.202 81.631 158.204C80.7074 157.994 79.8334 157.575 78.8693 157.23C78.7982 157.55 78.7258 157.863 78.6603 158.178C78.4692 159.243 78.09 160.265 77.5403 161.197C76.6525 162.572 76.2118 164.187 76.2787 165.823C76.3201 166.633 76.417 167.419 77.4133 167.651C77.5154 167.674 77.5907 167.814 77.7449 167.964L76.974 168.274C77.357 169.517 78.2385 170.244 79.3912 170.689C79.7059 170.798 80.0321 170.87 80.3634 170.904C83.1567 171.291 85.9515 171.685 88.7392 172.047C90.3955 172.261 92.0319 172.121 93.7002 171.919C96.8342 171.54 99.9956 171.403 103.148 171.171C103.242 171.167 103.336 171.187 103.42 171.23C103.504 171.272 103.576 171.335 103.629 171.413L101.487 171.753C101.105 171.815 100.727 171.873 100.351 171.93L100.388 172.104L101.497 171.739C102.053 172.317 102.744 171.981 103.355 171.973C106.472 171.925 109.589 171.802 112.704 171.766C114.319 171.756 115.934 171.844 117.539 172.027C108.42 173.486 99.2275 174.032 90.0289 174.26C90.0456 176.024 90.2648 176.329 91.8054 176.415C93.7134 176.519 95.6299 176.494 97.5351 176.585C103.801 176.92 110.063 177.21 116.334 176.55C118.52 176.321 120.734 176.343 122.934 176.242C125.279 176.131 127.626 176.01 130.281 175.88C129.661 176.145 129.302 176.355 128.92 176.449C122.819 177.931 116.738 179.525 110.435 179.921C109.149 180.002 107.859 180.015 106.572 179.959C102.507 179.78 98.4426 179.54 94.3749 179.348C93.5629 179.311 92.7435 179.386 91.8186 179.411C92.058 181.193 92.4199 182.768 93.128 184.21C94.9249 187.865 96.8752 191.435 99.2294 194.774C100.16 196.093 100.83 197.613 101.855 198.847C102.929 200.142 103.373 201.701 104.121 203.13C104.864 204.616 105.525 206.142 106.102 207.701C106.34 208.359 106.476 209.05 106.505 209.75C106.587 211.284 106.491 212.831 106.633 214.359C107.021 218.487 108.438 222.115 111.985 224.608C112.31 224.811 112.646 224.995 112.991 225.161C110.973 226.63 110.973 226.63 111.233 228.897C112.138 228.906 113.044 228.914 113.95 228.929C116.002 228.914 118.012 229.502 119.734 230.618C120.159 230.865 120.651 230.97 121.14 230.918C122.999 230.743 124.85 230.498 126.7 230.251C127.688 230.117 128.7 230.026 129.648 229.74C133.829 228.487 138.165 227.921 142.371 226.773C145.339 225.971 148.354 225.344 151.35 224.64C151.782 224.547 152.229 224.45 152.816 224.324M152.107 217.377C155.226 217.034 158.339 217.197 161.448 217.485C167.931 218.08 174.218 217.172 180.386 215.161C184.431 213.878 188.405 212.381 192.292 210.677C192.945 210.385 193.565 210.023 194.201 209.694L194.089 209.429C193.658 209.522 193.221 209.591 192.81 209.705C191.009 210.217 189.228 210.793 187.413 211.247C186.319 211.492 185.211 211.662 184.094 211.754C183.719 211.794 183.323 211.636 182.925 211.57C182.917 210.838 183.388 210.68 183.775 210.484C184.849 209.932 185.935 209.411 187.013 208.869C187.421 208.666 187.803 208.437 188.253 208.189C187.938 207.67 187.5 207.721 187.116 207.734C185.416 207.798 183.714 207.893 182.014 207.968C178.897 208.105 175.78 208.205 172.666 208.374C170.18 208.51 167.7 208.74 165.214 208.907C164.593 208.947 163.97 208.94 163.35 208.884C163.074 208.858 162.814 208.659 162.452 208.497C163.054 207.772 163.723 207.932 164.304 207.915C167.257 207.835 170.209 207.82 173.159 207.726C176.941 207.607 180.722 207.413 184.505 207.298C185.668 207.287 186.832 207.338 187.99 207.451C188.406 207.483 188.808 207.683 189.435 207.869C187.657 209.331 185.62 209.836 183.729 211.192C184.326 211.228 184.638 211.312 184.92 211.251C186.299 210.954 187.681 210.656 189.046 210.295C190.657 209.882 192.24 209.396 193.861 208.988C194.397 208.855 195.105 208.589 195.402 209.304C195.674 209.959 195.116 210.398 194.638 210.72C193.957 211.206 193.234 211.631 192.478 211.992C187.646 214.127 182.665 215.907 177.574 217.316C171.124 219.119 164.627 219.318 158.047 218.229C156.248 217.939 154.414 217.835 152.592 217.67C152.158 217.659 151.724 217.677 151.292 217.724M146.967 201.089C148.398 200.979 149.879 201.324 151.345 200.823C151.75 200.723 152.171 200.704 152.584 200.766C153.291 200.845 154.004 200.677 154.602 200.291C154.923 200.108 155.287 200.014 155.657 200.018C157.685 200.001 159.732 200.014 161.769 200.027C161.914 200.028 162.059 200.093 162.229 200.348C161.366 200.534 160.508 200.744 159.629 200.908C158.705 201.038 157.792 201.235 156.897 201.497C157.17 201.558 157.447 201.602 157.726 201.628C161.139 201.715 164.552 201.464 167.914 200.878C171.181 200.318 174.438 199.574 177.698 198.91C178.224 198.797 178.753 198.683 179.558 198.509C179.293 198.714 179.012 198.897 178.718 199.056C170.748 202.144 162.556 203.879 153.952 203.111C153.031 203.028 152.133 202.853 151.373 202.312C150.856 201.951 150.219 201.807 149.597 201.911C148.826 202.001 148.064 202.135 147.19 202.267M135.113 147.641C138.761 147.192 142.235 146.411 145.747 145.838C142.576 147.65 138.872 147.466 135.516 148.494M112.989 150.08L95.9498 150.654C101.646 151.141 107.326 150.828 112.989 150.08ZM83.5278 174.041C83.4335 173.047 82.7386 173.082 82.1559 172.914L82.0174 173.152L83.5278 174.041ZM86.2829 174.45C86.4929 175.268 86.4929 175.268 87.1616 175.069L86.2829 174.45ZM85.5036 174.952C85.6359 174.675 85.7616 174.535 85.7371 174.432C85.7126 174.329 85.5396 174.249 85.4303 174.151C85.3662 174.241 85.2452 174.34 85.2459 174.416C85.3059 174.602 85.3918 174.778 85.5009 174.939L85.5036 174.952Z" fill="black"/>
<path d="M135.022 149.061C134.953 148.888 134.87 148.722 134.774 148.563C134.189 148.635 133.549 148.701 132.911 148.791C121.366 150.402 109.793 151.547 98.1117 151.381C95.8714 151.349 93.6304 151.125 91.4003 150.878C90.2969 150.757 89.2186 150.395 88.1338 150.119C86.0423 149.582 83.954 149.03 81.8629 148.484C81.696 148.465 81.5334 148.418 81.3815 148.346C80.2426 147.578 78.9248 147.478 77.6285 147.215C76.8984 147.065 76.1974 146.568 75.5808 146.096C74.8974 145.566 74.8386 144.747 75.1475 143.854C75.549 142.755 76.2073 141.768 77.0676 140.975C77.709 140.346 78.4294 139.959 79.4137 140.083C79.9217 140.145 80.4839 139.809 81.028 139.652C80.995 138.712 80.9649 137.933 80.9416 137.155L81.1218 137.068C81.5424 137.784 82.0639 138.464 82.3597 139.229C82.8378 140.463 83.1846 141.748 83.5516 143.021C83.7914 143.817 83.9803 144.627 84.117 145.447C84.2512 146.321 84.6891 146.74 85.5546 146.878C87.4284 147.19 89.307 147.651 91.1895 147.877C97.9662 148.694 104.783 148.973 111.601 149.026C117.003 149.068 122.415 148.907 127.809 148.695C129.877 148.618 131.931 148.173 133.989 147.883C134.239 147.818 134.482 147.731 134.716 147.623M149.925 217.447C150.098 217.317 150.411 217.196 150.418 217.054M154.384 224.162C156.834 224.005 159.271 223.787 161.725 223.773C163.548 223.755 165.375 223.994 167.197 224.139C167.574 224.168 167.934 224.304 168.237 224.531C168.018 224.565 167.786 224.628 167.555 224.637C163.099 224.92 158.764 225.822 154.476 227.092C151.172 228.068 147.774 228.719 144.425 229.537C140.666 230.453 136.926 231.415 133.16 232.323C128.541 233.438 123.881 234.322 119.107 234.177C116.951 234.097 114.808 233.798 112.712 233.285C110.846 232.845 108.902 232.615 107.027 233.692C105.412 234.578 103.709 235.295 101.947 235.832L103.104 234.738C103.002 234.641 102.951 234.559 102.881 234.531C102.212 234.256 101.736 233.825 101.771 233.045C101.805 232.22 102.366 231.806 103.062 231.532C103.833 231.226 104.613 230.934 105.393 230.646C107.102 230.016 108.007 228.838 107.989 226.972C107.965 225.383 107.766 223.841 106.959 222.391L106.096 222.577C106.112 222.483 106.101 222.379 106.14 222.342C107.208 221.66 106.707 220.779 106.433 219.749C105.863 219.872 105.357 219.997 104.834 220.094C103.075 220.412 101.317 220.732 99.5541 221.017C99.0893 221.092 98.5675 221.175 98.1466 220.616C99.4807 219.775 100.923 220.422 102.245 220.143C103.567 219.865 104.91 219.569 106.345 219.26C106.278 218.811 106.182 218.367 106.059 217.931C105.475 216.352 105.262 214.715 105.142 213.045C105.053 211.802 104.835 210.571 104.719 209.331C104.654 208.634 104.699 207.926 104.665 207.224C104.642 206.742 104.674 206.218 104.498 205.788C103.894 204.337 103.199 202.906 102.505 201.383C102.131 201.899 101.669 201.863 101.244 201.46C100.16 200.436 98.9917 199.477 98.0417 198.338C96.6845 196.713 95.3479 195.079 93.9059 193.523C91.2126 190.604 89.307 187.048 88.3691 183.189C88.1177 182.18 87.8944 181.164 87.6435 180.157C87.3926 179.15 87.3898 179.168 86.0649 179.025C86.0133 180.012 85.9179 180.994 85.919 181.974C85.9231 184.593 85.9706 187.213 85.9929 189.832C86.0168 190.206 85.9921 190.581 85.9194 190.948C85.2537 193.508 85.4465 196.09 85.9162 198.627C86.428 201.4 87.1643 204.137 87.8902 206.866C88.1798 208.138 88.9192 209.262 89.9721 210.031C90.5258 210.431 90.7069 211.345 91.197 212.31L89.377 211.975C89.2589 212.307 89.1315 212.649 89.021 212.995C87.8604 216.633 86.6308 220.265 84.9417 223.713C84.7391 224.125 84.6394 224.878 84.0226 224.688C83.3449 224.478 83.8237 223.828 83.883 223.391C84.345 219.739 85.3521 216.227 86.63 212.788C87.1608 211.352 86.7518 209.905 86.7263 208.477C86.707 207.464 86.3636 206.552 85.9191 205.631C84.7863 203.287 84.0981 200.816 84.1659 198.175C84.2051 196.554 84.1988 194.932 84.2476 193.314C84.2368 192.606 84.3161 191.9 84.4836 191.212C85.19 188.883 85.012 186.516 84.8602 184.155C84.7578 182.538 84.5153 180.93 84.384 179.315C84.3837 179.007 84.2882 178.707 84.1107 178.455C83.9332 178.203 83.6824 178.013 83.3925 177.909C81.6493 177.156 80.0123 176.172 79.0214 174.517C78.1695 173.1 77.2332 171.741 76.3445 170.352C75.7671 169.446 75.2546 168.5 74.8109 167.521C74.4348 166.735 74.1582 165.906 73.9876 165.052C73.5109 162.368 73.679 159.741 75.0493 157.307C75.2216 157.024 75.3282 156.705 75.3614 156.375C75.3946 156.044 75.3534 155.711 75.241 155.399C74.4787 153.108 74.5953 150.714 74.4286 148.347C74.3932 147.826 74.5187 147.33 75.0908 147.134C75.6629 146.939 76.0624 147.304 76.308 147.753C77.1415 149.273 77.9119 150.794 78.1189 152.583C78.2455 153.674 78.5132 154.854 79.0924 155.75C79.5329 156.432 80.5103 156.912 81.3454 157.161C83.5747 157.824 85.8502 158.334 88.1166 158.864C91.0217 159.55 93.9371 160.2 96.85 160.975C96.2311 161.221 95.551 161.269 94.9036 161.112C90.4674 160.171 86.0432 159.202 81.631 158.204C80.7074 157.994 79.8334 157.575 78.8693 157.23C78.7982 157.55 78.7258 157.863 78.6603 158.178C78.4692 159.243 78.09 160.265 77.5403 161.197C76.6525 162.572 76.2118 164.187 76.2787 165.823C76.3201 166.633 76.4171 167.419 77.4133 167.651C77.5154 167.674 77.5907 167.814 77.7449 167.964L76.974 168.274C77.357 169.517 78.2385 170.244 79.3912 170.689C79.7059 170.798 80.0321 170.87 80.3634 170.904C83.1567 171.291 85.9515 171.685 88.7392 172.047C90.3955 172.261 92.0319 172.121 93.7002 171.919C96.8342 171.54 99.9956 171.403 103.148 171.171C103.242 171.167 103.336 171.187 103.42 171.23C103.504 171.272 103.576 171.335 103.629 171.413L101.487 171.753C101.105 171.815 100.727 171.873 100.351 171.93L100.388 172.104L101.497 171.739C102.053 172.317 102.744 171.981 103.355 171.973C106.472 171.925 109.589 171.802 112.704 171.766C114.319 171.756 115.934 171.844 117.539 172.027C108.42 173.486 99.2275 174.032 90.0289 174.26C90.0456 176.024 90.2648 176.329 91.8054 176.415C93.7134 176.519 95.6299 176.494 97.5351 176.585C103.801 176.92 110.063 177.21 116.334 176.55C118.52 176.321 120.734 176.343 122.934 176.242C125.279 176.131 127.626 176.01 130.281 175.88C129.661 176.145 129.302 176.355 128.92 176.449C122.819 177.931 116.738 179.525 110.435 179.921C109.149 180.002 107.859 180.015 106.572 179.959C102.507 179.78 98.4426 179.54 94.3749 179.348C93.5629 179.311 92.7435 179.386 91.8186 179.411C92.058 181.193 92.4199 182.768 93.128 184.21C94.9249 187.865 96.8752 191.435 99.2294 194.774C100.16 196.093 100.83 197.613 101.855 198.847C102.929 200.142 103.373 201.701 104.121 203.13C104.864 204.616 105.525 206.142 106.102 207.701C106.34 208.359 106.476 209.05 106.505 209.75C106.587 211.284 106.491 212.831 106.633 214.359C107.021 218.487 108.438 222.115 111.985 224.608C112.31 224.811 112.646 224.995 112.991 225.161C110.973 226.63 110.973 226.63 111.233 228.897C112.138 228.906 113.044 228.914 113.95 228.929C116.002 228.914 118.012 229.502 119.734 230.618C120.159 230.865 120.651 230.97 121.14 230.918C122.999 230.743 124.85 230.498 126.7 230.251C127.688 230.117 128.7 230.026 129.648 229.74C133.829 228.487 138.165 227.921 142.371 226.773C145.339 225.971 148.354 225.344 151.35 224.64C151.782 224.547 152.229 224.45 152.816 224.324M152.107 217.377C155.226 217.034 158.339 217.197 161.448 217.485C167.931 218.08 174.218 217.172 180.386 215.161C184.431 213.878 188.405 212.381 192.292 210.677C192.945 210.385 193.565 210.023 194.201 209.694L194.089 209.429C193.658 209.522 193.221 209.591 192.81 209.705C191.009 210.217 189.228 210.793 187.413 211.247C186.319 211.492 185.211 211.662 184.094 211.754C183.719 211.794 183.323 211.636 182.925 211.57C182.917 210.838 183.388 210.68 183.775 210.484C184.849 209.932 185.935 209.411 187.013 208.869C187.421 208.666 187.803 208.437 188.253 208.189C187.938 207.67 187.5 207.721 187.116 207.734C185.416 207.798 183.714 207.893 182.014 207.968C178.897 208.105 175.78 208.205 172.666 208.374C170.18 208.51 167.7 208.74 165.214 208.907C164.593 208.947 163.97 208.94 163.35 208.884C163.074 208.858 162.814 208.659 162.452 208.497C163.054 207.772 163.723 207.932 164.304 207.915C167.257 207.835 170.209 207.82 173.159 207.726C176.941 207.607 180.722 207.413 184.505 207.298C185.668 207.287 186.832 207.338 187.99 207.451C188.406 207.483 188.808 207.683 189.435 207.869C187.657 209.331 185.62 209.836 183.729 211.192C184.326 211.228 184.638 211.312 184.92 211.251C186.299 210.954 187.681 210.656 189.046 210.294C190.657 209.882 192.24 209.396 193.861 208.988C194.397 208.855 195.105 208.589 195.402 209.304C195.674 209.959 195.116 210.398 194.638 210.72C193.957 211.206 193.234 211.631 192.478 211.992C187.646 214.127 182.665 215.907 177.574 217.316C171.124 219.119 164.627 219.318 158.047 218.229C156.248 217.939 154.414 217.835 152.592 217.67C152.158 217.659 151.724 217.677 151.292 217.724M146.967 201.089C148.398 200.979 149.879 201.324 151.345 200.823C151.75 200.723 152.171 200.704 152.584 200.766C153.291 200.845 154.004 200.677 154.602 200.291C154.923 200.108 155.287 200.014 155.657 200.018C157.685 200.001 159.732 200.014 161.769 200.027C161.914 200.028 162.059 200.093 162.229 200.348C161.366 200.534 160.508 200.744 159.629 200.908C158.705 201.038 157.792 201.235 156.897 201.497C157.17 201.558 157.447 201.602 157.726 201.628C161.139 201.715 164.552 201.464 167.914 200.878C171.181 200.318 174.438 199.574 177.698 198.91C178.224 198.797 178.753 198.683 179.558 198.509C179.293 198.714 179.012 198.897 178.718 199.056C170.748 202.144 162.556 203.879 153.952 203.111C153.031 203.028 152.133 202.853 151.373 202.312C150.856 201.951 150.219 201.807 149.597 201.911C148.826 202.001 148.064 202.135 147.19 202.267M135.113 147.641C138.761 147.192 142.235 146.411 145.747 145.838C142.576 147.65 138.872 147.466 135.516 148.494M112.989 150.08L95.9498 150.654C101.646 151.141 107.326 150.828 112.989 150.08ZM83.5278 174.041C83.4335 173.047 82.7386 173.082 82.1559 172.914L82.0174 173.152L83.5278 174.041ZM86.2829 174.45C86.4929 175.268 86.4929 175.268 87.1616 175.069L86.2829 174.45ZM85.5036 174.952C85.6359 174.675 85.7616 174.535 85.7371 174.432C85.7126 174.329 85.5396 174.249 85.4303 174.151C85.3662 174.241 85.2452 174.34 85.2459 174.416C85.3059 174.602 85.3918 174.778 85.5009 174.939L85.5036 174.952Z" stroke="black" stroke-width="0.220758" stroke-miterlimit="10"/>
<path d="M136.448 92.2142C136.118 94.5797 135.788 96.9466 135.46 99.3147L135.76 99.4059C135.926 99.0334 136.063 98.6483 136.169 98.2542C136.682 95.6594 138.377 93.8309 140.233 92.1395C140.85 91.5774 141.606 91.1795 142.49 91.8112C142.717 91.9179 142.975 91.9333 143.213 91.8542C145.003 91.3895 146.769 91.5872 148.512 92.0493C148.892 92.1417 149.288 92.14 149.667 92.0443C149.437 91.9333 149.221 91.793 149.026 91.6269C148.852 91.4385 148.618 91.1164 148.675 90.9415C148.733 90.7666 149.083 90.5916 149.331 90.475C149.491 90.4244 149.661 90.4141 149.826 90.4451C151.475 90.58 153.161 90.5555 154.76 90.9154C155.947 91.1815 157.053 91.8734 158.104 92.5255C159.603 93.4581 161.019 94.5261 162.615 95.6455C162.086 94.8562 161.585 94.1964 161.196 93.483C160.829 92.8259 159.91 92.4412 160.13 91.1857C160.513 91.499 160.878 91.8343 161.222 92.1901C162.715 93.9506 163.748 95.9886 164.744 98.0526C166.41 101.519 167.659 105.118 168.199 108.943C168.247 109.282 168.254 109.631 168.287 110.053C167.568 109.955 167.574 109.479 167.469 109.118C167.147 108 166.867 106.87 166.519 105.759C166.38 105.299 166.308 104.777 165.739 104.556C165.654 104.501 165.581 104.429 165.524 104.345C165.468 104.261 165.428 104.167 165.407 104.068C164.8 101.791 163.254 100.14 161.61 98.6125C160.332 97.4227 158.945 96.3561 157.467 95.4269C156.295 94.7213 155.031 94.1797 153.712 93.8173C152.08 93.3491 150.394 93.0892 148.708 92.802C148.155 92.7067 147.578 92.7992 146.998 92.8091L146.943 93.0671L148.791 93.6875L148.757 93.8755C148.405 93.8383 148.049 93.8202 147.701 93.7643C145.731 93.4501 143.808 93.6838 141.907 94.2311C140.676 94.5845 139.771 95.2288 139.348 96.5258C138.734 98.4127 138.021 100.271 137.338 102.182C138.138 102.595 138.747 102.436 139.361 102.141C140.61 101.541 141.87 101.301 143.21 101.861C143.486 101.947 143.779 101.962 144.061 101.903C146.951 101.48 149.405 102.471 151.526 104.317C154.547 106.95 156.357 110.295 157.065 114.241C157.284 115.47 157.614 116.677 157.825 117.905C158.037 119.049 158.181 120.204 158.256 121.364C158.354 123.256 157.741 124.969 156.677 126.519C155.595 128.051 154.257 129.384 152.721 130.461C152.223 130.823 151.761 131.248 151.278 131.614C151.113 131.708 150.933 131.772 150.745 131.805C150.411 131.9 150.075 131.986 149.772 132.067C150.204 132.426 150.521 132.789 150.917 132.999C151.426 133.264 151.977 133.581 152.511 133.575C154.088 133.558 155.65 133.407 157.218 133.286C157.565 133.258 157.902 133.138 158.313 133.242L157.105 134.333C157.154 134.401 157.202 134.47 157.249 134.539C160.347 133.357 163.564 132.406 166.44 130.097C165.322 129.751 164.708 130.778 163.827 130.462C163.496 129.973 163.681 129.52 164.038 129.061C167.048 125.143 168.264 120.66 168.201 115.778C168.195 115.328 168.05 114.72 168.671 114.685C169.291 114.651 169.165 115.283 169.241 115.721C169.376 116.505 169.12 117.359 169.794 118.068C169.989 118.27 169.828 118.862 169.756 119.264C169.129 122.786 167.962 126.093 165.777 128.98C165.629 129.224 165.499 129.478 165.388 129.741L166.915 129.491C166.967 129.564 167.02 129.634 167.074 129.703C166.775 130.059 166.54 130.516 166.17 130.749C164.872 131.562 163.584 132.436 162.186 133.035C158.906 134.455 155.559 135.732 152.055 136.491C151.042 136.709 149.999 136.759 148.969 136.639C147.872 136.505 146.814 136.071 145.737 135.77L144.863 135.525L144.787 135.993C144.705 136.011 144.607 136.068 144.554 136.043C143.861 135.669 143.096 135.375 142.497 134.879C141.181 133.796 139.934 132.631 138.762 131.393C138.132 130.711 137.739 129.788 137.315 128.94C136.865 128.055 136.496 127.13 136.076 126.229C134.864 123.579 134.048 120.765 133.653 117.878C133.149 114.541 133.261 111.14 133.982 107.844C134.028 107.645 134.133 107.36 134.041 107.244C133.547 106.673 133.827 106.055 133.908 105.466C134.256 102.998 134.622 100.533 135.007 98.0709C135.261 96.4716 135.566 94.8793 135.871 93.287C135.967 92.894 136.086 92.507 136.229 92.1282L136.448 92.2142ZM142.881 127.312C142.143 127.566 142.045 127.971 142.336 128.577C142.658 129.246 143.181 129.659 143.81 130.012C144.339 130.306 144.812 130.699 145.327 131.024C145.439 131.095 145.628 131.04 145.783 131.043C144.843 130.297 145.562 129.255 145.158 128.341C144.084 128.735 143.368 128.212 142.876 127.313L142.881 127.312ZM143.8 108.665C143.641 107.761 143.688 106.911 143.136 106.183C142.021 107.128 141.985 107.192 141.991 108.205C142.387 108.334 142.814 108.479 143.246 108.612C143.429 108.644 143.614 108.662 143.8 108.665ZM139.168 121.672C139.047 122.226 139.099 122.804 139.316 123.328C139.533 123.852 139.905 124.297 140.382 124.603C140.489 123.977 140.591 123.391 140.669 122.927L139.168 121.672ZM137.506 106.222L137.929 106.203C137.909 105.817 137.886 105.431 137.866 105.045L137.553 105.045C137.535 105.44 137.518 105.833 137.502 106.223L137.506 106.222ZM142.73 104.453C142.163 104.035 142.163 104.035 141.649 104.313L142.73 104.453ZM139.721 117.657L139.553 117.592C139.491 117.691 139.444 117.8 139.413 117.913C139.408 118.109 139.419 118.304 139.446 118.498C139.585 118.294 139.678 118.222 139.698 118.116C139.72 117.964 139.728 117.81 139.721 117.657Z" fill="black" stroke="black" stroke-width="0.220758" stroke-miterlimit="10"/>
<path d="M92.183 119.668C93.2205 121.046 93.6553 122.603 94.0706 124.153C94.8404 127.044 95.5459 129.952 96.2489 132.859C96.5514 134.029 97.0843 135.127 97.8165 136.089C98.694 137.297 99.6075 138.48 100.557 139.638C100.892 140.002 101.281 140.312 101.71 140.557C102.303 140.93 102.924 141.264 103.55 141.581C103.839 141.734 104.152 141.836 104.476 141.883C106.672 142.123 108.895 141.876 110.986 141.158C112.27 140.736 113.541 140.221 114.984 140.535C115.783 140.711 116.395 140.231 116.763 139.357C116.408 139.296 116.138 139.237 115.866 139.2C114.399 139.004 113.016 138.631 111.962 137.483C111.75 137.286 111.506 137.127 111.24 137.013C110.953 136.888 110.7 136.697 110.501 136.456C110.302 136.215 110.162 135.93 110.094 135.625C110.019 135.347 109.878 135.091 109.685 134.878C107.707 132.594 106.314 129.945 104.925 127.295C104.646 126.738 104.465 126.138 104.392 125.52C104.21 124.079 104.099 122.629 103.994 121.179C103.769 118.039 104.512 115.072 105.702 112.198C105.855 111.766 106.101 111.372 106.422 111.045C108.26 109.443 109.877 107.525 112.249 106.648C113.998 106.001 115.754 105.421 117.662 105.297C120.141 105.138 121.904 106.242 123.287 108.105C124.462 109.69 125.405 111.392 125.295 113.482C125.29 113.813 125.401 114.134 125.61 114.39C126.694 115.615 127.003 117.114 127.159 118.654C127.384 120.853 127.389 123.042 126.901 125.222C126.373 127.574 125.943 129.945 125.458 132.308C125.279 133.175 124.989 133.969 124.193 134.516C123.907 134.752 123.713 135.081 123.645 135.445C123.556 135.917 123.348 136.359 123.038 136.727C122.729 137.096 122.331 137.378 121.881 137.548C120.366 138.202 119.166 139.296 117.839 140.225C116.539 141.114 115.175 141.906 113.759 142.595C113.083 142.926 112.258 142.965 111.484 143.085C109.645 143.384 107.799 143.653 105.957 143.937C104.85 144.101 104 143.469 103.128 142.943C103.057 142.9 103.146 142.587 103.166 142.336C101.173 142.14 100.168 140.713 99.2215 139.214C98.8361 138.599 98.6251 137.83 97.6756 137.772C97.4623 137.757 97.2373 137.415 97.0787 137.171C95.2595 134.383 93.8458 131.351 92.8799 128.165C92.6949 127.568 92.4514 126.888 93.1661 126.348C93.3194 126.232 93.2336 125.729 93.1783 125.42C92.8781 123.743 92.552 122.073 92.2405 120.396C92.2082 120.155 92.1889 119.912 92.183 119.668ZM122.184 127.205C122.996 125.806 123.441 122.56 123.227 121.001L122.579 121.346L121.836 119.805L121.588 119.859L122.184 127.205ZM118.564 115.382L119.366 116.338C120.53 116.648 121.08 115.969 121.475 115.186C121.806 114.521 121.716 113.84 121.122 113.23L118.564 115.382ZM115.118 108.268C113.148 107.927 112.03 108.933 112.565 110.512L115.118 108.268ZM119.218 131.322C119.002 131.892 118.842 132.322 118.681 132.75L118.911 132.976C119.202 132.852 119.637 132.803 119.755 132.586C120.005 132.103 119.609 131.775 119.215 131.309L119.218 131.322Z" fill="black" stroke="black" stroke-width="0.220758" stroke-miterlimit="10"/>
<path d="M123.321 50.458C123.304 49.9469 123.18 49.4114 123.288 48.9296C124.753 42.3676 126.538 35.9242 130.498 30.3333C131.237 29.2888 132.081 28.319 132.821 27.2177C132.449 27.4514 132.068 27.6714 131.701 27.9106C127.267 30.9414 124.23 35.0665 122.231 40.0092C120.218 45.0002 119.275 50.3578 119.461 55.7361C119.531 58.1577 119.654 58.488 121.014 60.6678C120.575 61.2749 119.978 61.2183 119.375 61.0052C118.937 60.8601 118.538 60.6166 118.209 60.2931C117.88 59.9697 117.63 59.5752 117.478 59.1398C117.138 58.2014 116.461 57.6494 115.647 57.1947C113.061 55.7465 110.271 55.302 107.343 55.4701C103.448 55.6928 100.171 57.4239 97.0984 59.6374C93.4641 62.2541 90.337 65.4119 87.479 68.8436C86.4766 70.0897 85.4101 71.2828 84.2837 72.4181C84.3134 72.1159 84.2739 71.7856 84.3829 71.516C84.7589 70.5049 85.1997 69.519 85.7027 68.5647C88.2285 64.1363 91.0977 59.9705 95.1197 56.7215C97.8123 54.5448 100.812 52.9364 104.189 52.1954C108.183 51.3191 112.126 51.5534 115.898 53.304C116.119 53.4077 116.35 53.4956 116.588 53.5956C116.681 53.4626 116.804 53.3707 116.809 53.2701C117.13 48.5649 118.813 44.291 120.914 40.1417C122.327 37.3531 123.899 34.6683 125.852 32.215C127.784 29.8106 130.113 27.7551 132.74 26.1378C133.077 25.8942 133.45 25.7043 133.845 25.5745C134.119 25.5155 134.574 25.5642 134.72 25.7473C134.865 25.9305 134.818 26.3811 134.703 26.6542C134.536 26.9893 134.303 27.2869 134.017 27.5291C131.277 30.0187 129.493 33.1626 127.985 36.4661C127.16 38.2766 126.554 40.189 125.857 42.0598C125.802 42.2533 125.763 42.4512 125.743 42.6513C125.891 42.6374 126.002 42.6587 126.031 42.6184C128.569 39.3256 131.744 36.7131 134.98 34.1551C142.407 28.2461 150.556 23.3057 159.229 19.4527C160.786 18.7651 162.38 18.1552 163.984 17.5815C164.61 17.3591 165.271 17.2519 165.935 17.2651C167.069 17.2873 167.476 18.1278 166.797 19.0553C166.328 19.6906 165.781 20.2638 165.168 20.7612C161.651 23.619 158.128 26.4692 154.566 29.2714C149.6 33.18 144.597 37.0466 139.61 40.9282C139.265 41.2349 138.851 41.4535 138.403 41.5653C138.736 41.2248 139.06 40.8706 139.405 40.5433C143.303 36.8376 147.593 33.6146 151.887 30.4018C154.913 28.1284 158.015 25.956 161.008 23.6424C162.481 22.503 163.794 21.1565 165.166 19.8809C165.453 19.6113 165.656 19.2515 166.088 18.6796C165.199 18.8711 164.579 18.8985 164.057 19.1353C161.864 20.1316 159.626 21.0611 157.538 22.2494C146.164 28.7196 135.701 36.3934 126.734 45.9966C125.485 47.334 124.274 48.7058 123.666 50.4966L123.321 50.458Z" fill="black" stroke="black" stroke-width="0.220758" stroke-miterlimit="10"/>
<path d="M80.8904 89.781C81.1939 89.0201 81.4494 88.2356 81.8083 87.5012C82.9793 85.1171 84.5162 82.9116 85.3234 80.3485C85.3594 80.2324 85.4349 80.0377 85.4933 80.0364C86.3946 80.0274 86.4087 79.1911 86.7464 78.6937C88.005 76.8418 89.2126 74.9422 90.4347 73.0575C90.604 72.7951 90.7432 72.519 91.0019 72.0636L89.1103 72.7173L89.0165 72.5229C89.3456 72.2894 89.6605 72.0319 90.0078 71.8306C91.5547 70.9339 92.9092 69.7404 93.9934 68.3185C96.3315 65.2516 99.1766 62.7034 102.349 60.5226C102.961 60.1018 103.646 59.7915 104.299 59.4251C103.806 59.8 103.335 60.1906 102.82 60.5498C99.8904 62.5931 97.2534 65.0273 94.9826 67.7847C94.7866 68.0279 94.624 68.3001 94.3056 68.7616C94.5785 68.6892 94.8466 68.5997 95.1083 68.4938C97.8335 67.0869 100.551 65.6637 103.282 64.2645C104.764 63.5176 106.087 62.4886 107.175 61.2352C107.112 61.3708 107.051 61.5081 106.854 61.9479C108.278 61.3566 109.423 60.8504 110.587 60.4053C111.751 59.9603 112.889 59.2658 114.193 59.6825L114.277 59.967C113.604 60.1737 112.944 60.4192 112.299 60.7025C111.624 61.0674 110.997 61.5151 110.432 62.0352C111.884 62.4112 113.397 62.5776 114.26 64.2028C113.854 64.2201 113.59 64.2387 113.322 64.2422C112.039 64.2612 110.75 64.2249 109.47 64.3088C108.049 64.4019 106.689 64.9224 105.569 65.802C104.018 66.9875 102.385 68.0686 100.81 69.2164C99.6409 70.0781 98.5072 70.9998 97.9005 72.3974C97.7629 72.6535 97.5942 72.8915 97.3983 73.1063C95.369 75.6888 93.3441 78.2704 91.2938 80.8394C91.0527 81.1584 90.7091 81.3847 90.3209 81.4803C89.8634 81.5355 89.4264 81.7018 89.0481 81.9648C88.6698 82.2278 88.3616 82.5794 88.1506 82.989C87.1975 84.739 86.2986 86.5202 85.3961 88.2954C82.6332 93.73 81.5286 99.6926 79.9421 105.504C79.8442 105.949 79.6781 106.376 79.4495 106.771L79.0591 102.338L78.7678 102.318C78.3465 103.958 78.2912 105.661 78.1243 107.339C77.9573 109.016 77.8624 110.735 77.759 112.435C77.6556 114.135 77.5804 115.904 77.2977 117.631C77.3296 115.777 77.2648 113.915 77.4158 112.069C77.7106 108.469 77.8879 104.826 78.5534 101.291C79.4279 96.6924 80.4196 92.082 82.848 87.9456C83.416 87.0584 83.724 86.0298 83.7371 84.9764C83.5578 85.1604 83.3961 85.3609 83.2541 85.575C82.6321 86.7026 82.0386 87.8467 81.4145 88.9748C81.2412 89.2468 81.0497 89.5069 80.8414 89.7532L80.8904 89.781ZM84.4971 85.0136C84.9468 84.5645 85.2408 84.3566 85.4241 84.0755C86.1468 82.9645 86.916 81.8707 87.5239 80.6987C89.4033 77.0645 91.5669 73.6378 94.4368 70.6912C94.587 70.4921 94.7173 70.2787 94.8257 70.0541C93.1598 70.6231 91.9427 71.4725 91.1138 72.866C90.6069 73.7204 89.9785 74.5039 89.4441 75.3462C88.1545 77.3787 86.8627 79.4117 85.625 81.4759C85.0256 82.4564 84.5227 83.4974 84.4863 85.016L84.4971 85.0136Z" fill="black" stroke="black" stroke-width="0.220758" stroke-miterlimit="10"/>
<path d="M67.7201 231.645C65.8828 232.833 64.11 234.143 62.1904 235.18C60.1873 236.26 58.0553 237.107 55.9537 237.992C55.3969 238.227 54.743 238.252 54.1279 238.322C53.3867 238.414 52.6333 238.418 51.8969 238.543C51.1605 238.667 50.4206 238.671 49.9551 239.456C49.7909 239.742 49.2743 239.828 48.8485 240.053C49.1443 240.461 49.3754 240.78 49.7362 241.28C48.5083 241.429 47.4722 242.05 46.4747 241.036C46.3979 240.973 46.3075 240.929 46.2106 240.906C46.1137 240.883 46.0129 240.883 45.916 240.906C45.269 241.131 44.6418 241.407 43.8573 241.738C45.177 242.874 46.5268 243.731 46.7154 245.413C47.2715 245.72 48.0541 245.527 48.3307 246.37C48.0987 246.782 47.8447 247.259 47.569 247.709C47.388 247.966 47.2947 248.274 47.3031 248.589C47.3114 248.903 47.4209 249.206 47.6152 249.453C48.6406 250.976 49.9771 252.263 51.5365 253.231C52.1451 253.604 52.7921 253.577 53.4665 253.448C56.0385 252.954 58.6153 252.494 61.1842 251.997C64.558 251.347 67.9625 251.374 71.3708 251.503C71.564 251.549 71.7521 251.614 71.9322 251.698C70.945 252.105 70.1362 252.46 69.3143 252.775C66.2544 253.972 63.0846 254.868 59.8502 255.448C58.3256 255.709 56.8006 255.968 55.3287 256.368C52.6441 257.093 50.3421 256.523 48.2908 254.664C47.0522 253.538 45.9165 252.344 45.0466 250.905C44.3133 249.693 44.0389 248.44 44.7309 247.135C45.008 246.607 44.9682 246.139 44.5395 245.785C43.9178 245.239 43.2562 244.739 42.5602 244.292C41.9182 243.89 41.2808 243.531 40.9743 242.779C40.7198 242.202 40.6739 241.554 40.8445 240.946C41.0151 240.338 41.3916 239.809 41.9096 239.448C43.4163 238.36 45.0671 237.584 47.0074 237.828C47.2067 237.871 47.4134 237.864 47.6096 237.809C47.8059 237.754 47.9859 237.653 48.1342 237.513C49.4682 236.284 51.1478 235.705 52.863 235.448C54.3246 235.231 55.6656 234.768 57.0463 234.321C59.4934 233.521 61.9813 232.847 64.4566 232.135C65.4862 231.841 66.5285 231.585 67.5649 231.312L67.7201 231.645Z" fill="black" stroke="black" stroke-width="0.220758" stroke-miterlimit="10"/>
<path d="M96.3152 101.985C97.4249 101.812 98.1798 101.469 98.7565 100.739C99.2976 100.053 99.8556 99.3732 100.438 98.7328C100.682 98.4784 100.993 98.2966 101.334 98.2078C101.325 99.3999 100.122 99.9187 99.8909 101.025C100.501 101.059 100.639 100.557 100.872 100.231C101.553 99.2566 102.424 98.4285 103.432 97.7963C104.439 97.1641 105.564 96.7407 106.738 96.5512C108.34 96.2716 109.978 96.2694 111.581 96.5444C112.319 96.6604 113.051 96.8187 113.772 97.0186C114.448 97.2138 115.066 97.3358 115.522 96.6865C118.892 98.388 121.655 100.582 123.004 104.221C122.512 103.692 122.023 103.16 121.533 102.634C121.11 102.183 120.741 101.696 120.062 101.553C119.776 101.492 119.505 101.189 119.306 100.937C118.062 99.3529 116.305 98.5368 114.505 97.9399C111.717 97.0209 108.842 96.6196 105.916 97.39C104.063 97.9109 102.459 99.0786 101.393 100.681C103.719 99.5502 105.807 98.4026 108.209 98.0839C107.846 98.2637 107.491 98.4643 107.116 98.6175C104.561 99.6196 102.474 101.347 100.367 103.037C99.9235 103.415 99.5147 103.833 99.1455 104.284C98.7816 104.716 98.3555 105.091 97.8812 105.397C97.1872 105.829 96.6167 106.433 96.2252 107.15C95.8337 107.867 95.6345 108.674 95.647 109.491C95.6323 110.985 95.751 112.479 95.7432 113.973C95.7382 114.537 95.9893 115.178 95.4266 115.805C94.8933 114.913 95.1232 114.03 95.0564 113.207C94.9887 112.347 95.0123 111.482 94.758 110.543C94.5208 111.046 94.2701 111.538 94.0508 112.051C93.3832 113.574 92.6998 115.088 92.6746 116.805C92.6651 117.337 92.5335 117.921 91.8419 118.003C91.5447 118.015 91.2531 117.918 91.0225 117.73C90.7918 117.542 90.638 117.276 90.5902 116.983C90.4319 116.298 90.4073 115.59 90.5177 114.896C90.8722 113.187 91.0722 111.464 91.3125 109.739C91.6331 107.411 92.7808 105.412 94.4136 103.746" fill="black"/>
<path d="M96.3152 101.985C97.4249 101.812 98.1798 101.469 98.7565 100.739C99.2976 100.053 99.8556 99.3732 100.438 98.7328C100.682 98.4784 100.993 98.2966 101.334 98.2078C101.325 99.3999 100.122 99.9187 99.8909 101.025C100.501 101.059 100.639 100.557 100.872 100.231C101.553 99.2566 102.424 98.4285 103.432 97.7963C104.439 97.1641 105.564 96.7407 106.738 96.5512C108.34 96.2716 109.978 96.2694 111.581 96.5444C112.319 96.6604 113.051 96.8187 113.772 97.0186C114.448 97.2138 115.066 97.3358 115.522 96.6865C118.892 98.388 121.655 100.582 123.004 104.221C122.512 103.692 122.023 103.16 121.533 102.634C121.11 102.183 120.741 101.696 120.062 101.553C119.776 101.492 119.505 101.189 119.306 100.937C118.062 99.3529 116.305 98.5368 114.505 97.9399C111.717 97.0209 108.842 96.6196 105.916 97.39C104.063 97.9109 102.459 99.0786 101.393 100.681C103.719 99.5502 105.807 98.4026 108.209 98.0839C107.846 98.2637 107.491 98.4643 107.116 98.6175C104.561 99.6196 102.474 101.347 100.367 103.037C99.9235 103.415 99.5147 103.833 99.1455 104.284C98.7816 104.716 98.3555 105.091 97.8812 105.397C97.1872 105.829 96.6167 106.433 96.2252 107.15C95.8337 107.867 95.6345 108.674 95.647 109.491C95.6323 110.985 95.751 112.479 95.7432 113.973C95.7382 114.537 95.9893 115.178 95.4266 115.805C94.8933 114.913 95.1232 114.03 95.0564 113.207C94.9887 112.347 95.0123 111.482 94.758 110.543C94.5208 111.046 94.2701 111.538 94.0508 112.051C93.3832 113.574 92.6998 115.088 92.6746 116.805C92.6651 117.337 92.5335 117.921 91.8419 118.003C91.5447 118.015 91.2531 117.918 91.0225 117.73C90.7918 117.542 90.638 117.276 90.5902 116.983C90.4319 116.298 90.4073 115.59 90.5177 114.896C90.8722 113.187 91.0722 111.464 91.3125 109.739C91.6331 107.411 92.7808 105.412 94.4136 103.746" stroke="black" stroke-width="0.220758" stroke-miterlimit="10"/>
<path d="M96.1749 100.979C97.4181 99.8735 98.434 98.8868 99.5491 97.9939L96.1749 100.979Z" fill="black"/>
<path d="M96.1749 100.979C97.4181 99.8735 98.434 98.8868 99.5491 97.9939" stroke="black" stroke-width="0.220758" stroke-miterlimit="10"/>
<path d="M273.093 212.425C275.962 209.632 278.997 207.208 282.741 205.845C283.604 205.531 284.425 205.119 284.902 204.251C285.33 203.481 285.237 203.124 284.434 202.805C283.889 202.605 283.331 202.438 282.766 202.304C282.366 202.196 281.921 202.194 281.558 202.02C281.025 201.739 280.437 201.582 279.835 201.56C279.234 201.538 278.636 201.651 278.084 201.892C277.637 202.081 277.132 202.045 276.883 201.559C276.634 201.073 276.972 200.691 277.325 200.382C277.606 200.136 277.942 199.953 278.209 199.693C278.696 199.258 279.141 198.777 279.537 198.257C280.034 197.485 280.722 196.854 281.533 196.425C282.682 195.845 283.835 195.265 285.016 194.771C285.394 194.661 285.799 194.686 286.161 194.843C286.652 195.028 287.066 195.368 287.521 195.645C287.274 196.175 287.274 196.175 286.441 196.23C286.03 196.812 285.585 197.37 285.11 197.901C284.626 198.391 284.037 198.778 283.298 199.364C284.27 199.579 285.067 199.705 285.835 199.946C286.603 200.187 287.36 200.401 288.004 200.818C289.001 201.466 289.143 202.449 288.631 203.542C288.386 204.062 288.318 204.68 288.02 205.16C287.146 206.563 286.237 207.951 285.251 209.277C284.898 209.688 284.422 209.974 283.893 210.091C280.538 210.882 277.168 211.612 273.803 212.355C273.568 212.393 273.331 212.416 273.093 212.425Z" fill="black" stroke="black" stroke-width="0.220758" stroke-miterlimit="10"/>
<path d="M156.219 144.478C156.744 144.365 157.266 144.252 157.788 144.14C162.578 143.205 167.196 141.686 171.846 140.208C179.298 137.85 186.767 135.542 194.251 133.285C195.945 132.811 197.679 132.493 199.432 132.336C199.229 132.49 199.01 132.621 198.778 132.728C195.657 133.755 192.534 134.773 189.41 135.782C184.026 137.514 178.639 139.248 173.249 140.949C170.277 141.89 167.294 142.796 164.298 143.665C161.682 144.435 158.99 144.624 156.219 144.478Z" fill="black" stroke="black" stroke-width="0.220758" stroke-miterlimit="10"/>
<path d="M107.175 61.2443C106.087 62.4977 104.764 63.5267 103.282 64.2736C100.55 65.6728 97.8332 67.096 95.1081 68.5029C94.8464 68.6088 94.5783 68.6983 94.3054 68.7707C94.6237 68.3092 94.7864 68.037 94.9824 67.7938C97.2538 65.036 99.8915 62.6017 102.822 60.5584C103.328 60.2011 103.808 59.8086 104.301 59.4337L104.904 59.2269C105.445 58.9309 106.003 58.6681 106.575 58.4401C107.688 58.0694 107.888 58.2453 108.019 59.4592L108.043 59.4021L107.528 60.7009L107.175 61.2443Z" stroke="black" stroke-width="0.220758" stroke-miterlimit="10"/>
<path d="M126.647 68.6722C124.998 67.8098 123.287 67.0696 121.53 66.4575L121.385 66.7281L123.913 68.5161L123.81 68.6762L121.929 67.6947L121.845 68.3498C121.775 68.3421 121.676 68.3635 121.641 68.3259C121.254 67.8944 120.874 67.4592 120.498 67.0162C119.595 65.9666 118.605 65.0529 117.291 64.5277C116.798 64.3081 116.328 64.0402 115.887 63.728C115.493 63.4675 115.174 63.1094 115.361 62.5857C115.574 61.9911 116.093 61.9969 116.599 62.0413C116.679 62.052 116.758 62.0682 116.835 62.0898C120.65 63.027 123.964 64.7813 126.352 68.002C126.469 68.2167 126.568 68.4409 126.647 68.6722Z" fill="black" stroke="black" stroke-width="0.220758" stroke-miterlimit="10"/>
<path d="M97.1961 240.876C97.0809 240.988 96.9564 241.09 96.8239 241.182C91.9738 243.825 87.1043 246.453 81.9372 248.454C81.0383 248.78 80.1181 249.044 79.183 249.244C78.7823 249.347 78.3624 249.352 77.9596 249.257C77.8203 249.198 77.6973 249.107 77.6014 248.99C77.5054 248.873 77.4393 248.735 77.4088 248.587C77.3998 248.492 77.4143 248.396 77.4511 248.308C77.4879 248.22 77.5459 248.142 77.6198 248.081C77.6938 248.021 77.7815 247.979 77.8753 247.961C77.9691 247.942 78.066 247.947 78.1575 247.974C79.1402 248.343 79.9736 247.924 80.783 247.582C84.1179 246.186 87.4228 244.713 90.7443 243.286C92.5406 242.516 94.3478 241.774 96.1514 241.026C96.4539 240.9 96.7839 240.818 97.0855 240.719L97.1961 240.876Z" fill="black" stroke="black" stroke-width="0.220758" stroke-miterlimit="10"/>
<path d="M248.246 208.704C248.493 207.994 248.956 208.154 249.351 208.162C251.261 208.202 253.171 208.325 255.075 208.243C258.348 208.1 261.611 207.796 264.877 207.619C266.662 207.519 268.437 207.529 270.216 207.519C270.593 207.517 270.969 207.679 271.461 207.795C271.268 207.947 271.242 207.995 271.211 207.995C266.386 207.949 261.63 208.849 256.825 209.031C254.176 209.132 251.518 208.984 248.866 208.939C248.649 208.892 248.44 208.813 248.246 208.704Z" fill="black" stroke="black" stroke-width="0.220758" stroke-miterlimit="10"/>
<path d="M155.684 198.809C158.288 198.474 160.91 198.248 163.49 197.778C166.147 197.308 168.776 196.689 171.365 195.925C173.907 195.164 176.394 194.231 178.809 193.131C181.2 192.031 183.448 190.619 185.698 189.377C181.682 193.994 162.989 200.054 155.713 199.071L155.684 198.809Z" fill="black" stroke="black" stroke-width="0.220758" stroke-miterlimit="10"/>
<path d="M85.5629 229.277C90 224.999 94.9827 221.336 98.2618 215.991L98.5139 216.113C98.3716 216.595 98.3164 217.135 98.0721 217.563C97.6516 218.326 97.1607 219.048 96.6059 219.719C93.8618 223.012 90.6772 225.912 87.1419 228.336C86.6409 228.684 86.0917 228.965 85.5629 229.277Z" fill="black" stroke="black" stroke-width="0.220758" stroke-miterlimit="10"/>
<path d="M107.583 200.508C113.105 207.271 118.753 213.884 125.456 219.578C125.224 219.481 125.002 219.365 124.789 219.231C122.491 217.514 120.311 215.668 118.433 213.481C117.815 212.758 117.08 212.135 116.431 211.428C115.958 210.913 115.564 210.33 115.098 209.812C114.768 209.447 114.343 209.172 114.022 208.803C111.813 206.272 109.554 203.784 107.734 200.936C107.667 200.799 107.616 200.656 107.583 200.508Z" fill="black" stroke="black" stroke-width="0.220758" stroke-miterlimit="10"/>
<path d="M81.1402 223.814L75.9713 228.993L76.0487 229.132L77.3247 228.545C75.31 230.242 72.9196 231.274 70.6404 232.508L70.4796 232.317C70.6026 232.144 70.6924 231.921 70.8557 231.809C71.3075 231.508 71.7758 231.232 72.2584 230.983C75.0975 229.486 77.3862 227.322 79.5783 225.034C80.0337 224.559 80.5062 224.1 80.9704 223.634L81.1402 223.814Z" fill="black" stroke="black" stroke-width="0.220758" stroke-miterlimit="10"/>
<path d="M149.933 217.454C149.124 217.588 148.32 217.786 147.506 217.844C144.777 218.037 142.045 218.185 139.314 218.34C138.029 218.447 136.736 218.249 135.542 217.762C134.998 217.529 134.334 217.552 133.723 217.492C133.325 217.483 132.929 217.45 132.536 217.391C133.462 216.991 134.504 216.95 135.458 217.276C136.896 217.806 138.354 217.921 139.862 217.856C143.219 217.711 146.58 217.59 149.939 217.458C149.937 217.457 149.935 217.456 149.933 217.454Z" fill="black" stroke="black" stroke-width="0.220758" stroke-miterlimit="10"/>
<path d="M163.925 158.569C163.768 158.743 163.583 158.89 163.378 159.005C159.003 160.562 154.622 162.108 150.236 163.643C148.319 164.312 146.382 164.925 144.452 165.567C143.983 165.728 143.493 165.817 142.998 165.833C147.205 164.396 151.401 162.972 155.596 161.522C158.381 160.558 161.153 159.557 163.931 158.572L163.925 158.569Z" fill="black" stroke="black" stroke-width="0.220758" stroke-miterlimit="10"/>
<path d="M95.5767 231.241C93.2783 232.721 86.497 234.986 84.4168 234.775L95.4957 231.001L95.5767 231.241Z" fill="black" stroke="black" stroke-width="0.220758" stroke-miterlimit="10"/>
<path d="M261.343 204.338L275.962 199.955C271.24 201.917 266.337 203.276 261.343 204.338Z" fill="black" stroke="black" stroke-width="0.220758" stroke-miterlimit="10"/>
<path d="M104.595 196.827C102.45 194.277 100.53 191.546 98.8555 188.665L104.9 196.596L104.595 196.827Z" fill="black" stroke="black" stroke-width="0.220758" stroke-miterlimit="10"/>
<path d="M124.554 224.438C128.263 224.023 131.951 223.427 135.709 223.428L124.591 224.768L124.554 224.438Z" fill="black" stroke="black" stroke-width="0.220758" stroke-miterlimit="10"/>
<path d="M92.4609 211.823L99.6471 212.926C97.1401 213.186 94.7146 212.934 92.4609 211.823Z" fill="black" stroke="black" stroke-width="0.220758" stroke-miterlimit="10"/>
<path d="M172.837 202.091C174.538 201.725 175.915 201.418 175.912 201.406C175.91 201.394 174.529 201.682 172.828 202.048C171.127 202.414 169.751 202.721 169.753 202.733C169.756 202.745 171.137 202.458 172.837 202.091Z" fill="black" stroke="black" stroke-width="0.220758" stroke-miterlimit="10"/>
<path d="M108.018 59.4661C107.896 58.2504 107.687 58.0764 106.575 58.447C106.002 58.6751 105.444 58.9379 104.904 59.2339C105.448 58.4594 106.288 58.2378 107.148 58.1225C107.5 58.0729 107.857 58.1639 108.142 58.3758C108.477 58.6899 108.351 59.1256 108.018 59.4661Z" fill="black" stroke="black" stroke-width="0.220758" stroke-miterlimit="10"/>
<path d="M200.827 128.854L198.577 130.693C198.531 130.638 198.483 130.583 198.435 130.527L200.687 128.687L200.827 128.854Z" fill="black" stroke="black" stroke-width="0.220758" stroke-miterlimit="10"/>
<path d="M132.923 175.198C134.151 174.934 135.145 174.715 135.144 174.711C135.143 174.706 134.147 174.916 132.92 175.181C131.692 175.445 130.698 175.664 130.699 175.668C130.7 175.673 131.696 175.463 132.923 175.198Z" fill="black" stroke="black" stroke-width="0.220758" stroke-miterlimit="10"/>
<path d="M138.688 83.3445C138.136 82.6301 137.583 81.9182 136.951 81.0992C137.795 81.6332 137.929 81.794 138.688 83.3445Z" fill="black" stroke="black" stroke-width="0.220758" stroke-miterlimit="10"/>
<path d="M55.3189 241.827C55.8171 241.435 56.273 240.879 57.2298 241.19C56.5743 241.69 55.951 241.763 55.3189 241.827Z" fill="black" stroke="black" stroke-width="0.220758" stroke-miterlimit="10"/>
<path d="M127.295 71.1214L126.349 70.3285L127.537 70.7937L127.295 71.1214Z" fill="black" stroke="black" stroke-width="0.220758" stroke-miterlimit="10"/>
<path d="M166.442 203.223L165.643 203.395L165.632 203.345L166.432 203.173L166.442 203.223Z" fill="black" stroke="black" stroke-width="0.220758" stroke-miterlimit="10"/>
<path d="M140.392 85.2491L140.959 85.9272L140.812 86.0447L140.234 85.3624L140.392 85.2491Z" fill="black" stroke="black" stroke-width="0.220758" stroke-miterlimit="10"/>
<path d="M80.8445 89.7616L80.4595 90.9228L80.2072 90.8008L80.8916 89.7809L80.8445 89.7616Z" fill="black" stroke="black" stroke-width="0.220758" stroke-miterlimit="10"/>
<path d="M134.176 77.359C134.31 77.5221 134.445 77.6853 134.577 77.8488L134.454 77.9478L134.064 77.4486L134.176 77.359Z" fill="black" stroke="black" stroke-width="0.220758" stroke-miterlimit="10"/>
<path d="M107.528 60.702L108.04 59.396" stroke="black" stroke-width="0.220758" stroke-miterlimit="10"/>
<path d="M163.929 158.566L165.047 158.255L165.073 158.378L163.926 158.569L163.929 158.566Z" fill="black" stroke="black" stroke-width="0.220758" stroke-miterlimit="10"/>
<path d="M213.105 146.623C212.247 147.189 211.429 147.833 210.532 148.306C207.365 149.946 204.188 151.57 200.974 153.118C198.132 154.487 195.242 155.747 192.369 157.047C192.112 157.183 191.831 157.267 191.542 157.293C191.431 157.289 191.322 157.259 191.226 157.204C191.129 157.15 191.047 157.072 190.986 156.979C190.925 156.812 191.053 156.513 191.187 156.358C191.343 156.221 191.531 156.124 191.733 156.076C197.397 153.99 202.768 151.28 208.122 148.523C209.702 147.71 211.359 147.048 212.979 146.318C213.005 146.421 213.059 146.522 213.105 146.623Z" stroke="black" stroke-width="0.220758" stroke-miterlimit="10"/>
<path d="M166.821 167.89C166.983 167.716 167.17 167.566 167.375 167.446C171.017 166.056 174.659 164.673 178.315 163.318C178.913 163.112 179.548 163.031 180.179 163.082C177.997 163.917 175.827 164.791 173.626 165.582C171.369 166.393 169.081 167.123 166.805 167.889L166.821 167.89Z" stroke="black" stroke-width="0.220758" stroke-miterlimit="10"/>
<path d="M207.239 90.2C207.009 89.9942 206.708 89.8311 206.565 89.5774C206.109 88.7406 205.743 87.8576 205.289 87.0183C203.944 84.4896 202.595 81.9666 201.221 79.4579C200.885 78.9145 200.518 78.3903 200.124 77.8877L200.346 77.7155C200.629 78.0746 200.936 78.4195 201.187 78.799C203.452 82.1951 205.245 85.842 206.894 89.5651C206.994 89.7897 207.116 90.0074 207.227 90.2274L207.239 90.2Z" stroke="black" stroke-width="0.220758" stroke-miterlimit="10"/>
<path d="M196.355 75.9062L194.245 73.4478C195.338 73.271 196.418 74.4067 196.355 75.9062Z" stroke="black" stroke-width="0.220758" stroke-miterlimit="10"/>
<path d="M207.231 90.2197C207.452 90.6991 207.645 91.1904 207.81 91.6915C207.927 92.1943 208.012 92.7038 208.067 93.217C207.891 92.7286 207.695 92.2379 207.555 91.7329C207.415 91.228 207.336 90.7143 207.225 90.2007L207.231 90.2197Z" stroke="black" stroke-width="0.220758" stroke-miterlimit="10"/>
<path d="M198.156 75.9009L197.306 75.103L197.432 74.9404L198.325 75.6769L198.156 75.9009Z" stroke="black" stroke-width="0.220758" stroke-miterlimit="10"/>
<path d="M166.794 167.891L165.223 168.384L165.173 168.155L166.814 167.889L166.794 167.891Z" stroke="black" stroke-width="0.220758" stroke-miterlimit="10"/>
<path d="M112.989 150.079C107.328 150.832 101.648 151.145 95.9507 150.654L112.989 150.079Z" stroke="black" stroke-width="0.220758" stroke-miterlimit="10"/>
<path d="M83.5256 174.028L82.0237 173.137L82.1622 172.899C82.7391 173.082 83.4312 173.034 83.5256 174.028Z" stroke="black" stroke-width="0.220758" stroke-miterlimit="10"/>
<path d="M86.2803 174.437L87.1597 175.057C86.4905 175.255 86.4905 175.255 86.2803 174.437Z" stroke="black" stroke-width="0.220758" stroke-miterlimit="10"/>
<path d="M85.5015 174.94C85.3919 174.778 85.3059 174.601 85.2458 174.414C85.2276 174.33 85.3639 174.228 85.4303 174.148C85.5383 174.24 85.708 174.315 85.7375 174.43C85.7669 174.546 85.6295 174.664 85.5015 174.94Z" stroke="black" stroke-width="0.220758" stroke-miterlimit="10"/>
<path d="M101.503 171.749L100.393 172.115L100.355 171.94C100.732 171.884 101.11 171.825 101.493 171.763L101.503 171.749Z" stroke="black" stroke-width="0.220758" stroke-miterlimit="10"/>
<path d="M142.877 127.313C143.36 128.214 144.086 128.735 145.151 128.343C145.556 129.256 144.837 130.299 145.776 131.045C145.624 131.041 145.435 131.095 145.321 131.025C144.8 130.704 144.333 130.308 143.804 130.013C143.175 129.661 142.652 129.247 142.33 128.578C142.041 127.972 142.139 127.567 142.877 127.313Z" stroke="black" stroke-width="0.220758" stroke-miterlimit="10"/>
<path d="M143.8 108.664C143.61 108.662 143.421 108.643 143.235 108.61C142.802 108.477 142.378 108.343 141.98 108.203C141.987 107.188 142.02 107.124 143.125 106.181C143.687 106.903 143.64 107.753 143.8 108.664Z" stroke="black" stroke-width="0.220758" stroke-miterlimit="10"/>
<path d="M139.166 121.663L140.668 122.92C140.59 123.389 140.488 123.971 140.381 124.597C139.903 124.29 139.531 123.845 139.314 123.32C139.097 122.796 139.045 122.218 139.166 121.663Z" stroke="black" stroke-width="0.220758" stroke-miterlimit="10"/>
<path d="M137.502 106.224C137.517 105.832 137.532 105.439 137.549 105.045L137.863 105.046C137.883 105.432 137.905 105.819 137.925 106.205L137.502 106.224Z" stroke="black" stroke-width="0.220758" stroke-miterlimit="10"/>
<path d="M142.73 104.453L141.649 104.313C142.163 104.035 142.163 104.035 142.73 104.453Z" stroke="black" stroke-width="0.220758" stroke-miterlimit="10"/>
<path d="M139.722 117.657C139.728 117.81 139.72 117.963 139.698 118.114C139.676 118.212 139.585 118.292 139.446 118.496C139.419 118.302 139.408 118.107 139.413 117.911C139.444 117.798 139.491 117.689 139.554 117.589L139.722 117.657Z" stroke="black" stroke-width="0.220758" stroke-miterlimit="10"/>
<path d="M122.183 127.201L121.588 119.861L121.836 119.808L122.579 121.348L123.227 121.003C123.447 122.554 122.993 125.793 122.183 127.201Z" stroke="black" stroke-width="0.220758" stroke-miterlimit="10"/>
<path d="M118.562 115.378L121.124 113.245C121.717 113.847 121.807 114.527 121.478 115.201C121.084 115.991 120.533 116.663 119.369 116.353L118.562 115.378Z" stroke="black" stroke-width="0.220758" stroke-miterlimit="10"/>
<path d="M115.117 108.264L112.563 110.508C112.028 108.923 113.147 107.923 115.117 108.264Z" stroke="black" stroke-width="0.220758" stroke-miterlimit="10"/>
<path d="M119.215 131.309C119.609 131.775 120.005 132.103 119.751 132.573C119.633 132.791 119.199 132.839 118.907 132.963L118.678 132.737C118.839 132.309 118.999 131.879 119.215 131.309Z" stroke="black" stroke-width="0.220758" stroke-miterlimit="10"/>
<path d="M84.4861 85.0161C84.5216 83.4931 85.0254 82.4565 85.6141 81.4783C86.8499 79.4054 88.1435 77.3811 89.4332 75.3486C89.9676 74.5063 90.5959 73.7228 91.1028 72.8684C91.9317 71.4749 93.1479 70.6212 94.8148 70.0566C94.7063 70.2812 94.576 70.4945 94.4259 70.6936C91.5559 73.6402 89.3924 77.0669 87.5129 80.7011C86.905 81.8731 86.1358 82.967 85.4131 84.0779C85.2298 84.359 84.9359 84.5669 84.4861 85.0161Z" stroke="black" stroke-width="0.220758" stroke-miterlimit="10"/>
<path d="M100.328 201.359L103.506 207.329C103.84 207.955 104.821 207.448 104.485 206.818L101.299 200.859C100.966 200.233 99.9848 200.742 100.321 201.37L100.328 201.359Z" fill="black"/>
<path d="M101.065 201.341C102.025 202.098 102.371 203.43 102.745 204.538C103.237 205.982 103.728 207.429 104.217 208.877C104.252 209.018 104.339 209.14 104.461 209.219C104.583 209.298 104.73 209.327 104.873 209.3C105.016 209.269 105.141 209.182 105.22 209.059C105.299 208.937 105.327 208.787 105.296 208.644L103.719 203.994C103.267 202.664 102.807 201.313 101.662 200.412C101.539 200.334 101.39 200.307 101.247 200.338C101.105 200.369 100.98 200.454 100.9 200.577C100.823 200.7 100.798 200.849 100.828 200.992C100.859 201.134 100.944 201.259 101.065 201.341Z" fill="black"/>
<path d="M101.224 200.538C102.205 203.383 103.008 206.285 103.629 209.229C103.779 209.924 104.858 209.692 104.708 208.997C104.087 206.053 103.284 203.15 102.303 200.306C102.268 200.165 102.181 200.043 102.059 199.964C101.937 199.886 101.79 199.857 101.647 199.883C101.504 199.914 101.38 200.001 101.3 200.123C101.221 200.246 101.193 200.395 101.224 200.538Z" fill="black"/>
<path d="M99.494 198.317C101.247 201.404 102.739 204.633 103.956 207.969C104.295 208.901 104.61 209.842 104.901 210.791C104.935 210.932 105.022 211.055 105.144 211.134C105.266 211.212 105.414 211.241 105.556 211.215C105.699 211.183 105.824 211.097 105.903 210.974C105.982 210.851 106.01 210.702 105.98 210.559C104.912 207.101 103.555 203.74 101.924 200.51C101.461 199.595 100.977 198.693 100.472 197.803C100.114 197.189 99.1405 197.693 99.4935 198.314L99.494 198.317Z" fill="black"/>
<path d="M100.228 199.292C101.808 202.538 102.995 205.962 103.762 209.49C103.979 210.495 104.163 211.508 104.316 212.532C104.348 212.674 104.434 212.799 104.557 212.878C104.68 212.957 104.828 212.985 104.971 212.955C105.113 212.922 105.236 212.835 105.315 212.713C105.394 212.59 105.423 212.442 105.395 212.3C104.85 208.649 103.874 205.076 102.487 201.655C102.093 200.685 101.665 199.727 101.208 198.787C100.898 198.147 99.9197 198.658 100.229 199.298L100.228 199.292Z" fill="black"/>
<path d="M117.007 178.718C123.746 178.422 130.452 177.598 137.062 176.255C138.905 175.879 140.74 175.463 142.565 175.006C143.253 174.833 143.025 173.753 142.333 173.927C135.872 175.542 129.295 176.651 122.662 177.244C120.801 177.41 118.937 177.534 117.07 177.616C116.925 177.611 116.784 177.662 116.675 177.759C116.567 177.855 116.5 177.989 116.488 178.134C116.481 178.28 116.531 178.422 116.628 178.532C116.725 178.641 116.861 178.707 117.007 178.718Z" fill="black"/>
<path d="M104.519 173.245C109.589 173.627 114.686 173.419 119.707 172.626C121.131 172.4 122.546 172.128 123.953 171.808C124.648 171.658 124.418 170.579 123.72 170.729C118.842 171.837 113.851 172.374 108.849 172.328C107.425 172.314 106.002 172.252 104.582 172.143C103.872 172.09 103.812 173.192 104.519 173.245Z" fill="black"/>
<path d="M132.559 149.901C136.25 149.391 139.909 148.671 143.519 147.745C144.559 147.479 145.593 147.195 146.621 146.894C146.762 146.86 146.886 146.773 146.965 146.651C147.044 146.529 147.072 146.381 147.044 146.238C147.012 146.096 146.925 145.972 146.802 145.893C146.68 145.814 146.531 145.786 146.388 145.815C142.812 146.859 139.178 147.699 135.506 148.331C134.447 148.511 133.387 148.674 132.326 148.822C132.184 148.854 132.059 148.94 131.98 149.063C131.901 149.186 131.873 149.335 131.903 149.478C131.936 149.619 132.023 149.742 132.145 149.821C132.268 149.9 132.416 149.929 132.559 149.901Z" fill="black"/>
<path d="M140.431 148.006C144.457 147.121 148.433 146.018 152.34 144.702C153.473 144.321 154.598 143.922 155.716 143.505C155.845 143.436 155.941 143.32 155.985 143.181C156.028 143.042 156.015 142.891 155.949 142.761C155.878 142.634 155.762 142.539 155.624 142.495C155.485 142.451 155.335 142.462 155.205 142.526C151.401 143.935 147.525 145.138 143.592 146.13C142.466 146.414 141.335 146.681 140.199 146.931C139.507 147.081 139.737 148.16 140.432 148.01L140.431 148.006Z" fill="black"/>
<path d="M121.25 67.3237C123.603 69.7638 126.449 71.6234 129.121 73.6899C133.25 76.8743 136.819 80.7252 139.681 85.0839C139.752 85.2103 139.868 85.305 140.006 85.3487C140.145 85.3923 140.294 85.3816 140.425 85.3188C140.554 85.2503 140.651 85.1335 140.695 84.9939C140.739 84.8542 140.726 84.7029 140.659 84.5727C138.81 81.743 136.668 79.1155 134.269 76.7337C133.057 75.5351 131.783 74.4008 130.452 73.3354C129.122 72.267 127.738 71.2847 126.378 70.2657C124.845 69.1525 123.403 67.919 122.065 66.5769C121.571 66.0668 120.76 66.8084 121.25 67.3237Z" fill="black"/>
<path d="M145.103 87.2602C145.607 86.2282 145.895 85.1042 145.949 83.957C145.958 83.8108 145.908 83.6674 145.81 83.5581C145.713 83.4489 145.576 83.3828 145.43 83.3745C145.284 83.3662 145.14 83.4162 145.031 83.5136C144.922 83.6111 144.856 83.7479 144.847 83.8941C144.836 84.154 144.814 84.4094 144.777 84.6658C144.768 84.7309 144.757 84.7943 144.748 84.8572C144.739 84.9201 144.737 84.9227 144.73 84.9536C144.742 84.8924 144.742 84.8924 144.73 84.9536C144.704 85.0722 144.68 85.1903 144.648 85.3077C144.587 85.5467 144.515 85.7881 144.434 86.0314C144.39 86.1537 144.345 86.2764 144.287 86.3951L144.212 86.5737C144.202 86.5916 144.118 86.7747 144.171 86.6661C144.095 86.7909 144.068 86.9389 144.094 87.0825C144.126 87.2248 144.213 87.3487 144.335 87.4279C144.565 87.5635 144.965 87.5428 145.097 87.2638L145.103 87.2602Z" fill="black"/>
<path d="M92.4217 111.241C91.4685 114.808 91.2496 118.531 91.7785 122.185C91.9281 123.215 92.1388 124.235 92.4096 125.24C92.5929 125.923 93.6728 125.695 93.4886 125.007C92.5704 121.583 92.3593 118.007 92.8683 114.498C93.0122 113.516 93.2136 112.544 93.4716 111.586C93.6559 110.9 92.606 110.555 92.4217 111.241Z" fill="black"/>
<path d="M90.5936 115.372C90.3921 119.688 90.9793 124.005 92.3263 128.11C92.7102 129.276 93.1523 130.422 93.651 131.544C93.7188 131.674 93.8353 131.771 93.975 131.815C94.1147 131.859 94.266 131.845 94.3958 131.777C94.5255 131.71 94.623 131.593 94.6668 131.453C94.7106 131.314 94.6971 131.162 94.6294 131.033C92.9321 127.221 91.9425 123.132 91.7089 118.966C91.6447 117.79 91.6403 116.611 91.6956 115.435C91.7275 114.723 90.6259 114.663 90.5936 115.372Z" fill="black"/>
<path d="M137.019 101.521C138.788 96.9423 143.472 94.0338 148.216 93.4635C149.853 93.2484 151.517 93.3404 153.121 93.7346C153.805 93.9124 154.142 92.9206 153.463 92.6851C151.94 92.1586 150.378 91.7493 148.792 91.4606C147.214 91.1705 145.579 91.0237 143.992 91.3204C141.319 91.815 139.23 93.7013 138.052 96.105C137.403 97.4319 136.986 98.8598 136.818 100.327L137.909 100.241C137.805 99.5072 138.131 98.7797 138.474 98.1481C138.859 97.4418 139.274 96.745 139.714 96.0743C140.132 95.4094 140.625 94.7953 141.185 94.2444C141.787 93.6815 142.489 93.2374 143.256 92.9355C144.06 92.6318 144.891 92.4066 145.737 92.2631C146.615 92.0921 147.5 91.9421 148.388 91.8389C150.04 91.6478 151.765 91.6465 153.366 92.1505C154.885 92.6273 156.308 93.5493 157.116 94.9445C157.474 95.5584 158.452 95.052 158.095 94.4355C157.26 92.9896 155.913 91.9699 154.38 91.3406C152.7 90.6592 150.851 90.5381 149.061 90.6798C148.066 90.7626 147.076 90.896 146.094 91.0797C145.163 91.2295 144.244 91.4501 143.346 91.7395C142.44 92.036 141.594 92.4897 140.846 93.0799C140.165 93.6564 139.567 94.3248 139.07 95.0659C138.516 95.8682 138.009 96.7013 137.55 97.5612C137.055 98.4718 136.684 99.4324 136.825 100.486C136.917 101.144 137.837 100.991 137.916 100.4C138.184 98.1225 139.1 95.7933 140.779 94.1828C141.625 93.3584 142.677 92.7754 143.825 92.4945C145.268 92.1497 146.772 92.2526 148.222 92.4865C149.887 92.7648 151.524 93.1865 153.116 93.7468L153.459 92.6973C148.132 91.3227 141.918 93.2463 138.292 97.39C137.299 98.5067 136.511 99.7896 135.963 101.18C135.707 101.845 136.758 102.185 137.013 101.523L137.019 101.521Z" fill="black"/>
<path d="M95.1238 105.815C95.0685 105.149 95.4271 104.519 95.8333 104.025C96.3448 103.445 96.9279 102.932 97.5687 102.499C99.1127 101.378 100.755 100.399 102.476 99.5742C103.472 99.0947 104.492 98.6661 105.532 98.2901L104.813 97.501C104.601 97.7726 104.209 97.8391 103.885 97.8975C103.45 97.9733 103.028 98.0077 102.605 98.0988C101.743 98.2888 100.911 98.5949 100.132 99.0088C98.5469 99.8875 97.1472 101.065 96.01 102.476C95.3533 103.263 94.7558 104.099 94.2224 104.975L95.21 105.439C96.5525 102.53 99.5634 100.888 102.427 99.7992C103.382 99.4399 104.357 99.1328 105.328 98.8218L105.096 97.7428C101.747 98.8307 98.9253 101.13 97.1832 104.19L98.1849 104.374C98.0448 103.221 96.6241 102.077 95.5107 102.82L96.292 103.481C96.8296 102.265 97.916 101.365 99.0594 100.739C100.506 99.9935 102.07 99.5036 103.684 99.2913C105.323 99.065 106.972 98.9304 108.626 98.8881C110.248 98.8186 111.895 98.7869 113.496 99.0922C115.141 99.4111 116.711 100.038 118.124 100.941C118.237 101.012 118.371 101.04 118.503 101.019C118.635 100.999 118.755 100.931 118.841 100.829C118.928 100.728 118.975 100.598 118.973 100.465C118.97 100.331 118.919 100.203 118.829 100.104C116.641 98.1588 113.935 96.889 111.041 96.4484C108.704 96.1122 106.321 96.3352 104.087 97.0991C101.854 97.863 99.8333 99.146 98.1919 100.843C98.0838 100.941 98.0194 101.079 98.0128 101.225C98.0062 101.372 98.0579 101.514 98.1567 101.623C98.2554 101.731 98.3931 101.795 98.5393 101.802C98.6856 101.808 98.8285 101.756 98.9366 101.658C100.417 100.553 102.225 100.012 103.983 99.5384C105.829 99.0391 107.726 98.4745 109.658 98.4875C112.597 98.5435 115.398 99.7518 117.455 101.852C118.614 103.004 119.489 104.408 120.013 105.956C120.048 106.096 120.135 106.219 120.257 106.297C120.379 106.376 120.526 106.405 120.669 106.379C120.811 106.347 120.936 106.261 121.015 106.138C121.094 106.015 121.122 105.866 121.092 105.723C120.578 104.202 119.769 102.796 118.712 101.588C117.654 100.379 116.369 99.3908 114.929 98.6796C113.501 97.9563 111.943 97.5243 110.347 97.4087C108.315 97.2751 106.323 97.7766 104.374 98.2934C102.204 98.8694 100.015 99.4833 98.1924 100.845L98.937 101.66C100.936 99.5887 103.523 98.1822 106.348 97.6311C109.006 97.1341 111.752 97.4307 114.243 98.4841C115.623 99.0598 116.899 99.8592 118.019 100.85L118.725 100.021C117.38 99.1611 115.9 98.5326 114.348 98.1613C112.644 97.7583 110.907 97.7126 109.163 97.7743C105.691 97.9059 102.004 98.0228 98.8382 99.6081C97.3041 100.39 95.9485 101.54 95.2426 103.138C95.0562 103.562 95.6312 104.061 96.0218 103.799C96.2469 103.649 96.4238 103.662 96.679 103.851C96.799 103.94 96.8989 104.054 96.9725 104.184C97.046 104.314 97.0914 104.458 97.1059 104.606C97.1639 105.075 97.8844 105.19 98.1092 104.788C99.6927 101.973 102.266 99.8465 105.328 98.8218C105.469 98.7874 105.592 98.7003 105.671 98.5783C105.749 98.4563 105.778 98.3088 105.752 98.1661C105.72 98.0233 105.634 97.8986 105.511 97.8194C105.388 97.7401 105.239 97.7126 105.096 97.7428C101.716 98.8234 98.1291 99.9958 95.7018 102.743C95.0758 103.447 94.5564 104.239 94.1601 105.094C93.8954 105.668 94.8265 106.091 95.1477 105.559C96.9268 102.664 99.5187 99.8003 103.004 99.1238C103.999 98.932 105.051 98.9515 105.734 98.084C105.798 97.9822 105.828 97.8621 105.818 97.742C105.808 97.6219 105.759 97.5083 105.679 97.4185C105.594 97.3324 105.485 97.2749 105.366 97.2539C105.248 97.2329 105.125 97.2495 105.017 97.3014C103.066 98.0074 101.186 98.8978 99.4042 99.9604C98.5157 100.491 97.6548 101.064 96.8195 101.674C96.1038 102.171 95.457 102.76 94.8962 103.427C94.2771 104.155 93.9683 105.096 94.0361 106.049C94.068 106.191 94.1546 106.316 94.2773 106.395C94.4 106.474 94.5489 106.502 94.6919 106.472C94.8335 106.439 94.9567 106.352 95.0356 106.23C95.1145 106.107 95.143 105.959 95.1151 105.816L95.1238 105.815Z" fill="black"/>
<path d="M117.649 100.749C119.413 102.67 120.792 104.912 121.712 107.353C121.78 107.483 121.897 107.58 122.036 107.624C122.176 107.668 122.327 107.655 122.458 107.588C122.585 107.517 122.68 107.4 122.723 107.261C122.766 107.123 122.755 106.972 122.69 106.842C121.733 104.311 120.3 101.986 118.469 99.9946C117.99 99.4721 117.172 100.215 117.656 100.741L117.649 100.749Z" fill="black"/>
<path d="M63.6456 235.006C68.3514 233.171 73.1191 231.276 77.1903 228.224C78.312 227.388 79.3594 226.455 80.3207 225.438C80.4253 225.338 80.4872 225.201 80.4938 225.056C80.5003 224.91 80.451 224.768 80.3559 224.659C80.2563 224.552 80.1188 224.489 79.973 224.482C79.8272 224.476 79.6848 224.528 79.5765 224.625C76.1482 228.261 71.6366 230.548 67.0807 232.451C65.7729 232.994 64.4552 233.513 63.1301 234.029C63.0013 234.097 62.9046 234.214 62.861 234.353C62.8175 234.492 62.8305 234.643 62.8974 234.772C62.967 234.9 63.0833 234.996 63.222 235.04C63.3607 235.083 63.5109 235.072 63.6412 235.007L63.6456 235.006Z" fill="black"/>
<path d="M198.89 187.813L202.122 190.73C202.223 190.839 202.362 190.905 202.51 190.913C202.658 190.921 202.804 190.871 202.915 190.774C203.022 190.674 203.085 190.537 203.091 190.391C203.098 190.245 203.046 190.103 202.948 189.994L199.716 187.078C199.615 186.973 199.478 186.912 199.333 186.906C199.188 186.9 199.046 186.949 198.937 187.045C198.83 187.144 198.766 187.281 198.759 187.427C198.753 187.573 198.804 187.716 198.902 187.824L198.89 187.813Z" fill="black"/>
<path d="M199.696 188.328L202.551 191.2C202.6 191.254 202.659 191.297 202.725 191.327C202.791 191.358 202.862 191.375 202.935 191.378C203.007 191.381 203.08 191.37 203.148 191.345C203.216 191.32 203.279 191.282 203.332 191.233C203.386 191.183 203.429 191.124 203.46 191.058C203.49 190.992 203.508 190.921 203.511 190.849C203.514 190.776 203.502 190.704 203.477 190.635C203.452 190.567 203.414 190.505 203.365 190.451L200.51 187.577C200.411 187.469 200.273 187.405 200.127 187.399C199.98 187.392 199.837 187.444 199.729 187.543C199.621 187.642 199.557 187.78 199.551 187.927C199.544 188.073 199.597 188.216 199.696 188.324L199.696 188.328Z" fill="black"/>
<path d="M232.692 176.242C232.502 178.213 231.972 180.137 231.123 181.926C231.078 182.065 231.089 182.216 231.155 182.346C231.221 182.477 231.335 182.576 231.474 182.622C231.613 182.664 231.763 182.651 231.893 182.585C232.022 182.519 232.122 182.406 232.17 182.269C233.054 180.391 233.603 178.372 233.794 176.305C233.866 175.594 232.756 175.535 232.692 176.242Z" fill="black"/>
<path d="M228.701 186.388C230.201 185.089 231.427 183.504 232.306 181.724C233.185 179.945 233.7 178.008 233.819 176.027C233.86 175.315 232.749 175.257 232.715 175.964C232.537 178.848 231.465 181.604 229.649 183.851C229.139 184.478 228.573 185.058 227.958 185.584C227.419 186.048 228.163 186.861 228.702 186.397L228.701 186.388Z" fill="black"/>
<path d="M208.154 114.626L198.193 122.111C198.087 122.211 198.023 122.348 198.017 122.494C198.011 122.64 198.062 122.782 198.16 122.89C198.261 122.996 198.398 123.058 198.543 123.064C198.688 123.071 198.83 123.021 198.94 122.926L208.898 115.439C209.005 115.34 209.069 115.203 209.076 115.057C209.082 114.911 209.031 114.768 208.934 114.66C208.833 114.555 208.696 114.493 208.55 114.487C208.405 114.481 208.263 114.531 208.154 114.626Z" fill="black"/>
<path d="M79.237 98.7615C78.5437 102.761 78.0511 106.792 77.7611 110.84C77.6788 111.989 77.6127 113.139 77.5628 114.291C77.533 115.002 78.6329 115.065 78.6648 114.354C78.8398 110.299 79.2183 106.255 79.7986 102.238C79.9624 101.098 80.1433 99.9596 80.3412 98.824C80.348 98.6782 80.2973 98.5356 80.1999 98.4269C80.1026 98.3182 79.9664 98.2521 79.8208 98.2428C79.6756 98.2381 79.5341 98.2892 79.4255 98.3857C79.3169 98.4822 79.2494 98.6167 79.237 98.7615Z" fill="black"/>
<path d="M77.6747 105.733C77.0964 108.909 76.7784 112.127 76.7239 115.354C76.7119 116.064 77.8144 116.129 77.826 115.417C77.8801 112.189 78.1988 108.971 78.7789 105.795C78.7857 105.649 78.735 105.506 78.6376 105.397C78.5402 105.288 78.4039 105.222 78.258 105.212C78.1127 105.208 77.9713 105.26 77.8629 105.356C77.7544 105.453 77.6871 105.588 77.6747 105.733Z" fill="black"/>
<path d="M77.4965 110.145L77.3773 117.065C77.3653 117.775 78.4673 117.838 78.4793 117.128L78.5985 110.208C78.6105 109.499 77.508 109.434 77.4965 110.145Z" fill="black"/>
<path d="M76.7125 110.773C76.7408 115.295 77.0315 119.811 77.5831 124.299C77.7384 125.565 77.9149 126.828 78.1125 128.088C78.2229 128.789 79.3015 128.554 79.1915 127.855C78.5039 123.467 78.0717 119.043 77.8972 114.605C77.8512 113.35 77.8236 112.094 77.8145 110.836C77.8191 110.69 77.7676 110.549 77.6707 110.441C77.5738 110.333 77.4389 110.266 77.2941 110.254C77.1485 110.247 77.0057 110.297 76.8969 110.394C76.788 110.491 76.7217 110.627 76.7125 110.773Z" fill="black"/>
<path d="M147.408 201.328C147.169 201.27 146.919 201.272 146.68 201.334C146.442 201.396 146.222 201.516 146.041 201.684C145.964 201.758 145.91 201.854 145.886 201.958C145.861 202.063 145.867 202.172 145.903 202.273C145.94 202.374 146.004 202.463 146.089 202.528C146.174 202.594 146.276 202.633 146.383 202.642C148.053 202.688 149.722 202.569 151.368 202.288L151.136 201.209C149.757 201.521 148.344 201.655 146.931 201.609L146.868 202.711C148.918 202.588 150.975 202.606 153.023 202.768C153.732 202.822 153.793 201.721 153.085 201.663C151.037 201.504 148.981 201.486 146.931 201.609C146.786 201.605 146.645 201.656 146.537 201.752C146.428 201.849 146.361 201.983 146.349 202.128C146.342 202.273 146.393 202.416 146.49 202.525C146.587 202.634 146.723 202.701 146.868 202.711C148.383 202.762 149.898 202.619 151.377 202.287C152.074 202.136 151.841 201.089 151.144 201.208C149.596 201.472 148.025 201.583 146.455 201.54L146.797 202.499C146.831 202.459 146.873 202.428 146.921 202.407C146.968 202.386 147.02 202.376 147.072 202.378C147.211 202.419 147.361 202.406 147.49 202.34C147.619 202.274 147.719 202.162 147.768 202.025C147.813 201.886 147.802 201.735 147.736 201.605C147.67 201.474 147.556 201.375 147.417 201.329L147.408 201.328Z" fill="black"/>
<path d="M155.864 200.423L169.113 196.848C169.796 196.665 169.568 195.585 168.88 195.769L155.631 199.344C154.948 199.528 155.176 200.607 155.864 200.423Z" fill="black"/>
<path d="M184.199 189.468C182.292 191.114 180.19 192.521 177.941 193.657C177.307 193.976 177.816 194.955 178.452 194.635C180.786 193.455 182.967 191.993 184.946 190.282C185.483 189.819 184.738 189.004 184.199 189.468Z" fill="black"/>
<path d="M181.084 192.268L176.308 194.788C175.681 195.117 176.189 196.098 176.819 195.766L181.595 193.247C182.223 192.915 181.714 191.936 181.084 192.268Z" fill="black"/>
<path d="M176.284 200.606C180.379 198.987 184.441 197.284 188.468 195.497C189.601 194.997 190.729 194.49 191.853 193.977C192.501 193.681 191.99 192.703 191.342 192.998C187.336 194.824 183.295 196.569 179.217 198.235C178.071 198.703 176.923 199.164 175.771 199.619C175.642 199.687 175.545 199.803 175.502 199.943C175.458 200.082 175.471 200.233 175.538 200.362C175.608 200.49 175.724 200.586 175.863 200.629C176.001 200.673 176.152 200.662 176.282 200.597L176.284 200.606Z" fill="black"/>
<path d="M107.834 200.754C108.028 200.31 107.617 199.884 107.19 199.86C107.074 199.859 106.959 199.884 106.855 199.935C106.75 199.986 106.659 200.06 106.588 200.152C106.518 200.245 106.47 200.352 106.448 200.466C106.427 200.58 106.432 200.698 106.464 200.809C106.568 201.218 106.917 201.57 107.165 201.903C107.439 202.271 107.715 202.637 107.993 203C109.093 204.445 110.227 205.865 111.395 207.26C113.73 210.069 116.181 212.771 118.748 215.364C120.192 216.825 121.67 218.25 123.183 219.641C123.285 219.745 123.422 219.807 123.568 219.813C123.713 219.819 123.855 219.769 123.965 219.673C124.072 219.574 124.135 219.436 124.141 219.29C124.147 219.144 124.096 219.002 123.998 218.894C119.221 214.506 114.785 209.761 110.728 204.701C110.154 203.985 109.588 203.263 109.032 202.537C108.764 202.186 108.496 201.835 108.233 201.481C108.089 201.286 107.945 201.091 107.807 200.911C107.747 200.829 107.682 200.748 107.625 200.663C107.609 200.654 107.595 200.641 107.584 200.625C107.573 200.609 107.566 200.592 107.563 200.573C107.504 200.435 107.49 200.492 107.518 200.745L107.311 200.934C107.215 200.965 107.112 200.964 107.017 200.932L106.827 200.722L106.801 200.656L106.816 200.366L106.798 200.408C106.775 200.477 106.767 200.55 106.772 200.622C106.778 200.694 106.797 200.765 106.83 200.829C106.863 200.894 106.908 200.951 106.963 200.999C107.018 201.046 107.082 201.082 107.151 201.104C107.22 201.127 107.293 201.135 107.365 201.13C107.437 201.124 107.508 201.105 107.572 201.072C107.637 201.039 107.694 200.994 107.742 200.939C107.789 200.884 107.825 200.82 107.847 200.751L107.834 200.754Z" fill="black"/>
<path d="M98.2419 188.898L103.468 196.794C103.539 196.921 103.655 197.016 103.793 197.06C103.932 197.103 104.081 197.092 104.212 197.029C104.341 196.96 104.438 196.843 104.482 196.704C104.525 196.564 104.513 196.413 104.446 196.283L99.22 188.376C99.1491 188.249 99.0323 188.154 98.8936 188.111C98.7549 188.067 98.6048 188.078 98.474 188.142C98.345 188.211 98.2482 188.327 98.2044 188.467C98.1606 188.606 98.1732 188.757 98.2395 188.888L98.2419 188.898Z" fill="black"/>
<path d="M122.908 225.655L122.926 225.683L122.892 225.254L122.881 225.279L123.152 224.961L123.331 224.923L123.6 225.009L123.569 224.991L123.759 225.201L123.751 225.164L123.813 225.451L123.823 225.395L123.736 225.662C123.568 225.761 123.538 225.79 123.643 225.752L123.802 225.718L124.063 225.639L124.639 225.472C125.005 225.366 125.373 225.262 125.74 225.16C126.495 224.955 127.249 224.756 128.008 224.57C129.524 224.194 131.051 223.86 132.585 223.561C133.283 223.426 133.051 222.347 132.353 222.482C130.282 222.883 128.228 223.355 126.192 223.897C125.701 224.027 125.211 224.162 124.721 224.302L123.935 224.528C123.671 224.589 123.412 224.671 123.161 224.772C122.706 224.989 122.519 225.653 123.009 225.945C123.499 226.237 124.266 225.699 123.893 225.152C123.822 225.025 123.706 224.931 123.567 224.887C123.429 224.844 123.28 224.855 123.149 224.919C123.02 224.987 122.923 225.103 122.879 225.242C122.835 225.382 122.848 225.533 122.914 225.663L122.908 225.655Z" fill="black"/>
<path d="M132.523 219.065C135.312 218.755 138.13 218.801 140.908 219.203C140.98 219.208 141.054 219.198 141.123 219.175C141.192 219.151 141.256 219.115 141.311 219.066C141.366 219.018 141.41 218.96 141.443 218.894C141.475 218.829 141.494 218.758 141.498 218.685C141.504 218.539 141.453 218.397 141.357 218.288C141.26 218.179 141.125 218.112 140.98 218.101C138.1 217.694 135.18 217.657 132.29 217.988C132.148 218.019 132.023 218.106 131.944 218.229C131.865 218.352 131.837 218.501 131.867 218.644C131.901 218.785 131.988 218.908 132.11 218.987C132.232 219.066 132.38 219.094 132.523 219.067L132.523 219.065Z" fill="black"/>
<path d="M165.051 130.756C165.899 131.361 166.632 129.71 165.589 129.409C165.108 129.273 164.722 129.575 164.376 129.837C164.031 130.099 163.696 130.336 163.347 130.574C161.869 131.586 160.32 132.492 158.712 133.284C158.075 133.598 158.584 134.576 159.223 134.263C160.346 133.709 161.445 133.107 162.505 132.44C163.022 132.116 163.531 131.781 164.031 131.434C164.299 131.25 164.565 131.061 164.829 130.869L165.207 130.589C165.238 130.566 165.276 130.544 165.306 130.518C165.441 130.396 165.387 130.577 165.227 130.453L165.038 130.246C165.018 130.19 165.013 130.13 165.021 130.072C165.03 130.013 165.053 129.958 165.087 129.91L165.344 129.778L165.307 129.786L165.595 129.803L165.648 129.83C165.069 129.417 164.472 130.345 165.051 130.756Z" fill="black"/>
<path d="M164.593 129.362C163.514 130.96 162.019 132.233 160.269 133.044C159.624 133.343 160.135 134.321 160.778 134.023C162.698 133.122 164.338 131.716 165.52 129.955C165.917 129.365 164.988 128.766 164.592 129.357L164.593 129.362Z" fill="black"/>
<path d="M169.12 118.669C169.438 117.135 169.334 115.544 168.819 114.064C168.784 113.923 168.697 113.8 168.575 113.722C168.453 113.643 168.306 113.614 168.163 113.641C168.021 113.673 167.896 113.759 167.817 113.882C167.738 114.005 167.71 114.153 167.74 114.296C168.21 115.584 168.325 116.976 168.072 118.323C168.031 118.462 168.044 118.612 168.11 118.741C168.175 118.871 168.287 118.97 168.423 119.02C168.562 119.065 168.713 119.053 168.843 118.987C168.974 118.921 169.073 118.807 169.12 118.669Z" fill="black"/>
<path d="M169.119 118.295L168.975 114.861C168.98 114.716 168.928 114.575 168.831 114.467C168.734 114.358 168.6 114.292 168.455 114.28C168.309 114.273 168.167 114.324 168.058 114.42C167.949 114.517 167.883 114.653 167.873 114.798L168.017 118.232C168.012 118.377 168.064 118.519 168.16 118.627C168.257 118.736 168.392 118.803 168.537 118.815C168.683 118.821 168.825 118.77 168.934 118.673C169.043 118.576 169.109 118.44 169.119 118.295Z" fill="black"/>
</svg>
