<svg width="278" height="258" viewBox="0 0 278 258" fill="none" xmlns="http://www.w3.org/2000/svg">
<path d="M179.602 203.262C180.42 203.838 181.172 204.568 182.069 204.956C183.345 205.503 183.692 206.287 183.27 207.535C182.514 209.771 181.784 212.016 181.005 214.241C180.274 216.332 178.788 217.64 176.569 217.692C174.642 217.738 172.707 217.386 170.77 217.291C170.224 217.265 169.507 217.348 169.137 217.693C165.964 220.521 162.475 222.842 158.456 224.264C157.231 224.694 155.886 224.847 154.582 224.972C154.21 225.007 153.81 224.431 153.378 224.231C148.204 221.818 143.759 218.081 140.494 213.398C136.155 207.304 132.111 200.995 127.947 194.774C127.876 194.667 127.858 194.516 127.966 194.278L136.688 205.484L136.952 205.3L125.632 187.713L125.83 187.58C128.481 191.34 131.116 195.108 133.78 198.855C137.51 204.111 141.191 209.406 145.031 214.578C147.407 217.805 150.332 220.588 153.673 222.799C153.825 222.9 154.085 222.988 154.104 223.11C154.383 225.084 155.413 223.947 156.267 223.658C159.309 222.634 161.425 220.205 164.044 218.545C165.188 217.822 166.323 217.086 167.557 216.288L167.251 215.467C169.506 215.392 171.62 215.233 173.727 215.268C177.917 215.336 177.998 215.32 179.354 211.374C179.927 209.707 180.519 208.043 181.128 206.304C174.606 203.738 170.465 198.37 165.59 193.788L167.871 198.223C167.788 198.273 167.707 198.326 167.63 198.378C166.54 196.904 165.413 195.453 164.36 193.95C160.975 189.117 157.591 184.288 154.246 179.423C149.431 172.398 144.553 165.412 139.933 158.259C138.225 155.612 136.95 152.633 135.878 149.66C133.938 144.284 132.176 138.847 130.592 133.351C129.886 130.901 129.76 128.281 129.393 125.738C128.345 118.423 126.948 111.135 126.401 103.784C126.026 98.8041 126.826 93.7452 127.154 88.7256C127.288 86.7361 127.554 84.7536 127.812 82.7705C128.497 77.3896 129.753 72.1884 132.679 67.5207C132.831 67.2528 132.963 66.974 133.073 66.6865C130.48 65.8479 127.92 65.0423 125.383 64.1742C124.577 63.8886 123.803 63.5185 123.074 63.07C122.022 62.4437 120.999 61.7647 120.009 61.0427C116.248 58.3101 112.224 59.4903 108.845 61.6544C107.518 62.5049 106.103 63.238 104.813 64.1295C104.285 64.5029 103.918 65.0636 103.789 65.6975C103.249 70.7883 102.624 75.8904 102.366 80.9927C101.855 90.5097 102.043 100.051 102.93 109.541C102.947 109.887 102.946 110.234 102.927 110.58C99.3443 102.123 98.6097 82.7389 101.441 64.9114C100.489 64.7522 99.5279 64.5786 98.3754 64.3971L99.0492 63.7531C96.6166 61.1295 93.3878 60.3119 89.7915 59.7652C91.1492 58.3785 92.6147 57.9706 94.2176 58.2315C96.2848 58.5709 98.0579 59.6018 99.5648 61.0289C101.463 62.8419 102.55 62.9452 104.68 61.4722C107.249 59.6953 110.008 58.3468 113.111 57.8123C115.521 57.3991 117.691 57.9648 119.949 58.9502C122.27 59.9609 124.183 61.5667 126.352 62.6522C128.521 63.7377 131.313 63.9387 133.861 64.2703C135.947 64.5425 136.455 65.267 135.21 67.0749C133.546 69.4979 132.675 72.1682 132.305 75.0367C131.917 78.0484 131.558 81.0609 131.167 84.2485C133.23 83.1635 135.109 82.1109 137.054 81.1735C138.239 80.6179 139.467 80.1559 140.725 79.7919C141.106 79.6893 141.611 80.0025 142.059 80.1249L142.06 80.5507L149.321 78.5996L149.469 79.0229C147.906 79.6573 146.372 80.3773 144.774 80.9026C141.624 81.9325 138.41 82.7765 135.278 83.8524C133.986 84.2982 132.795 85.1153 131.597 85.8379C131.434 85.9516 131.296 86.0979 131.193 86.2676C131.089 86.4374 131.022 86.6268 130.995 86.8239C130.678 91.6627 130.407 96.5034 130.135 101.344C130.126 101.459 130.238 101.582 130.315 101.75C130.476 101.66 130.625 101.549 130.757 101.42C133.572 97.7784 137.525 95.5871 141.323 93.2172C142.24 92.649 143.431 92.4588 144.526 92.2466C146.034 91.9543 147.569 91.7534 149.099 91.6076C152.288 91.301 155.498 91.7004 158.267 93.1609C161.327 94.7399 163.689 97.4001 164.897 100.624C165.631 102.707 166.101 104.874 166.296 107.074C166.397 108.068 165.841 109.307 165.213 110.162C163.431 112.577 161.128 114.269 157.964 114.43C157.648 114.415 157.335 114.499 157.069 114.671C154.232 117.231 150.693 117.206 147.286 117.017C143.815 116.821 140.365 116.125 136.924 115.548C136.224 115.431 135.596 114.871 134.948 114.495C134.681 114.344 134.462 113.999 134.198 113.974C132.403 113.796 131.56 112.56 130.888 111.109C130.694 110.785 130.469 110.481 130.217 110.2C129.126 116.192 131.196 132.113 134.146 140.116L134.915 136.96C134.648 137.017 134.448 137.06 134.219 137.11C134.214 136.979 134.23 136.848 134.267 136.722C136.11 132.918 138.604 129.879 142.61 127.987C145.654 126.554 148.616 125.001 151.897 124.207C155.957 123.197 160.176 122.998 164.313 123.623C165.281 123.77 166.311 123.453 167.31 123.481C168.308 123.51 169.376 123.694 170.412 123.808C174.45 124.245 178.49 124.682 182.532 125.118L182.48 125.587L175.175 124.882L175.077 125.191C175.555 125.365 176.019 125.576 176.466 125.82C178.21 126.943 179.994 128.016 181.629 129.279C182.473 129.928 182.782 130.796 182.476 132.137C182.198 133.369 182.944 134.834 183.244 136.201C183.719 138.36 184.399 140.501 184.604 142.681C184.763 144.471 184.563 146.246 183.221 147.883C181.736 149.707 180.741 151.962 179.465 154.148C180.871 153.076 182.213 152.041 183.564 151.006L183.905 151.34C183.651 151.745 183.361 152.125 183.039 152.477C180.045 155.212 176.477 157.04 172.791 158.578C170.294 159.622 167.62 160.25 165.015 161.029C164.685 161.101 164.349 161.144 164.011 161.157L163.859 160.845C164.213 160.604 164.586 160.393 164.974 160.215C166.171 159.784 167.471 159.567 168.571 158.967C174.652 155.693 179.186 151.112 180.952 144.176C181.427 142.31 180.802 140.719 180.334 139.027C179.154 134.765 177.232 130.974 173.594 128.285C172.791 127.691 171.792 127.358 170.882 126.911L170.479 127.228C170.666 127.926 170.764 128.667 171.063 129.329C171.646 130.607 172.027 131.868 171.525 133.265C171.426 133.517 171.394 133.791 171.434 134.06C172.438 139.238 169.805 142.791 166.063 145.735C163.894 147.482 161.332 148.675 158.599 149.209C156.374 149.629 154.182 150.232 151.967 150.709C149.092 151.335 146.504 150.526 144.329 148.713C142.536 147.219 140.959 145.458 139.372 143.734C139.02 143.351 139.039 142.632 138.89 142.076C138.526 142.614 138.22 143.01 137.983 143.449C137.745 143.888 137.429 144.329 137.402 144.788C137.264 147.351 137.198 150.11 138.879 152.089C140.097 153.523 140.395 155.422 141.661 156.612C142.971 157.853 144.509 158.83 146.191 159.487C149.888 160.882 153.699 161.986 157.761 161.44C158.132 161.391 158.557 161.756 158.959 161.928C158.626 162.17 158.265 162.37 157.883 162.525C156.972 162.769 155.925 162.464 155.158 163.35C154.995 163.541 154.377 163.374 153.978 163.317C150.455 162.813 147.03 161.972 143.64 159.797C143.819 160.212 144.021 160.615 144.247 161.006C152.074 172.148 159.03 183.915 168.068 194.156C170.412 196.817 173.418 198.897 176.166 201.182C176.406 201.38 177.142 201.253 177.47 201.023C178.952 199.984 180.373 198.852 181.928 197.886L176.967 201.955L179.604 203.262L179.602 203.262ZM142.621 111.86L142.634 112.32L149.525 112.921L149.579 112.588L149.01 112.001C149.666 111.658 150.261 111.343 150.86 111.03L150.76 110.774C148.044 111.133 145.329 111.494 142.617 111.856L142.621 111.86ZM143.587 133.997C143.298 133.51 142.652 133.438 142.123 134.088C141.21 135.217 140.41 136.44 139.507 137.702L142.316 136.947L143.587 133.997ZM155.472 107.287C154.435 108.104 154.094 109.02 154.552 109.589C155.425 110.675 156.612 110.805 157.874 109.901L155.472 107.287ZM139.78 157.439L140.257 157.209L136.935 150.35C136.81 150.409 136.685 150.471 136.563 150.529L139.78 157.439ZM148.198 131.764L150.15 130.026C148.707 129.542 147.542 130.396 146.23 131.511C147.101 131.624 147.763 131.712 148.198 131.764ZM166.755 133.699L166.879 133.265L164.839 132.272L163.859 134.477L166.755 133.699ZM160.337 100.359L163.025 103.145C163.264 100.958 162.278 99.8938 160.321 100.363L160.337 100.359Z" fill="black"/>
<path d="M39.5136 144.58C41.1245 144.808 42.7468 144.973 44.3419 145.279C49.6439 146.29 55.0004 147.126 59.9095 149.564C64.4191 151.807 68.914 154.08 73.4305 156.307C74.237 156.703 75.1251 156.93 76.0222 157.254C72.5821 139.788 69.8682 122.471 67.1023 104.908C66.4857 105.009 65.7771 105.176 65.0613 105.233C61.9615 105.473 59.0446 105.439 56.2508 103.446C51.5968 100.129 46.7353 97.0909 41.8512 94.1154C39.9449 92.9566 37.7403 92.2843 35.6614 91.3864L34.8544 93.1106L35.363 93.6063C37.0069 95.1857 36.8599 96.0777 34.8046 96.98C33.4062 97.5957 32.8562 99.7194 34.0598 100.669C35.1326 101.51 35.2358 102.64 35.2686 103.644C35.286 105.285 35.7185 106.894 36.5257 108.322C36.8966 108.957 36.807 109.432 36.0507 109.706C35.6059 109.915 35.1296 110.049 34.6412 110.102L35.198 108.823C34.9342 107.054 34.7307 105.403 34.4322 103.767C34.2991 103.041 34.1528 102.202 33.7109 101.661C31.6914 99.1771 32.014 96.7955 34.8562 95.2498C34.3193 94.8441 33.8103 94.4028 33.3326 93.9288C32.9279 93.473 32.6376 92.9074 32.1619 92.1771C30.9018 92.1939 29.8275 91.2321 29.1548 89.9789C27.7896 87.4298 26.552 84.8096 25.3381 82.1832C22.5831 76.2165 19.9914 70.1748 17.0948 64.28C15.9708 61.9879 14.2063 60.0119 12.8074 57.9996C12.9026 58.0701 13.1528 58.2343 13.377 58.4281C18.5379 62.9269 21.8416 68.6247 24.3072 74.943C26.0312 79.4677 28.1248 83.845 30.0939 88.2841C30.4224 88.9329 30.8444 89.5299 31.3464 90.0562C32.053 90.8684 32.7671 91.5826 33.9454 90.5575C34.3004 90.2504 35.082 90.365 35.6632 90.3951C40.6259 90.648 45.0004 92.5776 49.153 95.1314C49.6217 95.4514 50.1198 95.7259 50.6407 95.9511C48.6867 92.5242 49.1832 88.9301 49.7966 85.3722C50.1308 83.4645 50.692 81.6031 51.2009 79.736C51.5824 78.3406 52.6874 77.6626 53.9881 77.4288C56.8008 76.9186 59.6334 76.5244 62.4567 76.0848C62.8169 76.0144 63.1811 75.9665 63.5472 75.9413C64.8412 75.8929 65.1814 75.1945 64.9005 74.0336C64.3555 71.7637 64.8995 69.8279 66.6208 68.208C67.0112 67.8434 67.2288 67.3192 67.5805 66.8944C68.5759 65.6615 69.5175 64.3753 70.6151 63.2392C71.9415 61.8722 73.3993 60.6478 74.789 59.3485C76.2426 57.9925 77.4949 57.9467 78.9935 59.2377C79.6105 59.7691 80.3054 60.2542 80.7901 60.8918C81.8596 62.2981 83.4811 62.5653 84.9908 62.8681C85.7262 63.0206 86.6798 62.4933 87.4311 62.0854C88.1431 61.6993 88.7153 61.0657 89.3501 60.5394L89.7993 61.003C89.0116 61.8639 88.3229 62.862 87.4139 63.555C85.6232 64.9169 81.7051 64.6543 79.9781 63.1961C79.182 62.5236 78.4595 61.7467 77.6158 61.1492C77.3092 60.9323 76.5628 60.9071 76.3009 61.1299C74.5748 62.5958 72.8847 64.1113 71.288 65.7118C70.8421 66.1535 70.4751 66.9832 70.5516 67.5724C71.0526 71.4433 71.5497 75.3209 72.2953 79.1459C76.5482 100.961 82.1485 122.454 88.062 143.862C89.9551 150.718 92.5722 157.38 94.9483 164.1C97.1841 170.435 99.5388 176.729 101.84 183.044C101.93 183.258 101.939 183.498 101.863 183.718C96.0748 170.267 91.3852 156.397 86.2634 142.694L85.8499 142.836C87.4347 147.683 88.8401 152.598 90.6356 157.358C93.5012 164.955 96.5469 172.486 99.6679 179.983C102.778 187.543 106.187 194.977 109.338 202.502C112.881 211.057 116.993 219.364 121.646 227.37C122.766 229.282 124.081 231.085 125.348 232.91C126.17 234.1 127.115 234.171 128.111 233.172C128.616 232.667 129.086 232.125 129.66 231.5C125.63 229.508 124.434 225.601 122.802 222.051C118.963 213.688 116.365 204.891 113.974 196.023C115.627 200.287 117.183 204.595 118.959 208.798C121.482 214.773 124.145 220.671 126.806 226.601C127.227 227.541 127.881 228.387 128.491 229.228C129.263 230.294 130.093 231.146 131.638 230.384C132.118 230.15 132.866 230.466 133.49 230.53L133.6 230.938C131.964 232.603 130.44 234.403 128.635 235.857C127.99 236.377 126.62 236.268 125.66 236.069C123.217 235.56 123.181 235.499 122.187 237.663C121.62 238.893 120.726 239.695 119.353 239.963C118.763 240.079 118.219 240.395 117.636 240.56C117.512 240.596 117.381 240.608 117.252 240.595C117.123 240.581 116.998 240.542 116.884 240.48C115.144 239.197 113.197 238.083 111.745 236.537C106.911 231.363 102.259 226.025 97.5352 220.748C97.3002 220.534 97.1521 220.241 97.1194 219.925C99.9556 222.629 102.792 225.332 105.629 228.032L105.812 227.881C105.45 227.27 105.063 226.671 104.727 226.041C99.2509 215.815 93.7741 205.588 88.297 195.36C88.1079 194.95 87.9454 194.528 87.8107 194.097L89.7028 196.411C89.5007 195.481 89.1809 194.58 88.7512 193.731C88.6416 193.512 88.3024 193.406 88.057 193.249L87.8438 194.136C86.9873 193.375 85.2397 193.689 84.226 194.896C83.121 196.215 82.6514 197.798 82.604 199.544C83.7951 197.211 85.6531 196.184 88.6007 196.385C87.9659 196.954 87.5896 197.591 87.1415 197.647C83.9972 198.026 83.4877 200.763 84.2203 203.583C84.4025 202.937 84.6218 202.301 84.8772 201.679C85.146 201.207 85.4503 200.755 85.7873 200.328L86.1704 200.494C85.977 201.331 85.8278 202.179 85.7236 203.033C85.3519 208.047 85.9866 212.941 88.3036 217.425C90.3161 221.321 93.227 224.601 96.4072 227.622C96.6843 227.887 96.9498 228.171 97.506 228.738C94.9404 228.488 93.075 227.47 91.4132 226.223C90.0221 225.186 88.8668 223.785 87.6899 222.473C87.1463 221.868 86.671 221.654 85.8271 221.76C81.2849 222.303 76.6931 222.284 72.1555 221.704C71.7552 221.654 71.3517 221.613 70.7674 221.55L70.0349 227.711L71.0028 226.869C70.9515 227.561 70.989 228.078 70.8638 228.558C69.7451 232.904 68.5972 237.246 67.4545 241.587C67.4175 241.816 67.3271 242.034 67.1906 242.222C66.8797 242.557 66.5104 242.843 66.1693 243.149C66.0168 242.676 65.7081 242.189 65.743 241.731C65.8179 240.759 66.0723 239.805 66.083 238.794L64.9671 240.398L64.6717 240.297C64.6974 239.827 64.7557 239.359 64.8463 238.898C65.1608 237.715 65.4045 236.489 65.8995 235.38C67.9259 230.83 67.7624 225.956 68.1749 221.157C68.3532 219.068 68.8494 217.007 69.2036 214.921C68.1506 215.204 67.1558 215.799 66.3209 215.622C64.9502 215.333 65.5583 214.035 65.6161 213.105C64.0174 212.177 64.0174 212.177 64.6646 209.564C63.7418 209.281 62.3986 209.272 62.0142 208.661C61.5598 207.937 61.9402 206.705 61.9633 205.604C61.5198 205.771 60.9857 205.968 60.4549 206.167C58.5925 206.874 57.9202 206.357 58.0867 204.35L58.1255 203.812C56.5627 203.385 56.4862 202.302 58.1332 200.626L58.1101 202.326C61.0658 201.865 58.8175 204.202 59.695 205.073C60.6089 204.618 61.5886 204.073 62.6166 203.644C63.069 203.458 63.8912 203.282 64.0676 203.497C64.3675 203.857 64.4067 204.549 64.3299 205.072C64.2232 205.809 63.9142 206.519 63.5908 207.574C64.6178 207.12 65.3184 206.723 66.0692 206.513C66.5247 206.391 67.188 206.39 67.5165 206.646C67.7525 206.831 67.6905 207.557 67.575 207.988C67.4228 208.546 67.0838 209.049 66.7537 209.722C68.5255 209.698 68.4833 210.759 68.1314 212.149C69.4752 211.289 70.6747 210.678 71.1367 209.12C72.6184 204.129 75.6235 200.07 79.0076 196.202C81.4386 193.421 82.5688 190.032 83.5282 186.437C84.552 182.6 82.7186 179.674 81.6303 176.444C81.1148 174.914 80.5553 173.399 79.968 171.739L80.9339 173.61C80.5095 172.031 80.0482 170.314 79.5841 168.587C78.821 165.831 78.0327 163.076 77.2788 160.323C77.0058 159.307 76.7569 158.465 75.3243 158.638C74.479 158.738 73.5715 158.313 72.7 158.127C72.5946 160.413 72.7024 162.643 72.3424 164.811C71.9898 166.882 71.1569 168.898 70.5779 170.798C70.2139 171.009 69.7323 171.15 69.4569 171.469C68.1563 172.985 67.0569 174.703 65.6073 176.052C63.8356 177.705 61.8236 179.115 59.8433 180.528C58.1146 181.763 56.276 182.842 54.5018 184.013C53.6049 184.604 53.1395 185.404 53.2772 186.547C53.4149 187.689 53.4423 188.873 53.5183 190.038C55.9605 189.515 56.4162 190.013 55.7301 192.481C55.3944 193.701 55.0093 194.894 54.5436 196.47C55.322 196.058 55.7581 195.737 56.2476 195.594C56.6793 195.478 57.312 195.353 57.5876 195.57C57.8632 195.787 57.985 196.513 57.8468 196.892C57.1963 198.673 56.4292 200.409 55.5512 202.531C54.6903 200.766 55.4256 199.406 55.5976 197.934C55.2593 197.988 55.0133 198.029 54.7674 198.07C53.4157 198.292 52.6924 197.701 52.9332 196.349C53.1908 194.934 53.7236 193.565 54.141 192.177C54.2999 191.788 54.3505 191.363 54.2874 190.947C53.4847 191.479 52.686 192.015 51.8924 192.539C51 193.126 50.1012 193.72 49.5987 192.176C47.6634 194.039 46.6338 196.154 46.9082 198.793C46.9086 199.246 46.8861 199.698 46.8407 200.149C46.8416 203.556 45.7881 206.947 47.0485 210.377C48.3088 213.806 47.7547 217.47 47.4822 221.046C47.4766 221.693 47.508 222.339 47.5763 222.982C50.0341 216.372 50.2341 209.636 51.9006 203.19C51.7776 205.264 51.6295 207.339 51.5495 209.415C51.5361 209.744 51.8131 210.081 52.0632 210.655C51.4562 214.468 50.6929 218.645 50.1692 222.831C49.9092 225.015 50.0782 227.261 50.0152 229.474C50.0042 229.864 49.794 230.248 49.6751 230.636C49.302 230.361 48.7146 230.16 48.6024 229.795C48.27 228.831 48.1369 227.8 47.9198 226.772L47.1269 233.107L46.5481 233.17C46.2934 232.222 45.8869 231.287 45.8092 230.325C45.2953 223.948 45.0057 217.576 45.6637 211.169C46.0344 207.569 45.9441 203.924 46.1347 200.316C46.2452 198.09 46.0537 195.728 46.7349 193.662C48.0712 189.653 49.4961 185.722 50.3875 181.539C51.2641 177.448 53.0612 173.546 54.5839 169.611C55.5252 167.179 56.7103 164.845 57.795 162.442C57.9496 166.169 56.5926 169.523 55.225 172.838C53.8574 176.152 52.0916 179.308 50.6411 182.609C50.2485 183.49 50.2379 184.543 50.0539 185.519L50.4623 185.652C50.7227 184.814 51.0044 183.982 51.2368 183.134C51.5575 181.964 51.7951 180.768 52.1751 179.619C52.265 179.355 52.7912 179.233 53.114 179.048C53.2674 179.351 53.383 179.671 53.4581 180.003C53.491 180.566 53.492 181.132 53.4613 181.695C56.6427 179.658 59.6535 177.773 62.6082 175.816C64.0911 174.853 64.6637 173.57 63.8978 171.749C63.374 170.504 63.1561 169.126 62.9577 167.768L64.5233 173.594C66.1468 171.746 67.6256 170.138 68.9984 168.439C69.2314 168.151 69.0941 167.482 68.9896 167.03C68.1811 163.539 67.3461 160.053 66.4845 156.573C66.343 156.047 65.9819 155.554 65.7237 155.044L65.2419 155.174L65.4376 159.81L65.2457 159.842C64.8347 158.312 64.45 156.776 64.0126 155.253C63.8938 154.811 63.6612 154.218 63.3118 154.053C58.9475 151.951 54.9196 148.968 49.5718 148.816C50.0595 149.097 50.439 149.512 50.7911 149.488C52.8638 149.354 53.694 151.068 54.9229 152.174C55.0385 152.279 54.912 152.648 54.8965 152.895L53.4071 152.731L54.3805 156.354C54.2114 156.439 54.039 156.522 53.8672 156.607C52.7559 154.93 51.6175 153.288 50.5568 151.589C49.965 150.647 49.5617 149.598 48.956 148.657C48.7521 148.339 48.2143 148.218 47.8125 148.047C45.0525 146.873 42.2945 145.703 39.5386 144.537L39.5136 144.58ZM69.6416 67.0434C69.6127 67.0512 69.2893 67.1607 69.229 67.3462C68.859 68.4591 68.4018 69.5727 68.2407 70.7169C66.2527 85.1168 67.3533 99.4234 69.6473 113.686C70.6035 119.639 71.5825 125.594 72.5845 131.55C73.6207 137.773 74.6703 143.994 75.7334 150.212C75.8003 150.598 75.9371 150.97 76.039 151.35C76.2555 151.099 76.3897 150.788 76.4234 150.459C76.4707 150.215 76.5498 149.973 76.6143 149.73C76.8061 150.047 76.9092 150.409 76.9131 150.779C77.0949 154.964 78.1742 158.928 79.5739 162.834L84.8971 177.728C86.2146 181.402 87.2488 185.209 88.9022 188.725C92.9739 197.379 97.2136 205.954 101.621 214.45C104.996 220.97 108.52 227.433 113.055 233.257C114.05 234.554 115.148 235.77 116.337 236.892C117.518 237.986 119.464 237.853 119.851 236.69C120.461 234.852 121.437 233.515 123.379 233.201C122.329 231.731 121.263 230.431 120.403 229.005C114.767 219.66 110.069 209.846 106.021 199.718C101.505 188.427 96.9703 177.14 92.5225 165.819C89.4319 157.952 86.6273 149.984 84.8617 141.69C84.5189 140.089 83.8489 138.425 84.0608 136.892C84.2678 135.425 83.8366 134.251 83.4917 132.989C83.08 131.457 82.4701 129.975 82.0795 128.437C79.2943 117.431 76.4828 106.432 73.8142 95.398C72.8766 91.5202 72.1798 87.572 71.6186 83.6241C70.8294 78.103 70.2893 72.563 69.6416 67.0434ZM53.0352 98.2124C53.8066 97.8583 54.4545 97.5487 55.1088 97.2628C57.4596 96.1992 59.7972 95.1081 62.1642 94.1051C62.5265 93.9513 63.3799 94.0805 63.4501 94.279C63.6246 94.76 63.6677 95.488 63.4069 95.8827C62.8992 96.6341 62.2618 97.2891 61.5244 97.8169C60.0706 98.8568 58.53 99.7732 57.026 100.742C58.8206 102.168 58.8199 102.165 60.504 100.722C61.7146 99.6909 62.9428 98.6834 64.1338 97.6323C64.4138 97.382 64.8027 96.9698 64.7633 96.6868C64.5222 94.9281 64.1728 93.1759 63.8428 91.3281L60.9276 93.0853C62.0458 91.5739 63.3248 90.4511 63.776 89.0624C64.2526 87.6217 63.9297 85.916 63.9768 84.3367C63.9969 83.7498 64.0845 83.1617 64.1218 82.5758C64.2131 81.1822 64.2905 79.7895 64.3888 78.1908C63.4139 78.5233 62.6146 78.7946 61.8159 79.0685L61.7281 78.8888C62.5181 78.383 63.3061 77.8767 64.092 77.3701L63.9944 77.0067C60.3882 77.6314 56.7737 78.2046 53.1912 78.9386C52.6344 79.0515 52.0404 79.835 51.7972 80.4423C51.2656 81.8337 50.8232 83.2575 50.4726 84.705C50.2043 85.7341 50.0648 86.7906 49.8691 87.8481C50.9979 86.3761 51.125 84.3491 53.0474 83.4458C49.8566 88.3793 50.621 93.2409 53.0373 98.2203L53.0352 98.2124ZM70.8361 220.566C75.7859 220.424 80.4687 220.286 85.1522 220.151L85.3001 219.725L83.5676 218.141C83.6574 217.761 83.8599 217.391 83.8136 217.05C83.3093 213.293 82.7641 209.541 82.2354 205.788C82.0269 204.308 81.7544 202.832 81.6483 201.345C81.3296 197.007 82.989 194.306 86.9173 192.589C87.2408 192.449 87.5542 192.291 88.0152 192.074L85.286 185.731C85.139 186.098 85.0506 186.22 85.0468 186.343C84.9459 191.524 82.7023 195.76 79.2936 199.504C75.1097 204.104 73.0564 209.762 71.514 215.63C71.1004 217.158 71.0619 218.811 70.8361 220.566ZM69.7378 166.632L70.1416 166.769L71.8275 157.884L66.8373 155.838L69.7378 166.632ZM59.5802 102.232L59.6976 102.816C61.8033 102.899 63.9108 102.979 66.2156 103.069L65.0576 97.5929C63.0574 99.299 61.3161 100.761 59.5802 102.232ZM50.5592 191.968C52.8529 190.787 52.8529 190.787 51.6872 188.34L50.5592 191.968ZM83.6069 210.955L83.0655 211.041L83.6001 215.132C83.7446 215.113 83.8726 215.095 84.0302 215.073L83.6069 210.955Z" fill="black"/>
<path d="M179.6 203.266C181.903 202.582 184.294 202.101 186.492 201.16C188.572 200.268 190.451 198.899 192.417 197.739L192.2 197.351L181.551 202.313L181.343 201.917C182.186 201.408 183.063 200.966 183.866 200.392C186.613 198.46 189.303 196.464 192.062 194.534C196.589 191.359 201.165 188.252 205.665 185.039C206.57 184.395 207.197 183.388 208.009 182.583C210.744 179.901 212.724 176.546 213.747 172.854C215.172 167.65 216.77 162.484 218.281 157.299C218.345 156.991 218.385 156.678 218.4 156.364C214.889 157.344 212.192 155.649 211.656 152.048C211.471 150.565 211.454 149.066 211.605 147.579C212.307 138.764 213.064 129.953 213.799 121.141C213.786 121.056 213.76 120.975 213.72 120.899C213.638 120.921 213.533 120.95 213.503 120.997C211.505 125.116 208.13 127.906 204.369 130.294C199.932 133.13 195.201 135.478 190.259 137.298C190.12 137.357 189.969 137.387 189.818 137.386C189.666 137.386 189.516 137.353 189.377 137.292C190.541 136.697 191.71 136.101 192.853 135.466C196.819 133.271 200.849 131.167 204.695 128.778C207.84 126.824 210.137 123.965 211.71 120.607C213.095 117.649 214.336 114.622 215.686 111.651C215.866 111.27 216.325 111.025 216.657 110.716C216.763 111.108 217.048 111.571 216.934 111.883C215.123 116.887 214.877 122.085 214.9 127.32C214.936 134.808 214.98 142.295 215.03 149.78C215.043 151.101 215.249 152.403 216.661 153.466C217.038 152.767 217.548 152.197 217.667 151.556C218.215 148.586 218.93 145.594 219.068 142.587C219.393 135.476 219.479 128.362 219.538 121.227C219.55 119.579 219.004 117.927 218.729 116.347L219.158 117.313C220.378 116.494 220.895 117.148 221.125 118.266C221.38 119.51 221.714 120.753 221.807 122.012C222.09 125.911 224.043 129.18 225.76 132.523C228.979 138.828 232.3 145.083 235.647 151.32C236.268 152.474 237.213 153.44 238.012 154.512C238.192 154.447 238.369 154.382 238.546 154.315C238.549 153.496 238.721 152.634 238.526 151.865C236.866 145.31 235.279 138.73 233.396 132.239C231.405 125.406 228.037 119.167 224.399 113.076C224.204 112.75 224.214 112.304 224.13 111.915L224.509 111.677C225.039 112.178 225.731 112.591 226.075 113.198C228.045 116.663 230.179 120.067 231.803 123.693C235.425 131.753 237.731 140.271 239.467 148.927C239.782 150.484 239.924 152.07 239.891 153.657C239.876 154.347 239.369 155.37 238.817 155.606C238.265 155.842 237.06 155.53 236.675 155.052C235.166 153.143 233.638 151.185 232.519 149.039C229.07 142.361 225.803 135.6 222.422 128.734C222.829 138.539 224.432 148.138 226.015 157.759C225.563 155.656 225.057 153.562 224.669 151.447C224.282 149.332 223.984 147.143 223.678 144.987C223.373 142.83 223.095 140.59 222.739 138.391C221.749 148.427 221.264 158.533 218.133 168.238L218.479 168.373L222.679 160.346L223.099 160.385C223.088 160.953 223.232 161.572 223.034 162.054C221.784 165.114 220.785 168.338 219.096 171.14C214.739 178.375 210.057 185.425 204.553 191.847C200.609 196.455 195.407 199.369 190.061 201.996C188.277 202.86 186.451 203.633 184.589 204.314C191.451 200.435 199.01 197.576 203.934 190.878C196.883 197.075 189.088 201.809 179.636 203.254L179.6 203.266ZM198.756 193.532L198.859 193.62L193.615 197.53C197.999 195.175 201.966 192.115 205.357 188.472C205.548 188.268 205.521 187.864 205.642 187.379C203.019 189.53 200.588 191.524 198.043 193.608C198.341 193.564 198.547 193.543 198.756 193.532Z" fill="black"/>
<path d="M200.384 67.3936C200.893 67.4912 201.433 67.5042 201.903 67.697C209.413 70.7937 216.206 74.916 220.711 81.92C224.592 87.9596 225.546 94.4525 222.832 101.265C222.768 101.479 222.718 101.698 222.68 101.918C229.529 101.975 235.564 104.537 241.458 107.517C246.315 109.975 250.502 113.273 253.547 117.841C253.936 118.428 253.933 119.278 254.127 120C253.424 119.726 252.557 119.629 252.041 119.149C247.199 114.68 241.226 112.624 234.937 111.11C235.184 111.326 235.41 111.548 235.671 111.74C239.952 114.753 243.271 118.731 246.626 122.676C253.465 130.697 259.195 139.601 263.662 149.149C264.221 150.289 264.659 151.485 264.968 152.716C265.106 153.317 264.722 154.039 264.574 154.708C263.924 154.535 263.064 154.572 262.654 154.16C260.058 151.56 257.465 148.946 255.048 146.182C249.044 139.313 243.134 132.362 237.187 125.441C237.098 125.348 237.034 125.234 237.001 125.11C236.967 124.986 236.966 124.855 236.996 124.73C237.884 125.576 238.845 126.359 239.644 127.282C245.136 133.634 250.566 140.039 256.065 146.375C257.998 148.597 260.094 150.673 262.137 152.794C262.5 153.101 262.89 153.374 263.302 153.61L263.627 153.379C263.129 152.2 262.731 150.969 262.114 149.85C256.279 139.037 248.829 129.426 240.334 120.576C238.135 118.284 235.801 116.123 233.453 113.982C231.355 112.067 229.26 110.112 226.404 109.169C229.593 107.38 244.418 112.514 252.3 118.035L252.564 117.817C250.872 116.039 249.33 114.082 247.47 112.516C241.058 107.156 233.421 105.152 225.242 104.832C223.747 104.774 222.248 104.86 220.746 104.911C218.677 104.993 216.712 105.413 215.201 107.016C214.347 105.572 214.681 104.031 216.253 103.273C218.413 102.235 219.137 100.352 219.679 98.324C221.128 92.8536 219.963 87.8258 216.82 83.1971C213.201 77.8605 208.427 73.6981 203.292 69.8952C202.288 69.1517 201.287 68.3988 200.282 67.6527L200.384 67.3936Z" fill="black"/>
<path d="M213.77 91.7453L213.175 91.5269C213.926 94.3229 216.197 96.4706 215.937 99.7981L213.375 95.2954C212.83 97.0619 212.728 98.7831 211.009 99.7364C210.891 98.0376 210.984 96.3358 210.603 94.7501C210.209 93.1887 209.562 91.7024 208.687 90.3505C207.551 88.6029 206.259 86.9612 204.828 85.4453C203.736 84.2795 202.372 83.373 201.118 82.3634C200.76 82.0813 200.381 81.836 200.011 81.574C197.225 79.6108 194.449 77.6432 191.681 75.6713C191.364 75.4461 190.904 75.1407 190.874 74.841C190.693 72.9701 189.262 72.2764 187.875 71.6242C182.481 69.0909 176.848 67.3526 171.034 65.9395C163.269 64.0489 155.529 64.8809 147.759 65.1566C144.871 65.2608 141.988 65.5217 139.07 65.3883C141.382 65.0833 143.706 64.7807 146.007 64.4699C151.087 63.7823 156.15 62.9358 161.249 62.4489C165.168 62.0734 169.13 62.1322 173.076 62.0458C173.551 62.0445 174.008 62.2245 174.354 62.5491C174.501 62.7073 174.177 63.3055 174.127 63.4882L186.781 67.8874L186.926 67.5436L180.28 64.4119L180.304 64.2673C180.513 64.2943 180.719 64.34 180.919 64.404C184.552 65.9373 188.271 67.2978 191.773 69.0781C194.648 70.5328 197.271 72.4898 200.008 74.2187C200.306 74.4039 200.626 74.555 201.149 74.8408L200.268 72.6131C200.476 72.6842 200.589 72.6849 200.623 72.7378C202.179 75.2499 204.342 77.1217 206.705 78.8664C210.62 81.7691 213.924 85.4156 216.428 89.5972C216.699 89.9615 216.905 90.3706 217.035 90.8059C217.113 91.4437 217.144 92.0863 217.128 92.7286C216.412 92.6387 215.691 92.5812 214.985 92.4408C214.693 92.3368 214.419 92.1874 214.174 91.9981C214.504 92.1402 214.848 92.2482 215.201 92.3207C215.783 92.3872 216.383 92.37 216.974 92.3861C216.877 91.7828 216.81 91.1683 216.663 90.5783C216.555 90.2799 216.401 90.0003 216.206 89.7498C213.449 85.4767 209.923 81.7515 205.808 78.7631C205.522 78.5873 205.225 78.4304 204.919 78.2933C206.876 81.7195 208.629 84.9773 210.585 88.1158C211.435 89.4513 212.698 90.5374 213.77 91.7453ZM187.112 68.1738L186.791 68.7654C192.236 72.3691 198.798 74.1823 203.504 78.9728C203.242 78.0946 202.807 77.2773 202.226 76.5684C201.645 75.8595 200.929 75.2732 200.119 74.8436C196.941 73.0894 193.832 71.2063 190.643 69.4861C189.545 68.889 188.288 68.6002 187.109 68.1745L187.112 68.1738Z" fill="black"/>
<path d="M182.623 85.0551C180.735 83.0389 174.972 82.191 169.664 82.1776C172.678 84.1906 174.602 86.7167 175.488 89.9619C173.897 86.9513 172.236 84.0073 168.881 82.2892C169.137 85.1534 172.271 85.4489 173.271 87.4694L173.033 87.7705L170.104 85.9776L169.671 86.2464C176.439 90.0874 176.887 96.4087 175.613 102.665C174.774 106.772 171.587 109.985 167.554 111.901C168.299 110.524 170.034 109.846 170.535 108.088C169.079 108.72 167.795 109.279 166.508 109.837L166.299 109.509C167.392 108.168 168.535 106.864 169.569 105.48C171.198 103.295 172.829 101.09 172.582 98.1215C172.544 97.8039 172.587 97.4818 172.706 97.1849C174.211 94.1074 172.272 91.9664 170.562 89.9194C169.045 88.097 167.183 86.5677 165.505 84.8732C165.195 84.5586 165.131 84.0055 164.822 83.6876C164.249 83.0704 163.543 82.591 162.758 82.2853C161.973 81.9796 161.129 81.8554 160.289 81.9221C158.48 82.0411 156.675 82.2043 154.866 82.3319C154.507 82.3396 154.148 82.3278 153.79 82.2966L153.771 81.7738C155.606 81.6023 157.447 81.4305 159.292 81.2584C157.293 80.1243 155.249 79.2086 152.935 79.0938C152.182 79.056 151.195 79.2367 151.118 78.2071C151.034 77.0837 152.009 76.5198 152.954 76.6328C156.522 77.0854 160.244 76.6498 163.608 78.2665C164.756 78.8066 165.83 79.4902 166.806 80.3008C167.699 81.0628 168.627 81.313 169.753 81.4454C172.99 81.8317 176.229 82.2457 179.42 82.8927C180.615 83.1363 181.702 84.0324 182.832 84.6349L182.623 85.0551ZM170.52 87.5679C171.502 89.5623 172.347 91.3111 173.253 93.0437C173.363 93.254 173.785 93.3015 174.061 93.4249C174.161 93.1329 174.403 92.7967 174.332 92.5506C173.734 90.4953 172.44 88.9461 170.52 87.5679Z" fill="black"/>
<path d="M82.0572 65.4601C82.2582 67.1957 82.2736 68.9756 82.6905 70.6532C84.0708 76.2102 85.3484 81.7948 87.1225 87.2206C90.0146 96.0608 93.2925 104.772 96.3588 113.557C99.1124 121.441 101.666 129.401 104.584 137.223C105.812 140.51 107.73 143.542 109.379 146.662C110.153 148.147 111.01 149.582 111.633 151.154C110.572 149.305 109.648 147.369 108.452 145.618C106.395 142.619 104.842 139.359 103.454 136.045C101.08 130.36 98.9148 124.582 96.7274 118.815C94.4396 112.791 92.1466 106.779 90.0032 100.693C86.7868 91.5704 83.588 82.4288 81.8776 72.8702C81.52 70.8774 81.5875 68.8071 81.5007 66.7613C81.5315 66.304 81.6125 65.8516 81.7422 65.412L82.0572 65.4601Z" fill="black"/>
<path d="M51.1537 218.668L51.8286 219.183L53.0588 218.288C53.3135 218.784 53.7209 219.239 53.7856 219.764C54.0289 221.72 54.1389 223.694 54.303 225.66C54.4354 225.67 54.5645 225.677 54.6962 225.684L55.6895 215.998L56.1048 215.999C56.5 217.869 55.9905 219.776 56.2253 221.7L57.1992 218.821L57.4133 218.851C57.405 219.118 57.3823 219.384 57.3452 219.649C56.6013 223.883 55.8563 228.115 55.1105 232.342C55.0526 232.652 54.9414 232.949 54.782 233.221C54.4643 233.772 54.0966 234.294 53.7488 234.828C53.453 234.21 52.987 233.621 52.8936 232.969C52.6436 231.23 52.3201 229.563 51.0762 228.201C50.8738 227.973 50.8908 227.511 50.9058 227.157C50.9838 224.443 51.0666 221.737 51.1537 218.668Z" fill="black"/>
<path d="M93.7394 120.595C95.9051 125.083 98.0701 129.572 100.235 134.062C100.938 135.536 101.575 137.044 102.279 138.518C102.935 139.908 103.91 141.207 104.29 142.663C104.715 144.243 104.455 146.006 104.755 147.659C106.386 156.682 108.088 165.693 109.786 174.701C110.378 177.851 111.029 180.987 111.65 184.128C111.539 184.158 111.429 184.188 111.318 184.218C111.184 183.72 111.051 183.225 110.918 182.727C108.081 171.49 105.677 160.167 103.925 148.709C103.877 148.531 103.851 148.349 103.846 148.165C104.177 144.215 102.498 140.835 100.901 137.403C98.3361 131.882 95.8873 126.33 93.3884 120.791L93.7394 120.595Z" fill="black"/>
<path d="M25.275 90.2161C24.9834 89.9501 24.6754 89.6969 24.3993 89.4154C21.0088 85.937 17.63 82.4498 14.233 78.9788C13.2836 78.0088 12.2821 77.0867 11.319 76.1289C10.6218 75.4355 10.6545 75.3364 11.7179 74.8926C11.1298 74.2376 10.4855 73.6571 10.0288 72.9555C9.75827 72.5371 9.78519 71.9229 9.67813 71.3984C10.1991 71.5407 10.797 71.5494 11.2067 71.8345C11.7982 72.2566 12.3224 72.7657 12.7614 73.3447C16.6128 78.202 20.4478 83.0721 24.2666 87.955C24.7231 88.6167 25.1368 89.307 25.505 90.0216L25.275 90.2161Z" fill="black"/>
<path d="M213.77 91.7454C212.697 90.5375 211.435 89.4513 210.592 88.0999C208.635 84.9561 206.881 81.6983 204.926 78.2774C205.232 78.4145 205.529 78.5714 205.814 78.7472C209.933 81.7338 213.463 85.458 216.224 89.7311C216.419 89.9816 216.573 90.2612 216.681 90.5596C216.838 91.1467 216.894 91.764 216.991 92.3674C216.4 92.3513 215.803 92.3677 215.218 92.3019C214.866 92.2295 214.522 92.1214 214.191 91.9794L213.77 91.7454Z" fill="white"/>
<path d="M15.8859 95.5197C14.3364 93.5874 12.8592 91.7459 11.3801 89.9077C11.5322 89.7595 11.681 89.6095 11.8253 89.4634L13.6691 90.831C14.6812 89.9437 15.4935 90.3408 17.082 92.5335C16.3384 91.9825 15.6247 91.4488 14.9027 90.9258C14.8438 90.8852 14.7313 90.9182 14.3351 90.9146C14.8673 91.7709 15.2642 92.5336 15.7707 93.2105C18.2152 96.4774 20.7203 99.6968 23.1341 102.986C24.0481 104.246 24.776 105.632 25.2953 107.1L23.1191 104.579L22.9825 104.67L25.5882 108.799L25.3341 108.978C24.8274 108.363 24.3096 107.76 23.8125 107.128C21.1063 103.717 18.3981 100.31 15.7213 96.8821C15.415 96.4987 14.5772 95.9334 15.8859 95.5197Z" fill="black"/>
<path d="M39.5385 144.536C38.3321 143.923 37.0608 143.415 35.935 142.682C33.9669 141.387 32.0817 139.96 30.1762 138.584C29.6504 138.203 28.9351 137.915 29.4616 136.975C29.5771 136.774 29.1519 136.211 28.9038 135.866C27.091 133.321 25.2127 130.817 23.4468 128.237C23.0437 127.651 22.2217 126.892 23.0893 126.14C23.2131 126.033 24.3398 126.78 24.721 127.327C26.5163 129.891 28.0844 132.617 29.9906 135.088C31.1268 136.564 32.6824 137.752 34.1317 138.944C36.1815 140.595 38.3759 142.08 39.4947 144.605L39.5385 144.536Z" fill="black"/>
<path d="M7.72451 64.6208C8.12542 64.725 8.51625 64.8646 8.89238 65.0381C11.8509 66.7143 14.3156 69.1403 16.0385 72.0719C17.8692 75.1451 19.9133 78.0877 21.7924 81.131C22.4309 82.1828 22.9252 83.3156 23.262 84.499L7.60833 64.9343L7.72451 64.6208Z" fill="black"/>
<path d="M34.158 113.556L35.1609 113.77L36.3132 116.094C35.9107 116.329 35.4714 116.585 34.8772 116.937C35.3755 117.636 35.887 118.3 36.3437 119.001C37.0859 120.146 36.9723 120.458 35.6496 120.788C34.8062 121.001 35.0882 121.504 35.1823 122.043C35.291 122.746 35.3073 123.46 35.2307 124.167C35.5273 125.166 37.1999 125.896 35.6667 127.271C36.0162 127.741 36.4315 128.121 36.6311 128.601C36.8306 129.081 36.765 129.604 36.8485 130.103C36.8828 130.567 36.989 131.022 37.1631 131.453C37.5734 132.223 37.8214 132.905 37.1867 133.705C37.0926 133.875 37.0354 134.063 37.0189 134.256C37.0023 134.45 37.0268 134.645 37.0907 134.829C37.688 136.494 38.3982 138.119 38.9876 139.787C39.2284 140.473 39.2523 141.234 39.3742 141.961L39.0364 142.122C38.7811 141.928 38.4294 141.786 38.2834 141.526C37.5048 140.151 36.7746 138.747 36.0319 137.349C35.9571 137.234 35.9207 137.099 35.9279 136.962C36.1839 135.722 36.4527 134.485 36.7344 133.25C36.7626 133.124 36.954 132.954 36.9269 132.916C35.9601 131.483 36.9276 129.41 35.3234 128.167C34.5772 127.586 33.6662 126.885 35.0918 125.971C34.7527 124.962 32.9335 124.096 34.8465 122.958C34.5381 122.451 34.184 122.057 34.0523 121.599C33.9663 121.146 33.9757 120.68 34.0799 120.231C34.1776 119.617 34.4871 119.015 34.4745 118.411C34.4305 116.808 34.27 115.234 34.158 113.556Z" fill="black"/>
<path d="M24.9847 97.182C20.2319 91.5122 15.1505 86.1847 10.8359 80.2447C10.9594 80.0845 11.0803 79.925 11.2045 79.7674C11.8315 80.0732 12.5962 80.2403 13.064 80.7102C14.5439 82.1653 15.9488 83.6947 17.2734 85.2925C20.1723 88.8324 22.9564 92.4596 24.8036 96.6971C24.8772 96.8552 24.927 97.0197 24.9847 97.182Z" fill="black"/>
<path d="M26.7127 117.144C26.3232 116.619 25.9482 116.085 25.547 115.569L17.2192 104.841C16.6631 104.127 16.0809 103.431 15.5797 102.679C15.4092 102.423 15.4545 102.024 15.4017 101.691C15.7788 101.666 16.1918 101.532 16.5177 101.642C16.9366 101.816 17.3223 102.061 17.6579 102.366C21.3761 105.373 24.1092 109.073 25.6238 113.648C25.9995 114.784 26.5211 115.874 26.9777 116.985L26.7127 117.144Z" fill="black"/>
<path d="M206.935 113.466L209.09 107.577C208.976 107.52 208.864 107.46 208.76 107.4C207.827 109.382 206.897 111.365 205.969 113.347L205.2 112.921L207.782 108.149L206.697 108.44C206.696 108.322 206.663 108.209 206.7 108.177C208.663 106.458 210.497 104.65 211.298 102.052C211.405 101.704 211.609 101.393 211.887 101.157C212.02 101.046 212.174 100.963 212.34 100.914C212.506 100.864 212.68 100.849 212.852 100.87C213.119 100.95 213.341 101.345 213.465 101.651C213.535 101.914 213.531 102.191 213.455 102.452C212.654 106.574 210.991 110.228 207.693 112.988C207.528 113.12 207.336 113.214 206.935 113.466Z" fill="black"/>
<path d="M19.8028 75.5234C18.2198 72.6997 16.9187 70.043 15.3071 67.5855C13.3548 64.5957 11.1456 61.7738 9.06318 58.8669C8.87411 58.5483 8.71335 58.2136 8.58275 57.8669C8.99676 57.8319 9.53053 57.6122 9.80218 57.7933C10.8492 58.4858 11.9507 59.1919 12.7787 60.0985C16.0187 63.6682 18.8984 70.0672 19.8028 75.5234Z" fill="black"/>
<path d="M150.331 225.939C148.157 227.243 146.203 229.14 143.361 228.808C143.071 228.776 142.608 229.219 142.432 229.552C141.744 230.846 140.689 231.646 139.259 231.452C137.525 231.189 135.814 230.792 134.142 230.266C133.206 229.987 132.353 229.429 131.292 228.915C132.511 227.98 133.81 227.917 135.129 228.237C136.449 228.557 137.642 229.004 138.901 229.385C139.956 229.706 140.728 229.535 141.116 228.319C141.526 227.031 142.753 226.829 143.689 227.252C145.7 228.16 147.244 227.025 148.939 226.454C149.413 226.295 149.869 226.111 150.331 225.939Z" fill="black"/>
<path d="M65.1846 224.263C65.4469 224.063 65.8054 223.916 65.9489 223.651C66.3276 222.959 66.6108 222.217 66.9334 221.495L67.5739 221.778C64.237 227.659 64.2807 234.377 62.7155 240.791C62.2881 240.251 61.906 239.879 61.6889 239.418C61.4537 239.001 61.3355 238.529 61.3469 238.051C61.4742 236.791 62.0125 235.506 61.863 234.299C61.4433 230.877 63.3209 228.064 64.0262 224.953C64.16 224.578 64.3404 224.223 64.5631 223.894L64.5257 223.87C64.3218 224.687 64.0734 225.496 63.9233 226.324C63.7643 227.213 63.6981 228.112 63.5888 229.008C63.7353 229.028 63.8818 229.048 64.0276 229.065L65.2238 224.272L65.1846 224.263Z" fill="black"/>
<path d="M30.7608 132.786C30.6251 132.699 30.5018 132.593 30.3943 132.473C28.3685 129.63 25.9884 126.981 24.4724 123.902C23.4931 121.907 22.4914 120.07 21.0945 118.391C20.9229 118.183 21.0909 117.694 21.0939 117.338C21.5441 117.406 22.1601 117.314 22.4166 117.575C23.1549 118.372 23.8342 119.222 24.449 120.117C25.9716 122.198 27.475 124.291 28.9593 126.397C29.2982 126.87 29.5662 127.259 29.2536 128.06C28.9986 128.718 29.5954 129.752 29.9292 130.574C30.2485 131.282 30.6072 131.971 31.0036 132.639L30.7608 132.786Z" fill="black"/>
<path d="M62.5756 217.368C62.1572 218.963 61.664 220.552 61.31 222.166C61.023 223.482 60.8621 224.827 60.6925 226.171C60.2779 229.492 59.9216 232.819 59.4633 236.135C59.4034 236.563 58.8894 236.93 58.5862 237.325C58.312 236.924 57.8028 236.511 57.8033 236.124C58.0104 229.677 59.2165 223.451 62.0107 217.588C62.0821 217.476 62.1659 217.372 62.2606 217.278L62.5756 217.368Z" fill="black"/>
<path d="M29.4887 124.691L16.2817 107.802C19.6935 108.797 30.0422 121.939 29.4887 124.691Z" fill="black"/>
<path d="M13.2564 84.4522L20.8374 94.1129L20.4434 94.422L12.7828 84.8222C12.9341 84.7025 13.09 84.5788 13.2564 84.4522Z" fill="black"/>
<path d="M64.5581 223.895L66.1318 218.459L66.5684 218.582L65.1874 224.262L65.2292 224.271L64.5206 223.871L64.5581 223.895Z" fill="black"/>
<path d="M192.391 126.929L196.921 122.559L197.208 122.88L192.363 126.909L192.391 126.929Z" fill="black"/>
<path d="M192.357 126.898C190.956 128.156 189.557 129.413 188.16 130.671L187.906 130.367L192.391 126.929L192.357 126.898Z" fill="black"/>
<path d="M142.616 111.855C145.328 111.49 148.041 111.126 150.755 110.764L150.855 111.019C150.256 111.333 149.66 111.648 149.004 111.991L149.574 112.577L149.519 112.911L142.628 112.309L142.616 111.855Z" fill="white"/>
<path d="M143.583 133.993L142.315 136.942L139.503 137.697C140.406 136.436 141.206 135.213 142.12 134.084C142.648 133.434 143.3 133.498 143.583 133.993Z" fill="white"/>
<path d="M155.468 107.282L157.864 109.898C156.603 110.802 155.416 110.672 154.543 109.586C154.09 109.016 154.431 108.1 155.468 107.282Z" fill="white"/>
<path d="M139.78 157.439L136.563 150.529C136.688 150.47 136.813 150.408 136.935 150.35L140.258 157.209L139.78 157.439Z" fill="white"/>
<path d="M148.197 131.764C147.768 131.71 147.106 131.623 146.23 131.511C147.542 130.396 148.707 129.541 150.149 130.026L148.197 131.764Z" fill="white"/>
<path d="M166.75 133.7L163.854 134.479L164.833 132.273L166.873 133.266L166.75 133.7Z" fill="white"/>
<path d="M160.321 100.363C162.278 99.8941 163.264 100.959 163.009 103.15L160.321 100.363Z" fill="white"/>
<path d="M69.6413 67.0426C70.2763 72.5571 70.8322 78.0929 71.6126 83.6022C72.1738 87.5501 72.8706 91.4983 73.8081 95.3761C76.4768 106.41 79.2883 117.409 82.0735 128.415C82.4641 129.953 83.0687 131.436 83.4857 132.967C83.8253 134.231 84.2604 135.398 84.0548 136.87C83.8429 138.404 84.5143 140.072 84.8557 141.668C86.6212 149.962 89.4287 157.941 92.5164 165.797C96.9696 177.117 101.499 188.405 106.015 199.696C110.063 209.824 114.763 219.646 120.397 228.983C121.257 230.409 122.323 231.709 123.373 233.18C121.432 233.498 120.456 234.836 119.845 236.668C119.458 237.831 117.511 237.962 116.331 236.87C115.142 235.748 114.044 234.532 113.049 233.236C108.52 227.432 104.989 220.985 101.621 214.449C97.2265 205.953 92.9903 197.378 88.9123 188.721C87.2611 185.213 86.2248 181.399 84.9072 177.724L79.5746 162.859C78.175 158.952 77.0929 154.978 76.9139 150.803C76.91 150.433 76.8068 150.071 76.6151 149.754C76.5506 149.997 76.4636 150.241 76.4242 150.483C76.3905 150.812 76.2562 151.123 76.0397 151.374C75.9379 150.995 75.8063 150.621 75.7341 150.237C74.6781 144.017 73.6285 137.796 72.5853 131.574C71.5958 125.63 70.6167 119.675 69.6481 113.71C67.354 99.4477 66.2535 85.141 68.2414 70.7412C68.4004 69.5891 68.8577 68.4754 69.2298 67.3705C69.3016 67.1649 69.6173 67.0688 69.6413 67.0426Z" fill="white"/>
<path d="M53.0374 98.2199C50.6132 93.2426 49.8567 88.379 53.0523 83.4526C51.1299 84.3559 51.016 86.3794 49.874 87.8549C50.0718 86.8053 50.2092 85.7409 50.4775 84.7119C50.8281 83.2643 51.2705 81.8405 51.8021 80.4492C52.0454 79.8418 52.6393 79.0584 53.1961 78.9454C56.7786 78.2114 60.3931 77.6382 63.9993 77.0136L64.097 77.3769C63.3105 77.8818 62.5225 78.388 61.7331 78.8956L61.8208 79.0753C62.6195 78.8014 63.4189 78.5301 64.3937 78.1976C64.2954 79.7963 64.218 81.189 64.1267 82.5826C64.0865 83.158 63.999 83.7461 63.9817 84.3435C63.9361 85.9281 64.2575 87.6285 63.7809 89.0692C63.3087 90.4635 62.0507 91.5807 60.9325 93.0921L63.8477 91.3349C64.1798 93.1906 64.5324 94.9335 64.7682 96.6937C64.8021 96.9668 64.4187 97.3888 64.1388 97.6391C62.9477 98.6902 61.7202 99.7004 60.5089 100.729C58.8143 102.175 58.8176 102.177 57.0309 100.749C58.5349 99.78 60.0755 98.8636 61.5293 97.8237C62.2667 97.2959 62.9041 96.641 63.4117 95.8895C63.6726 95.4948 63.6295 94.7668 63.455 94.2858C63.3848 94.0873 62.5238 93.9715 62.1691 94.112C59.7942 95.1171 57.4566 96.2082 55.1137 97.2696C54.4597 97.5668 53.8089 97.8658 53.0374 98.2199Z" fill="white"/>
<path d="M70.836 220.565C71.0618 218.811 71.1039 217.171 71.513 215.615C73.0554 209.747 75.1087 204.089 79.2926 199.49C82.7028 195.751 84.9449 191.51 85.0458 186.328C85.0496 186.206 85.1381 186.083 85.285 185.716L88.0143 192.06C87.5532 192.277 87.2399 192.434 86.9163 192.575C82.9889 194.305 81.3321 197.005 81.6473 201.33C81.7639 202.815 82.026 204.294 82.2344 205.773C82.7631 209.527 83.3083 213.279 83.8126 217.036C83.8589 217.376 83.6565 217.747 83.5666 218.127L85.2991 219.71L85.1512 220.137C80.4651 220.273 75.7823 220.41 70.836 220.565Z" fill="white"/>
<path d="M69.7377 166.631L66.8372 155.837L71.8274 157.884L70.1415 166.768L69.7377 166.631Z" fill="white"/>
<path d="M59.58 102.232C61.3159 100.76 63.0544 99.2882 65.0601 97.5919L66.2154 103.068C63.9106 102.979 61.8031 102.899 59.6974 102.815L59.58 102.232Z" fill="white"/>
<path d="M50.559 191.968L51.687 188.34C52.8424 190.801 52.8424 190.801 50.559 191.968Z" fill="white"/>
<path d="M87.8709 194.142L88.0842 193.254C88.3191 193.414 88.6582 193.521 88.7784 193.737C89.2081 194.586 89.5279 195.487 89.73 196.417L87.8379 194.103L87.8709 194.142Z" fill="white"/>
<path d="M83.5937 210.957L84.0072 215.081C83.8628 215.1 83.7348 215.117 83.5771 215.14L83.0425 211.049L83.5937 210.957Z" fill="white"/>
<path d="M198.756 193.531C198.55 193.552 198.344 193.574 198.043 193.607C200.585 191.512 203.019 189.529 205.642 187.378C205.522 187.868 205.548 188.267 205.357 188.471C201.966 192.114 197.999 195.174 193.615 197.529L198.859 193.619L198.756 193.531Z" fill="white"/>
<path d="M187.109 68.1744C188.288 68.6001 189.545 68.8888 190.64 69.484C193.831 71.2121 196.939 73.0952 200.116 74.8415C200.925 75.2711 201.642 75.8574 202.223 76.5663C202.804 77.2752 203.238 78.0925 203.5 78.9707C198.795 74.1802 192.233 72.367 186.788 68.7633L187.109 68.1744Z" fill="white"/>
<path d="M170.52 87.5676C172.44 88.9458 173.734 90.495 174.334 92.5582C174.4 92.8057 174.163 93.1405 174.063 93.4326C173.787 93.3091 173.365 93.2616 173.255 93.0513C172.349 91.3187 171.5 89.5541 170.52 87.5676Z" fill="white"/>
<path d="M64.5178 223.872L65.2265 224.271L64.0197 229.067C63.8739 229.05 63.7274 229.03 63.581 229.01C63.6902 228.114 63.7558 227.213 63.9154 226.326C64.0635 225.49 64.3139 224.689 64.5178 223.872Z" fill="white"/>
</svg>
