<svg width="263" height="204" viewBox="0 0 263 204" fill="none" xmlns="http://www.w3.org/2000/svg">
<path d="M108.722 83.2898C109.834 79.9155 123.602 73.9068 128.57 74.4622C128.117 74.7325 127.646 74.9697 127.159 75.1719C125.979 75.5379 124.709 75.6907 123.615 76.2249C117.571 79.1361 112.974 83.382 110.955 90.036C110.412 91.826 110.959 93.3971 111.337 95.0598C112.288 99.2477 113.995 103.006 117.404 105.773C118.157 106.385 119.116 106.751 119.977 107.223L120.373 106.929C120.221 106.241 120.156 105.516 119.896 104.865C119.391 103.597 119.072 102.358 119.632 101.025C119.734 100.783 119.775 100.52 119.75 100.259C119.011 95.1888 121.72 91.8584 125.483 89.1683C127.666 87.5716 130.204 86.5297 132.879 86.1323C135.056 85.8229 137.21 85.3343 139.379 84.9695C142.196 84.4891 144.67 85.3938 146.701 87.2478C148.375 88.7764 149.827 90.5545 151.29 92.2976C151.611 92.6797 151.56 93.374 151.674 93.8885C154.431 90.9025 153.23 87.6429 152.561 84.2929L154.153 86.1758C153.788 83.2903 150.925 77.415 149.251 76.2416L150.232 79.2785C149.348 78.9558 148.729 78.8672 148.28 78.538C144.252 75.582 139.7 74.3682 134.768 74.2905C134.202 74.2799 133.638 73.9758 133.073 73.8078C133.601 73.6208 134.118 73.3982 134.655 73.2525C140 71.7807 144.283 74.2711 148.491 76.9784C148.602 77.051 148.716 77.1162 148.835 77.1737C148.869 77.1907 148.919 77.1715 149.074 77.1617C149.022 76.9264 149.003 76.692 148.958 76.4634C148.87 76.1268 148.903 75.7699 149.053 75.4556C149.462 75.81 150.005 76.086 150.26 76.5286C151.377 78.519 152.538 80.5023 153.436 82.606C154.437 84.9529 155.157 87.4185 156.021 89.8226C156.994 92.5387 156.547 95.1832 155.685 97.816C155.562 98.1903 155.463 98.5756 155.359 98.9562C155.351 98.9906 155.378 99.0389 155.41 99.1105L156.004 98.9793C155.99 99.1196 155.959 99.2577 155.911 99.3904C153.939 102.987 151.4 105.848 147.41 107.472C144.593 108.616 141.87 109.949 138.879 110.587C134.652 111.518 130.277 111.56 126.033 110.71C124.453 110.391 122.79 110.514 121.178 110.322C118.163 109.965 115.156 109.522 112.148 109.12C111.899 109.086 111.642 109.091 111.324 109.072L115.467 127.855C116.597 126.624 117.526 125.413 118.656 124.44C119.856 123.456 121.17 122.62 122.569 121.95L119.382 125.21L119.639 125.441C120.91 124.954 122.183 124.466 123.456 123.978L123.661 124.307C122.574 125.522 121.434 126.696 120.402 127.965C119.404 129.138 118.52 130.403 117.762 131.743C117.345 132.561 117.223 133.498 117.417 134.395C118.384 137.978 119.525 141.494 120.602 145.036C120.744 145.496 120.868 146.032 121.183 146.356C122.626 147.846 123.925 149.674 125.685 150.601C127.188 151.389 129.244 151.172 131.065 151.293C132.217 151.364 133.382 151.216 134.543 151.166L134.591 151.765C132.784 151.86 130.981 151.954 128.764 152.072C131.088 153.227 133.05 154.217 135.31 154.423C136.033 154.492 136.988 154.36 137.002 155.406C137.016 156.452 136.109 156.937 135.254 156.811C131.924 156.317 128.476 156.408 125.321 154.995C124.842 154.738 124.311 154.592 123.768 154.568C124.776 157.122 125.695 159.717 126.811 162.22C127.635 163.975 128.585 165.668 129.653 167.286C129.836 167.53 130.07 167.73 130.339 167.873C130.608 168.016 130.906 168.097 131.21 168.111C136.654 167.765 142.099 167.412 147.527 166.884C152.177 166.431 156.809 165.799 161.434 165.148C165.971 164.51 170.489 163.744 175.018 163.046C175.933 162.906 176.859 162.705 177.774 162.733C180.758 162.829 183.307 161.317 186.023 160.504C191.759 158.791 197.335 156.474 203.099 154.94C209.299 153.287 214.311 149.525 219.788 146.576C220.198 146.355 220.6 146.126 220.995 145.903L221.211 146.218C219.911 147.205 218.61 148.189 217.308 149.172L217.433 149.381C219.904 147.917 222.377 146.454 224.852 144.989C221.299 149.198 216.904 152.279 211.987 154.56C207.07 156.84 202.055 158.846 197.363 160.855C201.622 161.959 218.485 160.468 223.703 158.645L220.775 160.242C222.662 160.097 224.465 160.011 226.254 159.823C228.098 159.665 229.931 159.406 231.747 159.047C232.096 158.95 232.421 158.779 232.7 158.547C232.979 158.314 233.205 158.025 233.363 157.698C234.173 155.57 234.785 153.364 235.451 151.186C235.515 150.811 235.552 150.431 235.561 150.05C234.486 151.863 234.214 153.777 232.362 154.609C235.674 149.96 235.137 145.204 233.002 140.244C230.598 141.279 228.3 142.28 226.003 143.247C225.403 143.526 224.768 143.72 224.115 143.824C223.628 143.877 223.112 143.649 222.606 143.546C222.722 142.979 222.642 142.183 222.989 141.889C224.32 140.755 225.668 139.52 227.229 138.804C230.666 137.235 234.161 135.876 237.681 134.625C239.943 133.817 241.432 132.195 242.778 130.396C245.022 127.366 246.567 123.878 247.303 120.18C247.694 118.269 247.231 116.169 247.121 114.158C247.055 113.65 246.949 113.148 246.804 112.658L247.114 112.516L247.993 114.301C247.814 107.576 244.565 101.688 243.178 95.1894C243.422 95.414 243.641 95.6648 243.831 95.9373C245.811 99.5673 247.773 103.215 248.899 107.25C249.808 110.527 250.155 113.934 249.927 117.326C249.85 118.552 250.073 119.796 250.159 121.033L250.63 121.07L251.455 119.131C251.552 119.139 251.651 119.145 251.747 119.151C251.849 120.524 252.03 121.894 252.04 123.267C252.091 126.142 251.532 128.996 250.4 131.64C250.222 132.062 249.935 132.556 249.563 132.76C246.718 134.32 243.884 135.911 240.954 137.295C239.012 138.214 236.917 138.806 234.894 139.553C234.538 139.683 234.197 139.848 233.719 140.054C234.168 140.86 234.54 141.548 234.941 142.224C236.19 144.31 236.732 146.582 236.282 148.953C235.832 151.325 235.092 153.614 234.492 155.934C234.428 156.142 234.384 156.356 234.362 156.573C234.206 159.763 232.443 160.398 229.94 160.617C222.915 161.229 215.874 161.662 208.849 162.274C203.707 162.725 198.578 163.27 193.463 163.909C185.156 164.941 176.868 166.113 168.559 167.147C167.181 167.318 165.65 167.737 164.429 166.431C164.248 166.24 163.685 166.367 163.307 166.407C155.365 167.278 147.446 168.166 139.511 169.019C138.187 169.162 137.849 170.272 137.197 171.115C136.456 172.077 135.654 172.991 134.797 173.852C134.52 174.132 134.016 174.254 133.594 174.323C130.57 174.808 127.545 175.302 124.507 175.715C120.151 176.31 115.856 177.404 111.39 177.117C109.847 177.018 108.555 176.615 107.432 175.594C106.139 174.417 104.643 173.706 102.948 173.21C96.1442 171.246 89.8102 167.922 84.3294 163.438C83.1971 162.527 81.9892 161.715 80.7188 161.009C77.0026 158.911 73.7451 156.214 70.6919 153.262C69.8024 152.401 69.0585 151.388 68.2484 150.445C68.1136 150.534 67.9788 150.623 67.8434 150.71C68.862 152.763 69.8799 154.817 70.8971 156.872C71.2373 157.487 71.5283 158.128 71.7674 158.789C71.8629 159.099 71.7401 159.747 71.5596 159.814C71.3637 159.867 71.1591 159.88 70.958 159.853C70.7568 159.825 70.5632 159.758 70.3885 159.654C69.9516 159.382 69.6249 158.934 69.2605 158.548C67.9589 157.17 66.6685 155.782 65.3654 154.41C64.9847 154.011 64.5524 153.662 63.9115 153.08L65.3168 157.606C63.994 157.128 63.357 155.851 63.4167 154.954C63.4511 154.458 62.986 153.948 62.8691 153.418C62.7724 152.819 62.7159 152.213 62.6999 151.606C63.3106 151.707 64.0588 151.621 64.5097 151.945C65.7214 152.792 66.8197 153.813 68.235 155.005C67.4351 153.235 66.6973 151.82 66.156 150.313C65.9001 149.607 66.0315 148.765 65.9864 147.983C66.7258 148.213 67.5214 148.341 68.1937 148.697C68.9862 149.119 69.6733 149.726 70.6968 150.482C69.8236 147.286 67.0496 145.194 67.4364 141.848L72.4329 145.325L72.294 145.653L69.5174 144.718C70.4324 146.162 71.316 147.303 71.9202 148.58C72.4907 149.777 72.762 151.106 73.1778 152.388C73.2896 152.735 73.3248 153.202 73.5697 153.403C78.5983 157.553 83.3013 162.133 88.9992 165.41C93.0912 167.76 97.2422 170.022 101.992 170.818C102.332 170.876 102.667 170.94 103.282 171.062C102.774 170.209 102.419 169.523 101.99 168.894C97.9974 163.208 95.2687 156.861 93.0029 150.387C90.5941 143.536 88.9559 136.417 86.7925 129.474C83.9261 120.278 81.4087 111.005 79.8397 101.496C78.2991 92.1646 77.5121 82.7594 77.9222 73.2989C78.1223 77.8069 78.2057 82.3271 78.5526 86.8244C78.8994 91.3218 79.3542 95.8658 80.0545 100.356C80.7608 104.885 81.6992 109.385 82.7618 113.857C83.8106 118.267 85.1375 122.611 86.382 126.961C81.6561 102.54 79.1211 77.9472 79.9669 53.0585C69.5101 58.0874 55.3593 82.3079 56.5418 93.5182C56.882 93.0202 57.0999 92.6929 57.3273 92.3716C58.566 90.6126 59.7493 88.7872 61.1246 87.1309C61.57 86.5934 62.6294 86.1482 63.2469 86.3048C63.7228 86.4222 64.1904 87.5337 64.2263 88.2252C64.2909 89.3672 64.1493 90.5115 63.8085 91.6034C63.0403 93.9717 62.0862 96.2834 61.2105 98.6184C60.9765 99.1495 60.8774 99.7302 60.9218 100.309C61.8804 99.5904 62.7982 98.8104 63.8135 98.1771C64.4194 97.8021 65.1789 97.6806 65.8739 97.4514C65.8212 98.1463 65.8697 98.8703 65.6901 99.5308C65.4278 100.505 64.9431 101.417 64.6553 102.386C64.1155 104.216 64.593 104.992 66.4462 105.478C66.811 105.571 67.1759 105.664 67.5944 105.767C65.966 107.333 63.9374 106.666 62.7474 104.209L61.3215 106.692L61.9918 107.027C61.7547 107.196 61.4977 107.336 61.2267 107.443C60.9017 107.499 60.5725 107.528 60.2427 107.53C60.2235 107.16 60.067 106.733 60.2028 106.427C60.8095 105.011 61.5025 103.629 62.1537 102.23C62.2983 101.927 62.4002 101.59 62.4273 101.517C61.4612 101.586 60.4468 101.658 59.433 101.733L59.4813 98.1296L58.3809 98.4754L58.1343 98.2424C58.7965 97.2992 59.4132 96.3335 60.129 95.4246C61.5579 93.6426 62.7609 91.7586 63.0465 89.4399C63.088 88.729 63.0793 88.0161 63.0205 87.3064C62.8902 87.2565 62.7599 87.2067 62.629 87.1542C62.1849 87.5992 61.6551 87.9872 61.2985 88.4969C59.9958 90.3839 58.7615 92.3101 57.48 94.2195C57.1577 94.7 56.7527 95.1256 56.2745 95.7109C55.4758 94.1059 55.0053 92.8459 55.2592 91.1821C56.2356 84.8176 58.2247 78.8154 60.6498 72.8607C62.4729 68.3672 65.5299 64.7973 68.2169 60.9266C70.9735 56.9539 74.6879 53.9547 78.4253 51.0236C79.9607 49.8227 80.5534 48.4908 80.6082 46.6866C80.6409 45.4114 80.7514 44.1393 80.9392 42.8775C81.0431 42.3741 81.3122 41.9197 81.7036 41.5864C87.9393 36.3256 95.2259 33.2596 103.096 31.4149C104.385 31.1117 105.621 30.5679 106.916 30.3689C107.637 30.256 108.428 30.6969 109.199 30.7601C110.162 30.8403 111.206 31.0088 112.103 30.7511C114.683 30.0085 117.191 29.0133 119.762 28.2319C121.699 27.6447 123.565 27.1218 125.754 27.3087C127.732 27.4743 129.98 26.6909 131.825 25.7633C138.095 22.6098 144.47 19.742 151.1 17.4445C152.385 16.9759 153.698 16.5875 155.032 16.2815C161.88 14.8034 168.736 13.3579 175.6 11.9449C176.336 11.8322 177.081 11.7977 177.825 11.8418C165.971 15.872 153.971 19.4382 142.845 25.5231L144.411 25.6033C141.814 26.3821 139.413 27.1015 137.036 27.8158L137.337 27.1175C128.218 29.1131 119.858 32.4376 112.489 38.0568L112.307 37.7716C115.244 35.8332 118.184 33.8941 121.405 31.7709C118.084 32.1293 114.995 32.4666 111.905 32.8012L111.956 33.2562L114.136 32.7754C112.874 33.531 111.209 33.112 110.229 34.5969C111.191 34.3333 112.149 34.0677 113.109 33.8016L113.187 34.0042C112.308 34.4692 111.447 34.979 110.545 35.4003C109.729 35.7701 109.451 36.4253 109.124 37.2076C106.349 43.8496 107.384 50.7763 107.502 57.6287C107.557 60.7914 107.628 63.9532 107.43 67.1339L106.367 58.0172C106.2 67.8146 106.104 77.5826 107.948 87.5896L113.065 80.2548L108.722 83.2898ZM107.596 33.9441L107.437 33.6024C106.374 33.5657 105.182 33.2133 104.264 33.5487C97.5029 36.0108 90.9534 38.9522 84.9004 42.8658C83.2384 43.9347 82.0479 45.3225 82.1696 47.5704C82.2478 49.0308 82.0416 50.5295 81.9325 52.0013C81.4734 58.2408 80.8635 64.5218 81.1502 70.7377C81.6246 80.9873 82.6454 91.2193 83.6474 101.439C84.2654 107.731 85.0672 114.021 86.8345 120.127C88.6018 126.233 90.3409 132.335 92.1596 138.416C95.0668 148.129 99.641 157.152 103.703 166.382C104.511 168.215 105.618 169.264 107.619 169.585C110.266 170.007 112.885 170.63 115.514 171.167L115.462 171.45C112.183 170.818 108.901 170.186 105.385 169.498C106.156 170.632 106.905 171.556 107.46 172.586C108.556 174.616 110.283 175.073 112.375 174.799C116.045 174.314 119.724 173.893 123.378 173.315C125.618 172.959 127.817 172.36 129.922 171.896C128.982 170.278 127.886 168.592 126.989 166.809C123.097 159.075 119.771 151.087 117.329 142.798C115.227 135.654 113.637 128.356 111.997 121.086C110.994 116.66 110.314 112.163 109.487 107.701C108.773 103.849 107.905 100.017 107.379 96.1418C106.658 90.8214 106.224 85.4621 105.6 80.1258C105.284 77.4653 104.627 74.8312 104.486 72.1646C104.2 66.8377 103.945 61.5123 104.753 56.169C105.353 52.2164 105.369 48.1705 105.796 44.1913C106.122 41.1125 106.677 38.0593 107.134 34.9706C106.81 34.9879 106.507 35.0032 106.043 35.0269C106.667 34.5856 107.135 34.2627 107.607 33.9418L107.596 33.9441ZM240.783 133.398C242.206 133.32 243.332 133.422 244.371 133.166C245.717 132.83 247 132.219 248.297 131.692C248.449 131.631 248.568 131.361 248.601 131.167C249.095 128.417 249.62 125.671 250.032 122.907C250.152 122.084 249.928 121.206 249.855 120.357L249.449 120.371C248.638 124.128 247.251 127.737 245.337 131.071C245.529 129.814 245.954 128.633 246.282 127.427C246.61 126.221 246.822 125.055 247.085 123.866C246.976 123.836 246.866 123.804 246.755 123.771C245.465 127.325 243.732 130.603 240.783 133.398ZM129.204 27.0329C125.044 28.379 121.147 29.64 117.246 30.8989C117.943 31.1059 118.587 31.0018 119.22 31.0439C123.08 31.2902 126.191 29.6713 129.209 27.0291L129.204 27.0329ZM150.629 19.8474L138.511 24.7169C143.393 25.1555 146.73 21.8002 150.634 19.8437L150.629 19.8474ZM140.554 25.7926L140.402 25.3869C137.708 25.1949 133.019 26.5925 130.391 28.5036C134.021 27.5345 137.296 26.6603 140.568 25.7866L140.554 25.7926ZM198.533 162.028C195.35 161.033 192.918 161.22 189.712 162.797L198.533 162.028ZM146.872 101.517C147.402 102.102 147.535 102.225 148.258 101.483C149.232 100.506 149.998 99.3175 150.902 98.1555L148.084 98.7772L146.872 101.517ZM115.716 108.998L115.741 108.78L110.749 105.815C110.835 106.401 110.832 106.93 110.998 107.387C111.138 107.776 111.424 108.336 111.737 108.403C113.04 108.693 114.382 108.815 115.715 108.992L115.716 108.998ZM245.295 100.511L248.896 113.443C249.025 110.536 247.358 104.147 245.295 100.511ZM140.232 105.118C141.634 105.674 142.773 104.829 144.182 103.851L142.215 103.537L140.232 105.118ZM124.294 100.826L124.141 101.237C124.788 101.59 125.436 101.946 126.086 102.299C126.402 101.665 126.721 101.033 127.141 100.198L124.294 100.826ZM188.467 161.136L188.447 161.043L183.333 162.171L183.457 162.613C185.128 162.123 186.798 161.631 188.467 161.136ZM247.738 122.142L248.07 122.231L248.796 118.075L248.463 118.015L247.738 122.142Z" fill="black"/>
<path d="M159.43 128.741C159.681 131.313 158.363 133.22 156.894 134.954C156.113 135.875 154.922 136.473 153.851 137.138C151.468 138.626 149.049 140.071 146.627 141.505C146.247 141.73 145.823 141.872 145.385 141.923C140.869 142.42 136.355 142.972 131.971 141.105C128.234 139.517 126.087 136.482 124.585 132.931C123.727 130.897 123.137 128.728 123.527 126.486C123.672 125.541 124.043 124.644 124.61 123.873C126.494 121.524 128.847 119.915 132.022 119.9C132.328 119.916 132.632 119.834 132.889 119.666C135.762 117.305 139.198 117.542 142.49 117.873C145.781 118.204 149.077 119.012 152.346 119.72C153.058 119.874 153.67 120.485 154.33 120.884C154.693 121.105 155.033 121.453 155.426 121.526C156.609 121.742 157.169 122.582 157.731 123.509C158.48 124.8 159.304 126.045 160.199 127.238C162.039 129.592 163.374 132.09 163.594 135.165C163.721 136.972 164.427 138.744 164.51 140.548C164.553 141.468 163.794 142.425 163.399 143.366L162.811 143.048C162.63 145.333 161.042 146.394 159.446 147.456C158.833 147.863 157.905 147.981 158.031 149.067C158.059 149.194 157.752 149.4 157.571 149.513C154.442 151.664 150.972 153.27 147.307 154.261C146.889 154.369 146.364 154.078 145.888 153.975L145.912 153.495L138.777 155.069L138.647 154.653C140.095 154.127 141.521 153.525 143 153.099C145.549 152.363 148.086 151.576 150.68 151.115C153.81 150.557 156.239 148.874 158.733 147.063C160.408 145.843 161.232 144.134 162.146 142.479C162.571 141.711 162.536 140.56 162.395 139.635C162.03 137.43 161.446 135.259 161 133.067C160.854 132.389 160.807 131.693 160.859 131.002C160.942 129.951 160.659 129.2 159.43 128.741ZM140.181 121.736L140.022 122.072L140.548 122.664C139.907 122.968 139.321 123.246 138.714 123.532L138.8 123.784C141.448 123.547 144.096 123.309 146.746 123.07L146.757 122.655L140.181 121.736ZM134.069 126.945C135.116 126.443 135.617 125.715 135.035 124.772C134.314 123.605 133.1 123.485 131.867 124.324L134.069 126.945ZM126.595 130.638C126.168 132.706 127.199 133.94 129.016 133.415L126.595 130.638Z" fill="black"/>
<path d="M146.923 64.2534C148.014 63.3459 149.036 62.3395 150.207 61.5499C155.163 58.2063 160.632 55.8258 166.262 53.8654C171.384 52.0848 176.568 50.4884 181.713 48.7759C182.498 48.5132 183.383 48.2205 183.937 47.6617C185.433 46.1469 187.221 46.2892 189.356 46.4174C188.791 46.6805 188.479 46.8279 188.169 46.9695C187.827 47.0997 187.516 47.2975 187.253 47.5511C189.117 47.1399 190.985 46.7467 192.845 46.3174C193.347 46.2068 193.862 45.4586 194.188 46.5309C194.211 46.6343 194.744 46.5926 195.056 46.5942C197.159 46.6265 199.263 46.7346 201.363 46.6672C206.132 46.5097 208.23 45.3881 208.845 40.4075C207.542 42.8232 205.731 43.8056 202.935 43.4573C203.491 42.9576 203.818 42.449 204.27 42.2952C207.307 41.2428 207.832 40.5007 207.601 37.3119C207.572 37.1375 207.534 36.9648 207.487 36.7948L205.888 39.7964L205.505 39.6611C205.463 39.4698 205.329 39.2419 205.381 39.0975C206.729 35.9399 206.176 32.6618 205.798 29.4619C205.535 27.274 204.948 25.1375 204.056 23.1225C202.316 19.2197 199.577 15.9578 196.667 12.8582C196.457 12.6333 196.232 12.4118 196.025 12.1864C195.936 12.024 195.864 11.8527 195.81 11.6754C196.615 11.8829 197.304 11.9477 197.889 12.228C200.716 13.5864 203.151 15.4324 204.832 18.1387C205.28 18.8533 205.836 19.0017 206.704 18.9649C214.027 18.5587 221.228 19.1987 228.158 21.7937C228.598 21.9939 229.021 22.2267 229.426 22.49L229.302 22.8996C228.705 22.7982 228.109 22.6993 227.439 22.5895L227.672 23.3C227.403 23.2279 227.143 23.1241 226.898 22.9907C226.119 22.4332 225.39 21.8078 224.592 21.287C224.175 20.98 223.682 20.79 223.167 20.7366C217.97 20.6657 212.771 20.6468 207.57 20.62C207.399 20.6778 207.234 20.7542 207.078 20.8479L208.588 22.5158C208.543 23.0607 208.525 23.6076 208.534 24.1543C208.689 26.3408 208.854 28.5275 209.058 30.7083C209.263 32.8892 209.603 35.0808 209.72 37.2727C209.823 38.7608 209.738 40.256 209.468 41.7231C208.932 44.3901 207.414 46.0533 204.702 47.1533C200.322 48.9328 195.822 49.5596 191.21 50.0645C189.185 50.2862 187.216 51.0838 185.23 51.6548C184.646 51.8216 184.087 52.0751 183.407 52.1166L184.155 51.5477L184.022 51.2055C181.894 51.8322 179.723 52.3383 177.646 53.1027C169.915 55.9579 162.276 59.0854 154.464 61.7007C151.967 62.5227 149.515 63.3916 147.192 64.6605L146.923 64.2534ZM208.594 25.4915L208.13 25.5152L208.4 29.5414L208.879 29.5008L208.594 25.4915Z" fill="black"/>
<path d="M33.049 139.619C32.5039 140.552 31.9873 141.48 31.3932 142.375C31.0533 142.944 30.6056 143.44 30.0754 143.837C29.5833 144.163 28.8209 144.456 28.3399 144.291C27.9817 144.166 27.6354 143.248 27.7289 142.75C28.0414 140.848 28.4736 138.961 28.9682 137.097C29.26 135.962 29.7619 134.87 30.3173 133.381C29.5991 133.751 29.201 133.95 28.8079 134.158C26.2462 135.537 23.6968 136.934 21.1054 138.252C20.6786 138.468 20.0588 138.301 19.5298 138.312C19.6097 137.752 19.5747 137.139 19.79 136.628C20.0638 136.025 20.5425 135.491 20.9192 134.95C20.0941 135.007 19.3815 135.058 18.669 135.11C18.9084 134.311 19.1482 133.513 19.3883 132.717L19.7342 132.798L19.6969 133.747L20.0096 133.936L22.1208 130.257C21.5245 130.012 21.0306 129.776 20.5146 129.576C18.9189 128.955 18.9168 128.958 19.832 127.538C18.8196 126.268 18.8536 126.201 21.3061 125.261L19.761 124.759L19.8982 124.655L26.6176 125.434L26.6496 125.923C24.9947 126.066 23.3408 126.209 21.6881 126.354L21.6766 126.671C22.6386 126.73 23.5971 126.773 24.5524 126.814C24.9469 126.789 25.3427 126.792 25.7367 126.824C26.4203 126.961 27.0867 127.18 27.7535 127.363C27.2701 127.916 26.7509 128.436 26.1993 128.921C25.5201 129.456 24.7479 129.876 23.9329 130.397L27.5297 133.182C28.2851 132.8 29.0604 132.458 29.8522 132.158C30.9616 131.791 31.4591 132.264 31.2617 133.422C31.1754 133.94 30.9618 134.434 30.8255 134.947C30.2269 137.224 29.6232 139.501 29.0508 141.786C28.9894 142.202 28.9689 142.623 28.9894 143.044L29.3859 143.268L33.2796 138.697L33.6666 138.731L34.5951 147.254L34.8717 147.377L36.7085 144.028L37.1727 144.289C36.5851 145.619 36.052 146.976 35.3712 148.265C35.1811 148.632 34.4909 149.031 34.1419 148.948C33.7928 148.865 33.3027 148.217 33.2905 147.805C33.2331 145.714 33.307 143.615 33.3358 141.521C33.3427 140.926 33.358 140.331 33.3675 139.735L33.049 139.619ZM23.0167 131.258L22.8616 131.636C24.0474 131.936 23.8586 132.58 23.3815 133.219C22.6782 134.16 21.9238 135.067 21.1942 135.987L21.709 136.367C22.5931 135.901 23.5155 135.51 24.3535 134.97C25.1914 134.43 25.881 133.82 26.6377 133.244C25.7563 132.554 24.8976 131.833 23.9748 131.201C23.7639 131.069 23.3412 131.23 23.0207 131.252L23.0167 131.258ZM24.8378 128.145L24.7716 127.734L20.2419 128.733C22.3838 130.134 22.4826 130.115 24.8373 128.142L24.8378 128.145Z" fill="black"/>
<path d="M224.321 79.9008C224.798 84.2258 225.48 88.5353 225.715 92.8785C226.213 102.144 225.269 111.31 223.16 120.346C222.855 121.632 222.442 122.889 221.924 124.105C221.725 124.569 221.107 124.854 220.682 125.222C220.596 124.699 220.378 124.164 220.45 123.668C221.247 118.138 222.46 112.637 222.834 107.081C223.424 98.3616 223.452 89.5926 223.724 80.8568C223.734 80.5564 223.765 80.2566 223.796 79.9543L224.321 79.9008Z" fill="black"/>
<path d="M230.038 31.6058L231.492 33.3782C231.576 33.3189 231.661 33.2596 231.746 33.2028C231.038 32.1226 230.157 31.1132 229.67 29.9408C229.16 28.6977 229.041 27.3197 228.75 26.0011L229.567 26.1678L229.046 25.033C229.139 24.9148 229.177 24.8143 229.24 24.7923C231.747 23.9924 232.164 24.234 232.633 26.8282C232.958 28.3379 233.196 29.865 233.347 31.4019C233.396 32.1773 233.223 33.1888 232.738 33.7213C232.049 34.4806 232.236 35.1308 232.758 35.5173C233.855 36.3245 233.92 37.5301 234.28 38.6219C234.641 39.7137 234.951 40.914 235.236 42.0551C235.319 42.4326 235.447 42.9494 235.27 43.2162C234.329 44.6572 235.323 45.7178 235.874 46.8786C237.479 50.2444 238.897 53.6757 238.566 57.5092C238.463 58.7114 238.051 59.9031 237.648 61.0546C237.53 61.4007 236.954 61.5954 236.608 61.8562C236.495 61.4689 236.273 61.076 236.292 60.695C236.355 59.4177 236.474 58.1414 236.626 56.8744C237.102 52.9736 235.899 49.3755 234.577 45.8037C234.477 45.6412 234.354 45.4948 234.21 45.3695C232.856 46.3216 233.879 47.4814 233.805 48.5714C233.646 48.037 233.626 47.4287 233.316 47.0822C233.007 46.7357 232.391 46.7821 231.985 46.5273C231.534 46.2598 231.141 45.9036 230.832 45.4803C228.998 42.7858 228.261 39.703 227.776 36.5431C227.765 36.229 227.842 35.9182 227.998 35.6455C228.601 39.4979 229.494 43.178 232.263 46.0212C232.485 45.994 232.704 45.9647 232.925 45.9349C233.004 44.9524 233.091 43.9707 233.126 42.9869C232.869 42.9043 232.606 42.8445 232.338 42.8082L231.978 41.1768L232.252 41.0026L233.366 42.3647L233.624 42.3076C233.218 40.4668 233.02 38.5476 232.349 36.8112C231.679 35.0748 230.534 33.4999 229.582 31.861C229.729 31.7797 229.886 31.6909 230.038 31.6058Z" fill="black"/>
<path d="M25.8145 112.294C26.6578 113.658 26.9975 115.481 29.0539 115.917C29.3636 115.982 29.5351 116.697 29.7708 117.115C29.3266 117.288 28.8778 117.602 28.4373 117.596C27.9365 117.587 27.4289 117.314 26.9425 117.112C25.4765 116.514 25.0518 116.542 23.4758 117.473L25.0391 120.11L24.8379 120.206C24.4244 119.647 23.9301 119.127 23.6137 118.516C23.0073 117.34 22.3369 117.792 21.6159 118.333C20.4538 119.211 20.1078 120.1 20.8587 120.837C21.741 121.727 22.7832 122.457 23.7497 123.25C22.3312 123.739 20.2012 122.81 19.3532 121.313C18.643 120.06 18.9716 118.686 20.2783 117.555C20.6777 117.214 21.1723 116.986 21.5717 116.646C21.8121 116.429 21.9968 116.158 22.1102 115.855C22.3058 115.228 22.5491 114.618 22.8381 114.029L23.3019 111.216C21.2627 110.513 20.5386 110.795 19.9539 112.619C18.3548 110.531 20.4622 109.847 21.4719 108.721C21.0937 108.371 20.7004 108.124 20.4841 107.771C20.2077 107.316 19.7723 106.572 19.9439 106.317C20.219 105.918 21.0191 105.538 21.4554 105.648C23.1852 106.115 24.8621 106.772 26.5541 107.375C27.0299 107.541 27.4873 107.771 28.2929 108.117L26.0526 97.9611L26.324 97.9012C27.1479 100.542 27.9841 103.177 28.7826 105.826C28.9212 106.336 28.9925 106.861 28.9947 107.39C29.0238 108.259 28.6198 108.763 27.6977 108.565C26.5107 108.309 25.339 107.987 24.1543 107.693C24.0637 108.868 24.3335 109.12 25.4152 109.009C25.9299 108.958 26.8504 108.841 26.8985 108.985C27.1977 109.936 27.3844 110.919 27.4548 111.913C27.4481 111.993 26.4686 112.149 25.8145 112.294ZM26.7907 115.158L24.8887 111.858C23.848 113.359 24.5047 114.48 26.7907 115.158Z" fill="black"/>
<path d="M42.3876 89.5651L43.2887 93.65C43.1806 93.701 43.0732 93.7545 42.9631 93.8086C42.7406 93.5866 42.4175 93.4003 42.3111 93.1391C41.6277 91.4299 40.9328 89.7179 40.383 87.963C40.2555 87.5573 40.5493 86.812 40.8981 86.5371C41.1304 86.3612 41.9464 86.6312 42.246 86.9447C43.2498 87.9921 44.1414 89.1456 45.0707 90.261C45.3739 90.6279 45.6582 91.0071 46.0316 91.4833C45.6683 89.8363 45.3381 88.3394 45.0079 86.8424C44.8506 86.2477 44.7614 85.6371 44.7419 85.0222C44.7484 84.6954 45.0364 84.1574 45.2775 84.107C45.4791 84.0816 45.6838 84.1038 45.8753 84.1717C46.0669 84.2396 46.2399 84.3514 46.3805 84.4981C46.9381 85.2806 47.3594 86.1583 47.9795 87.2606C48.0304 86.2624 47.9693 85.4815 48.1668 84.7791C48.3215 84.2515 48.7439 83.5239 49.1613 83.4373C49.5787 83.3506 50.3421 83.8736 50.5467 84.3219C51.2306 85.7381 51.7328 87.2405 52.3993 88.9588L53.0821 86.585L53.2506 86.5993C53.2202 87.6905 53.2665 88.7973 53.1628 89.8884C53.1301 90.2562 52.7758 90.592 52.5501 90.9454C52.2366 90.6919 51.7628 90.4982 51.6306 90.1695C51.0972 88.8204 50.676 87.4275 50.1816 86.059C50.047 85.6843 49.771 85.3773 49.4127 85.2038C49.5339 86.3673 49.5944 87.5387 49.7884 88.6889C50.057 90.2997 50.4922 91.8793 50.71 93.4932C50.7802 93.9956 50.4034 94.5613 50.2343 95.0975C49.8173 94.7313 49.2575 94.4427 49.01 93.9848C48.5462 93.1111 48.2384 92.146 47.7415 91.2823C47.8256 91.8358 48.0086 92.3946 47.9684 92.9376C47.9367 93.3594 47.7259 93.9645 47.4146 94.1144C47.1956 94.1804 46.9638 94.1913 46.7396 94.1461C46.5154 94.101 46.3058 94.0013 46.1294 93.8557C45.2517 92.9377 44.4949 91.9036 43.6978 90.9082C43.3252 90.4481 42.9452 89.9545 42.5873 89.4749L42.3876 89.5651Z" fill="black"/>
<path d="M68.5242 141.618C69.418 141.908 70.0693 142.12 70.8606 142.376C71.2583 140.713 72.3132 141.747 73.5145 141.908C73.086 141.563 72.8512 141.457 72.7487 141.263C72.5725 140.9 72.4186 140.527 72.2878 140.145C72.717 140.05 73.1996 139.792 73.5704 139.9C74.8753 140.284 76.0923 141.217 77.7337 140.337C76.9631 139.498 76.2883 138.701 75.548 137.975C73.6587 136.133 73.6588 135.876 75.9028 134.163C74.9835 133.683 74.1559 133.25 73.3301 132.8C72.7132 132.462 72.0331 132.181 71.5126 131.727C71.1432 131.404 70.9876 130.834 70.737 130.374C71.1856 130.183 71.6249 129.864 72.0879 129.824C73.0466 129.745 74.0159 129.813 75.3659 129.825L73.8099 131.374C74.6297 131.809 75.4857 132.236 76.3163 132.719C78.2056 133.799 78.1942 134.694 76.3041 135.786C76.1624 135.868 76.0396 135.988 75.6698 136.278C76.4871 136.64 77.127 136.96 77.7905 137.215C78.7795 137.593 79.8285 137.85 80.7706 138.298C82.0472 138.911 82.0696 140.02 80.9779 140.909C80.6151 141.224 80.3389 141.627 80.1757 142.078C79.7054 143.326 78.6505 143.03 77.5779 143.072L77.811 144.964C74.5905 144.167 71.0792 144.768 68.5242 141.618Z" fill="black"/>
<path d="M28.2083 100.899C27.7163 99.6521 27.1415 98.4233 26.7736 97.1488C26.6448 96.7001 26.8588 95.9127 27.2018 95.6364C27.5449 95.3601 28.2355 95.5412 28.7687 95.5863C28.9786 95.6344 29.1774 95.7221 29.3544 95.8448C29.3486 94.7616 28.9933 93.5196 29.4485 92.744C29.8419 92.0689 31.1654 91.9234 32.1579 91.5065C31.9573 91.1594 31.8081 90.785 31.7148 90.3951C31.6317 89.8711 31.546 89.0767 31.8281 88.8192C32.1912 88.5114 32.9638 88.4982 33.498 88.6217C34.2148 88.7862 34.8672 89.2116 35.5539 89.5102C35.9781 89.6877 36.4203 89.8613 36.831 90.0147C37.5097 88.8754 36.5272 87.4085 37.8732 86.4554C37.9068 87.5786 37.9748 88.5505 37.9581 89.5194C37.9352 90.7309 37.2654 91.185 36.1074 90.741C35.0928 90.3575 34.1218 89.8641 33.1341 89.4177C33.0377 89.5095 32.9419 89.6038 32.8462 89.6981C33.4749 90.7171 34.1094 91.7376 34.733 92.7577C34.9668 93.1291 35.3083 93.4604 35.4481 93.8607C35.5716 94.2238 35.4899 94.6648 35.4962 95.062C35.0925 95.0507 34.5888 95.1889 34.3031 94.9998C33.5971 94.4798 32.922 93.919 32.2814 93.3202L31.7939 93.8263C32.4711 95.667 32.4676 97.7283 33.8243 99.3431C34.0519 99.6128 34.3519 99.8666 34.4568 100.182C34.5583 100.608 34.6125 101.043 34.6185 101.481C34.1887 101.413 33.6418 101.49 33.3458 101.254C32.3855 100.49 31.5165 99.6109 30.7468 98.8996C28.7148 99.6189 29.4014 97.0653 27.9581 97.0123L28.4766 100.813C28.3878 100.841 28.297 100.871 28.2083 100.899Z" fill="black"/>
<path d="M66.969 114.263C66.3434 114.353 66.0203 114.4 65.4153 114.484L66.1602 113.043L66.7326 113.548L67.8426 110.714C66.9082 111.21 66.2606 111.421 65.7936 111.836C64.9039 112.621 64.078 112.06 63.2766 111.795C63.0774 111.727 62.9504 111.053 63.0035 110.692C63.1602 109.632 63.4212 108.591 63.6439 107.536C64.5846 108.727 63.8291 109.997 63.6222 111.358C65.2665 111.364 66.4591 110.477 67.7358 109.775C68.2198 109.511 68.8197 109.49 69.3681 109.358C69.3562 109.897 69.3155 110.434 69.2462 110.969C69.0416 112.131 68.7406 113.273 68.5752 114.441C68.5197 114.841 68.7378 115.289 68.8546 115.707C68.9957 116.2 69.1647 116.683 69.3239 117.171C68.8043 117.212 68.2879 117.256 67.6409 117.309L67.3862 118.011C67.5016 118.088 67.6258 118.152 67.7561 118.2C69.0037 118.448 70.2826 118.592 71.4881 118.968C71.9769 119.132 72.585 119.738 72.6314 120.194C72.6778 120.65 72.1803 121.332 71.7321 121.599C70.6946 122.171 69.6129 122.66 68.4975 123.06C68.2851 123.143 67.9544 122.909 67.6814 122.839C67.8155 122.501 67.8561 122.009 68.1065 121.853C68.9525 121.325 69.8746 120.921 70.7819 120.13C69.7431 119.969 68.7079 119.774 67.6616 119.652C65.7916 119.447 65.4705 118.937 66.0936 117.141C66.3993 116.265 66.6353 115.381 66.969 114.263Z" fill="black"/>
<path d="M50.6047 145.902C50.64 148.877 50.7537 151.875 50.6963 154.859C50.638 157.963 52.4362 160.288 53.6072 162.893L53.9623 162.831L53.8616 154.177L54.1305 154.166C54.431 157.213 54.7804 160.259 54.9953 163.31C55.0318 163.845 54.5043 164.427 54.2375 164.988C53.7194 164.655 53.0322 164.44 52.7165 163.968C52.0169 162.91 51.5325 161.71 50.9128 160.597C50.4297 159.722 50.4247 158.495 49.1496 158.172C48.9946 158.133 48.8894 157.828 48.8044 157.627C48.714 157.426 48.6583 157.211 48.6397 156.991C48.3929 153.168 49.668 149.571 50.04 145.837C50.2315 145.857 50.4178 145.878 50.6047 145.902Z" fill="black"/>
<path d="M43.5177 104.95C43.9036 107.056 44.2759 109.162 44.6825 111.263C44.8329 112.043 45.1255 112.792 45.2449 113.579C45.3714 114.41 44.9388 114.649 44.2241 114.249C43.6589 113.923 43.151 113.501 42.4136 113.292C42.8388 113.842 43.236 114.412 43.6038 115.001C43.755 115.302 43.786 115.649 43.6905 115.971C43.6443 116.106 43.1529 116.152 42.8735 116.127C41.0789 115.981 39.2803 115.816 37.4842 115.589C35.98 115.395 34.4883 115.098 32.983 114.849L32.8613 115.232C33.2105 115.426 33.5579 115.636 33.914 115.813C35.0887 116.418 36.2845 116.984 37.4371 117.625C38.8826 118.426 40.2102 119.331 39.1512 121.536C37.7557 121.244 36.1394 120.923 34.5356 120.548C34.3645 120.509 34.2628 120.171 34.1367 119.969C34.377 119.829 34.6123 119.568 34.8616 119.567C35.7673 119.568 36.6747 119.65 37.5815 119.705L37.711 119.321C36.619 118.722 35.5304 118.113 34.4308 117.529C33.7706 117.178 33.0168 116.957 32.4443 116.5C32.2547 116.328 32.1028 116.119 31.9981 115.885C31.8933 115.652 31.8381 115.399 31.8359 115.143C31.8446 114.924 32.6275 114.516 33.0148 114.563C35.1102 114.819 37.1881 115.193 39.2745 115.519C39.8194 115.605 40.3681 115.671 41.296 115.797L40.0682 114.263L40.1826 114.007L42.5188 115.048C41.9542 114.123 41.5216 113.489 41.1743 112.812C41.1125 112.684 41.0819 112.543 41.085 112.401C41.0881 112.259 41.1247 112.12 41.1919 111.995C41.3101 111.914 41.4464 111.863 41.5888 111.846C41.7313 111.83 41.8756 111.849 42.0091 111.901C42.7417 112.26 43.4287 112.708 44.2195 113.171C43.8795 111.077 43.5038 109.115 43.2668 107.131C43.1834 106.434 43.4462 105.695 43.5504 104.976L43.5177 104.95Z" fill="black"/>
<path d="M212.214 55.3131C214.743 58.2582 216.61 61.596 218.051 65.1416C222.415 75.8914 223.624 87.1122 222.843 98.6013C222.678 101.015 222.367 103.424 222.024 105.817C221.778 107.528 221.42 109.226 220.997 110.905C220.848 111.461 220.41 111.932 219.921 112.74C222.993 102.711 223.013 92.8483 221.911 82.9622C220.81 73.0761 217.961 63.6649 212.214 55.3131Z" fill="black"/>
<path d="M36.8997 152.539L36.8351 146.396L37.1697 146.377L37.5107 148.869L37.9414 148.904L38.2823 144.993L38.7486 145.017L38.5759 150.478C39.6508 149.918 40.6771 149.236 41.8037 148.825C43.4377 148.231 44.0687 148.596 44.7655 150.17C47.5816 146.208 47.5816 146.208 48.6439 146.009C47.2729 148.779 45.9252 151.617 44.4508 154.385C44.0695 155.114 43.4755 156.33 42.3821 155.687C41.2886 155.044 42.2805 154.121 42.5852 153.376C42.9161 152.565 43.5002 151.845 43.7545 151.019C43.9239 150.472 43.9331 149.567 43.6039 149.255C43.2747 148.942 42.2864 148.838 41.8145 149.083C40.6953 149.663 39.7079 150.497 38.6692 151.233C38.1891 151.588 37.7167 151.942 36.8997 152.539Z" fill="black"/>
<path d="M231.329 77.8185C231.284 74.2469 232.802 71.198 234.09 68.1158C234.738 66.5658 235.819 65.1994 236.724 63.7606C238.556 60.8349 239.681 57.5236 240.013 54.0881C240.06 53.7998 240.123 53.5144 240.201 53.2332C240.333 53.2529 240.464 53.2701 240.594 53.2904C240.37 54.8715 240.443 56.5771 239.874 58.0149C237.776 63.3769 235.486 68.6648 233.23 73.9639C232.681 75.2455 231.996 76.4701 231.329 77.8185Z" fill="black"/>
<path d="M57.6826 153.96C58.3376 155.627 59.036 157.281 59.6178 158.972C59.7645 159.403 59.5408 159.962 59.4863 160.465C59.0738 160.168 58.4564 159.963 58.2818 159.565C57.2457 157.191 56.3104 154.77 55.3232 152.298L56.1487 152.71C56.8977 151.349 57.7001 151.139 58.6842 152.269C59.8138 153.614 60.8575 155.028 61.809 156.504C61.9973 156.779 61.8144 157.302 61.8043 157.711C61.4257 157.581 60.9137 157.558 60.6898 157.293C60.1011 156.59 59.6446 155.775 59.1041 155.021C58.7884 154.573 58.4352 154.152 58.1011 153.718L57.6826 153.96Z" fill="black"/>
<path d="M45.934 138.47C45.5338 139.115 45.0857 140.143 44.8859 140.098C43.7439 139.837 44.4455 138.913 44.46 138.253C44.4624 137.763 44.566 137.279 44.7643 136.831C44.9481 136.435 45.3097 135.862 45.6308 135.842C45.9519 135.823 46.4397 136.277 46.7053 136.633C47.0131 137.045 47.1596 137.574 47.3768 138.055C49.2411 137.128 49.2842 137.151 51.3048 140.067L52.3395 139.129C52.6242 139.608 52.9848 140.038 53.1641 140.544C53.3684 141.241 53.5318 141.949 53.6536 142.664L53.2953 142.798L52.2426 140.693L51.7359 142.255C51.5853 142.31 51.4348 142.365 51.2848 142.422C50.8906 141.766 50.4775 141.123 50.1076 140.453C49.7181 139.745 49.3718 139.011 49.0064 138.289C48.8815 138.3 48.7416 138.317 48.6296 138.326C48.4612 138.791 48.3648 139.301 48.1198 139.702C47.8748 140.103 47.4427 140.393 47.0938 140.741C46.773 140.419 46.488 140.063 46.244 139.679C46.0919 139.29 45.9878 138.884 45.934 138.47Z" fill="black"/>
<path d="M43.5502 104.975C44.376 104.343 44.8044 105.081 45.0986 105.567C45.9069 106.896 46.5937 108.3 47.3831 109.777C47.7171 109.067 47.9741 108.327 48.3926 107.692C48.6543 107.293 49.2082 106.756 49.5329 106.814C49.7941 106.89 50.035 107.023 50.2374 107.205C50.4399 107.387 50.5988 107.612 50.7023 107.863C51.0962 109.059 51.2878 110.32 51.5781 111.636L52.2808 111.246C52.3008 111.336 52.3679 111.419 52.3451 111.475C52.2212 111.895 52.046 112.298 51.8235 112.675C51.5099 113.037 51.1627 113.369 50.7867 113.665C50.564 113.221 50.2186 112.799 50.1455 112.332C50.0161 111.512 50.0944 110.662 50.0115 109.832C49.9387 109.168 49.7107 108.53 49.3459 107.97C49.0902 108.568 48.7984 109.175 48.5855 109.783C48.3726 110.391 48.284 111.083 48.0068 111.671C47.806 112.1 47.3839 112.423 47.0588 112.793C46.7533 112.416 46.2938 112.078 46.1778 111.651C45.9146 110.679 45.8946 109.642 45.6411 108.665C45.2752 107.252 45.1642 105.655 43.5293 104.942L43.5502 104.975Z" fill="black"/>
<path d="M212.477 147.454C223.823 138.395 235.798 130.057 245.122 118.641C244.581 119.397 244.066 120.173 243.494 120.898C238.705 127.025 232.787 131.982 226.758 136.791C222.348 140.309 217.756 143.594 213.24 146.979C213.004 147.161 212.733 147.297 212.477 147.454Z" fill="black"/>
<path d="M235.126 87.2889L234.316 83.6176C235.968 84.8636 238.32 88.813 239.047 91.3964C237.432 90.4919 235.349 90.4524 234.28 88.6522C234.012 88.199 233.801 87.7087 233.577 87.2348C234.052 87.2494 234.525 87.267 235.126 87.2889Z" fill="black"/>
<path d="M59.9647 143.645L57.1501 139.182C58.414 138.988 58.8854 140.006 59.6017 140.464C60.368 140.951 61.0667 141.537 61.7961 142.078L62.1444 141.703L60.0364 137.776L60.3128 137.444C61.6074 137.847 62.9043 138.248 64.2036 138.649L64.1691 138.873L60.5895 137.936C61.3917 139.114 62.0775 140.048 62.6485 141.063C62.8757 141.466 62.8214 142.031 62.897 142.521C62.3686 142.51 61.801 142.616 61.3237 142.456C60.7152 142.254 60.1814 141.838 59.3646 141.367C59.8057 142.273 60.1616 142.94 60.4512 143.638C60.4942 143.756 60.5098 143.881 60.4969 144.006C60.4839 144.131 60.4428 144.251 60.3765 144.357C60.2787 144.431 60.1634 144.479 60.0418 144.496C59.9202 144.512 59.7963 144.498 59.682 144.453C58.3054 143.667 57.219 142.457 56.5842 141.004L59.5552 143.977L59.9647 143.645Z" fill="black"/>
<path d="M55.0505 115.96C55.4198 115.041 55.7922 114.124 56.2327 113.023C56.2124 114.074 56.1268 115.001 57.1987 115.448C57.3511 115.512 57.4043 116.024 57.3611 116.307C57.0723 118.119 56.7412 119.925 56.4243 121.733L55.9808 121.787C55.8046 120.988 55.5381 120.199 55.4802 119.395C55.4333 118.752 55.7022 118.091 55.7144 117.446C55.7209 116.983 55.5309 116.516 55.4277 116.048L55.0505 115.96Z" fill="black"/>
<path d="M62.8756 128.633C62.4156 129.006 62.1569 129.185 61.8573 129.4L65.4888 132.416L63.3015 132.899L63.2702 132.757C63.6187 132.653 63.9697 132.548 64.7159 132.329C63.5119 131.481 62.5495 130.793 61.5765 130.118C61.2334 129.924 60.9032 129.708 60.5879 129.471C60.39 129.287 60.136 128.861 60.21 128.741C60.3019 128.608 60.421 128.495 60.5593 128.411C60.6977 128.327 60.8523 128.273 61.0131 128.252C61.5486 128.283 62.0856 128.469 62.8756 128.633Z" fill="black"/>
<path d="M236.75 130.221L232.907 134.322L232.695 134.122L236.497 129.984L236.75 130.221Z" fill="black"/>
<path d="M225.884 69.0151C225.307 66.3993 224.816 64.2838 224.787 64.2901C224.759 64.2964 225.203 66.4221 225.78 69.038C226.357 71.6538 226.848 73.7693 226.877 73.763C226.905 73.7567 226.461 71.631 225.884 69.0151Z" fill="black"/>
<path d="M54.0542 86.1017L54.6359 86.9196L55.6104 85.5605L55.9601 85.7815L54.4951 88.1002L54.0542 86.1017Z" fill="black"/>
<path d="M107.607 33.9417C107.135 34.2626 106.664 34.5861 106.038 35.017C106.502 34.9933 106.805 34.978 107.129 34.9607C106.671 38.0442 106.117 41.1025 105.791 44.1814C105.366 48.1684 105.349 52.2065 104.748 56.1591C103.937 61.5029 104.193 66.8284 104.481 72.1547C104.622 74.8213 105.284 77.4542 105.595 80.1159C106.229 85.4499 106.653 90.8115 107.374 96.1319C107.901 100.007 108.768 103.839 109.482 107.691C110.309 112.153 110.989 116.65 111.993 121.076C113.639 128.345 115.23 135.642 117.325 142.788C119.766 151.077 123.085 159.067 126.984 166.799C127.881 168.583 128.977 170.269 129.917 171.886C127.812 172.35 125.613 172.949 123.373 173.305C119.719 173.883 116.04 174.305 112.37 174.789C110.278 175.063 108.551 174.607 107.455 172.576C106.9 171.546 106.151 170.622 105.38 169.488C108.895 170.168 112.177 170.803 115.457 171.44L115.509 171.157C112.88 170.62 110.261 169.997 107.614 169.575C105.614 169.257 104.507 168.208 103.698 166.372C99.6336 157.142 95.062 148.119 92.1544 138.417C90.328 132.338 88.5928 126.23 86.8293 120.128C85.0657 114.026 84.2602 107.732 83.6422 101.44C82.6403 91.2203 81.6194 80.9883 81.145 70.7387C80.856 64.5124 81.4711 58.2303 81.9276 51.9914C82.0367 50.5195 82.2429 49.0208 82.1647 47.5604C82.043 45.3126 83.2464 43.9219 84.8955 42.8559C90.9563 38.9405 97.5075 36.0069 104.259 33.5387C105.188 33.201 106.37 33.5584 107.432 33.5925L107.607 33.9417ZM99.0303 43.2787C95.8503 43.9558 85.8619 48.3797 84.1977 49.8937C89.2161 47.6561 94.2637 45.4038 99.0303 43.2787ZM83.8209 88.3869L97.5701 85.3538C92.8259 85.6629 88.1957 86.4647 83.8203 88.3843L83.8209 88.3869ZM85.6645 67.8005C88.978 66.0447 92.5824 64.1325 96.0804 62.2791C92.2359 63.4959 88.4763 65.1224 85.6639 67.7979L85.6645 67.8005ZM87.3402 101.907L87.3695 102.285C91.8188 101.971 96.2623 101.658 100.7 101.348L100.677 101.025C96.2293 101.312 91.7836 101.606 87.3402 101.907ZM88.1059 118.897L88.0911 119.199C91.5845 119.164 95.0747 119.127 98.5618 119.088L98.5601 118.736C95.0663 118.785 91.5776 118.837 88.0939 118.892L88.1059 118.897ZM84.5506 59.0639L84.6697 59.3087C87.8074 57.7761 90.9446 56.2453 94.0813 54.7165L93.9508 54.4443C90.8108 55.9829 87.6734 57.521 84.5385 59.0584L84.5506 59.0639ZM93.2236 78.4447C90.4133 79.2246 87.7027 80.297 85.3393 82.3285C88.0339 80.9993 90.6287 79.722 93.2236 78.4447ZM92.7785 129.275L92.7554 129.552L100.525 130.262L100.553 129.984C97.9593 129.745 95.3668 129.509 92.7759 129.276L92.7785 129.275Z" fill="white"/>
<path d="M240.784 133.398C243.733 130.605 245.466 127.327 246.741 123.766C246.851 123.798 246.961 123.831 247.071 123.861C246.807 125.05 246.586 126.248 246.268 127.422C245.949 128.595 245.514 129.808 245.323 131.065C247.241 127.734 248.633 124.127 249.449 120.37L249.859 120.364C249.928 121.213 250.156 122.09 250.037 122.914C249.635 125.676 249.11 128.421 248.605 131.173C248.572 131.365 248.453 131.638 248.301 131.699C247.005 132.226 245.722 132.837 244.375 133.172C243.331 133.419 242.205 133.317 240.784 133.398Z" fill="white"/>
<path d="M129.209 27.0291C126.191 29.6713 123.081 31.2902 119.224 31.0401C118.591 30.998 117.947 31.1022 117.251 30.8952C121.151 29.6362 125.043 28.3764 129.209 27.0291Z" fill="white"/>
<path d="M150.634 19.8438C146.725 21.7906 143.4 25.1539 138.515 24.7133L150.634 19.8438Z" fill="white"/>
<path d="M140.569 25.7867C137.296 26.6604 134.022 27.5346 130.406 28.4977C133.034 26.5866 137.723 25.189 140.417 25.381L140.569 25.7867Z" fill="white"/>
<path d="M198.54 162.024L189.719 162.793C192.926 161.215 195.357 161.029 198.54 162.024Z" fill="white"/>
<path d="M146.872 101.518L148.086 98.7908L150.905 98.1692C150 99.3311 149.235 100.519 148.26 101.496C147.526 102.222 147.393 102.1 146.872 101.518Z" fill="white"/>
<path d="M115.714 108.992C114.385 108.813 113.043 108.692 111.734 108.414C111.421 108.347 111.135 107.787 110.995 107.398C110.827 106.93 110.829 106.401 110.746 105.826L115.738 108.791L115.714 108.992Z" fill="white"/>
<path d="M245.295 100.51C247.358 104.147 249.024 110.533 248.895 113.435L245.295 100.51Z" fill="white"/>
<path d="M140.232 105.118L142.212 103.537L144.179 103.852C142.776 104.842 141.634 105.674 140.232 105.118Z" fill="white"/>
<path d="M124.295 100.826L127.139 100.199L126.088 102.306L124.143 101.244L124.295 100.826Z" fill="white"/>
<path d="M188.467 161.137C186.797 161.63 185.127 162.122 183.457 162.613L183.332 162.172L188.441 161.045L188.467 161.137Z" fill="white"/>
<path d="M247.738 122.142L248.456 118.022L248.789 118.081L248.062 122.233L247.738 122.142Z" fill="white"/>
<path d="M140.181 121.736L146.759 122.66L146.747 123.075C144.089 123.317 141.441 123.556 138.801 123.789L138.715 123.537C139.312 123.253 139.908 122.973 140.549 122.669L140.023 122.077L140.181 121.736Z" fill="white"/>
<path d="M134.069 126.945L131.864 124.324C133.097 123.485 134.311 123.605 135.032 124.772C135.617 125.714 135.116 126.443 134.069 126.945Z" fill="white"/>
<path d="M126.595 130.638L129.016 133.414C127.199 133.94 126.168 132.706 126.595 130.638Z" fill="white"/>
<path d="M208.604 25.489L208.888 29.4931L208.409 29.5338L208.139 25.5075L208.604 25.489Z" fill="white"/>
<path d="M23.0204 131.251C23.3461 131.228 23.7688 131.067 23.9799 131.213C24.9027 131.845 25.7614 132.566 26.6428 133.256C25.8867 133.835 25.1629 134.474 24.3586 134.982C23.5543 135.491 22.5982 135.913 21.7142 136.379L21.2007 135.993C21.9304 135.073 22.6951 134.164 23.3881 133.225C23.8635 132.578 24.054 131.942 22.8682 131.643L23.0204 131.251Z" fill="white"/>
<path d="M24.8372 128.143C22.4825 130.116 22.3837 130.135 20.2413 128.731L24.771 127.732L24.8372 128.143Z" fill="white"/>
<path d="M26.7909 115.158C24.4971 114.482 23.8421 113.369 24.8889 111.858L26.7909 115.158Z" fill="white"/>
<path d="M99.0303 43.2791C94.266 45.4146 89.2161 47.6565 84.1978 49.8941C85.862 48.3801 95.8503 43.9562 99.0303 43.2791Z" fill="black"/>
<path d="M83.8203 88.3845C88.1957 86.465 92.8259 85.6632 97.5696 85.3515L83.8203 88.3845Z" fill="black"/>
<path d="M85.6641 67.7981C88.4764 65.1226 92.236 63.4961 96.08 62.2767C92.5819 64.1302 88.9747 66.0294 85.6641 67.7981Z" fill="black"/>
<path d="M87.3402 101.907C91.7934 101.609 96.2391 101.315 100.678 101.025L100.7 101.348C96.2507 101.663 91.8072 101.975 87.3695 102.285L87.3402 101.907Z" fill="black"/>
<path d="M88.0938 118.892C91.5753 118.836 95.06 118.782 98.5479 118.73L98.5497 119.082C95.0605 119.12 91.5702 119.157 88.079 119.193L88.0938 118.892Z" fill="black"/>
<path d="M84.5386 59.0587C87.6727 57.5178 90.8063 55.9788 93.9394 54.4417L94.0699 54.7139C90.9353 56.2441 87.798 57.7748 84.6582 59.3061L84.5386 59.0587Z" fill="black"/>
<path d="M93.2236 78.4447C90.6288 79.722 88.0339 80.9994 85.3394 82.3285C87.695 80.2987 90.421 79.2229 93.2236 78.4447Z" fill="black"/>
<path d="M92.7759 129.276C95.3681 129.507 97.9588 129.739 100.548 129.972L100.52 130.249L92.7499 129.539L92.7759 129.276Z" fill="black"/>
</svg>
