<svg width="111" height="54" viewBox="0 0 111 54" fill="none" xmlns="http://www.w3.org/2000/svg">
<mask id="mask0_72_9576" style="mask-type:alpha" maskUnits="userSpaceOnUse" x="0" y="0" width="111" height="54">
<path d="M14 43.5C36.8 56.7 87.8334 54.3333 110.5 51.5L100 8L11 0C9.5 3.16667 5.9 9.7 3.5 10.5C1.1 11.3 0.5 20.8333 0.5 25.5C5.00001 25 15 24.3 19 25.5C23 26.7 19 35 16.5 39C6.16668 35 -8.79998 30.3 14 43.5Z" fill="#D9D9D9"/>
</mask>
<g mask="url(#mask0_72_9576)">
<path d="M57.9715 31.4662C57.4524 32.4084 56.9306 33.3502 56.2659 34.5558C57.5751 33.6982 58.5951 32.9401 59.7047 32.3365C60.6272 31.8196 61.5436 31.3378 62.6838 32.2992C63.2594 32.7879 64.3227 32.7063 65.1703 32.8758C66.3694 33.1148 67.595 33.2973 68.7734 33.591C71.3283 34.2377 72.2786 36.5623 73.6746 38.4148C73.8683 38.7573 74.1413 39.0484 74.4707 39.2637L74.0225 36.8127L74.4929 36.789C75.8686 41.4063 75.8352 46.3291 74.397 50.9274C74.344 50.6301 74.3239 50.3278 74.3372 50.0261C74.9616 45.9713 73.978 42.2894 71.6307 38.9643C70.2592 37.0189 68.6494 35.5817 66.0283 35.3481C63.2627 35.0838 60.5917 34.9775 58.0555 36.299C57.4451 36.6176 56.9188 37.1062 56.1796 37.6382C56.4739 37.8257 56.7804 37.9931 57.0973 38.1391C58.6735 38.6518 60.3402 38.9471 61.7771 39.7021C62.9685 40.3454 63.9862 41.268 64.743 42.3909C66.2822 44.7123 66.6223 47.386 66.221 50.1417C66.0458 51.3574 65.7295 52.5541 65.5628 53.7686C65.0996 57.1352 63.1192 59.1557 59.9775 60.1444C58.953 60.4659 57.8968 60.6819 56.8632 60.9436C57.3382 62.5221 57.4134 62.5685 61.657 63.7031L60.9479 64.2376L61.897 64.6052C61.6511 64.6152 61.535 64.6283 61.4168 64.6217C61.1009 64.6028 60.7835 64.5449 60.4656 64.5535C57.7101 64.6296 55.3533 63.834 52.9494 62.3032C50.6994 60.8768 49.7767 58.904 49.3755 56.7415C48.8065 53.6284 48.7007 50.3571 49.7103 47.2798C50.5287 44.8828 51.5278 42.5513 52.699 40.3055C54.1098 37.5227 55.7302 34.8429 57.2709 32.1271C57.4459 31.8626 57.639 31.6105 57.8489 31.3727L57.9715 31.4662ZM52.9733 55.7794C52.3354 56.7981 52.3839 56.9342 54.0432 58.7409C54.1681 58.2463 54.2926 57.7378 54.3975 57.3259L52.9733 55.7794ZM58.7673 43.7001L59.1228 41.6553L57.3193 42.5297L58.7673 43.7001Z" fill="#313231"/>
<path d="M44.5152 35.4108C44.6515 35.7925 44.8049 36.1716 44.9258 36.5618C45.1803 37.3804 45.6564 38.2181 45.6076 39.0256C45.4456 42.9275 45.695 46.9371 43.1058 50.3199C42.3881 51.2554 41.8259 52.3178 41.1579 53.2869C39.7672 55.3155 38.0819 56.9154 35.4305 57.0318C35.1102 57.0411 34.7944 57.1095 34.4989 57.2335C31.1002 58.7909 27.7844 57.54 24.4825 56.88C24.008 56.7836 23.5492 56.3097 23.2085 55.9064C22.6851 55.329 22.2512 54.6763 21.9215 53.9701C20.4785 50.472 19.41 46.8474 20.0691 43.0402C20.3969 41.1543 21.3228 39.3724 22.0028 37.4728C22.0467 37.946 22.0567 38.4217 22.0328 38.8963C21.746 41.3444 21.4242 43.7864 21.1213 46.2317C20.7283 49.4024 21.3192 52.4055 23.5993 54.6643C24.5606 55.6168 26.2721 55.8616 27.6821 56.2927C28.9314 56.6468 30.2019 56.9215 31.4859 57.1149C31.8739 57.1824 32.3049 57.002 33.039 56.8825C30.7796 55.6377 29.5748 54.0905 29.289 51.8232C29.0513 49.8695 28.2873 47.9576 28.3281 46.0468C28.4185 41.8383 29.8541 37.8913 33.401 35.5131C36.4426 33.4717 40.0806 33.2521 43.564 35.0233C43.8883 35.1852 44.2296 35.3139 44.5599 35.4574L44.5152 35.4108ZM39.7121 49.9326L40.0471 50.0491C40.6763 48.5848 42.5175 47.4616 41.1483 45.3113L39.7121 49.9326ZM42.6661 40.6514L40.0494 41.526C40.748 41.9777 41.1953 42.5023 41.5414 42.4431C42.3453 42.3053 42.9321 41.7717 42.6661 40.6514Z" fill="#313231"/>
<path d="M44.5148 35.4105L44.5594 35.4572C43.6365 33.7091 42.9891 31.7176 41.7044 30.2786C40.5135 28.9391 35.6625 28.5843 34.1015 27.5691C34.0013 27.2353 36.878 26.2061 36.7993 26.2119C35.6749 26.2939 34.571 26.449 33.4583 26.5914L33.5431 26.9336L37.1485 27.1413C34.4112 27.895 31.6358 28.5172 28.9704 29.4804C28.0433 29.8161 27.2554 30.9003 26.709 31.8239C26.0776 32.8854 25.7865 34.1449 25.3468 35.3174L24.9672 35.2014L26.0215 32.1707L25.7017 31.9347C24.8215 33.0223 23.952 34.1285 23.0481 35.1926C22.7522 35.4795 22.4286 35.7366 22.0821 35.96C21.9226 35.4882 21.4846 34.8625 21.6472 34.566C23.1438 31.8481 24.2864 28.8521 27.3482 27.3166C28.0899 26.946 28.8576 26.3772 29.709 26.2699C39.1909 25.0678 31.4435 27.9952 32.6724 26.4659C31.604 28.3812 31.3606 25.63 30.2921 27.5453C30.4416 27.7073 29.6111 26.7691 29.7605 26.9311C30.9999 26.4277 32.6769 26.4722 33.9135 25.9683C33.9495 26.0328 33.5094 26.8722 33.5426 26.9363C33.2408 27.2197 32.9738 26.1852 32.6724 26.4659C36.6264 24.572 40.173 25.8685 43.2541 28.2776C45.2075 29.8134 46.3374 32.1747 46.3517 35.1581C45.9352 34.217 45.6298 33.5311 45.3022 32.7969C45.0082 33.77 44.7516 34.5913 44.5148 35.4105Z" fill="#313231"/>
<path d="M73.507 54.2866C73.7491 57.9865 68.9015 63.921 65.8537 63.3329C69.4417 60.9732 72.0116 58.0674 73.507 54.2866Z" fill="#313231"/>
</g>
</svg>
