<svg width="66" height="80" viewBox="0 0 66 80" fill="none" xmlns="http://www.w3.org/2000/svg">
<path d="M52.3285 44.3399C51.234 44.0976 50.1391 43.8525 48.7386 43.5419C49.9805 44.5991 51.0379 45.3962 51.9673 46.3284C52.755 47.099 53.5059 47.8738 52.8794 49.296C52.5598 50.0151 52.9537 51.0542 53.033 51.9515C53.1462 53.2205 53.3236 54.4995 53.3761 55.764C53.4797 58.5083 51.4346 60.1411 49.9924 62.0809C49.7068 62.3751 49.4959 62.7336 49.3774 63.1261L51.6963 61.9583L51.8581 62.4216C47.6455 65.1529 42.7138 66.5652 37.694 66.4776C37.9757 66.3372 38.272 66.2284 38.5776 66.1531C42.815 65.5867 46.2075 63.522 48.8428 60.1987C50.385 58.2561 51.3493 56.2246 50.8132 53.5354C50.2653 50.6926 49.5872 47.9908 47.5211 45.8432C47.0234 45.3263 46.3803 44.9437 45.6313 44.3609C45.5302 44.7101 45.4529 45.0658 45.3999 45.4254C45.3502 47.1519 45.5444 48.905 45.2115 50.5634C44.9181 51.9435 44.2945 53.232 43.3941 54.3183C41.5251 56.5391 38.9518 57.6642 36.0787 58.0722C34.8117 58.254 33.5222 58.2892 32.2591 58.4791C28.757 59.0047 26.1553 57.6179 24.2442 54.7671C23.6219 53.8371 23.0957 52.8446 22.5306 51.888C21.0918 52.8265 21.0675 52.9153 21.1793 57.4913L20.4366 56.9393L20.3478 57.9963C20.2656 57.7532 20.2184 57.641 20.1903 57.5209C20.1164 57.1995 20.0811 56.8651 19.9792 56.5498C19.094 53.8172 19.1972 51.2271 20.0219 48.3741C20.7874 45.7056 22.4889 44.2038 24.5332 43.1676C27.4787 41.6845 30.7183 40.6181 34.0916 40.7239C36.7286 40.8383 39.353 41.1526 41.9424 41.6641C45.139 42.2574 48.2942 43.0907 51.462 43.8336C51.7778 43.9309 52.0866 44.0499 52.386 44.19L52.3285 44.3399ZM26.5517 46.4822C25.3458 46.1437 25.224 46.2321 23.9049 48.4217C24.436 48.4013 24.9809 48.3764 25.4236 48.3603L26.5517 46.4822ZM40.3303 48.7282L42.4791 48.4831L41.0753 46.9368L40.3303 48.7282Z" fill="#313231"/>
<path d="M44.4331 32.0442C44.0914 32.2925 43.7574 32.5572 43.4028 32.7927C42.6591 33.2876 41.9613 34.0096 41.1396 34.198C37.1908 35.1817 33.2551 36.6085 29.1125 35.0131C27.9664 34.5703 26.7391 34.3202 25.574 33.9368C23.1374 33.1421 21.0428 31.9269 20.1479 29.3101C20.0445 28.9926 19.8834 28.6969 19.6727 28.4379C17.1175 25.4971 17.3945 21.8146 17.0848 18.3194C17.0418 17.8167 17.3809 17.2188 17.6841 16.7597C18.1077 16.0668 18.6329 15.4413 19.2421 14.9043C22.3159 12.4343 25.6262 10.3016 29.6263 9.84257C31.6081 9.61656 33.6615 10.0191 35.7605 10.1411C35.3003 10.3239 34.8276 10.4737 34.346 10.5892C31.8141 11.0213 29.2781 11.4166 26.7442 11.8318C23.4587 12.37 20.6296 13.8427 19.0408 16.7857C18.3707 18.0265 18.6285 19.8097 18.6116 21.346C18.6243 22.6991 18.7228 24.05 18.9065 25.3906C18.953 25.7983 19.2599 26.1763 19.5949 26.8751C20.176 24.2506 21.3692 22.5917 23.5522 21.6401C25.4357 20.8287 27.1229 19.5035 29.0454 18.9831C33.2798 17.8377 37.6477 18.1139 41.067 20.9619C44.0012 23.4035 45.2891 26.9764 44.5411 30.9794C44.4745 31.3512 44.446 31.7301 44.3996 32.1025L44.4331 32.0442ZM28.5032 31.5063L28.4851 31.8754C30.134 32.0746 31.7976 33.5856 33.5455 31.5851L28.5032 31.5063ZM38.6503 31.7343L37.0075 29.3749C36.761 30.206 36.3678 30.8073 36.5286 31.136C36.9025 31.8992 37.6083 32.3292 38.6503 31.7343Z" fill="#313231"/>
<path d="M44.4331 32.044L44.3996 32.1023C45.8763 30.6662 47.6775 29.4341 48.739 27.7271C49.7284 26.143 48.6587 21.1886 49.2153 19.3298C49.5197 19.1316 51.3935 21.7056 51.3646 21.6286C50.9523 20.5284 50.4732 19.4703 50.004 18.3995L49.6867 18.5849L50.5378 22.2506C48.9805 19.7352 47.5434 17.1429 45.7976 14.7608C45.1898 13.9325 43.8743 13.463 42.7904 13.188C41.5437 12.8684 40.199 12.9472 38.8975 12.8518L38.902 12.4383L42.2418 12.6024L42.3839 12.2133C41.0379 11.6527 39.6766 11.1082 38.3473 10.5169C37.9735 10.3053 37.6215 10.0572 37.2964 9.77641C37.7213 9.47844 38.2182 8.85677 38.5624 8.93224C41.7193 9.6305 45.0503 9.89306 47.4847 12.5035C48.0731 13.1362 48.8671 13.7368 49.2245 14.5564C53.2108 23.6838 48.0088 16.7973 49.8988 17.577C47.67 17.0711 50.3493 16.0199 48.1205 15.5141C48.0025 15.7111 48.6966 14.6052 48.5785 14.8022C49.4458 15.8935 49.8937 17.5833 50.7607 18.6717C50.7067 18.7267 49.7382 18.5331 49.6839 18.5852C49.312 18.3666 50.2679 17.7959 49.8988 17.577C52.9534 20.9742 52.6985 24.9008 51.1946 28.6889C50.2327 31.0929 48.2036 32.9161 45.2249 33.8064C46.0436 33.1136 46.6397 32.6069 47.2776 32.0638C46.2183 32.0555 45.3218 32.0402 44.4331 32.044Z" fill="#313231"/>
<path d="M34.0742 66.5743C30.446 67.9029 23.0889 64.7987 22.7819 61.5788C26.1948 64.4732 29.8548 66.1894 34.0742 66.5743Z" fill="#313231"/>
</svg>
