<svg width="92" height="64" viewBox="0 0 92 64" fill="none" xmlns="http://www.w3.org/2000/svg">
<mask id="mask0_72_9551" style="mask-type:alpha" maskUnits="userSpaceOnUse" x="0" y="0" width="92" height="64">
<path d="M10.5 0L92 52L58 63.5L0.5 32.5L10.5 0Z" fill="#D9D9D9"/>
</mask>
<g mask="url(#mask0_72_9551)">
<path d="M61.0127 13.0912C60.1346 14.1673 59.2531 15.2422 58.1288 16.6189C59.9908 15.8338 61.4623 15.108 63.0119 14.5991C64.3035 14.157 65.5793 13.7579 66.804 15.2439C67.4216 15.9982 68.791 16.1415 69.8281 16.5538C71.2955 17.1358 72.8096 17.6523 74.2381 18.2991C77.3326 19.714 77.9996 22.887 79.3423 25.564C79.5087 26.044 79.7878 26.4772 80.1562 26.8271L80.1563 23.6101L80.7592 23.6893C81.4338 29.8731 80.2478 36.1175 77.3532 41.6234C77.3548 41.2335 77.3996 40.8449 77.4866 40.4648C79.2215 35.4602 78.8276 30.5554 76.6188 25.7871C75.3288 22.9978 73.6182 20.7985 70.3435 19.893C66.8925 18.9149 63.5249 18.1594 59.9968 19.2487C59.1475 19.5114 58.3657 20.0097 57.3033 20.5138C57.6334 20.8203 57.9839 21.104 58.3524 21.3631C60.2351 22.3804 62.2833 23.1426 63.9328 24.4352C65.2966 25.5291 66.3748 26.9372 67.075 28.5391C68.4907 31.845 68.3016 35.3196 67.1518 38.7263C66.6468 40.2296 65.9671 41.6761 65.4732 43.1797C64.1029 47.3479 61.1183 49.4539 56.8986 49.9799C55.5227 50.1502 54.1312 50.1792 52.7577 50.2714C52.9943 52.3866 53.079 52.463 58.2049 54.8897L57.1802 55.4039L58.3003 56.0912C57.9856 56.0468 57.8351 56.0365 57.6865 56.0006C57.2897 55.9032 56.9 55.7559 56.4943 55.6929C52.9771 55.1495 50.1685 53.5917 47.4711 51.089C44.9448 48.7547 44.2313 46.0349 44.224 43.1952C44.2245 39.1093 44.8501 34.93 46.8472 31.2561C48.4434 28.402 50.254 25.673 52.2631 23.0927C54.7013 19.8862 57.3818 16.8592 59.9695 13.7678C60.2532 13.4725 60.557 13.1973 60.8788 12.944L61.0127 13.0912ZM49.0169 42.809C47.9702 43.9547 48.0001 44.1388 49.6879 46.8188C49.9613 46.2197 50.2375 45.6028 50.4664 45.104L49.0169 42.809ZM59.1815 28.8138L60.108 26.2993L57.6144 26.9909L59.1815 28.8138Z" fill="#313231"/>
<path d="M43.0066 14.9752C43.0909 15.4916 43.1976 16.0088 43.2605 16.5324C43.3937 17.6312 43.8038 18.8057 43.5542 19.82C42.442 24.7379 41.8274 29.8882 37.7531 33.5831C36.6243 34.6045 35.6635 35.8232 34.5899 36.8988C32.3525 39.1522 29.8404 40.7927 26.446 40.3246C26.037 40.262 25.6201 40.2754 25.216 40.3643C20.5377 41.5527 16.6171 39.1938 12.5769 37.5885C11.9966 37.3559 11.5239 36.6475 11.185 36.056C10.6543 35.2011 10.2549 34.2714 10.0001 33.298C8.98012 28.5199 8.46505 23.6683 10.1865 18.9861C11.0409 16.6671 12.6308 14.6191 13.9356 12.3645C13.8815 12.9757 13.7838 13.5822 13.6432 14.1794C12.7102 17.222 11.7343 20.2487 10.7814 23.2839C9.54579 27.2196 9.59866 31.1709 11.9699 34.5693C12.9694 36.0024 15.0863 36.7109 16.7769 37.5859C18.2813 38.3259 19.8311 38.9698 21.4169 39.5138C21.8939 39.6896 22.4833 39.5605 23.4433 39.5794C20.863 37.4736 19.6923 35.2286 19.8559 32.2826C20.0079 29.7462 19.4817 27.1406 19.9774 24.7232C21.0699 19.3992 23.81 14.7198 28.8672 12.5233C33.2043 10.6373 37.8758 11.2034 41.8884 14.2622C42.2627 14.5431 42.6662 14.7858 43.0524 15.0447L43.0066 14.9752ZM33.5329 32.3028L33.9314 32.5286C35.0707 30.815 37.6699 29.8162 36.4305 26.7671L33.5329 32.3028ZM39.4407 21.2015L35.9142 21.7044C36.6965 22.4404 37.1427 23.2105 37.596 23.2158C38.649 23.2275 39.5182 22.6861 39.4407 21.2015Z" fill="#313231"/>
<path d="M43.0061 14.9748L43.0519 15.0444C42.2859 12.6099 41.9262 9.93017 40.6289 7.80414C39.4274 5.82633 33.3489 4.24886 31.6022 2.5969C31.5526 2.14967 35.4452 1.51077 35.3439 1.49978C33.8967 1.3428 32.4587 1.2833 31.0124 1.20566L31.0407 1.66004L35.5714 2.76129C31.9199 3.08268 28.2505 3.22815 24.6415 3.83236C23.3861 4.0433 22.1335 5.23728 21.225 6.28341C20.1766 7.4849 19.5143 9.01681 18.6834 10.4038L18.2283 10.1684L20.2713 6.5641L19.92 6.19008C18.5494 7.36697 17.1882 8.56984 15.7931 9.71133C15.3505 10.007 14.8798 10.2583 14.3879 10.4616C14.295 9.82531 13.884 8.92891 14.1593 8.59014C16.6915 5.48591 18.8385 1.94628 23.0839 0.707418C24.112 0.408947 25.2192 -0.135021 26.3253 -0.0736085C38.647 0.602281 28.1274 2.52059 30.0435 0.863705C28.2416 3.04804 28.5716 -0.502634 26.7697 1.6817C26.9219 1.92214 26.085 0.537691 26.2372 0.77814C27.9282 0.426686 30.0477 0.872772 31.7353 0.520097C31.766 0.610417 31.0121 1.57426 31.0394 1.66336C30.5903 1.95313 30.4915 0.577246 30.0435 0.863705C35.5052 -0.623058 39.7083 1.84743 43.0618 5.6228C45.186 8.02713 46.0725 11.2886 45.3976 15.0809C45.0873 13.7889 44.8587 12.8468 44.6133 11.8383C44.0138 13.0058 43.4971 13.9893 43.0061 14.9748Z" fill="#313231"/>
<path d="M75.4429 45.683C74.8909 50.4383 67.3556 56.8494 63.6214 55.3945C68.7264 53.231 72.6654 50.1375 75.4429 45.683Z" fill="#313231"/>
</g>
</svg>
