<svg width="60" height="54" viewBox="0 0 60 54" fill="none" xmlns="http://www.w3.org/2000/svg">
<mask id="mask0_163_113" style="mask-type:alpha" maskUnits="userSpaceOnUse" x="0" y="0" width="60" height="54">
<path d="M0 37.5V3.5L3.5 0L56 9L58 21.5L56 24L60 54L0 37.5Z" fill="#D9D9D9"/>
</mask>
<g mask="url(#mask0_163_113)">
<path d="M16.7836 -2.00839C17.0552 -0.909801 17.3243 0.190345 17.6713 1.5964C18.0707 -0.000869786 18.3177 -1.31467 18.7441 -2.57324C19.088 -3.63113 19.4521 -4.65761 21.0194 -4.7286C21.813 -4.76195 22.5763 -5.58406 23.3522 -6.05811C24.4494 -6.72944 25.5266 -7.46329 26.6469 -8.07763C29.0826 -9.40169 31.4763 -8.28398 33.8773 -7.84917C34.2715 -7.72275 34.6902 -7.6927 35.0984 -7.76153L33.0025 -9.33537L33.349 -9.68948C37.7081 -7.10381 41.1964 -3.27628 43.3677 1.30328C43.1144 1.11142 42.8832 0.892175 42.6781 0.649536C40.266 -2.92914 36.8776 -5.07197 32.6903 -5.96553C30.2418 -6.48958 27.9721 -6.45096 25.7801 -4.76039C23.4545 -2.99034 21.3148 -1.16577 20.2986 1.66581C20.0543 2.34772 19.9964 3.1009 19.8051 4.03969C20.1663 3.97454 20.5227 3.88499 20.8717 3.77166C22.4556 3.04265 23.9542 2.08103 25.6034 1.6386C26.9832 1.28519 28.4282 1.27159 29.8144 1.59896C32.661 2.29386 34.8324 4.11692 36.4894 6.53265C37.2218 7.59713 37.8318 8.74762 38.5699 9.80499C40.6153 12.7369 40.5274 15.7118 38.8057 18.7184C38.2436 19.6982 37.5818 20.6191 36.9699 21.5591C38.4638 22.4397 38.555 22.4219 42.6438 20.2693L42.4775 21.1885L43.4733 20.795C43.2904 20.9783 43.21 21.0713 43.114 21.1505C42.8564 21.3614 42.5698 21.5433 42.3303 21.7768C40.2556 23.8026 37.8666 24.8704 34.9163 25.4035C32.1596 25.9076 30.0384 25.0419 28.1847 23.6574C25.5227 21.6582 23.1058 19.2061 21.6891 16.1076C20.6103 13.6713 19.718 11.1566 19.0197 8.58525C18.1233 5.42796 17.4624 2.20062 16.7142 -0.997649C16.6605 -1.32695 16.6298 -1.65958 16.6222 -1.99314L16.7836 -2.00839ZM30.2777 20.3457C30.5121 21.5882 30.6468 21.6587 33.2186 21.8702C32.962 21.3989 32.6952 20.9172 32.4822 20.524L30.2777 20.3457ZM26.1318 6.87634L24.9468 5.04262L24.1775 7.00563L26.1318 6.87634Z" fill="#313231"/>
<path d="M9.20218 10.6452C9.57995 10.8429 9.9691 11.0264 10.341 11.2415C11.1221 11.6923 12.088 11.9997 12.6267 12.6585C15.2869 15.7891 18.3419 18.7091 18.7561 23.1713C18.8693 24.4064 19.1934 25.6286 19.369 26.8543C19.7426 29.4145 19.5825 31.8538 17.6169 33.8364C17.3761 34.0723 17.1809 34.3505 17.0411 34.6572C15.5267 38.2868 12.0718 39.6872 9.04937 41.5343C8.61393 41.7986 7.92112 41.76 7.36995 41.6915C6.5533 41.619 5.75216 41.4244 4.99328 41.1142C1.38115 39.4413 -2.03188 37.4034 -4.24043 33.9912C-5.33334 32.3001 -5.88991 30.2623 -6.72057 28.3092C-6.34885 28.6434 -6.00149 29.0038 -5.68115 29.3876C-4.15517 31.4839 -2.6606 33.6005 -1.14912 35.7062C0.810635 38.4366 3.411 40.3352 6.78522 40.4528C8.20795 40.5026 9.70518 39.4699 11.1023 38.7965C12.3204 38.1783 13.4981 37.4836 14.6284 36.7165C14.9763 36.4916 15.1805 36.0445 15.6625 35.4283C13.0281 36.0792 10.9927 35.7438 9.1533 34.196C7.57504 32.8561 5.61993 31.9242 4.28739 30.4187C1.35299 27.1023 -0.355394 23.0278 0.68758 18.6582C1.58046 14.9097 4.23465 12.143 8.19061 11.0249C8.55677 10.9185 8.91229 10.7743 9.26994 10.6494L9.20218 10.6452ZM15.8574 25.2946L16.1994 25.1455C15.6403 23.5648 16.2611 21.3827 13.6681 20.6986L15.8574 25.2946ZM11.5144 16.0145L10.1169 18.5582C10.9792 18.4086 11.6993 18.4946 11.9245 18.2018C12.4472 17.5215 12.5197 16.6903 11.5144 16.0145Z" fill="#313231"/>
<path d="M9.20168 10.6454L9.26944 10.6495C7.30852 9.95768 5.3866 8.88102 3.36671 8.68623C1.49031 8.50146 -2.51116 11.6902 -4.44199 12.0201C-4.75769 11.8337 -3.26965 8.98488 -3.32637 9.0455C-4.13662 9.91162 -4.87886 10.8194 -5.637 11.7238L-5.32713 11.9277L-2.39314 9.51442C-3.97007 12.0508 -5.67042 14.5127 -7.04227 17.1597C-7.519 18.0809 -7.35387 19.4811 -7.11669 20.5848C-6.84679 21.8557 -6.17266 23.0367 -5.67543 24.2566L-6.05144 24.4379L-7.4004 21.3436L-7.81596 21.3895C-7.71963 22.8582 -7.60185 24.3336 -7.54061 25.801C-7.56446 26.234 -7.63099 26.6636 -7.73924 27.0836C-8.19924 26.8328 -8.98432 26.6621 -9.07036 26.3169C-9.85415 23.1485 -11.11 20.018 -9.84034 16.6458C-9.53188 15.83 -9.34464 14.8425 -8.76349 14.1518C-2.29521 6.4543 -6.19164 14.2468 -6.3338 12.1878C-5.79212 14.4304 -7.9441 12.4784 -7.40243 14.721C-7.1713 14.7395 -8.48275 14.6074 -8.25162 14.6259C-7.65338 13.3522 -6.32584 12.1895 -5.73001 10.9174C-5.65615 10.9416 -5.39701 11.9043 -5.32557 11.9301C-5.3565 12.3645 -6.3013 11.7558 -6.3338 12.1878C-4.63056 7.90186 -0.964741 6.37195 3.13568 6.03392C5.74137 5.82615 8.30006 6.84408 10.4408 9.13906C9.44714 8.70917 8.72152 8.39721 7.94434 8.06377C8.41174 9.02552 8.79982 9.84332 9.20168 10.6454Z" fill="#313231"/>
<path d="M45.078 4.53402C47.9063 7.22 48.397 15.266 45.6223 16.9872C46.7101 12.6027 46.6215 8.52288 45.078 4.53402Z" fill="#313231"/>
</g>
</svg>
