<svg width="70" height="58" viewBox="0 0 70 58" fill="none" xmlns="http://www.w3.org/2000/svg">
<path d="M39.7423 11.2118C39.5019 12.1903 39.2589 13.169 38.9507 14.4211C39.9265 13.3271 40.6647 12.3934 41.5217 11.5776C42.2305 10.8858 42.9422 10.2272 44.2073 10.8197C44.8467 11.1217 45.7887 10.7894 46.5966 10.7366C47.7393 10.6613 48.8923 10.5284 50.0296 10.5075C52.4978 10.4714 53.9226 12.3429 55.6357 13.6792C55.8941 13.9419 56.2118 14.1389 56.5621 14.2535L55.5608 12.1455L55.9806 12.0097C58.3475 15.8517 59.5141 20.3126 59.3312 24.8215C59.211 24.5655 59.1193 24.297 59.058 24.0208C58.637 20.2014 56.8521 17.1101 53.9205 14.6731C52.2069 13.2469 50.4014 12.3383 47.9738 12.7643C45.4079 13.1976 42.9661 13.7508 40.9934 15.5628C40.5186 15.9994 40.1614 16.5693 39.6222 17.2303C39.9339 17.3283 40.2519 17.4052 40.574 17.4602C42.1243 17.5408 43.7037 17.4027 45.187 17.7362C46.4211 18.0284 47.5659 18.6155 48.5234 19.4472C50.4801 21.1728 51.4378 23.5085 51.7448 26.0986C51.8818 27.2409 51.8867 28.4003 52.0312 29.5393C52.4308 32.6972 51.1306 35.0062 48.5293 36.6643C47.6807 37.2042 46.7779 37.6564 45.9066 38.1444C46.72 39.4568 46.7993 39.4804 50.9136 39.475L50.4022 40.1309L51.3501 40.2326C51.13 40.3015 51.0282 40.3415 50.9197 40.3643C50.6294 40.424 50.3282 40.4488 50.0427 40.5338C47.5688 41.2726 45.2436 41.126 42.697 40.3258C40.315 39.5826 39.0008 38.0224 38.1121 36.164C36.8405 33.4864 35.9495 30.5532 36.1146 27.5241C36.2721 25.157 36.609 22.8052 37.1223 20.4891C37.7218 17.6289 38.5361 14.8111 39.2694 11.9799C39.3633 11.6981 39.4767 11.4232 39.6088 11.1571L39.7423 11.2118ZM41.1325 34.419C40.8032 35.4955 40.8802 35.6068 42.8203 36.8376C42.813 36.3599 42.802 35.8697 42.7967 35.4716L41.1325 34.419ZM43.4366 22.0843L43.261 20.1483L41.8423 21.3777L43.4366 22.0843Z" fill="#313231"/>
<path d="M28.53 18.0513C28.746 18.3635 28.9769 18.6692 29.1811 18.9927C29.6104 19.6712 30.2447 20.3132 30.3969 21.0555C31.199 24.6243 32.3994 28.1904 30.8799 31.8798C30.4581 32.9005 30.2079 33.9981 29.8393 35.0371C29.0745 37.2102 27.9391 39.0671 25.5691 39.817C25.2817 39.9033 25.0127 40.0419 24.7756 40.2258C22.08 42.4609 18.7767 42.1356 15.6295 42.3413C15.1769 42.3695 14.6466 42.0525 14.2404 41.7704C13.6266 41.3754 13.0754 40.8905 12.6055 40.332C10.4498 37.5186 8.60208 34.4998 8.27259 30.8959C8.11063 29.1103 8.51493 27.2735 8.66811 25.3899C8.82289 25.8072 8.94764 26.2351 9.04142 26.6702C9.37719 28.9543 9.67981 31.2414 10.0003 33.5269C10.4157 36.4904 11.6803 39.0631 14.2919 40.5519C15.393 41.1798 17.0007 40.9851 18.3808 41.0322C19.597 41.0488 20.8129 40.9883 22.0214 40.8511C22.3887 40.8178 22.7347 40.5498 23.3697 40.2634C21.0234 39.6867 19.5574 38.5801 18.7476 36.5987C18.0576 34.8894 16.9018 33.3458 16.4741 31.6075C15.5327 27.7787 15.8716 23.8595 18.5017 20.8461C20.7566 18.2601 23.9938 17.1769 27.5753 17.9322C27.9081 17.9997 28.248 18.0332 28.5817 18.0827L28.53 18.0513ZM27.716 32.3545L28.0473 32.3785C28.2605 30.901 29.6528 29.4374 27.8915 27.8252L27.716 32.3545ZM28.1315 23.2412L25.9772 24.6685C26.719 24.9072 27.2511 25.273 27.5498 25.1353C28.2434 24.8153 28.6444 24.19 28.1315 23.2412Z" fill="#313231"/>
<path d="M28.5294 18.0513L28.5811 18.0826C27.3214 16.7258 26.2516 15.0818 24.7397 14.0925C23.3367 13.1705 18.8627 14.029 17.2039 13.4902C17.0321 13.2126 19.3839 11.5823 19.3141 11.6066C18.317 11.9542 17.3562 12.3629 16.3843 12.7622L16.5443 13.0511L19.8559 12.3624C17.5633 13.7097 15.2041 14.9472 13.0273 16.4665C12.2704 16.9955 11.8212 18.1678 11.5516 19.1361C11.2386 20.2498 11.2814 21.4597 11.1688 22.6272L10.7973 22.6146L11.014 19.6169L10.6674 19.4812C10.1356 20.679 9.61808 21.8909 9.05924 23.0732C8.86129 23.4047 8.63109 23.7159 8.372 24.0022C8.11306 23.6142 7.56475 23.1547 7.63971 22.847C8.33267 20.0247 8.63772 17.037 11.0339 14.9037C11.6147 14.3881 12.1709 13.687 12.9148 13.3829C21.1992 9.99031 14.9032 14.5219 15.643 12.8397C15.1422 14.8319 14.2532 12.4026 13.7524 14.3948C13.927 14.505 12.9476 13.8583 13.1222 13.9685C14.1208 13.2118 15.6486 12.8444 16.6446 12.0879C16.6929 12.1376 16.4988 13.0038 16.5445 13.0537C16.3404 13.3834 15.8473 12.5126 15.643 12.8397C18.7591 10.1654 22.2822 10.4759 25.6549 11.9058C27.7952 12.8201 29.3913 14.6813 30.1296 17.3763C29.524 16.6263 29.081 16.0801 28.6062 15.4957C28.5768 16.4473 28.5444 17.2527 28.5294 18.0513Z" fill="#313231"/>
<path d="M59.3431 28.0763C60.4617 31.3642 57.5197 37.9107 54.6199 38.1197C57.2916 35.113 58.9097 31.8598 59.3431 28.0763Z" fill="#313231"/>
</svg>
