<svg width="118" height="76" viewBox="0 0 118 76" fill="none" xmlns="http://www.w3.org/2000/svg">
<mask id="mask0_164_137" style="mask-type:alpha" maskUnits="userSpaceOnUse" x="0" y="0" width="118" height="76">
<path d="M0 64.5L1.5 15.5C47.6667 5.33333 73.3 0.5 80.5 0.5C87.7 0.5 77.5 8.66667 92 36C86.5 62.1667 119.8 52.8 117 56C113.5 60 94.5 75 92 75.5C90 75.9 29.8333 68.3333 0 64.5Z" fill="#D9D9D9"/>
</mask>
<g mask="url(#mask0_164_137)">
<path d="M39.2676 4.91158C38.7166 6.27448 38.162 7.63718 37.4562 9.38106C39.093 8.0044 40.3535 6.80994 41.7609 5.81033C42.9284 4.95895 44.0933 4.15608 45.7967 5.27505C46.6572 5.84435 48.0866 5.5606 49.2642 5.65272C50.93 5.78184 52.6225 5.83005 54.2693 6.03674C57.8409 6.49849 59.5086 9.49774 61.7041 11.784C62.0226 12.2172 62.4404 12.5678 62.9223 12.8062L61.9154 9.55373L62.5498 9.44504C65.1676 15.4859 65.9234 22.1705 64.7204 28.6433C64.6 28.2486 64.5236 27.8417 64.4926 27.4302C64.6799 21.8272 62.7462 16.9916 59.0203 12.8621C56.8429 10.4459 54.425 8.75784 50.8307 8.8674C47.0353 8.95887 43.3941 9.24931 40.1681 11.4551C39.3917 11.9866 38.7572 12.7351 37.8408 13.5773C38.2705 13.7839 38.7137 13.961 39.1674 14.1076C41.3893 14.5468 43.6987 14.6762 45.7712 15.4666C47.4924 16.1457 49.0233 17.2318 50.2328 18.6321C52.699 21.5314 53.5955 25.1036 53.4994 28.9077C53.4595 30.5857 53.2251 32.261 53.1965 33.9358C53.116 38.579 50.7578 41.6426 46.6561 43.4953C45.3183 44.0982 43.9205 44.5632 42.5608 45.0864C43.4621 47.1509 43.5716 47.2015 49.5139 48.0504L48.6388 48.891L49.9864 49.2353C49.6543 49.2889 49.4989 49.3256 49.3375 49.3358C48.9058 49.3616 48.4657 49.3347 48.0358 49.398C44.3096 49.9496 40.9824 49.2538 37.4717 47.568C34.1869 45.9988 32.614 43.4723 31.7177 40.6036C30.4391 36.4723 29.7632 32.0512 30.6323 27.7115C31.3526 24.3261 32.3288 21.0003 33.5524 17.7626C35.0137 13.7573 36.7762 9.85779 38.4246 5.92229C38.619 5.53492 38.84 5.1615 39.0861 4.80471L39.2676 4.91158ZM36.4425 38.7127C35.7429 40.1987 35.8309 40.3755 38.3762 42.5567C38.4651 41.8654 38.5512 41.1552 38.6265 40.5792L36.4425 38.7127ZM42.3382 21.3809L42.4877 18.5487L40.1831 20.0286L42.3382 21.3809Z" fill="#313231"/>
<path d="M21.6524 12.4531C21.8994 12.9489 22.1692 13.4383 22.3967 13.948C22.8753 15.0173 23.6576 16.0764 23.7228 17.1799C24.1379 22.5004 25.1288 27.8999 22.1663 32.911C21.3447 34.297 20.7548 35.83 20.0061 37.2536C18.4494 40.2322 16.4231 42.6772 12.8447 43.2666C12.4117 43.3313 11.9943 43.4755 11.6136 43.6918C7.25572 46.3579 2.5534 45.2003 -2.03396 44.8421C-2.69345 44.7886 -3.39311 44.2203 -3.92094 43.7284C-4.72516 43.0302 -5.42002 42.2153 -5.9823 41.3108C-8.50935 36.7994 -10.5489 32.0554 -10.2742 26.7826C-10.1363 24.1706 -9.16999 21.6023 -8.55658 18.9143C-8.41999 19.5492 -8.32893 20.193 -8.28411 20.8408C-8.27487 24.209 -8.31413 27.5747 -8.32727 30.9417C-8.34451 35.3076 -7.05408 39.286 -3.59286 41.9796C-2.13363 43.1156 0.228417 43.1692 2.21157 43.5246C3.96423 43.8018 5.73269 43.9677 7.50633 44.0212C8.04366 44.0496 8.59913 43.7347 9.57566 43.4532C6.30765 42.1319 4.42119 40.2287 3.66441 37.1989C3.02401 34.5869 1.67636 32.1172 1.42071 29.5181C0.858613 23.7932 2.16403 18.2044 6.58949 14.4006C10.384 11.1359 15.2843 10.2459 20.2987 12.0823C20.7651 12.2491 21.249 12.3682 21.7206 12.5091L21.6524 12.4531ZM17.4987 32.9377L17.9722 33.0413C18.5877 30.9521 20.9029 29.1286 18.6953 26.4339L17.4987 32.9377ZM19.9963 19.8644L16.5884 21.4769C17.6098 21.9761 18.3019 22.6151 18.7619 22.4785C19.8302 22.1607 20.5395 21.3412 19.9963 19.8644Z" fill="#313231"/>
<path d="M21.6517 12.4529L21.7199 12.5089C20.1832 10.2874 18.9808 7.69066 17.0035 5.94731C15.1697 4.32378 8.53025 4.63178 6.24713 3.50839C6.0569 3.07177 9.79248 1.20723 9.68662 1.22784C8.17432 1.52217 6.70187 1.91216 5.21528 2.28644L5.38607 2.737L10.3115 2.43205C6.72038 3.90009 3.056 5.19588 -0.403625 6.93654C-1.60685 7.5428 -2.49955 9.1421 -3.09054 10.4842C-3.77446 12.0271 -3.96447 13.7833 -4.37032 15.4457L-4.9041 15.3502L-3.96696 11.0665L-4.43924 10.7984C-5.45646 12.4173 -6.4562 14.0596 -7.50935 15.6504C-7.86424 16.0879 -8.26145 16.4893 -8.6952 16.8488C-8.98832 16.2346 -9.68441 15.457 -9.5121 15.0283C-7.92376 11.0971 -6.86112 6.84627 -2.95671 4.26472C-2.01076 3.64113 -1.06162 2.74454 0.0759514 2.46036C12.7452 -0.713609 2.71006 4.51904 4.12863 2.24403C2.99063 5.01656 2.21274 1.32339 1.07474 4.09592C1.3039 4.29137 0.024377 3.15362 0.253538 3.34908C1.85314 2.46439 4.13569 2.25188 5.73156 1.367C5.79086 1.44871 5.3303 2.65922 5.38587 2.74073C5.02246 3.17431 4.49184 1.81418 4.12863 2.24403C9.1852 -0.968942 14.208 0.213042 18.7805 2.98026C21.6807 4.74616 23.598 7.76608 24.1029 11.8115C23.3846 10.6024 22.8587 9.72147 22.2948 8.77867C22.0541 10.1467 21.8397 11.3029 21.6517 12.4529Z" fill="#313231"/>
<path d="M64.0597 33.3457C64.9903 38.3263 59.3788 47.1671 55.148 46.8651C59.632 43.0796 62.6461 38.7189 64.0597 33.3457Z" fill="#313231"/>
</g>
</svg>
