<svg width="83" height="32" viewBox="0 0 83 32" fill="none" xmlns="http://www.w3.org/2000/svg">
<mask id="mask0_164_150" style="mask-type:alpha" maskUnits="userSpaceOnUse" x="0" y="0" width="83" height="32">
<path d="M69.5 28C44.7 36.8 14.1667 28.6667 2 23.5L0 0L65 3.5C76.8333 8 94.3 19.2 69.5 28Z" fill="#D9D9D9"/>
</mask>
<g mask="url(#mask0_164_150)">
<path d="M43.512 11.3361C43.0503 12.4783 42.5854 13.6205 41.9939 15.0821C43.3658 13.9282 44.4222 12.9271 45.6018 12.0893C46.5803 11.3758 47.5567 10.7028 48.9843 11.6407C49.7055 12.1178 50.9036 11.88 51.8905 11.9572C53.2867 12.0654 54.7053 12.1058 56.0855 12.2791C59.0789 12.6661 60.4767 15.1799 62.3168 17.096C62.5837 17.4591 62.9339 17.7529 63.3379 17.9528L62.4939 15.2268L63.0256 15.1357C65.2197 20.1987 65.8531 25.8013 64.8449 31.2264C64.744 30.8955 64.6799 30.5545 64.6539 30.2096C64.8109 25.5136 63.1903 21.4607 60.0675 17.9996C58.2425 15.9745 56.2159 14.5597 53.2035 14.6515C50.0224 14.7282 46.9706 14.9716 44.2668 16.8204C43.6161 17.2658 43.0843 17.8932 42.3163 18.5991C42.6764 18.7722 43.0479 18.9207 43.4281 19.0435C45.2904 19.4116 47.226 19.5201 48.9629 20.1826C50.4055 20.7517 51.6886 21.662 52.7023 22.8357C54.7694 25.2656 55.5208 28.2596 55.4402 31.448C55.4067 32.8544 55.2103 34.2584 55.1864 35.6622C55.1189 39.5538 53.1423 42.1215 49.7046 43.6743C48.5834 44.1796 47.4118 44.5693 46.2722 45.0078C47.0276 46.7381 47.1194 46.7806 52.0998 47.492L51.3664 48.1966L52.4958 48.4852C52.2175 48.5301 52.0873 48.5608 51.952 48.5694C51.5902 48.591 51.2213 48.5684 50.8609 48.6215C47.738 49.0839 44.9493 48.5007 42.0069 47.0877C39.2538 45.7725 37.9355 43.655 37.1843 41.2506C36.1126 37.7881 35.5462 34.0826 36.2745 30.4454C36.8783 27.608 37.6965 24.8205 38.722 22.1069C39.9467 18.75 41.424 15.4816 42.8056 12.1832C42.9685 11.8585 43.1537 11.5455 43.36 11.2465L43.512 11.3361ZM41.1443 39.6658C40.5579 40.9113 40.6316 41.0594 42.765 42.8876C42.8395 42.3082 42.9117 41.713 42.9748 41.2302L41.1443 39.6658ZM46.0856 25.1395L46.2109 22.7658L44.2794 24.0061L46.0856 25.1395Z" fill="#313231"/>
<path d="M28.7483 17.6568C28.9553 18.0723 29.1814 18.4826 29.3721 18.9098C29.7733 19.806 30.4289 20.6936 30.4836 21.6185C30.8315 26.0778 31.662 30.6033 29.179 34.8033C28.4904 35.9649 27.996 37.2498 27.3685 38.4429C26.0638 40.9394 24.3655 42.9886 21.3663 43.4826C21.0034 43.5369 20.6536 43.6577 20.3345 43.8389C16.682 46.0735 12.7408 45.1033 8.89604 44.8031C8.3433 44.7582 7.75689 44.2819 7.3145 43.8696C6.64046 43.2845 6.05807 42.6014 5.58681 41.8434C3.46881 38.0622 1.7594 34.0862 1.98961 29.6669C2.10521 27.4776 2.91511 25.3251 3.42923 23.0722C3.54371 23.6043 3.62003 24.1439 3.65759 24.6868C3.66534 27.5098 3.63243 30.3307 3.62142 33.1527C3.60697 36.8119 4.68852 40.1463 7.58948 42.4039C8.8125 43.356 10.7922 43.4009 12.4543 43.6988C13.9233 43.9312 15.4055 44.0702 16.892 44.1151C17.3424 44.1388 17.808 43.8749 18.6264 43.639C15.8874 42.5315 14.3063 40.9364 13.672 38.3971C13.1353 36.2079 12.0058 34.138 11.7915 31.9595C11.3204 27.1614 12.4145 22.4772 16.1236 19.2891C19.3039 16.5529 23.411 15.8069 27.6138 17.346C28.0047 17.4859 28.4102 17.5857 28.8054 17.7038L28.7483 17.6568ZM25.267 34.8256L25.6638 34.9124C26.1797 33.1615 28.1201 31.6331 26.2698 29.3746L25.267 34.8256ZM27.3603 23.8685L24.504 25.2199C25.36 25.6383 25.9402 26.1739 26.3257 26.0594C27.2211 25.7931 27.8156 25.1063 27.3603 23.8685Z" fill="#313231"/>
<path d="M28.7477 17.6567L28.8048 17.7036C27.5169 15.8417 26.509 13.6653 24.8519 12.2041C23.3149 10.8434 17.7501 11.1016 15.8366 10.16C15.6772 9.79407 18.8081 8.23134 18.7193 8.24861C17.4518 8.4953 16.2177 8.82216 14.9718 9.13585L15.1149 9.51348L19.2431 9.2579C16.2332 10.4883 13.162 11.5743 10.2624 13.0332C9.25393 13.5414 8.50573 14.8818 8.01041 16.0066C7.43719 17.2998 7.27793 18.7717 6.93779 20.1651L6.4904 20.085L7.27585 16.4947L6.88001 16.27C6.02745 17.6268 5.18954 19.0033 4.30686 20.3366C4.00942 20.7033 3.6765 21.0398 3.31296 21.341C3.0673 20.8263 2.48388 20.1745 2.6283 19.8152C3.95953 16.5203 4.85017 12.9576 8.12257 10.7939C8.9154 10.2713 9.7109 9.51981 10.6643 9.28162C21.2829 6.62142 12.8721 11.0071 14.061 9.10031C13.1072 11.4241 12.4553 8.32869 11.5015 10.6524C11.6935 10.8163 10.6211 9.86267 10.8132 10.0265C12.1539 9.285 14.0669 9.10689 15.4045 8.36524C15.4542 8.43373 15.0682 9.44829 15.1147 9.51661C14.8102 9.88001 14.3654 8.74004 14.061 9.10031C18.2991 6.40742 22.5089 7.39808 26.3412 9.71737C28.772 11.1974 30.3789 13.7285 30.802 17.1191C30.2001 16.1057 29.7592 15.3674 29.2866 14.5772C29.0849 15.7238 28.9052 16.6928 28.7477 17.6567Z" fill="#313231"/>
</g>
</svg>
