<svg width="22" height="75" viewBox="0 0 22 75" fill="none" xmlns="http://www.w3.org/2000/svg">
<mask id="mask0_164_163" style="mask-type:alpha" maskUnits="userSpaceOnUse" x="0" y="0" width="22" height="75">
<path d="M0 75V12.5L21.5 0L18.5 72L0 75Z" fill="#D9D9D9"/>
</mask>
<g mask="url(#mask0_164_163)">
<path d="M22.3397 39.1697C21.4717 39.4304 20.6025 39.6891 19.4916 40.0222C20.7849 40.2785 21.8455 40.4241 22.8689 40.7154C23.7286 40.9486 24.564 41.1992 24.6827 42.4499C24.7408 43.0833 25.4285 43.6614 25.8383 44.2632C26.4186 45.1141 27.0481 45.9467 27.5838 46.8184C28.739 48.7141 27.9397 50.6728 27.6869 52.6103C27.6014 52.9306 27.5939 53.2667 27.6651 53.5905L28.841 51.8519L29.1379 52.1151C27.2422 55.7036 24.3188 58.645 20.7419 60.5626C20.8854 60.3525 21.0516 60.1588 21.2375 59.9852C24.0044 57.9146 25.5843 55.1198 26.1334 51.7354C26.4558 49.7564 26.3351 47.9426 24.8964 46.2563C23.3887 44.4663 21.8449 42.8271 19.54 42.1262C18.9849 41.9578 18.3803 41.9413 17.6219 41.8254C17.6882 42.1117 17.7739 42.3932 17.8784 42.6679C18.5241 43.9058 19.3524 45.0664 19.7715 46.3679C20.1087 47.4576 20.1767 48.6127 19.9697 49.7344C19.5264 52.0385 18.1542 53.8472 16.2876 55.2681C15.4652 55.896 14.5691 56.4293 13.7526 57.0614C11.4885 58.8133 9.10572 58.8605 6.63295 57.6024C5.82711 57.1915 5.06441 56.6986 4.28843 56.2464C3.64315 57.476 3.66103 57.5483 5.54433 60.7334L4.80258 60.6367L5.15668 61.4176C5.00284 61.2786 4.92528 61.218 4.85813 61.1443C4.67922 60.9466 4.52247 60.7246 4.32621 60.5422C2.62398 58.963 1.67551 57.0945 1.13244 54.7559C0.62034 52.571 1.22884 50.8403 2.26286 49.3029C3.7566 47.0949 5.62225 45.0649 8.04442 43.8093C9.95035 42.8502 11.9263 42.0371 13.9553 41.377C16.445 40.5352 19.0001 39.879 21.5285 39.1541C21.7898 39.0982 22.0546 39.0605 22.3211 39.0413L22.3397 39.1697ZM4.99431 50.8461C4.00985 51.0827 3.95875 51.1931 3.89131 53.2584C4.25806 53.0346 4.63281 52.8021 4.93888 52.6162L4.99431 50.8461ZM15.6032 46.9977L17.023 45.9774L15.4226 45.4397L15.6032 46.9977Z" fill="#313231"/>
<path d="M11.9195 33.6064C11.7764 33.9164 11.645 34.2349 11.4876 34.5409C11.1579 35.1834 10.9503 35.968 10.4447 36.425C8.04599 38.6763 5.83134 41.2351 2.27888 41.7429C1.29548 41.8823 0.330765 42.1897 -0.64259 42.3786C-2.67546 42.7786 -4.63272 42.747 -6.29614 41.2534C-6.49428 41.0701 -6.72455 40.9249 -6.97538 40.8253C-9.93816 39.7576 -11.1948 37.0497 -12.7916 34.7054C-13.0202 34.3675 -13.0167 33.8119 -12.9837 33.3684C-12.9581 32.7124 -12.8341 32.0639 -12.6159 31.4447C-11.4208 28.4896 -9.92583 25.6793 -7.28407 23.778C-5.97467 22.837 -4.36685 22.3113 -2.83757 21.5697C-3.09022 21.8802 -3.36473 22.1723 -3.65901 22.4437C-5.27531 23.747 -6.90908 25.0261 -8.53344 26.3182C-10.6398 27.9936 -12.0555 30.1484 -12.0161 32.8517C-11.9997 33.9916 -11.1146 35.1483 -10.5208 36.2391C-9.97818 37.1889 -9.37597 38.1033 -8.71774 38.977C-8.52417 39.2464 -8.15851 39.392 -7.64655 39.7531C-8.27136 37.6719 -8.08354 36.0307 -6.9183 34.4984C-5.90908 33.1831 -5.24103 31.5826 -4.08961 30.4573C-1.55313 27.9792 1.63811 26.4518 5.1741 27.1132C8.20748 27.6792 10.5252 29.6926 11.5758 32.8124C11.6755 33.101 11.8048 33.3797 11.9189 33.6608L11.9195 33.6064ZM0.466057 39.5084L0.59884 39.7761C1.84092 39.2664 3.61076 39.6766 4.05539 37.5757L0.466057 39.5084ZM7.71656 35.668L5.62686 34.6509C5.78066 35.3346 5.74028 35.9139 5.98337 36.0824C6.54816 36.4736 7.21579 36.4988 7.71656 35.668Z" fill="#313231"/>
<path d="M11.9194 33.606L11.9188 33.6603C12.3946 32.0646 13.1797 30.4849 13.2556 28.8617C13.3292 27.3537 10.6207 24.2793 10.2805 22.7481C10.4171 22.4882 12.7544 23.5657 12.7037 23.5228C11.9789 22.909 11.2236 22.3512 10.4703 21.7806L10.3194 22.0365L12.3656 24.2877C10.2746 23.1268 8.23834 21.8642 6.06705 20.8716C5.31147 20.5267 4.19806 20.7141 3.32471 20.9475C2.31891 21.2136 1.40105 21.7994 0.445037 22.2453L0.285136 21.9518L2.70666 20.7506L2.65349 20.42C1.48263 20.5551 0.307271 20.7076 -0.863938 20.8146C-1.21121 20.8127 -1.55744 20.7765 -1.89759 20.7065C-1.71525 20.3287 -1.6097 19.694 -1.33707 19.6115C1.16607 18.8594 3.62021 17.7312 6.36743 18.6134C7.03213 18.8278 7.82935 18.9385 8.40471 19.376C14.8169 24.2451 8.43044 21.4368 10.0716 21.2417C8.29937 21.7636 9.77554 19.9652 8.0033 20.4871C7.99767 20.6727 8.05141 19.6186 8.04578 19.8042C9.08812 20.2323 10.0706 21.2481 11.1116 21.6744C11.0951 21.7344 10.3353 21.9797 10.3176 22.0379C9.96891 22.0303 10.4184 21.2506 10.0716 21.2417C13.5668 22.4345 14.9354 25.3059 15.3678 28.5721C15.637 30.6479 14.924 32.7346 13.1731 34.5374C13.4777 33.7257 13.6985 33.1331 13.9345 32.4983C13.1837 32.9101 12.545 33.2528 11.9194 33.606Z" fill="#313231"/>
<path d="M18.2258 62.0583C16.1893 64.4266 9.77356 65.1371 8.28724 62.986C11.837 63.6826 15.0965 63.4505 18.2258 62.0583Z" fill="#313231"/>
</g>
</svg>
