<svg width="138" height="130" viewBox="0 0 138 130" fill="none" xmlns="http://www.w3.org/2000/svg">
<path d="M63.157 35.0618C63.4988 36.6958 63.8369 38.3319 64.2735 40.4231C64.9474 38.0898 65.3814 36.1662 66.0771 34.3336C66.6404 32.7924 67.2318 31.2986 69.546 31.2774C70.7176 31.2705 71.8867 30.0993 73.0558 29.4418C74.7089 28.5106 76.336 27.4862 78.0201 26.6402C81.6813 24.8181 85.1504 26.5932 88.6667 27.3621C89.2411 27.5695 89.8568 27.6361 90.4622 27.5564L87.4563 25.1246L87.986 24.6211C94.2741 28.6649 99.2126 34.4931 102.17 41.3597C101.806 41.0634 101.477 40.7279 101.188 40.3593C97.8226 34.9553 92.9418 31.6159 86.8166 30.0757C83.2351 29.1727 79.8871 29.1087 76.5657 31.4842C73.0431 33.9696 69.7917 36.5453 68.1428 40.6654C67.7464 41.6576 67.621 42.7648 67.2889 44.1385C67.8249 44.0618 68.3549 43.9487 68.8756 43.8002C71.2492 42.8099 73.5096 41.4722 75.9643 40.9078C78.0173 40.4603 80.1481 40.5173 82.1742 41.0737C86.3334 42.2497 89.4373 45.0528 91.7513 48.7022C92.7744 50.3104 93.6122 52.0389 94.644 53.637C97.5031 58.068 97.215 62.4488 94.5169 66.7893C93.636 68.2037 92.6113 69.526 91.6593 70.8791C93.8146 72.2568 93.95 72.2354 100.092 69.2799L99.798 70.6261L101.287 70.099C101.008 70.3595 100.884 70.4923 100.738 70.604C100.347 70.9012 99.9152 71.154 99.5497 71.4855C96.3833 74.3613 92.8047 75.8082 88.4272 76.437C84.3365 77.0332 81.2557 75.6441 78.5968 73.5044C74.7791 70.4155 71.3468 66.6719 69.4234 62.0288C67.9629 58.3798 66.7815 54.6253 65.8891 50.7976C64.7357 46.0955 63.9334 41.3027 63.0007 36.5481C62.9392 36.0598 62.9116 35.5678 62.9182 35.0757L63.157 35.0618ZM81.8587 68.7339C82.138 70.578 82.3327 70.6892 86.1127 71.1378C85.7595 70.4295 85.3919 69.7051 85.0988 69.1142L81.8587 68.7339ZM76.4644 48.6572L74.8151 45.8909L73.5766 48.7437L76.4644 48.6572Z" fill="#313231"/>
<path d="M51.307 53.3114C51.8533 53.6229 52.4172 53.9141 52.9541 54.2511C54.0815 54.9572 55.4889 55.4618 56.248 56.4617C60.0028 61.2183 64.3507 65.6856 64.7237 72.2855C64.8249 74.1124 65.2375 75.9314 65.431 77.7476C65.8454 81.5416 65.4795 85.1289 62.4763 87.9469C62.1087 88.2817 61.8061 88.6815 61.5837 89.1262C59.158 94.3961 53.9904 96.2765 49.4364 98.8384C48.7805 99.2048 47.7612 99.111 46.9523 98.9806C45.7523 98.8304 44.5817 98.5008 43.4795 98.003C38.2438 95.3446 33.321 92.1587 30.247 87.0109C28.726 84.4597 28.0141 81.426 26.8936 78.5026C27.4237 79.0151 27.9166 79.5649 28.3684 80.1477C30.5063 83.3192 32.5967 86.519 34.7127 89.7036C37.4563 93.8331 41.1885 96.7704 46.1563 97.1235C48.251 97.2727 50.5131 95.8302 52.6086 94.9118C54.4372 94.0654 56.2103 93.104 57.9174 92.0333C58.4422 91.7204 58.7671 91.0722 59.5104 90.1894C55.5923 91.0088 52.6096 90.4058 49.9805 88.0261C47.7253 85.9669 44.8928 84.489 43.0086 82.1987C38.8595 77.1535 36.5581 71.056 38.3284 64.6702C39.8443 59.1919 43.9043 55.2547 49.7955 53.8172C50.341 53.6798 50.8728 53.4862 51.4066 53.3211L51.307 53.3114ZM60.3375 75.2612L60.8496 75.0596C60.1096 72.6998 61.141 69.516 57.355 68.3694L60.3375 75.2612ZM54.4296 61.3497L52.234 65.0251C53.5131 64.8503 54.57 65.0156 54.9175 64.5959C55.7244 63.6209 55.8755 62.3995 54.4296 61.3497Z" fill="#313231"/>
<path d="M51.3061 53.3115L51.4058 53.3213C48.5519 52.197 45.7761 50.5074 42.8088 50.1127C40.0526 49.7404 33.984 54.2279 31.1201 54.6114C30.6646 54.3198 33.0099 50.1995 32.9231 50.2858C31.6825 51.5195 30.54 52.8181 29.3742 54.1109L29.8201 54.428L34.2738 51.0268C31.8141 54.6817 29.1764 58.2205 27.0131 62.0495C26.2613 63.382 26.4301 65.455 26.7209 67.0946C27.0511 68.9825 27.982 70.7593 28.65 72.5841L28.0861 72.8314L26.2623 68.198L25.6473 68.2436C25.711 70.4138 25.8061 72.595 25.8182 74.7615C25.76 75.3985 25.639 76.0283 25.4571 76.6416C24.7923 76.2475 23.6441 75.9539 23.5356 75.4406C22.549 70.728 20.8643 66.0463 22.9157 61.1429C23.4139 59.9567 23.7425 58.5109 24.636 57.5237C34.5812 46.5209 28.4222 57.8007 28.3223 54.7578C29.0014 58.0927 25.933 55.1004 26.6121 58.4353C26.9518 58.4748 25.0255 58.2103 25.3653 58.2498C26.315 56.4041 28.3339 54.7608 29.28 52.9172C29.3876 52.9568 29.7184 54.3899 29.8223 54.4316C29.7536 55.0704 28.3932 54.1227 28.3223 54.7578C31.0614 48.5305 36.5469 46.4704 42.6095 46.1905C46.4618 46.023 50.1794 47.6599 53.2129 51.157C51.7711 50.4704 50.718 49.9719 49.5901 49.4389C50.2279 50.8816 50.7564 52.1078 51.3061 53.3115Z" fill="#313231"/>
<path d="M104.519 46.2136C108.545 50.3238 108.84 62.2109 104.658 64.6005C106.495 58.1949 106.582 52.176 104.519 46.2136Z" fill="#313231"/>
</svg>
