<svg width="79" height="67" viewBox="0 0 79 67" fill="none" xmlns="http://www.w3.org/2000/svg">
<path d="M42.7405 14.3789C42.5794 15.4419 42.4156 16.5053 42.2089 17.8655C43.1402 16.6089 43.8347 15.5456 44.6666 14.596C45.353 13.7926 46.0459 13.0241 47.4472 13.5317C48.1559 13.791 49.1248 13.347 49.9782 13.2131C51.1852 13.0228 52.3975 12.7704 53.6041 12.6386C56.2233 12.3622 57.9177 14.2135 59.8669 15.4682C60.1669 15.7225 60.5235 15.9011 60.9068 15.9892L59.6395 13.8457L60.0725 13.6609C62.9581 17.5153 64.6279 22.1431 64.8684 26.9519C64.7159 26.6914 64.5926 26.4149 64.5008 26.1274C63.6851 22.1094 61.4904 18.9967 58.1402 16.6898C56.1818 15.3396 54.1757 14.5481 51.6371 15.2348C48.9524 15.9427 46.411 16.7661 44.4895 18.8818C44.0271 19.3914 43.7025 20.0314 43.1932 20.7858C43.5339 20.86 43.8792 20.9109 44.2268 20.9384C45.882 20.8745 47.5469 20.5754 49.1552 20.7868C50.4948 20.9784 51.7679 21.4918 52.8656 22.2832C55.1112 23.9282 56.3541 26.3178 56.93 29.0405C57.1858 30.2411 57.3028 31.4726 57.5661 32.669C58.2952 35.9861 57.1363 38.5651 54.532 40.5779C53.6824 41.2334 52.7666 41.801 51.8879 42.4035C52.8788 43.7196 52.9653 43.7371 57.3367 43.3346L56.8565 44.0808L57.8735 44.0976C57.6463 44.1919 57.542 44.2443 57.4289 44.2789C57.1261 44.3704 56.8084 44.4258 56.5133 44.5437C53.9558 45.5672 51.4708 45.6357 48.6876 45.0309C46.0848 44.4709 44.5378 42.9398 43.4143 41.0507C41.805 38.3281 40.5753 35.2971 40.4586 32.0625C40.3977 29.5319 40.5289 27.0004 40.8511 24.4897C41.2123 21.3927 41.8058 18.3199 42.312 15.2408C42.3847 14.9322 42.4787 14.6291 42.5933 14.3336L42.7405 14.3789ZM46.4555 38.9051C46.2095 40.0809 46.302 40.1917 48.4823 41.3124C48.4285 40.8056 48.3695 40.2857 48.3255 39.8632L46.4555 38.9051ZM47.7145 25.5759L47.3412 23.5356L45.9523 24.9788L47.7145 25.5759Z" fill="#313231"/>
<path d="M31.4856 22.7279C31.7453 23.0387 32.0201 23.3413 32.2683 23.6653C32.79 24.345 33.5259 24.966 33.7592 25.7401C34.9556 29.455 36.5751 33.1287 35.3161 37.1956C34.9664 38.3208 34.8064 39.5114 34.5148 40.651C33.9118 43.0338 32.8843 45.1165 30.4383 46.1418C30.1411 46.2613 29.8686 46.4345 29.6344 46.6528C26.9856 49.2878 23.444 49.2606 20.1197 49.7827C19.6414 49.8563 19.0474 49.5705 18.5886 49.31C17.8982 48.9495 17.2658 48.4874 16.7126 47.9391C14.1506 45.1575 11.8961 42.1278 11.1984 38.33C10.8542 36.4483 11.1066 34.4574 11.0878 32.4412C11.2925 32.8697 11.4663 33.3123 11.6079 33.7656C12.185 36.1604 12.7271 38.5615 13.288 40.9592C14.0152 44.0682 15.6071 46.6801 18.5258 48.0102C19.7564 48.5713 21.4459 48.2094 22.917 48.1263C24.2109 48.0267 25.4972 47.8452 26.7681 47.5829C27.1552 47.5121 27.497 47.1939 28.1441 46.8283C25.5953 46.4417 23.9308 45.4072 22.8793 43.3799C21.9813 41.63 20.6042 40.1012 19.9821 38.2954C18.6126 34.3176 18.5947 30.1204 21.099 26.6646C23.2456 23.6993 26.5812 22.2361 30.4597 22.6933C30.8198 22.733 31.1843 22.7358 31.5436 22.7561L31.4856 22.7279ZM31.9999 38.0051L32.3543 37.9986C32.4384 36.4081 33.7767 34.7186 31.7497 33.1753L31.9999 38.0051ZM31.5627 28.2811L29.4112 30.0055C30.2224 30.1877 30.8231 30.525 31.1272 30.3499C31.8334 29.9429 32.1992 29.2398 31.5627 28.2811Z" fill="#313231"/>
<path d="M31.485 22.7278L31.5429 22.7561C30.0734 21.4359 28.7781 19.7921 27.0762 18.8866C25.4965 18.0422 20.825 19.3858 19.0104 18.9733C18.8011 18.6949 21.143 16.7356 21.0712 16.7682C20.0451 17.2338 19.0636 17.7606 18.0694 18.2787L18.2672 18.5703L21.7198 17.5191C19.4135 19.1718 17.0259 20.7143 14.8594 22.5387C14.106 23.1738 13.7418 24.4628 13.5486 25.5177C13.3234 26.7313 13.4857 28.0129 13.4785 29.2643L13.0825 29.2868L13.0238 26.0805L12.6423 25.9697C12.1928 27.2937 11.7597 28.6315 11.2799 29.9416C11.1015 30.313 10.8869 30.6659 10.6392 30.9951C10.3266 30.6078 9.69969 30.1724 9.74967 29.8382C10.2139 26.7724 10.2499 23.5681 12.5905 21.0702C13.1578 20.4663 13.6813 19.6677 14.4425 19.2729C22.9184 14.869 16.6652 20.2914 17.2891 18.4326C16.949 20.5978 15.7701 18.1021 15.4301 20.2673C15.6262 20.3676 14.5232 19.7748 14.7193 19.8751C15.7075 18.9747 17.2954 18.4369 18.281 17.5371C18.337 17.5852 18.2143 18.5244 18.2677 18.573C18.0826 18.943 17.4747 18.0652 17.2891 18.4326C20.3424 15.2903 24.1161 15.2805 27.8378 16.4748C30.2003 17.2399 32.0758 19.0637 33.1202 21.8563C32.4044 21.1177 31.881 20.5801 31.3201 20.0048C31.3807 21.0189 31.4239 21.8778 31.485 22.7278Z" fill="#313231"/>
<path d="M65.1947 30.4094C66.7003 33.7953 64.2054 41.0354 61.1442 41.5371C63.6932 38.0845 65.099 34.4716 65.1947 30.4094Z" fill="#313231"/>
</svg>
