<svg width="81" height="113" viewBox="0 0 81 113" fill="none" xmlns="http://www.w3.org/2000/svg">
<mask id="mask0_72_9589" style="mask-type:alpha" maskUnits="userSpaceOnUse" x="0" y="0" width="81" height="113">
<path d="M1.24651e-06 55C5.19996 68.2 4.83332 91.8334 4 102C30.3333 108 78.1 117.9 58.5 109.5C38.9 101.1 46 65 52 48C63.8333 48 84.2 46.9 71 42.5C57.8 38.0999 38.8333 44.3333 31 48C27.8 20.8 62.6667 28 80.5 35C79.5 21.9999 52.5 23 47.5 23C43.5 23 41.5 7.99999 41 0.499999C31.8333 0.833332 13.9 2.6 15.5 7C17.5 12.5 14 42.5 13.5 48C13.1 52.4 4.33333 54.5 1.24651e-06 55Z" fill="#D9D9D9"/>
</mask>
<g mask="url(#mask0_72_9589)">
<path d="M28.5186 43.519C28.5958 44.754 28.6701 45.9902 28.7682 47.5708C29.5104 45.9306 30.0332 44.5655 30.7383 43.2949C31.3151 42.2241 31.9077 41.191 33.6077 41.4213C34.468 41.5407 35.4501 40.8056 36.3776 40.4475C37.6892 39.9399 38.9917 39.3612 40.3171 38.9195C43.1966 37.9716 45.553 39.6424 48.051 40.58C48.4504 40.7931 48.895 40.9074 49.3476 40.9132L47.4007 38.8099L47.8428 38.4968C52.0264 42.1314 55.0303 46.9316 56.4702 52.2832C56.2353 52.0273 56.0294 51.7462 55.8562 51.445C53.9615 47.1231 50.7355 44.1548 46.4055 42.3742C43.8739 41.3313 41.4245 40.9288 38.7356 42.3186C35.8873 43.7678 33.2284 45.3121 31.5811 48.1595C31.1849 48.8453 30.9753 49.6443 30.5858 50.6168C30.9871 50.6174 31.388 50.5908 31.7857 50.5372C33.6323 50.0628 35.4326 49.3215 37.2934 49.1682C38.847 49.058 40.4042 49.326 41.8315 49.9495C44.7579 51.254 46.7372 53.6401 48.0472 56.5633C48.6269 57.8517 49.058 59.2088 49.6452 60.4908C51.272 64.0452 50.5953 67.2284 48.1549 70.1261C47.3584 71.0702 46.4662 71.9314 45.6241 72.8229C47.0589 74.0626 47.1605 74.0613 51.9805 72.5455L51.6217 73.5018L52.77 73.2733C52.5373 73.4347 52.4327 73.5191 52.3139 73.5855C51.9955 73.7621 51.6516 73.9016 51.3482 74.106C48.7198 75.8794 45.9408 76.5607 42.6626 76.5571C39.5982 76.5599 37.4855 75.2136 35.7622 73.3614C33.2896 70.6898 31.1692 67.5789 30.2513 63.9683C29.5675 61.1362 29.0995 58.2563 28.8515 55.3533C28.5048 51.7813 28.4253 48.1799 28.2461 44.5928C28.2528 44.228 28.2849 43.8642 28.342 43.5038L28.5186 43.519ZM38.6619 70.2082C38.671 71.5907 38.802 71.693 41.5274 72.4236C41.3436 71.8665 41.1508 71.296 40.9986 70.8313L38.6619 70.2082ZM36.8371 54.9064L35.921 52.7018L34.7094 54.6631L36.8371 54.9064Z" fill="#313231"/>
<path d="M17.8865 55.6487C18.2543 55.9353 18.637 56.2088 18.9951 56.5131C19.7472 57.1509 20.7261 57.6706 21.1768 58.4847C23.4261 62.3731 26.1414 66.1123 25.714 70.9938C25.5941 72.3447 25.7036 73.723 25.6527 75.076C25.5536 77.9034 24.9042 80.4963 22.4016 82.2446C22.0964 82.4512 21.8319 82.7124 21.6215 83.015C19.2822 86.6234 15.2913 87.4541 11.6783 88.8498C11.1582 89.0489 10.4204 88.8718 9.84085 88.6903C8.97646 88.4526 8.15265 88.0865 7.39694 87.6042C3.83827 85.0977 0.56521 82.2376 -1.14314 78.1345C-1.98802 76.1013 -2.18807 73.8001 -2.69956 71.5364C-2.36505 71.9687 -2.06187 72.4244 -1.79233 72.9C-0.560829 75.4538 0.632914 78.0233 1.84699 80.5843C3.42109 83.9052 5.84712 86.4566 9.45415 87.2432C10.975 87.5752 12.7878 86.7572 14.4226 86.3061C15.854 85.8794 17.257 85.3624 18.623 84.7583C19.0413 84.5845 19.3485 84.1434 19.9876 83.5747C17.0261 83.7596 14.902 83.0005 13.226 80.9754C11.7902 79.2252 9.86923 77.8401 8.73023 75.9597C6.22226 71.8177 5.18157 67.1 7.15857 62.6033C8.85259 58.7452 12.2493 56.2881 16.724 55.8593C17.1387 55.8164 17.5494 55.7309 17.9586 55.6664L17.8865 55.6487ZM22.18 72.7109L22.5771 72.6174C22.2849 70.8076 23.3797 68.5814 20.724 67.3381L22.18 72.7109ZM19.3235 61.8775L17.3224 64.3406C18.2793 64.3483 19.0371 64.5818 19.3367 64.3109C20.0322 63.6813 20.2728 62.8013 19.3235 61.8775Z" fill="#313231"/>
<path d="M17.8858 55.6488L17.9579 55.6665C15.9836 54.5385 14.1267 53.0042 11.9918 52.3994C10.0092 51.8335 5.08048 54.4811 2.93872 54.4582C2.63556 54.1959 4.79381 51.4222 4.72093 51.4764C3.67978 52.2496 2.70366 53.081 1.71109 53.9056L2.00455 54.1856L5.63317 52.1634C3.44041 54.5835 1.12944 56.8995 -0.864339 59.4787C-1.55744 60.3764 -1.65377 61.9152 -1.61456 63.1489C-1.57286 64.569 -1.07869 65.9714 -0.782446 67.381L-1.22244 67.5026L-2.06823 63.9097L-2.52428 63.8778C-2.70802 65.4767 -2.86999 67.087 -3.09122 68.6776C-3.2016 69.1388 -3.35724 69.588 -3.55586 70.0186C-4.00168 69.6588 -4.81287 69.3215 -4.8379 68.9334C-5.06117 65.3713 -5.79976 61.7578 -3.77399 58.3784C-3.28252 57.5611 -2.88787 56.5353 -2.12752 55.906C6.33727 48.8905 0.620742 56.5114 0.87067 54.2684C1.01462 56.7871 -0.918582 54.266 -0.774632 56.7846C-0.529595 56.8497 -1.91464 56.4511 -1.66961 56.5162C-0.776792 55.263 0.878893 54.2718 1.7688 53.0199C1.84353 53.0603 1.93394 54.1468 2.00576 54.1885C1.88748 54.6498 0.990154 53.8101 0.87067 54.2684C3.54163 49.9908 7.78472 49.0622 12.2622 49.5008C15.1061 49.7871 17.6596 51.3829 19.5135 54.2707C18.5287 53.6138 17.8091 53.1362 17.0382 52.6255C17.3529 53.7516 17.6104 54.7073 17.8858 55.6488Z" fill="#313231"/>
<path d="M57.678 56.0937C60.1952 59.5367 59.1488 68.2887 55.827 69.5975C57.8551 65.0934 58.5581 60.687 57.678 56.0937Z" fill="#313231"/>
</g>
</svg>
