<svg width="180" height="171" viewBox="0 0 180 171" fill="none" xmlns="http://www.w3.org/2000/svg">
<path d="M32.4778 77.3511C27.7679 60.2787 33.1662 85.0225 33.6281 91.5238C34.3662 101.914 37.6539 117.937 33.9502 127.968C33.4744 129.257 31.07 127.613 32.7998 127.094C51.1757 121.581 72.9337 122.162 91.8376 120.422C106.97 119.028 122.244 118.586 137.347 117.016C142.364 116.495 141.394 115.241 139.326 112.139" stroke="black" stroke-width="1.77825" stroke-linecap="round"/>
<path d="M46.5585 65.7549C37.0442 56.7692 73.3299 61.2849 77.3888 61.2454C94.347 61.0802 111.673 60.3542 128.512 62.8099C132.884 63.4475 138.325 63.6552 141.258 59.6809C145.954 53.3186 140.746 111.606 145.123 113.795" stroke="black" stroke-width="1.77825" stroke-linecap="round"/>
<path d="M34.1342 73.2094C34.3889 83.4007 35.9996 93.5583 36.4349 103.764C37.0448 118.059 34.6911 86.1213 34.1341 82.1824C31.2041 61.4624 30.7018 83.6825 30.913 92.0757C31.1329 100.818 32.0056 109.46 32.7077 118.166C32.7085 118.177 31.173 101.274 31.005 96.2171C30.8876 92.6825 29.614 64.8495 30.1768 82.2284C30.5857 94.8543 31.7357 132.661 32.5236 120.053C33.5212 104.09 33.0345 88.0472 34.0881 72.2431C34.4512 66.7973 33.3058 61.7197 33.3058 56.3678C33.3058 55.5702 32.7418 58.1966 33.3058 58.7606C35.7176 61.1721 59.4224 57.2119 62.8938 57.012C77.4876 56.1715 92.0727 55.2821 106.654 54.2511C112.169 53.8611 126.537 48.9996 123.22 53.4228C119.312 58.6335 94.6659 59.4068 88.7085 59.7729C64.3093 61.2723 107.783 57.8659 112.913 57.9323C128.793 58.1376 146.191 60.3403 161.965 57.4721C163.439 57.2041 159.044 56.7226 157.548 56.6439C153.325 56.4216 153.298 60.6712 152.578 64.8346C151.36 71.8738 152.467 119.437 148.252 119.593C145.368 119.7 142.513 121.11 139.786 121.894C119.647 127.681 97.1095 126.308 76.4223 127.093C72.746 127.233 38.2179 130.731 55.7614 130.821C62.8954 130.857 70.0792 130.512 77.2046 130.176C87.1364 129.709 66.4098 130.269 66.0229 130.269C56.9879 130.269 29.941 129.088 38.9658 128.658C59.7352 127.669 80.4678 126.038 101.133 123.734C103.169 123.507 128.325 119.581 119.999 120.789C106.578 122.738 93.3772 124.563 79.7814 124.563C66.0724 124.563 107.221 124.108 120.873 122.86C126.467 122.349 145.35 123.14 149.909 118.581C156.383 112.107 145.116 89.1474 140.154 84.8053" stroke="black" stroke-width="1.77825" stroke-linecap="round"/>
<path d="M1.00312 73.2092C1.00312 76.1597 0.960874 65.0901 1.18717 63.638C3.74157 47.2464 20.3197 32.6832 35.0545 27.1938C43.0828 24.2029 30.3818 23.5142 27.554 23.6966C18.6988 24.2679 9.55867 30.1388 5.69667 38.1455C1.73124 46.3665 1.33264 56.9474 2.24549 65.8928C2.39362 67.3443 3.13485 73.4376 3.67203 68.4236C5.37227 52.5535 8.15 39.8022 22.5383 30.3228C26.0849 27.9862 45.4048 19.9841 30.2689 24.5249C21.2612 27.2272 15.2096 33.6808 9.88412 41.1365C8.7336 42.7472 3.35206 53.6958 7.16916 46.9804C11.5187 39.3283 30.6176 18.9143 28.9805 10.2601C28.2754 6.53321 17.4237 -1.04038 27.6 6.85497C30.2031 8.8746 52.0421 23.084 51.528 25.9974C51.1669 28.0435 42.7288 29.8849 40.9905 30.737C34.113 34.1083 27.7696 39.0774 21.802 43.8514C12.6371 51.1833 42.5378 30.84 48.2149 20.5676C51.0565 15.426 30.7738 3.11964 26.2196 1.51719C16.8071 -1.79464 43.8293 11.5967 50.5157 19.0031C56.4954 25.6267 53.1109 28.0334 46.0982 32.6236C41.3714 35.7175 15.2597 44.612 29.1645 45.876" stroke="black" stroke-width="1.77825" stroke-linecap="round"/>
<path d="M176.598 116.279C175.524 105.543 172.795 113.455 171.628 118.764C168.533 132.848 153.014 146.412 140.338 151.757C134.373 154.273 129.402 152.514 137.761 149.042C152.526 142.909 178.623 127.012 178.623 111.586C178.623 101.495 178.679 106.117 174.113 112.966" stroke="black" stroke-width="1.77825" stroke-linecap="round"/>
<path d="M140.154 141.957C136.127 142.36 133.487 146.832 131.227 149.642C128.223 153.376 124.999 156.978 121.425 160.179C120.137 161.333 115.323 161.89 116.87 162.664C123.865 166.162 133.44 167.322 141.074 168.784C143.555 169.259 148.522 170.027 143.099 169.106C125.439 166.107 111.939 160.811 128.005 144.166C146.018 125.504 125.62 147.093 122.116 155.854C114.845 174.03 147.104 158.388 155.523 166.805C160.008 171.29 142.893 165.189 136.795 163.446C131.514 161.937 123.916 160.139 119.815 156.038C117.826 154.049 123.572 148.413 124.508 147.295C127.726 143.451 135.438 131.369 134.816 136.343C134.142 141.734 110.726 160.875 128.558 149.411" stroke="black" stroke-width="1.77825" stroke-linecap="round"/>
<path d="M174.942 114.624C174.942 114.408 170.631 121.119 169.88 122.17C162.975 131.837 135.067 154.499 143.467 146.098" stroke="black" stroke-width="1.77825" stroke-linecap="round"/>
<mask id="mask0_290_540" style="mask-type:alpha" maskUnits="userSpaceOnUse" x="35" y="56" width="115" height="65">
<rect x="35" y="56" width="114.345" height="64.3882" fill="#D9D9D9"/>
</mask>
<g mask="url(#mask0_290_540)">
<path d="M8.01218 102.423C7.91439 100.663 5.52317 99.0557 4.30875 97.9918C0.70538 94.8352 -2.23487 91.3413 -4.93401 87.388C-6.23754 85.4788 -7.16453 83.4014 -7.81445 81.184C-8.53578 78.723 -6.87427 79.0632 -4.98149 79.0632C2.11594 79.0632 9.10617 80.1856 16.1787 80.5826C21.604 80.887 27.0581 80.4854 32.4168 79.5697C33.9997 79.2992 37.3708 78.4062 38.4626 77.1324C38.7279 76.8228 36.7191 76.4047 36.6267 76.3727C35.2155 75.8836 33.9175 75.0598 32.5435 74.4735C29.4449 73.1515 27.0228 72.0764 24.8042 69.4881C22.7287 67.0666 20.4913 64.7264 18.5211 62.2237C17.8574 61.3807 17.5211 60.95 17.3974 59.9605C17.2443 58.7359 17.117 58.7632 18.616 58.6152C22.0754 58.2735 25.6888 58.5519 29.1566 58.5519C34.9823 58.5519 40.7638 58.607 46.5659 57.9821C49.5688 57.6587 52.6444 57.1668 55.5712 56.4153C59.0112 55.5321 62.5647 55.1955 66.0326 54.4053C71.794 53.0926 77.6059 51.8063 83.3469 50.4487C86.3437 49.74 89.0754 48.8891 92.1782 48.866C96.1922 48.836 100.175 48.881 104.143 49.5782C109.608 50.5382 113.93 53.8283 118.767 56.2095C120.975 57.2967 123.017 58.7474 125.319 59.6281C128.697 60.9206 132.389 61.8154 135.891 62.6985C140.347 63.8222 144.545 65.6977 148.98 66.7817C152.135 67.553 155.279 68.3619 158.444 69.0924C160.463 69.5583 162.506 69.8468 164.538 70.2161C165.582 70.406 164.142 71.6619 163.778 72.0045C160.478 75.1134 155.578 76.7989 151.433 78.4301C145.805 80.6449 139.798 81.5488 134.04 83.3206C132.961 83.6525 132.35 84.1307 131.412 84.6183C130.991 84.8376 127.939 85.4278 129.086 85.0457" stroke="black" stroke-width="1.51317" stroke-linecap="round"/>
<path d="M139.342 82.4824C139.857 83.2794 140.905 83.6886 141.684 84.1917C143.309 85.242 145.015 86.2551 146.764 87.088C149.387 88.3369 152.135 89.0126 154.962 89.6044C158.223 90.2869 161.252 91.5879 164.411 92.6115C167.277 93.5402 170.241 94.0906 173.179 94.7322C173.543 94.8117 174.852 94.8184 174.936 95.3178C175.088 96.2332 174.021 97.3305 173.559 98.0242C172.583 99.4874 171.61 100.89 170.457 102.218C165.392 108.05 159.956 113.863 153.601 118.251C150.814 120.175 148.011 122.355 145.451 124.581C142.838 126.853 139.657 128.423 136.778 130.342" stroke="black" stroke-width="1.51317" stroke-linecap="round"/>
<path d="M15.1338 113.534C16.9843 113.702 18.9866 115.184 20.499 116.161C22.7428 117.611 24.9526 119.089 27.4469 120.086C30.6565 121.37 34.0302 122.002 37.1803 123.457C42.8375 126.072 48.625 128.321 54.2572 130.975C63.1237 135.153 73.3255 135.616 82.9351 136.04" stroke="black" stroke-width="1.51317" stroke-linecap="round"/>
<path d="M1.17505 109.26C3.94367 108.997 6.71416 108.34 9.4049 107.693C21.1144 104.878 32.6504 101.539 44.1918 98.1499" stroke="black" stroke-width="1.51317" stroke-linecap="round"/>
<path d="M46.7555 114.389C46.169 115.813 44.6322 117.15 43.6219 118.187C39.7681 122.143 35.6992 125.762 31.0713 128.791C27.0609 131.416 22.8097 133.438 18.505 135.517C16.7514 136.364 14.9909 137.417 13.1398 138.034" stroke="black" stroke-width="1.51317" stroke-linecap="round"/>
<path d="M117.691 118.662C119.912 120.812 121.964 123.446 121.964 126.638" stroke="black" stroke-width="1.51317" stroke-linecap="round"/>
<path d="M127.946 111.255C131.287 113.305 133.851 115.876 137.584 117.364C140.303 118.447 143.124 119.163 145.893 120.086" stroke="black" stroke-width="1.51317" stroke-linecap="round"/>
<path d="M139.911 107.552C143.266 110.988 148.83 112.03 153.285 113.091C158.33 114.292 163.238 114.959 168.399 114.959" stroke="black" stroke-width="1.51317" stroke-linecap="round"/>
<path d="M89.2029 74.2207C91.6958 79.345 91.4819 85.4484 91.4819 91.0286" stroke="black" stroke-width="1.51317" stroke-linecap="round"/>
<path d="M94.9006 79.9175C96.1461 84.0934 97.0221 88.2661 97.4171 92.6104C97.4774 93.2737 97.5029 93.3917 97.1797 93.8766" stroke="black" stroke-width="1.51317" stroke-linecap="round"/>
<path d="M93.1913 53.4243C94.5579 52.5133 97.5254 53.547 98.9205 53.8517C100.832 54.2692 101.819 54.93 103.162 56.2731" stroke="black" stroke-width="1.51317" stroke-linecap="round"/>
<path d="M59.0417 113.487C66.0943 110.771 73.4352 108.175 80.9993 107.403" stroke="black" stroke-width="1.51317" stroke-linecap="round"/>
<path d="M67.7871 117.574C68.843 117.478 70.0353 116.204 70.7655 115.578C72.9446 113.709 74.9184 111.628 77.1975 109.875" stroke="black" stroke-width="1.51317" stroke-linecap="round"/>
<path d="M74.1559 123.848C77.7085 120.517 80.9283 116.864 84.7069 113.772" stroke="black" stroke-width="1.51317" stroke-linecap="round"/>
<path d="M103.052 111.965C105.665 113.598 106.834 116.747 108.185 119.38" stroke="black" stroke-width="1.51317" stroke-linecap="round"/>
<path d="M101.531 108.449C104.547 109.104 107.517 110.547 110.255 111.935C112.288 112.965 114.376 114.049 116.075 115.578" stroke="black" stroke-width="1.51317" stroke-linecap="round"/>
<path d="M103.052 106.928C105.224 106.483 107.33 106.958 109.337 107.826C112.02 108.987 114.67 110.364 117.12 111.966" stroke="black" stroke-width="1.51317" stroke-linecap="round"/>
<path d="M85.1816 114.532C86.598 113.177 88.5328 112.297 90.3251 111.554C91.7401 110.968 93.2587 110.615 94.7504 110.302C95.4644 110.153 96.8504 109.816 97.3486 110.492M99.3078 121.36C98.5833 121.972 97.8757 122.414 97.0106 122.802C96.312 123.115 95.5553 123.614 94.8296 123.837" stroke="black" stroke-width="1.51317" stroke-linecap="round"/>
<path d="M98.2992 120.045C98.7229 120.57 99.0996 121.129 99.5138 121.661C99.694 121.893 100.149 122.291 100.195 122.612C100.237 122.903 100.295 123.172 100.295 123.467" stroke="black" stroke-width="1.51317" stroke-linecap="round"/>
<path d="M55.6199 85.5415C56.2496 85.559 56.5075 85.7807 57.0615 86.0115C57.7611 86.303 58.475 86.5474 59.1791 86.8248C60.3491 87.2856 61.4214 87.9276 62.5852 88.3931C63.2747 88.6689 63.9139 89.1014 64.6078 89.3965C65.5223 89.7854 66.4179 90.2146 67.3327 90.6005C69.242 91.406 71.3724 91.7954 73.4056 92.1531C74.5792 92.3595 75.7327 92.6463 76.8962 92.9029C77.6791 93.0756 78.482 93.1392 79.2567 93.3412C80.9834 93.7917 82.7834 93.9232 84.5375 94.239C86.0229 94.5064 87.5324 94.7626 89.0261 94.973C90.1231 95.1275 91.0888 95.5222 92.2052 95.5222C95.9094 95.5222 99.466 94.5954 103.015 93.6211C104.302 93.268 105.517 92.7686 106.77 92.3115C108.062 91.8401 109.452 91.5301 110.699 90.9385C111.566 90.5267 112.498 90.2371 113.402 89.9193C114.455 89.5495 115.411 88.9832 116.46 88.6202C118.082 88.0589 119.704 87.5004 121.355 87.0096C122.412 86.6953 123.378 86.0618 124.418 85.7105C125.412 85.375 126.414 85.0749 127.386 84.686" stroke="black" stroke-width="1.51317" stroke-linecap="round"/>
<path d="M71.8749 88.0127C72.8361 88.1042 73.839 88.7745 74.7159 89.1322C77.672 90.338 80.8819 90.772 83.9309 91.6776C85.5042 92.1448 86.8089 92.9667 88.3034 93.5734C89.8476 94.2002 91.3325 94.4036 92.9769 94.5714" stroke="black" stroke-width="1.51317" stroke-linecap="round"/>
<path d="M111.227 87.5371C110.847 87.8413 110.361 88.0624 109.939 88.287C107.703 89.4765 105.447 90.2663 103.042 91.0541C99.0776 92.3528 95.2291 93.8691 91.1707 94.8563" stroke="black" stroke-width="1.51317" stroke-linecap="round"/>
<path d="M66.5515 91.3394C66.5515 92.2047 67.1944 92.7955 67.3859 93.5995C67.4824 94.0051 67.9861 94.7106 68.3206 94.9937C68.85 95.4416 69.3746 95.585 69.9787 95.9072C71.3195 96.6223 72.8376 96.8151 74.3143 96.5198C75.7221 96.2382 77.987 96.0053 78.5283 94.3811" stroke="black" stroke-width="1.51317" stroke-linecap="round"/>
<path d="M100.581 94.6659C101.337 95.3795 102.293 96.3204 103.317 96.567C104.979 96.9677 106.792 97.1133 108.471 96.6621C108.993 96.5215 109.697 96.471 110.102 96.0653C110.59 95.5777 111.022 95.0372 111.491 94.5497C112.186 93.8278 112.742 92.6985 112.938 91.7192" stroke="black" stroke-width="1.51317" stroke-linecap="round"/>
<path d="M71.1142 92.9554C70.7961 92.9554 71.2347 93.2203 71.3624 93.2353C71.4745 93.2485 72.3491 93.1619 71.9591 93.0505C71.7846 93.0006 70.312 92.7152 71.0297 93.3304C71.5213 93.7518 71.9089 93.0027 71.5472 92.6703C71.4121 92.5461 70.654 92.2017 70.4699 92.4062C70.2588 92.6408 70.5527 92.978 70.734 93.0505" stroke="black" stroke-width="1.51317" stroke-linecap="round"/>
<path d="M103.622 93.906C103.663 94.3177 104.383 94.7899 104.383 94.1701C104.383 93.7545 103.293 93.5074 103.622 94.0011" stroke="black" stroke-width="1.51317" stroke-linecap="round"/>
<path d="M85.9426 100.94C85.9742 101.193 86.0753 102.451 86.5341 102.096C86.8702 101.836 87.1272 101.203 87.2259 101.948C87.2506 102.136 87.3712 103.409 87.4477 103.305C87.6597 103.019 87.9075 102.352 88.2767 102.239C88.4369 102.189 88.5389 102.845 88.583 102.957C88.6781 103.199 88.9448 102.706 89.0372 102.64C89.1864 102.534 89.309 103.626 89.4596 103.739C89.7901 103.986 90.3151 101.696 90.3151 102.909C90.3151 103.362 90.3104 103.815 90.3362 104.267C90.347 104.454 90.3301 104.949 90.463 104.816C90.6275 104.651 90.7493 104.065 90.8221 103.886C91.019 103.402 91.2167 102.864 91.5139 102.429C91.7153 102.134 92.0088 103.744 92.0631 103.966C92.1817 104.449 92.221 104.295 92.4063 103.934C92.4562 103.837 92.6514 103.279 92.6915 103.68C92.7146 103.912 92.7787 105.5 92.9608 105.075C93.0316 104.909 93.5224 103.484 93.716 103.527C93.8857 103.565 94.0633 104.933 94.1173 105.133C94.2838 105.749 94.7677 104.322 94.8249 104.203C94.9268 103.991 95.3537 102.539 95.5642 103.137C96.0007 104.376 95.8085 102.83 96.2719 102.788C96.6337 102.755 96.865 102.256 97.1485 102.07C97.61 101.767 97.8056 102.835 97.9142 103.094C98.252 103.9 98.3394 102.987 98.4475 102.577C98.5125 102.33 98.6595 102.071 98.6799 101.816C98.6963 101.612 98.8891 101.453 98.87 101.204C98.8403 100.818 98.1836 100.263 97.9617 100.021C97.4151 99.4255 96.7772 98.942 96.2085 98.3732C95.7927 97.9575 95.4793 97.517 95.1629 97.0425" stroke="black" stroke-width="1.51317" stroke-linecap="round"/>
<path d="M85.5622 97.0425C85.381 97.3445 85.1235 97.5836 84.8335 97.7818C83.7332 98.5337 82.4758 99.1029 81.2531 99.6195C79.261 100.461 77.2565 101.336 75.1908 101.98C72.7576 102.739 70.3088 102.894 67.7871 103.126" stroke="black" stroke-width="1.51317" stroke-linecap="round"/>
<path d="M100.296 99.4189C102.568 100.771 104.817 102.144 107.139 103.411" stroke="black" stroke-width="1.51317" stroke-linecap="round"/>
<path d="M102.387 103.697C105.217 104.425 108.024 105.115 110.905 105.651C113.551 106.143 115.863 106.561 118.541 106.702C121.793 106.873 124.927 106.289 128.146 105.978" stroke="black" stroke-width="1.51317" stroke-linecap="round"/>
<path d="M88.6989 96.8527C89.3739 96.8122 90.0699 96.9448 90.732 97.0375C92.3409 97.263 93.9444 97.5248 95.5533 97.7504C96.0574 97.8211 96.5554 97.8983 97.0636 97.8983" stroke="black" stroke-width="1.51317" stroke-linecap="round"/>
<path d="M91.2653 97.5176C91.1425 97.5176 91.0246 97.5281 90.9062 97.5651C90.7674 97.6085 90.8719 97.6048 91.0224 97.6179C91.8123 97.6866 92.6073 97.7156 93.3987 97.7605C93.4208 97.7617 95.0464 97.7243 94.2225 98.0509C92.9785 98.5443 91.5315 98.4681 90.2197 98.4681C90.1903 98.4681 88.989 98.4124 89.6811 98.4892C90.6743 98.5996 91.6783 98.7454 92.6489 98.9856C93.3858 99.1681 93.8536 99.5137 92.8812 99.5137" stroke="black" stroke-width="1.51317" stroke-linecap="round"/>
<path d="M87.2794 102.994C88.6503 104.007 89.7494 104.839 91.4557 105.029" stroke="black" stroke-width="1.51317" stroke-linecap="round"/>
<path d="M87.2794 102.566C87.6037 102.944 87.9288 103.309 88.3265 103.613C88.8453 104.011 89.2821 104.045 89.8494 104.28" stroke="black" stroke-width="1.51317" stroke-linecap="round"/>
<path d="M85.9948 102.78C87.5132 103.919 89.3086 105.288 91.2419 105.564" stroke="black" stroke-width="1.51317" stroke-linecap="round"/>
<path d="M92.4196 104.922C94.5517 104.909 96.6204 104.729 98.7375 104.494" stroke="black" stroke-width="1.51317" stroke-linecap="round"/>
<path d="M96.0608 104.922C95.3367 105.387 94.0279 105.128 93.2053 105.136C92.4602 105.144 91.7713 105.35 92.9554 105.35" stroke="black" stroke-width="1.51317" stroke-linecap="round"/>
<path d="M93.3836 105.35C94.134 105.238 94.7691 105.007 95.2992 104.464C95.7167 104.036 96.5732 103.018 97.2624 103.018C97.4293 103.018 96.0859 104.649 95.9655 104.779C95.7597 105.002 95.0757 105.581 95.3468 105.445C95.6742 105.282 95.9855 104.951 96.2511 104.708C96.4572 104.519 97.317 103.697 97.2803 103.744C96.7702 104.396 95.9236 104.867 95.2457 105.309C94.7685 105.619 94.0837 106.228 93.455 106.028C93.1867 105.943 92.9966 105.758 92.7649 105.612C92.3406 105.345 91.7077 105.357 91.23 105.35C90.7711 105.344 91.2849 105.322 91.4025 105.422C91.6143 105.601 91.7297 105.861 91.8368 106.106C92.0897 106.684 92.0986 107.503 92.0986 108.134C92.0986 108.186 92.0587 108.605 92.17 108.474C92.6729 107.879 92.7201 107.025 93.0445 106.344C93.0502 106.332 93.2765 107.576 93.2765 107.819C93.2765 108.081 93.2765 107.191 93.2765 107.034C93.2765 106.746 93.2765 107.609 93.2765 107.896C93.2765 108.543 93.3092 108.085 93.2289 107.742C93.1685 107.483 92.3005 106.029 92.2533 106.153C92.1277 106.483 92.3851 107.102 92.4079 107.45C92.443 107.986 92.4256 108.521 92.4734 109.057C92.5099 109.466 92.5269 109.865 92.5269 110.276C92.5269 110.515 92.5269 109.398 92.5269 109.217C92.5269 108.672 92.5269 108.127 92.5269 107.581C92.5269 106.813 92.9847 109.059 93.0564 109.824C93.0707 109.976 93.0453 110.387 93.1456 110.538C93.3079 110.781 93.0485 109.958 92.9553 109.681C92.5175 108.379 91.9077 107.099 91.2895 105.874C90.9217 105.145 90.3921 104.642 89.8736 104.041C89.1162 103.164 87.9103 102.733 86.9585 102.114C86.8363 102.034 86.3648 101.525 86.7563 101.65C87.4026 101.856 88.3068 102.201 88.779 102.673" stroke="black" stroke-width="1.51317" stroke-linecap="round"/>
<path d="M91.0274 104.065C91.8346 104.245 92.6257 104.518 93.4249 104.731C94.3309 104.974 92.981 104.895 92.7586 104.856C92.4076 104.796 90.8971 104.507 90.9203 104.065C90.9414 103.664 91.6763 103.604 91.9852 103.643C92.2362 103.674 92.6117 104.193 92.7407 104.386" stroke="black" stroke-width="1.51317" stroke-linecap="round"/>
<path d="M93.1697 104.387C93.6282 104.246 94.0646 103.801 94.4904 103.578C95.5275 103.034 96.8153 102.68 97.6553 101.84C97.8467 101.649 96.9674 102.617 96.8938 102.679C96.1739 103.285 95.3872 103.867 94.5618 104.28" stroke="black" stroke-width="1.51317" stroke-linecap="round"/>
<path d="M85.7806 115.524C85.8792 115.031 86.5479 114.415 86.905 114.084C87.6048 113.436 88.3715 112.915 89.2311 112.501C90.6385 111.825 92.1014 111.332 93.5561 110.77C93.613 110.748 94.3626 110.415 94.3831 110.538C94.4332 110.839 92.8487 111.251 92.6935 111.3C90.9359 111.847 88.5124 112.119 87.0538 113.334C86.6798 113.646 86.3889 114.574 87.0894 113.656C87.9325 112.55 88.6613 111.529 90.0105 111.014C91.6377 110.393 93.7022 109.624 95.4896 109.747C95.5923 109.754 96.6432 109.963 96.3939 110.062C95.8033 110.299 95.0596 110.307 94.4426 110.407C92.7557 110.681 91 110.972 89.3858 111.55C88.3912 111.906 87.1585 112.993 86.6373 113.917C86.3621 114.405 87.3735 113.382 87.4583 113.287C88.4691 112.155 89.7072 111.085 91.1467 110.538C92.6377 109.972 94.6579 109.915 96.2273 110.122C96.2424 110.124 97.5178 110.294 97.1911 110.467C97.0456 110.544 96.7598 110.491 96.5961 110.491" stroke="black" stroke-width="1.51317" stroke-linecap="round"/>
<path d="M56.9749 85.4326C57.2382 85.4853 57.5202 85.8507 57.7601 85.9799C58.3541 86.2997 58.9202 86.6536 59.5092 86.9794C60.7291 87.6542 62.0493 87.9688 63.3047 88.5619C65.4891 89.5938 67.8543 90.0723 70.2057 90.6084C71.5891 90.9237 72.8881 91.517 74.2749 91.8577C76.9559 92.5161 79.6008 92.8067 82.3597 92.9761C84.5788 93.1124 86.7433 92.9622 88.8026 93.8923C88.9978 93.9804 89.0373 94.0548 88.7789 94.0826C87.9828 94.1682 87.1756 94.0648 86.3992 93.8923C82.9761 93.1316 79.5763 92.3409 76.137 91.6435C73.8506 91.1799 71.5932 90.6287 69.3609 89.9539C67.2988 89.3307 65.1573 89.0605 63.1024 88.431C62.1803 88.1485 61.1255 87.9299 60.3599 87.3125C59.9088 86.9487 59.5627 86.4892 59.1165 86.1227C59.0559 86.0729 58.2354 85.3628 58.48 85.4802C58.9419 85.7019 59.3669 86.0445 59.8066 86.3012C61.1438 87.0816 62.5175 87.6132 64.0067 88.0264C66.3625 88.6801 68.6759 89.5576 71.0743 90.0372C73.5329 90.529 75.9906 90.8688 78.3203 91.8339C80.5915 92.7747 82.949 93.4438 85.3224 94.0767C86.2374 94.3207 89.0536 94.6419 88.1066 94.6419C87.8434 94.6419 87.6166 94.5763 87.363 94.4991C85.2902 93.8678 83.2083 93.3305 81.0926 92.8571C76.3562 91.7973 71.6573 90.3797 66.8682 89.5911C64.1447 89.1426 61.36 88.9963 58.6525 88.4548C58.489 88.4221 58.0411 88.2507 58.2063 88.2287C58.8771 88.1393 59.6441 88.276 60.3064 88.3358C63.5036 88.6246 66.7086 89.0412 69.8963 89.4185C72.9678 89.782 75.8603 90.7897 78.8617 91.471C82.2502 92.2401 85.7217 92.9089 88.993 93.9993" stroke="black" stroke-width="1.51317" stroke-linecap="round"/>
<path d="M90.5996 95.7125C94.2433 95.1295 97.8708 93.7607 101.338 92.5773C103.985 91.6735 106.853 90.7705 109.268 89.3112C109.345 89.2644 109.563 89.1042 109.482 89.1446C108.866 89.4528 108.426 89.8543 107.757 90.1679C103.489 92.1692 98.8209 93.2756 94.3 94.5464C93.5453 94.7586 92.4512 95.0617 91.6586 95.3079C91.5382 95.3453 91.4172 95.3826 91.3016 95.4329C91.1459 95.5006 91.6332 95.358 91.7954 95.3079C99.7692 92.8469 107.646 90.2372 115.407 87.1517C117.888 86.1656 120.367 85.0222 122.933 84.2664C124.361 83.8457 121.834 85.6243 121.63 85.7536C120.74 86.3189 119.839 86.7032 118.858 87.11C116.348 88.1509 113.789 89.1234 111.207 89.9716C107.919 91.0518 104.491 91.6963 101.225 92.8331C100.469 93.0961 100.887 93.0868 101.314 92.9342C103.393 92.1916 105.432 91.3606 107.531 90.6676C112.187 89.1307 116.811 87.6839 121.226 85.5395" stroke="black" stroke-width="1.51317" stroke-linecap="round"/>
<path d="M66.3558 91.2439C66.3304 92.1859 66.1304 93.3663 66.5055 94.2722C66.8307 95.0577 67.5583 95.6403 68.3327 95.9429C69.6262 96.4482 71.0756 96.6135 72.4361 96.8751C73.4652 97.073 74.5156 97.0932 75.5563 96.9874C76.2518 96.9167 77.0179 96.8932 77.6795 96.6472C78.2281 96.4431 78.5217 95.8043 78.7308 95.2964C78.7521 95.2448 78.853 94.9316 78.7751 94.8711C78.7389 94.8429 78.6976 94.9243 78.673 94.9629C78.335 95.492 77.9267 95.9377 77.4685 96.3682C76.901 96.9014 76.2568 97.5692 75.4508 97.6952C74.4745 97.8477 73.465 97.7921 72.5212 97.5046C71.0259 97.0492 69.2026 96.8553 68.2204 95.5209C67.5083 94.5536 67.2808 93.5353 67.152 92.36C67.0989 91.8754 66.9888 91.3253 67.2132 90.8765" stroke="black" stroke-width="1.51317" stroke-linecap="round"/>
<path d="M100.776 94.6135C101.685 95.5222 102.647 96.3989 103.859 96.8864C104.913 97.3103 106.389 97.499 107.503 97.1484C108.553 96.8177 109.709 96.3187 110.616 95.7023C111.315 95.2274 111.855 94.5549 112.147 93.7594C112.327 93.2719 112.386 92.7314 112.409 92.2147C112.411 92.1774 112.342 91.7522 112.304 91.9867C112.274 92.1673 112.312 92.3764 112.321 92.5549C112.355 93.2195 112.358 93.8951 112.195 94.5454C112 95.3256 111.598 96.3179 110.786 96.6278C109.729 97.0313 108.595 97.1555 107.472 97.0701C106.672 97.0092 105.875 96.8921 105.087 96.74C104.693 96.6639 104.346 96.5963 104.009 96.3794C103.125 95.8113 102.348 95.2154 101.579 94.4944C101.539 94.4566 101.281 94.1282 101.358 94.2698C101.687 94.8739 102.059 95.4995 102.593 95.9473C103.409 96.6311 104.433 96.6346 105.444 96.6346C106.237 96.6346 106.938 96.5496 107.697 96.3283" stroke="black" stroke-width="1.51317" stroke-linecap="round"/>
<path d="M85.625 114.825C87.2719 113.086 88.9777 111.698 91.351 111.214C92.4686 110.986 93.5948 110.808 94.723 110.647C95.3698 110.554 95.9782 110.979 96.5416 111.246C96.9359 111.433 97.3392 111.608 97.7451 111.771" stroke="black" stroke-width="1.51317" stroke-linecap="round"/>
<path d="M-6.98399 78.8957C-2.49559 79.9115 2.20589 80.1534 6.77544 80.4627C13.3687 80.909 19.965 81.1987 26.5737 81.0742C27.3731 81.0592 29.7183 80.7586 28.9721 81.0456C28.6089 81.1853 28.0696 81.1497 27.7012 81.1698C23.0158 81.4258 18.3217 81.388 13.636 81.6284C8.89315 81.8718 4.09115 82.7293 -0.668026 82.4789C-1.65408 82.427 -2.87972 82.2832 -3.69701 81.6476C-4.55778 80.9781 -4.54087 81.2887 -4.11744 82.3355C-3.69569 83.3782 -3.28655 84.4213 -2.90393 85.4792C-2.7415 85.9283 -2.01926 87.0914 -2.41662 86.8264C-2.78417 86.5814 -3.45158 85.3385 -3.63968 85.0683C-4.19985 84.2635 -4.70799 83.3752 -5.3405 82.6222C-6.85952 80.8138 -2.82208 86.6366 -1.29867 88.4413C1.40078 91.6391 4.35295 94.5938 7.38697 97.4709C8.33992 98.3746 9.63771 99.3001 10.4828 100.357C10.7461 100.686 9.49827 99.1047 9.4891 99.0953C5.86192 95.3785 1.07974 93.018 -3.16192 90.1134C-6.65632 87.7205 -10.187 84.9686 -12.1247 81.0934C-12.4236 80.4956 -12.8817 79.0444 -12.1055 78.5708C-10.7267 77.7294 -8.70419 77.57 -7.18464 77.3955C-3.7505 77.001 -0.284835 76.9232 3.16359 77.1757C6.32809 77.4075 9.4399 78.0158 12.585 78.3988C15.7413 78.7831 18.9433 78.9124 22.121 78.953C25.2585 78.9931 28.3108 78.9198 31.2844 77.8637C31.6392 77.7377 34.1149 77.2617 33.9121 76.6024C33.7253 75.9953 33.1614 75.5011 32.6508 75.1692C30.5036 73.7735 27.9465 72.9512 25.6182 71.9395C22.8739 70.7471 20.0556 69.5424 17.6301 67.7544C16.8258 67.1614 15.9345 66.3795 15.8911 65.3082C15.8284 63.763 18.3214 63.7433 19.3118 63.6265C26.3501 62.7967 33.4767 64.0357 40.486 63.1774C40.7301 63.1476 45.6439 62.2715 43.8972 61.2377C43.1712 60.8081 42.3565 60.5172 41.5562 60.2631C41.5206 60.2518 39.1481 59.7852 40.1994 59.556C42.4178 59.0725 44.9554 59.1714 47.1746 59.126C54.4719 58.9768 61.7674 58.9114 69.056 58.4667C76.603 58.0063 84.0834 57.1818 91.5392 55.9346C94.5958 55.4233 95.5074 55.2206 98.1323 54.6925C98.4141 54.6358 99.2469 54.5117 98.9636 54.4631C97.3809 54.1918 95.5226 54.2286 93.9567 54.2051C88.5931 54.1249 83.2471 54.2929 77.904 54.7976C62.1543 56.2853 46.5078 59.0399 30.8735 61.4288C30.8521 61.4321 27.3331 61.557 27.2808 62.2888C27.2133 63.2339 29.0765 64.3467 27.2904 64.1234C26.2193 63.9895 27.725 64.9456 27.8923 65.0789C29.7923 66.5918 31.7419 68.0466 33.6923 69.4934C34.0515 69.7598 35.8678 70.8118 36.2053 71.4235C36.4762 71.9145 35.1507 71.0397 34.6383 70.812" stroke="black" stroke-width="1.51317" stroke-linecap="round"/>
<path d="M101.371 50.8613C102.359 51.2618 103.305 51.9952 104.18 52.543C108.854 55.4666 113.701 58.074 118.838 60.1107C129.676 64.4077 141.204 66.7777 152.74 68.2326C153.407 68.3168 151.451 67.8395 150.829 67.5829C145.85 65.5281 140.592 64.0502 135.235 63.4072C134.39 63.3059 132.979 63.0448 132.1 63.2066C131.994 63.2261 132.303 63.2819 132.406 63.3117C135.512 64.2037 132.14 63.1549 136.763 64.5921C142.6 66.4064 148.594 68.8701 154.727 69.4557C156.264 69.6024 157.81 69.5993 159.352 69.6085C159.489 69.6094 159.626 69.6085 159.763 69.6085C160.126 69.6085 159.036 69.607 158.673 69.599C154.384 69.5047 149.943 71.0512 145.994 72.6089C145.409 72.8396 144.943 73.0518 145.879 73.0102C147.55 72.9359 149.216 72.7458 150.886 72.6471C150.936 72.6441 153.761 72.3096 154.001 72.6566C154.046 72.7215 153.901 72.7872 153.829 72.8191C153.233 73.0821 150.387 73.9922 150.351 74.0039C146.76 75.159 143.15 76.2559 139.563 77.4247C138.716 77.7005 136.22 78.4004 137.107 78.4757C137.538 78.5123 141.751 78.1071 141.751 78.6382C141.751 78.9687 141.206 79.0152 140.91 79.1637C139.467 79.8899 138.015 80.606 136.544 81.2754C134.744 82.0944 132.82 83.0078 130.897 83.5209C129.496 83.8944 127.847 83.7862 126.406 83.9604C126.031 84.0057 125.018 83.9359 125.297 84.1897C125.649 84.5094 127.806 84.5753 128.183 84.6675C129.854 85.076 131.498 85.6064 133.132 86.139C133.362 86.2139 134.568 86.4801 134.833 86.8078C135.74 87.9276 138.441 89.0328 139.687 89.6744C150.131 95.0511 161.569 98.3739 173.149 100.204C175.078 100.509 179.175 101.449 181.329 100.825C182.366 100.525 179.732 99.2823 178.72 98.9047C177.393 98.4094 176.052 98.1135 174.64 98.0256C173.768 97.9713 172.718 98.1572 171.859 97.9491C171.824 97.9407 173.772 96.0687 174 95.761C174.891 94.5574 171.414 97.3718 170.455 98.5224C169.901 99.1873 170.304 98.7987 170.512 98.9238C170.782 99.0857 170.186 99.471 169.958 99.6882C168.859 100.735 167.29 102.003 166.155 102.899C164.138 104.49 162.004 105.935 160.002 107.543C159.914 107.613 159.66 107.799 159.772 107.791C160.386 107.747 160.895 107.284 161.454 107.027C162.993 106.317 164.534 105.611 166.088 104.934C166.78 104.633 167.978 103.936 168.811 103.912C169.166 103.901 168.856 104.675 168.649 104.963C167.387 106.715 165.681 108.168 164.091 109.606C163.619 110.033 163.136 110.447 162.658 110.868C162.34 111.148 161.362 111.659 161.769 111.775C162.639 112.024 164.594 110.954 165.438 110.686C165.793 110.574 166.581 110.043 166.518 110.409C166.42 110.981 164.55 112.654 164.416 112.788C162.679 114.525 160.819 116.1 158.95 117.69C158.605 117.984 157.074 119.025 156.896 119.649C156.841 119.842 157.462 119.731 157.326 120.002C156.574 121.506 153.658 123.225 152.529 124.025C148.684 126.752 144.568 129.603 140.241 131.526" stroke="black" stroke-width="1.51317" stroke-linecap="round"/>
<path d="M59.0055 56.8712C61.2443 54.0726 66.5789 53.2743 69.7209 52.8778C79.9293 51.5895 90.3681 51.7511 100.636 51.1807" stroke="black" stroke-width="1.51317" stroke-linecap="round"/>
<path d="M50.3198 57.7692C52.5123 57.2633 54.6401 56.5344 56.809 55.9389C63.3064 54.155 69.8517 53.0256 76.5427 52.2451C85.8662 51.1576 95.161 50.6287 104.529 50.2817" stroke="black" stroke-width="1.51317" stroke-linecap="round"/>
<path d="M91.0518 52.3784C98.9625 52.8834 107.212 54.8629 114.879 56.7711C118.528 57.6794 122.892 58.3307 126.093 60.4649" stroke="black" stroke-width="1.51317" stroke-linecap="round"/>
<path d="M19.4718 67.6528C24.7649 70.6949 30.1073 74.1226 35.8777 76.2052C40.225 77.7742 44.8644 78.2279 49.4217 78.7343" stroke="black" stroke-width="1.51317" stroke-linecap="round"/>
<path d="M21.8676 69.1504C24.7885 70.1813 27.6049 71.8829 30.5031 73.0272C39.0346 76.3959 47.5927 77.3415 56.6095 78.7344" stroke="black" stroke-width="1.51317" stroke-linecap="round"/>
<path d="M156.642 73.0439C156.642 74.684 155.485 76.1578 154.146 77.0373C151.05 79.0711 146.838 79.8078 143.331 80.5481C135.735 82.1516 128.067 82.9613 120.403 84.1254" stroke="black" stroke-width="1.51317" stroke-linecap="round"/>
<path d="M150.053 74.2417C147.042 76.8763 142.106 77.9907 138.506 79.2999C132.402 81.5193 126.767 83.0838 120.403 84.1252" stroke="black" stroke-width="1.51317" stroke-linecap="round"/>
<path d="M151.85 73.3433C146.589 78.8244 138.38 80.5425 131.152 81.6294C128.954 81.9599 122.131 82.7935 119.771 83.0604C118.378 83.2179 116.958 83.6396 115.578 83.3931C115.549 83.388 117.004 82.6695 117.108 82.6277" stroke="black" stroke-width="1.51317" stroke-linecap="round"/>
<path d="M149.154 76.937C147.008 78.8791 143.788 79.8048 141.101 80.6308C132.43 83.2971 123.619 84.7715 114.712 86.2215" stroke="black" stroke-width="1.51317" stroke-linecap="round"/>
<path d="M16.776 67.3535C21.6676 67.8684 26.5717 71.0654 30.919 73.1106C34.6408 74.8615 38.2316 76.0675 42.2334 76.9375" stroke="black" stroke-width="1.51317" stroke-linecap="round"/>
<path d="M20.6697 70.9473C26.4793 72.8086 32.158 75.2926 38.1238 76.6211C45.6469 78.2964 53.4558 78.6012 61.1021 79.3332" stroke="black" stroke-width="1.51317" stroke-linecap="round"/>
<path d="M24.8625 73.0439C29.0867 74.388 32.8245 76.7704 37.1919 77.8193C43.924 79.436 50.9329 79.5451 57.8075 79.9324" stroke="black" stroke-width="1.51317" stroke-linecap="round"/>
<path d="M70.6373 91.4707C70.6373 91.9691 70.5038 92.7192 70.7187 93.1796C70.858 93.4782 71.8601 92.0936 71.919 92.02" stroke="black" stroke-width="1.51317" stroke-linecap="round"/>
<path d="M72.0105 91.9287C72.182 92.7006 72.0883 93.5411 72.0613 94.3242C72.0303 95.2258 72.6143 93.3969 72.7225 93.1748C73.0329 92.5378 72.979 92.7455 73.0379 93.2307C73.0428 93.2714 73.1016 93.5749 73.2006 93.424C73.2588 93.3354 73.6754 92.4898 73.7245 92.534C73.946 92.7333 73.7215 93.8177 73.755 94.1361C73.779 94.3637 74.3314 92.8274 74.3958 93.4393C74.4141 93.6123 74.5387 93.7061 74.3195 93.8004C73.4568 94.1717 72.2117 94.1993 71.3391 93.8614C71.1588 93.7916 69.1322 92.5201 69.5844 92.2186C69.755 92.1049 70.1028 92.3354 70.1592 92.4983C70.3679 93.1014 70.9613 93.4097 71.4612 93.7597" stroke="black" stroke-width="1.51317" stroke-linecap="round"/>
<path d="M102.679 93.3017C103.537 93.5597 104.332 93.6914 105.232 93.734C106.193 93.7796 107.446 93.9381 108.396 93.6883C108.817 93.5774 108.721 92.9045 108.721 92.5693" stroke="black" stroke-width="1.51317" stroke-linecap="round"/>
<path d="M108.172 92.2031C107.476 94.4479 104.606 94.2163 102.817 93.8154C102.092 93.6529 102.354 93.4473 102.944 93.5052C103.661 93.5754 106.434 94.4012 106.367 93.0627C106.359 92.91 105.265 94.0147 105.192 94.085C104.573 94.6839 103.934 95.1475 103.03 95.031C102.829 95.005 102.672 94.7898 102.695 94.5834C102.748 94.1044 103.921 94.3669 104.185 94.38C104.776 94.4093 105.774 94.5832 106.321 94.2884C106.518 94.1826 106.714 93.4906 106.586 93.673C105.966 94.5512 104.613 94.9878 103.605 95.1836C103.403 95.2229 101.476 95.3155 102.466 95.1327C102.952 95.0429 103.439 95.1231 103.854 94.8275C104.4 94.4396 104.926 94.0207 105.426 93.5764" stroke="black" stroke-width="1.51317" stroke-linecap="round"/>
<path d="M107.666 92.2656C107.231 93.2621 106.848 94.4969 106.13 95.3474C105.761 95.7847 105.179 95.7789 104.656 95.8284C103.766 95.9125 104.293 95.7318 104.803 95.5478C105.396 95.3336 105.86 95.3657 106.063 94.7551C106.073 94.7261 106.222 94.4025 106.108 94.5948C105.849 95.0311 105.379 95.2818 104.928 95.4766C104.732 95.5609 104.12 95.7361 104.331 95.7037C104.631 95.6575 104.903 95.5266 105.173 95.392C106.049 94.9539 106.471 93.8808 106.954 93.0762C106.997 93.0052 107.211 92.5352 107.23 92.5818C107.537 93.3281 107.291 94.4024 106.883 95.049C106.292 95.9856 105.203 96.3781 104.184 96.6656C103.843 96.762 102.916 96.8447 103.658 96.443C104.119 96.1937 104.617 96.035 105.092 95.8195C105.851 95.4756 106.514 94.9827 107.141 94.4389C107.426 94.1917 107.734 93.8713 107.747 93.4681C107.748 93.4295 107.749 93.5454 107.747 93.5838C107.705 94.1566 107.516 94.7323 107.319 95.2673C107.167 95.681 107.069 95.7958 106.767 96.0154C106.614 96.1265 106.149 96.0367 105.965 96.0333C104.718 96.0097 103.457 95.8215 102.215 95.7126" stroke="black" stroke-width="1.51317" stroke-linecap="round"/>
<path d="M70.7918 92.7465C70.297 93.6404 69.4864 94.2054 68.5339 94.5546C68.4067 94.6013 66.9439 94.9316 67.7501 94.4299C68.2665 94.1086 68.9416 94.1022 69.527 94.1449C70.7941 94.2373 71.9668 94.2226 73.2323 94.0291C73.4407 93.9973 74.6186 93.9399 74.7153 93.6016C74.7318 93.5438 74.6235 93.679 74.5773 93.7174C73.9523 94.2361 73.2959 94.7238 72.6489 95.2137C71.9661 95.7308 70.2948 97.0317 70.2663 96.1757C70.2591 95.9584 70.4904 95.6988 70.6003 95.5388C70.8979 95.106 71.0847 94.6862 71.0189 94.1494C70.865 92.892 69.4651 92.7504 68.4938 92.3012C68.3047 92.2137 68.2359 92.1922 68.1331 92.4081C67.6717 93.377 67.838 94.5189 68.5295 95.3295C70.2897 97.3932 71.6554 93.1231 70.3687 91.7534C70.2391 91.6155 69.4815 91.0407 69.3489 91.4639C69.1307 92.1603 69.0664 93.1571 69.3578 93.8332C69.4663 94.0849 69.9124 94.8348 70.3019 94.715C70.9617 94.5119 70.4421 92.9728 70.2529 92.6664C69.8762 92.056 68.7481 90.9713 67.9327 91.0186C67.4041 91.0492 68.4686 93.125 68.6096 93.272C69.1634 93.8496 69.9449 94.2518 70.7517 94.2518C71.6186 94.2518 70.7027 92.9307 70.44 92.6396C70.0885 92.2502 69.2224 91.8284 68.672 92.0162C68.1152 92.2061 68.4141 94.3855 68.5116 94.7684C68.7939 95.8764 69.7289 96.3233 70.8141 96.2113C72.0508 96.0837 72.7108 95.2895 72.355 94.0558C72.3354 93.9879 71.7501 92.7007 71.5311 92.9781C71.1928 93.4066 71.6286 94.6714 71.8785 95.0534C72.1642 95.4903 72.7332 95.0113 72.5198 94.5992C72.3214 94.2162 71.7748 93.9673 71.5934 94.2696" stroke="black" stroke-width="1.51317" stroke-linecap="round"/>
<path d="M108.285 92.2705C108.285 93.327 108.38 95.4739 106.998 95.7043" stroke="black" stroke-width="1.51317" stroke-linecap="round"/>
<path d="M71.8013 92.6997C71.9457 93.5657 71.1786 94.0378 70.6567 94.5597" stroke="black" stroke-width="1.51317" stroke-linecap="round"/>
<path d="M85.5365 100.711C87.1317 101.137 88.6312 101.893 90.2738 102.11C90.6747 102.163 90.6105 102.166 90.242 102.206C89.6663 102.267 89.1478 101.968 88.6364 101.745C87.866 101.408 86.5589 101.124 88.1754 101.141C88.9801 101.149 89.6562 101.291 90.401 101.57" stroke="black" stroke-width="1.51317" stroke-linecap="round"/>
<path d="M96.2672 101.999C95.0566 102.769 91.2468 104.761 92.4281 103.946C93.5218 103.192 94.9411 103.008 96.0128 102.293C96.2144 102.159 95.5294 102.33 95.2895 102.365C94.6797 102.452 94.069 102.534 93.4614 102.635C92.2994 102.829 94.0649 102.418 94.3198 102.365C94.8627 102.252 96.4703 101.841 95.9493 102.031C94.7447 102.469 93.3306 102.5 92.0704 102.651C91.4086 102.73 91.5533 102.655 92.0545 102.54C92.7539 102.379 93.4631 102.27 94.1688 102.142C95.3089 101.936 96.4531 101.766 97.5548 101.427" stroke="black" stroke-width="1.51317" stroke-linecap="round"/>
<path d="M90.9736 102.143C92.0579 101.958 93.0252 101.856 94.1212 101.856" stroke="black" stroke-width="1.51317" stroke-linecap="round"/>
<path d="M96.696 101.141C96.6484 101.337 96.3756 101.902 96.6801 101.682C96.8586 101.553 97.6474 101.126 97.6021 101.173C97.4104 101.373 96.8178 101.957 97.0139 101.761C97.1727 101.602 97.1938 101.5 97.4113 101.427" stroke="black" stroke-width="1.51317" stroke-linecap="round"/>
<path d="M92.6902 96.2769C93.1299 96.3868 91.7912 96.3984 91.3389 96.4279C90.6244 96.4745 90.4676 96.4841 89.7572 96.5631C89.3797 96.605 88.4418 96.9777 88.6205 96.6425C88.9044 96.1104 91.4181 96.2387 91.8715 96.2133C92.684 96.1678 95.1255 96.1338 94.3117 96.1338C93.7546 96.1338 93.1623 96.1614 92.6266 95.9828C91.9673 95.7631 93.224 95.381 93.3896 95.3072C93.5589 95.2318 94.3293 94.9893 94.1765 94.9893C93.3472 94.9893 92.518 94.9893 91.6887 94.9893" stroke="black" stroke-width="1.51317" stroke-linecap="round"/>
<path d="M91.6885 94.7029C91.1189 94.7029 92.1548 94.7029 92.3085 94.7029C92.7915 94.7029 91.3459 94.6097 90.8698 94.5281C89.7605 94.3379 88.6403 94.1742 87.5394 93.9399C86.9321 93.8106 86.7789 93.7042 87.4519 93.6378C89.1851 93.4669 90.9588 93.5583 92.6979 93.5583C93.0662 93.5583 94.171 93.5663 93.8028 93.5583C92.9762 93.5406 92.1545 93.4863 91.3308 93.4153C90.8638 93.375 89.5631 93.4876 89.9398 93.2086C90.2866 92.9517 91.2413 92.8965 91.601 92.843C93.0108 92.6333 97.2621 92.6146 95.8535 92.3979C93.5365 92.0414 91.1299 92.1486 88.7952 92.1276C88.173 92.122 86.3464 92.1697 86.9353 91.9686C87.5203 91.7689 88.1604 91.7125 88.7634 91.5871C89.936 91.3432 88.7488 91.5274 88.6998 91.3804C88.6915 91.3554 95.0491 90.065 95.5355 89.9656C96.06 89.8585 97.6279 89.6067 97.0934 89.5761C95.9318 89.5098 94.6871 89.6574 93.5325 89.6954C91.918 89.7485 90.2687 89.8777 88.6522 89.8066C88.0386 89.7797 88.274 89.6236 88.6045 89.4092C90.1047 88.4361 87.9686 89.4484 87.9686 88.4077" stroke="black" stroke-width="1.51317" stroke-linecap="round"/>
<path d="M137.801 116.87C138.163 116.99 138.457 117.239 138.828 117.346C139.823 117.634 139.715 116.988 140.44 116.65" stroke="black" stroke-width="1.51317" stroke-linecap="round"/>
<path d="M140.66 116.43C142.329 117.008 143.727 114.877 144.716 113.767C145.117 113.317 145.358 112.337 145.95 112.447C146.351 112.523 146.426 113.058 146.891 113.058C148.686 113.058 150.059 110.506 150.568 109.1C150.677 108.798 150.507 108.123 150.824 108.172C151.123 108.218 151.825 109.756 151.973 109.955C152.442 110.588 152.998 111.201 153.683 111.605C154.461 112.063 154.669 111.071 154.905 110.468C155.567 108.779 156.148 107.027 156.627 105.276C156.952 104.089 157.043 102.749 157.568 101.624C157.862 100.994 158.31 102.815 158.619 103.016C160.208 104.053 163.48 99.0647 164.189 98.1787" stroke="black" stroke-width="1.51317" stroke-linecap="round"/>
<path d="M49.4041 109.173C47.0459 109.173 44.2274 110.353 42.0621 110.994C38.5718 112.027 37.3205 112.385 33.8282 113.852C23.2581 118.292 12.9522 123.465 2.56641 128.304" stroke="black" stroke-width="1.51317" stroke-linecap="round"/>
<path d="M53.1422 118.849C47.5419 124.814 40.9587 129.97 34.8175 135.365C34.5516 135.599 29.9898 139.585 29.4668 140.056C27.4905 141.837 25.9186 143.761 24.116 145.676" stroke="black" stroke-width="1.51317" stroke-linecap="round"/>
<path d="M124.168 117.089C124.618 117.409 125.115 117.742 125.463 118.164C130.263 123.997 133.764 131.304 137.093 137.979C139.831 143.468 142.432 148.97 144.509 154.74C145.328 157.018 145.436 158.076 145.498 160.189" stroke="black" stroke-width="1.51317" stroke-linecap="round"/>
<path d="M52.0345 90.4825C51.7834 90.4825 50.0529 90.412 50.8631 90.4825C51.8387 90.5673 50.2211 91.6236 50.0616 91.7463C49.4029 92.253 50.8475 92.075 50.5548 92.386C50.4059 92.5442 48.6555 93.4914 48.7515 93.5188C49.5697 93.7526 50.2001 93.3756 48.9134 94.2663C48.4423 94.5924 46.2558 95.5219 47.426 96.0234C47.6213 96.1071 47.0501 97.326 47.4106 97.6957C47.9497 98.2486 47.7141 98.3563 47.7343 99.0829C47.7492 99.6186 48.7985 99.2754 49.1368 99.3911C49.5729 99.5403 49.2565 100.45 49.8921 100.64C50.9457 100.953 52.0909 100.993 53.175 101.133C54.1649 101.261 54.3948 101.242 54.0381 102.219C53.8178 102.823 53.6084 103.145 53.8994 103.56C54.2849 104.111 53.2573 104.825 54.1229 105.171C54.9998 105.522 57.1193 104.997 57.6679 105.757C58.0034 106.221 58.3749 106.652 58.6928 107.128" stroke="black" stroke-width="1.51317" stroke-linecap="round"/>
<path d="M119.728 101.857C120.323 102.359 121.07 103.216 121.831 103.46C122.17 103.569 122.284 102.873 122.332 102.674C122.522 101.885 123.369 103.502 123.488 102.713C123.55 102.304 123.731 99.5108 124.552 100.116C124.8 100.299 125.288 101.272 125.253 100.393C125.223 99.631 124.629 98.342 124.906 97.634C124.932 97.5674 126.369 98.992 126.571 99.1599C127.263 99.7343 126.331 96.2563 126.463 96.2931C126.751 96.3736 127.695 96.9842 127.503 96.2392C127.238 95.2071 126.647 94.2144 126.17 93.2722C125.998 92.9319 125.376 91.9852 125.646 92.2549C126.453 93.0623 124.967 90.7364 124.875 90.4516C124.807 90.2385 125.275 90.4245 125.353 90.2513C125.543 89.8304 124.935 89.1391 124.721 88.8179" stroke="black" stroke-width="1.51317" stroke-linecap="round"/>
<path d="M60.1575 62.4658C60.0577 63.6646 59.0915 64.7547 58.5506 65.7733C58.195 66.443 58.2968 67.2386 58.4726 67.9418" stroke="black" stroke-width="1.51317" stroke-linecap="round"/>
<path d="M61.7021 63.4482C61.3546 63.6378 61.1997 64.2019 61.0546 64.5403C60.6989 65.3703 60.2719 66.1648 59.908 66.9897C59.3682 68.2131 59.6374 69.6037 59.7363 70.89" stroke="black" stroke-width="1.51317" stroke-linecap="round"/>
<path d="M127.62 74.6865C125.747 76.3887 123.602 77.721 121.418 78.9928C120.2 79.7021 118.959 80.3722 117.708 81.0214C117.078 81.3484 116.439 81.6627 115.777 81.92C115.329 82.0945 116.637 81.4864 117.067 81.2705C121.679 78.9577 126.65 76.8279 130.235 72.9693C131.256 71.871 132.579 69.5029 132.371 67.8C132.235 66.6898 129.794 66.5293 129.212 66.412C126.858 65.9371 124.488 65.542 122.174 64.8817C120.626 64.4398 117.826 63.9148 118.046 61.7854C118.291 59.4219 125.948 64.2223 125.982 64.2411C131.792 67.4017 137.402 70.9344 143.101 74.2861C144.438 75.0724 145.792 75.8288 147.122 76.6261C147.762 77.0094 148.417 77.3743 149.009 77.8273C149.208 77.9801 149.465 78.1719 149.471 78.4234C149.481 78.7946 147.671 80.2499 147.469 80.4431C146.691 81.1905 145.902 81.9598 144.934 82.4628C143.926 82.9862 142.833 83.1745 141.713 83.1745" stroke="black" stroke-width="1.51317" stroke-linecap="round"/>
<path d="M117.105 72.7178C117.071 73.5765 117.027 74.6626 116.439 75.3431C116.082 75.756 115.484 76.5527 114.879 76.5527" stroke="black" stroke-width="1.51317" stroke-linecap="round"/>
<path d="M118.342 72.7178C118.23 74.0404 117.97 75.4093 117.511 76.6558C117.008 78.0216 116.168 78.7235 115.126 79.6453" stroke="black" stroke-width="1.51317" stroke-linecap="round"/>
<path d="M74.3478 92.6617C74.4418 92.8145 74.4196 92.9019 74.3712 93.0975C74.1864 93.8452 73.8847 94.5934 73.5324 95.2766C73.3142 95.6996 73.0077 96.2028 72.492 96.2888C72.2676 96.3262 72.0618 96.4673 71.8266 96.4575C71.5428 96.4457 72.2978 96.1295 72.4827 95.9139C72.9418 95.3783 73.7573 94.6212 73.7573 93.8426C73.7573 93.2298 73.7577 94.0151 73.7011 94.2456C73.5674 94.7901 73.0623 95.4561 72.6561 95.8623C72.0947 96.4237 72.8716 95.3408 72.9326 95.136C73.1758 94.3195 73.2565 93.7365 72.8341 92.9709C72.4216 92.2232 71.2418 92.3243 70.5238 92.3243C69.6864 92.3243 68.924 92.2898 68.1714 91.8837C67.9454 91.7619 67.6998 91.6257 67.4872 91.4807C67.1061 91.2209 68.1941 92.0733 68.5463 92.3711C68.9744 92.7332 69.4558 93.152 69.999 93.3365C70.1164 93.3763 70.5259 93.5786 70.2192 93.4302C69.5545 93.1086 68.7992 92.4617 68.4853 91.7713C68.3036 91.3715 68.2733 91.3511 68.0214 91.715C67.8137 92.0151 67.6366 92.2098 67.4778 92.5726C67.4021 92.7456 67.5153 93.3963 67.5153 93.0834" stroke="black" stroke-width="1.51317" stroke-linecap="round"/>
<path d="M102.268 94.2643C102.215 94.6096 102 94.8002 101.762 95.0234C101.686 95.0949 101.652 95.051 101.701 94.9578C101.926 94.5319 102.365 94.1654 102.709 93.8425C103.079 93.4959 103.475 93.0856 103.965 92.9147C104.719 92.6513 105.543 92.5666 106.327 92.4273C107.322 92.2503 105.233 93.2743 105.174 93.2989C103.884 93.8364 102.56 94.3182 101.2 94.6486C100.936 94.7127 100.241 95.0196 100.399 94.7985C100.557 94.5775 100.988 94.4161 101.219 94.3018C101.855 93.9865 102.522 93.7196 103.178 93.4489C103.604 93.2729 104.008 93.2705 104.462 93.2146C104.94 93.1555 105.394 92.9969 105.867 92.924C106.3 92.8574 106.73 92.7477 107.161 92.6616" stroke="black" stroke-width="1.51317" stroke-linecap="round"/>
<path d="M107.836 92.3237C107.855 92.5 108.043 92.6503 108.136 92.7924C108.296 93.0378 108.34 93.3229 108.426 93.5984C108.568 94.052 108.511 94.5514 108.511 95.023" stroke="black" stroke-width="1.51317" stroke-linecap="round"/>
<path d="M91.8 107.622C91.7823 108.005 91.772 108.398 91.7085 108.776C91.6946 108.859 91.7115 109.051 91.6353 109.017C91.5387 108.973 91.5743 108.813 91.5575 108.708C91.5254 108.507 91.5104 108.304 91.4889 108.102C91.4601 107.83 91.4501 107.532 91.3929 107.26C91.3872 107.233 91.3943 107.315 91.3975 107.343C91.4691 107.961 91.4295 109.831 91.4295 109.209C91.4295 108.28 91.3883 107.351 91.3883 106.428" stroke="black" stroke-width="1.51317" stroke-linecap="round"/>
<path d="M91.2235 105.975C91.4695 106.852 91.6598 107.738 91.8364 108.632C91.9357 109.135 92.0696 109.649 92.0857 110.164C92.0863 110.183 92.0947 110.633 92.0468 110.558C91.9387 110.389 91.8822 110.045 91.8822 109.844" stroke="black" stroke-width="1.51317" stroke-linecap="round"/>
<path d="M93.6525 107.251C93.7379 107.24 93.8782 106.958 93.9223 106.908C94.6009 106.128 95.4752 105.529 96.2139 104.808C96.5067 104.523 96.7449 104.198 97.0234 103.9C97.4112 103.486 97.8417 103.119 98.2904 102.773C98.4308 102.664 98.757 102.339 98.757 102.517" stroke="black" stroke-width="1.51317" stroke-linecap="round"/>
</g>
</svg>
